<?xml version="1.0" encoding="UTF-8"?>
<!DOCTYPE svg PUBLIC "-//W3C//DTD SVG 1.1//EN" "http://www.w3.org/Graphics/SVG/1.1/DTD/svg11.dtd">
<!-- Creator: CorelDRAW 2021.5 -->
<svg xmlns="http://www.w3.org/2000/svg" xml:space="preserve" width="0.703331in" height="0.363331in" version="1.1" style="shape-rendering:geometricPrecision; text-rendering:geometricPrecision; image-rendering:optimizeQuality; fill-rule:evenodd; clip-rule:evenodd"
viewBox="0 0 700.01 361.61"
 xmlns:xlink="http://www.w3.org/1999/xlink"
 xmlns:xodm="http://www.corel.com/coreldraw/odm/2003">
 <defs>
  <style type="text/css">
   <![CDATA[
    .str0 {stroke:#00CCFF;stroke-width:2.99;stroke-miterlimit:2.61313}
    .fil0 {fill:none}
    .fil9 {fill:none;fill-rule:nonzero}
    .fil11 {fill:#00CCFF}
    .fil10 {fill:black;fill-rule:nonzero}
    .fil7 {fill:url(#id0)}
    .fil2 {fill:url(#id1)}
    .fil3 {fill:url(#id2)}
    .fil1 {fill:url(#id3)}
    .fil5 {fill:url(#id4)}
    .fil6 {fill:url(#id5)}
    .fil4 {fill:url(#id6)}
    .fil8 {fill:url(#id7)}
   ]]>
  </style>
  <linearGradient id="id0" gradientUnits="userSpaceOnUse" x1="118.21" y1="103.89" x2="158.58" y2="136.23">
   <stop offset="0" style="stop-opacity:1; stop-color:#3DC5EB"/>
   <stop offset="1" style="stop-opacity:1; stop-color:#438BC9"/>
  </linearGradient>
  <linearGradient id="id1" gradientUnits="userSpaceOnUse" xlink:href="#id0" x1="124.21" y1="56.19" x2="144.29" y2="109.29">
  </linearGradient>
  <linearGradient id="id2" gradientUnits="userSpaceOnUse" xlink:href="#id0" x1="163.3" y1="190.11" x2="233.16" y2="213.8">
  </linearGradient>
  <linearGradient id="id3" gradientUnits="userSpaceOnUse" xlink:href="#id0" x1="21.98" y1="156.62" x2="137.95" y2="204.67">
  </linearGradient>
  <linearGradient id="id4" gradientUnits="userSpaceOnUse" xlink:href="#id0" x1="122.52" y1="173.02" x2="250.8" y2="220.49">
  </linearGradient>
  <linearGradient id="id5" gradientUnits="userSpaceOnUse" xlink:href="#id0" x1="131.65" y1="138.81" x2="208.85" y2="170.01">
  </linearGradient>
  <linearGradient id="id6" gradientUnits="userSpaceOnUse" xlink:href="#id0" x1="35.54" y1="190.27" x2="105.05" y2="213.72">
  </linearGradient>
  <linearGradient id="id7" gradientUnits="userSpaceOnUse" xlink:href="#id0" x1="457.73" y1="139.62" x2="495.53" y2="266.75">
  </linearGradient>
 </defs>
 <g id="Layer_x0020_1">
  <metadata id="CorelCorpID_0Corel-Layer"/>
  <rect class="fil0" width="700.01" height="361.61"/>
  <g id="_1955234481248">
   <g>
    <path class="fil1" d="M114.52 204.6c0.91,-0.94 7.32,-12.43 8.02,-14.08 1.98,2.09 14.82,24.33 16.55,28.21 -1.22,2.94 -23.85,41.57 -25.3,42.68 -1.45,-4.6 -34.38,-59.57 -38.27,-66.35 -3.59,-6.27 -2.26,-4.82 4.53,-16.94l14.42 -24.91c6.19,-10.33 1.37,-5.25 -7.43,-24.83l-16.65 0.04 10.74 18.92 -16.21 28.04c-0.55,-0.47 -0.57,-0.44 -1.1,-1.14l-21.2 -36.6c-4.61,-8.06 -18.71,-31.32 -21.77,-37.75l82.29 -0.03 26.51 45.45c1.59,3.08 -0.24,4.58 -1.64,7.04l-18.89 32.71c-1.33,2.35 -3.38,4.31 -2.48,6.5 0.89,2.16 6.68,11.86 7.88,13.03z"/>
    <path class="fil2" d="M64.42 97.48c6.38,0.43 13.7,0.06 20.19,0.09 9.72,0.05 5.09,-0.85 15.41,-5.42 22.14,-9.77 45.96,-10.23 68.3,-0.06 5.82,2.65 7.5,5.56 14.82,5.49 6.97,-0.06 14,0.13 20.95,-0.04 -2.74,-5.51 -21.02,-17.1 -28.73,-20.63 -38.72,-17.67 -81.21,-9.04 -110.93,20.57z"/>
    <path class="fil3" d="M164.33 258.54c34.88,-9.58 67.72,-47.52 67.8,-90.89 0.02,-7.24 -0.4,-15.54 -2.15,-22.29l-8.53 13.95c-4.89,8.12 -5.78,8.31 -6.6,15.57 -2.63,23.06 -15.09,43.46 -32.93,56.26 -5.19,3.73 -5.18,5.51 -9.35,12.81 -2.38,4.17 -6.77,10.68 -8.24,14.58z"/>
    <path class="fil4" d="M103.98 258.51c-0.84,-2.82 -6.02,-10.95 -7.97,-14.22 -2.7,-4.54 -4.51,-9.8 -9.15,-13.01 -17.4,-12.05 -30.29,-33.28 -32.99,-55.65 -1,-8.33 -1.58,-6.9 -6.54,-15.6 -2.52,-4.4 -6.32,-10.21 -8.26,-14.55 -4.22,7 -2.15,32.53 -0.27,41.13 2.58,11.83 7.73,23.68 13.44,32.04 11.81,17.31 27.42,32.15 51.74,39.87z"/>
    <polygon class="fil5" points="123.2,267.36 138.32,293.82 250.12,99.68 219.42,99.75 "/>
    <polygon class="fil6" points="131.17,182.68 146.3,209.14 209.33,99.68 178.63,99.75 "/>
    <polygon class="fil7" points="109.55,99.78 133.27,140.43 140.74,126.8 152.07,126.79 167.23,99.68 "/>
   </g>
   <path class="fil8" d="M284.94 235.18l-10.84 -49.63 25.16 0 5.09 24.17 17.35 -24.17 25.25 0 4.4 24.17 17.51 -24.17 23.26 0 -36.22 49.63 -23.51 0 -5.03 -25.46 -19.64 25.46 -22.79 0zm-31.11 -85.61l27.12 1.3c0.4,1.15 0.92,1.92 1.56,2.31 1.42,0.86 3.65,1.29 6.72,1.29 4.53,0 7.1,-1.02 7.64,-3.04 0.25,-0.93 -0.11,-1.58 -1.09,-1.94 -0.56,-0.21 -5.31,-0.95 -14.3,-2.21 -8.19,-1.14 -13.66,-2.31 -16.36,-3.53 -5.46,-2.47 -7.4,-6.7 -5.8,-12.67 1.09,-4.09 3.37,-7.49 6.84,-10.2 3.73,-2.94 8.84,-4.94 15.34,-5.99 3.79,-0.62 8.65,-0.93 14.62,-0.93 14.08,0 23.46,1.81 28.1,5.43 2.47,1.92 3.94,4.29 4.38,7.06 0.18,1.04 0.23,2.51 0.17,4.42l-28.9 -0.97c-0.89,-1.52 -3.24,-2.28 -7.04,-2.28 -2.6,0 -4.4,0.23 -5.35,0.67 -0.9,0.45 -1.44,1.06 -1.65,1.84 -0.17,0.61 -0.08,1.09 0.24,1.45 0.64,0.65 2.85,1.07 6.67,1.3 8.22,0.49 14.97,1.34 20.25,2.56 5.38,1.22 8.98,2.92 10.81,5.13 2.06,2.54 2.54,5.84 1.46,9.88 -1.58,5.91 -5.57,10.24 -11.97,13.04 -4.3,1.87 -8.74,3.07 -13.3,3.62 -4.31,0.48 -8.84,0.72 -13.54,0.72 -14.41,0 -23.94,-1.87 -28.59,-5.6 -2.68,-2.11 -4.15,-4.69 -4.4,-7.71 -0.08,-1.16 0.05,-2.81 0.36,-4.96zm66.28 16.19l17.7 -66.08 22.7 0 -17.71 66.08 -22.68 0zm101.42 -14.46c-1.81,3.25 -3.73,5.78 -5.76,7.58 -6.82,5.98 -17.84,8.97 -33.04,8.97 -13.46,0 -22.9,-1.96 -28.37,-5.9 -2.84,-2.03 -4.64,-5.05 -5.42,-9.05 -0.71,-3.83 -0.48,-8 0.73,-12.46 1.54,-5.77 4.25,-10.69 8.11,-14.75 4.21,-4.38 10.5,-7.59 18.86,-9.66 5.65,-1.39 11.6,-2.08 17.82,-2.08 9.1,0 16.42,1.47 21.95,4.41 4.82,2.56 7.61,6.29 8.35,11.24 0.56,3.58 -0.14,9.4 -2.1,17.44l-49.69 0c0.13,2.79 0.97,4.71 2.53,5.73 2.12,1.34 5.34,2 9.62,2 2.68,0 4.91,-0.33 6.71,-1 1.11,-0.41 2.36,-1.23 3.75,-2.47l25.94 0zm-45.03 -16.85l25 0c-0.22,-4.62 -3.72,-6.93 -10.48,-6.93 -3.31,0 -6.28,0.59 -8.88,1.8 -2.22,1.02 -4.1,2.74 -5.64,5.13zm117.64 16.85c-1.81,3.25 -3.73,5.78 -5.76,7.58 -6.82,5.98 -17.84,8.97 -33.04,8.97 -13.45,0 -22.9,-1.96 -28.38,-5.9 -2.83,-2.03 -4.64,-5.05 -5.42,-9.05 -0.7,-3.83 -0.47,-8 0.74,-12.46 1.54,-5.77 4.24,-10.69 8.11,-14.75 4.22,-4.38 10.49,-7.59 18.86,-9.66 5.65,-1.39 11.61,-2.08 17.82,-2.08 9.11,0 16.42,1.47 21.95,4.41 4.83,2.56 7.61,6.29 8.35,11.24 0.56,3.58 -0.14,9.4 -2.1,17.44l-49.69 0c0.13,2.79 0.97,4.71 2.53,5.73 2.12,1.34 5.34,2 9.61,2 2.68,0 4.92,-0.33 6.71,-1 1.12,-0.41 2.36,-1.23 3.75,-2.47l25.94 0zm-45.02 -16.85l25 0c-0.24,-4.62 -3.72,-6.93 -10.47,-6.93 -3.32,0 -6.29,0.59 -8.89,1.8 -2.22,1.02 -4.1,2.74 -5.63,5.13zm54.47 -18.33l22.69 0 -1.26 4.69c3.59,-2.21 6.75,-3.68 9.51,-4.42 3.78,-1.04 8.09,-1.56 12.94,-1.56 8.73,0 15.27,1.91 19.63,5.72 5.52,4.8 7.1,11.59 4.75,20.36 -1.43,5.33 -4.07,10.14 -7.93,14.43 -7,7.81 -17.26,11.71 -30.83,11.71 -4.8,0 -9,-0.56 -12.59,-1.7 -2.27,-0.67 -4.43,-1.83 -6.47,-3.45l-4.89 18.23 -0.09 0 -5.56 20.75 20.5 -15.32 30.87 0 -25.05 17.45 13.55 32.18 -28.51 0 -6.88 -19.09 -10.58 7.53 -3.1 11.56 -22.69 0 17.71 -66.08 0.08 0 14.2 -52.98zm31.97 14.66c-3.83,0 -7.13,0.73 -9.89,2.17 -3.03,1.65 -5.02,4.24 -5.98,7.77 -1.85,6.92 1.7,10.37 10.63,10.37 8.97,0 14.35,-3.39 16.16,-10.13 1.81,-6.79 -1.82,-10.18 -10.92,-10.18zm-152.32 69.61c1.65,-3.27 3.37,-5.8 5.13,-7.57 4,-4.08 9.97,-6.83 17.93,-8.3 4.38,-0.77 9.62,-1.16 15.76,-1.16 16.18,0 26.07,2.16 29.65,6.49 1.3,1.61 2.04,3.43 2.18,5.43 0.14,2.12 -0.37,5.33 -1.52,9.6l-5.18 19.34c-0.71,2.88 -1.17,5.02 -1.37,6.36 -0.21,1.46 -0.05,2.97 0.46,4.59l-23.7 0 0.7 -4.44c-3.54,1.71 -6.68,2.93 -9.39,3.68 -4.84,1.38 -10.22,2.05 -16.15,2.05 -7.87,0 -14.03,-1.27 -18.46,-3.83 -2.17,-1.26 -3.75,-2.96 -4.73,-5.12 -1.07,-2.36 -1.19,-5.09 -0.35,-8.24 1.52,-5.65 5.52,-9.57 12.01,-11.81 7.99,-2.74 19.04,-4.27 33.22,-4.6 5.77,-0.15 9.14,-0.52 10.09,-1.06 0.53,-0.29 0.87,-0.72 1.02,-1.3 0.33,-1.21 -0.28,-2.15 -1.79,-2.86 -2.14,-1.07 -5.04,-1.59 -8.72,-1.59 -2.92,0 -5.49,0.31 -7.69,0.92 -1.54,0.43 -2.84,1.22 -3.93,2.39l-25.19 1.03zm44.25 12.31l-0.66 0.15c-1.8,0.25 -4.67,0.43 -8.61,0.53 -5.67,0.13 -9.31,0.3 -10.92,0.53 -3.24,0.44 -5.17,1.79 -5.78,4.04 -0.73,2.75 1.95,4.15 8.07,4.15 7.42,0 12.39,-1.03 14.87,-3.09 1.25,-1.06 2.19,-2.76 2.82,-5.11l0.22 -1.21zm19.16 22.47l17.71 -66.08 22.69 0 -17.71 66.08 -22.69 0zm166.59 -14.46c-1.81,3.26 -3.73,5.78 -5.76,7.58 -6.82,5.98 -17.84,8.97 -33.02,8.97 -13.47,0 -22.91,-1.96 -28.38,-5.89 -2.84,-2.03 -4.64,-5.05 -5.42,-9.05 -0.71,-3.83 -0.47,-7.99 0.73,-12.47 1.55,-5.76 4.26,-10.69 8.11,-14.74 4.21,-4.37 10.49,-7.6 18.86,-9.66 5.65,-1.38 11.6,-2.08 17.83,-2.08 9.1,0 16.41,1.48 21.94,4.41 4.83,2.55 7.62,6.29 8.35,11.25 0.57,3.58 -0.13,9.39 -2.09,17.44l-49.69 0c0.13,2.78 0.97,4.7 2.53,5.72 2.11,1.34 5.34,1.99 9.62,1.99 2.68,0 4.91,-0.33 6.7,-0.99 1.12,-0.42 2.37,-1.23 3.76,-2.48l25.94 0zm-45.03 -16.85l25 0c-0.24,-4.62 -3.72,-6.93 -10.47,-6.93 -3.32,0 -6.29,0.59 -8.89,1.8 -2.22,1.03 -4.1,2.75 -5.64,5.13zm41.18 31.31l13.3 -49.63 22.69 0 -1.27 4.73c6.69,-4.01 13.4,-6.02 20.13,-6.02 5.76,0 9.81,1.12 12.21,3.38 2.62,2.48 3.33,6.99 2.14,13.49 -0.31,1.76 -0.89,4.27 -1.72,7.5l-22.79 0c0.65,-2.93 0.63,-4.96 -0.01,-6.05 -0.83,-1.39 -2.43,-2.08 -4.81,-2.08 -2.84,0 -5.16,0.98 -6.98,2.91 -1.59,1.69 -2.92,4.57 -4,8.59l-6.21 23.17 -22.68 0z"/>
   <path class="fil9 str0" d="M633.29 117.21c9.68,0 17.53,7.85 17.53,17.53 0,9.68 -7.85,17.53 -17.53,17.53 -9.68,0 -17.53,-7.85 -17.53,-17.53 0,-9.68 7.84,-17.53 17.53,-17.53z"/>
   <path class="fil10" d="M625.53 144.34l0 -20.04 8.52 0c2.14,0 3.7,0.18 4.67,0.54 0.98,0.36 1.75,1 2.33,1.92 0.58,0.92 0.88,1.97 0.88,3.16 0,1.51 -0.44,2.75 -1.32,3.73 -0.88,0.98 -2.2,1.59 -3.95,1.85 0.87,0.51 1.59,1.07 2.16,1.68 0.57,0.61 1.33,1.7 2.3,3.26l2.44 3.91 -4.84 0 -2.9 -4.37c-1.04,-1.56 -1.75,-2.54 -2.14,-2.94 -0.38,-0.4 -0.79,-0.68 -1.22,-0.83 -0.43,-0.15 -1.11,-0.23 -2.05,-0.23l-0.82 0 0 8.37 -4.06 0zm4.06 -11.56l2.99 0c1.94,0 3.15,-0.08 3.64,-0.25 0.48,-0.16 0.86,-0.45 1.13,-0.85 0.27,-0.4 0.41,-0.91 0.41,-1.51 0,-0.68 -0.18,-1.22 -0.54,-1.64 -0.36,-0.42 -0.87,-0.68 -1.52,-0.78 -0.33,-0.05 -1.32,-0.07 -2.95,-0.07l-3.16 0 0 5.09z"/>
   <path class="fil11" d="M625.53 144.34l0 -20.04 8.52 0c2.14,0 3.7,0.18 4.67,0.54 0.98,0.36 1.75,1 2.33,1.92 0.58,0.92 0.88,1.97 0.88,3.16 0,1.51 -0.44,2.75 -1.32,3.73 -0.88,0.98 -2.2,1.59 -3.95,1.85 0.87,0.51 1.59,1.07 2.16,1.68 0.57,0.61 1.33,1.7 2.3,3.26l2.44 3.91 -4.84 0 -2.9 -4.37c-1.04,-1.56 -1.75,-2.54 -2.14,-2.94 -0.38,-0.4 -0.79,-0.68 -1.22,-0.83 -0.43,-0.15 -1.11,-0.23 -2.05,-0.23l-0.82 0 0 8.37 -4.06 0zm4.06 -11.56l2.99 0c1.94,0 3.15,-0.08 3.64,-0.25 0.48,-0.16 0.86,-0.45 1.13,-0.85 0.27,-0.4 0.41,-0.91 0.41,-1.51 0,-0.68 -0.18,-1.22 -0.54,-1.64 -0.36,-0.42 -0.87,-0.68 -1.52,-0.78 -0.33,-0.05 -1.32,-0.07 -2.95,-0.07l-3.16 0 0 5.09z"/>
  </g>
 </g>
</svg>
