<?xml version="1.0" encoding="UTF-8"?>
<!DOCTYPE svg PUBLIC "-//W3C//DTD SVG 1.1//EN" "http://www.w3.org/Graphics/SVG/1.1/DTD/svg11.dtd">
<!-- Creator: CorelDRAW -->
<svg xmlns="http://www.w3.org/2000/svg" xml:space="preserve" width="2.20184in" height="1.13558in" version="1.1" style="shape-rendering:geometricPrecision; text-rendering:geometricPrecision; image-rendering:optimizeQuality; fill-rule:evenodd; clip-rule:evenodd"
viewBox="0 0 68.8 35.48"
 xmlns:xlink="http://www.w3.org/1999/xlink"
 xmlns:xodm="http://www.corel.com/coreldraw/odm/2003">
 <defs>
  <style type="text/css">
   <![CDATA[
    .str0 {stroke:#31507E;stroke-width:0.87;stroke-miterlimit:2.61313}
    .fil1 {fill:#31507E}
    .fil0 {fill:white}
    .fil2 {fill:#FEFEFE;fill-rule:nonzero}
   ]]>
  </style>
 </defs>
 <g id="Layer_x0020_1">
  <metadata id="CorelCorpID_0Corel-Layer"/>
  <polygon class="fil0" points="18.48,32.78 13.6,35.45 9.88,33.35 8.21,33.35 8.21,0 28.34,0 28.34,32.37 23.49,35.48 "/>
  <polygon class="fil1" points="27.5,0.96 27.5,31.81 21.47,34.4 14.05,31.71 6.79,34.38 1.53,32.39 -0,32.39 -0,0.96 "/>
  <polygon class="fil0" points="21.94,2.37 25.66,2.37 25.66,30.98 21.4,32.81 14.05,30.15 6.81,32.81 1.96,30.98 1.84,30.98 1.84,2.37 5.56,2.37 5.56,29.91 12.52,27.83 12.44,16.68 15.55,17.6 15.55,27.82 21.94,29.82 "/>
  <polygon class="fil0" points="10.83,20.71 10.83,26.69 7.42,27.78 7.42,19.38 "/>
  <polygon class="fil0" points="7.51,2.37 10.83,2.37 17.46,2.37 20.5,2.37 20.5,5.19 20.5,9.72 17.46,8.53 17.46,5.19 10.83,5.19 10.83,11.81 17.46,13.69 17.46,13.68 20.5,14.5 20.5,14.55 20.5,17.82 20.5,27.69 17.46,26.63 17.46,16.84 10.83,14.72 10.83,14.78 7.42,13.78 7.42,2.37 "/>
  <polygon class="fil0" points="12.57,6.67 15.74,6.67 15.74,11.68 12.57,10.59 "/>
  <path class="fil2 str0" d="M29.15 18.97l2.5 0.21c0.04,0.18 0.08,0.31 0.14,0.37 0.13,0.14 0.34,0.21 0.62,0.21 0.42,0 0.65,-0.16 0.7,-0.49 0.02,-0.15 -0.01,-0.25 -0.1,-0.31 -0.05,-0.03 -0.49,-0.15 -1.32,-0.35 -0.76,-0.18 -1.26,-0.37 -1.51,-0.56 -0.5,-0.4 -0.68,-1.07 -0.54,-2.02 0.1,-0.65 0.31,-1.2 0.63,-1.63 0.34,-0.47 0.81,-0.79 1.41,-0.96 0.35,-0.1 0.8,-0.15 1.35,-0.15 1.3,0 2.16,0.29 2.59,0.87 0.23,0.31 0.36,0.69 0.4,1.13 0.02,0.17 0.02,0.4 0.02,0.71l-2.66 -0.16c-0.08,-0.24 -0.3,-0.36 -0.65,-0.36 -0.24,0 -0.41,0.04 -0.49,0.11 -0.08,0.07 -0.13,0.17 -0.15,0.29 -0.02,0.1 -0.01,0.17 0.02,0.23 0.06,0.1 0.26,0.17 0.61,0.21 0.76,0.08 1.38,0.21 1.87,0.41 0.5,0.2 0.83,0.47 1,0.82 0.19,0.41 0.23,0.93 0.13,1.58 -0.15,0.94 -0.51,1.63 -1.1,2.08 -0.4,0.3 -0.81,0.49 -1.23,0.58 -0.4,0.08 -0.81,0.12 -1.25,0.12 -1.33,0 -2.21,-0.3 -2.64,-0.89 -0.25,-0.34 -0.38,-0.75 -0.41,-1.23 -0.01,-0.18 0,-0.45 0.03,-0.79zm2.87 13.67l-1 -7.93 2.32 0 0.47 3.86 1.6 -3.86 2.33 0 0.41 3.86 1.61 -3.86 2.15 0 -3.34 7.93 -2.17 0 -0.46 -4.07 -1.81 4.07 -2.1 0zm9.06 -5.56c0.15,-0.52 0.31,-0.93 0.47,-1.21 0.37,-0.65 0.92,-1.09 1.65,-1.33 0.4,-0.12 0.89,-0.18 1.45,-0.18 1.49,0 2.4,0.35 2.73,1.04 0.12,0.26 0.19,0.55 0.2,0.87 0.01,0.34 -0.03,0.85 -0.14,1.53l-0.48 3.09c-0.07,0.46 -0.11,0.8 -0.13,1.02 -0.02,0.23 -0,0.47 0.04,0.73l-2.18 0 0.06 -0.71c-0.33,0.27 -0.62,0.47 -0.87,0.59 -0.45,0.22 -0.94,0.33 -1.49,0.33 -0.73,0 -1.29,-0.2 -1.7,-0.61 -0.2,-0.2 -0.35,-0.47 -0.44,-0.82 -0.1,-0.38 -0.11,-0.81 -0.03,-1.32 0.14,-0.9 0.51,-1.53 1.11,-1.89 0.74,-0.44 1.76,-0.68 3.06,-0.74 0.53,-0.02 0.84,-0.08 0.93,-0.17 0.05,-0.05 0.08,-0.12 0.09,-0.21 0.03,-0.19 -0.03,-0.34 -0.17,-0.46 -0.2,-0.17 -0.46,-0.26 -0.8,-0.26 -0.27,0 -0.51,0.05 -0.71,0.15 -0.14,0.07 -0.26,0.19 -0.36,0.38l-2.32 0.16zm4.08 1.97l-0.06 0.02c-0.17,0.04 -0.43,0.07 -0.79,0.08 -0.52,0.02 -0.86,0.05 -1.01,0.08 -0.3,0.07 -0.48,0.29 -0.53,0.65 -0.07,0.44 0.18,0.66 0.74,0.66 0.69,0 1.14,-0.16 1.37,-0.49 0.12,-0.17 0.2,-0.44 0.26,-0.81l0.02 -0.19zm1.77 3.59l1.63 -10.55 2.09 0 -1.63 10.55 -2.09 0zm2.3 0l1.63 -10.55 0.01 0 1.31 -8.46 2.09 0 -0.12 0.75c0.33,-0.35 0.62,-0.59 0.88,-0.71 0.35,-0.17 0.75,-0.25 1.19,-0.25 0.81,0 1.41,0.3 1.81,0.91 0.51,0.77 0.65,1.85 0.44,3.25 -0.13,0.85 -0.38,1.62 -0.73,2.3 -0.65,1.25 -1.59,1.87 -2.84,1.87 -0.44,0 -0.83,-0.09 -1.16,-0.27 -0.21,-0.11 -0.41,-0.29 -0.6,-0.55l-0.45 2.91 -0.01 0 -0.51 3.31 1.89 -2.45 2.85 0 -2.31 2.79 1.25 5.14 -2.63 0 -0.63 -3.05 -0.98 1.2 -0.29 1.85 -2.09 0zm13.06 -2.31c-0.17,0.52 -0.34,0.92 -0.53,1.21 -0.63,0.95 -1.65,1.43 -3.05,1.43 -1.24,0 -2.11,-0.31 -2.62,-0.94 -0.26,-0.32 -0.43,-0.81 -0.5,-1.44 -0.07,-0.61 -0.04,-1.28 0.07,-1.99 0.14,-0.92 0.39,-1.71 0.75,-2.35 0.39,-0.7 0.97,-1.21 1.74,-1.54 0.52,-0.22 1.07,-0.33 1.64,-0.33 0.84,0 1.51,0.23 2.02,0.7 0.45,0.41 0.7,1 0.77,1.8 0.05,0.57 -0.01,1.5 -0.19,2.78l-4.58 0c0.01,0.45 0.09,0.75 0.23,0.91 0.2,0.21 0.49,0.32 0.89,0.32 0.25,0 0.45,-0.05 0.62,-0.16 0.1,-0.07 0.22,-0.2 0.35,-0.4l2.39 0zm-4.15 -2.69l2.3 0c-0.02,-0.74 -0.34,-1.11 -0.97,-1.11 -0.31,0 -0.58,0.09 -0.82,0.29 -0.21,0.16 -0.38,0.44 -0.52,0.82zm3.8 5l1.23 -7.93 2.09 0 -0.12 0.76c0.62,-0.64 1.24,-0.96 1.86,-0.96 0.53,0 0.9,0.18 1.13,0.54 0.24,0.4 0.31,1.12 0.2,2.15 -0.03,0.28 -0.08,0.68 -0.16,1.2l-2.1 0c0.06,-0.47 0.06,-0.79 -0,-0.97 -0.08,-0.22 -0.22,-0.33 -0.44,-0.33 -0.26,0 -0.48,0.16 -0.64,0.46 -0.15,0.27 -0.27,0.73 -0.37,1.37l-0.57 3.7 -2.09 0zm-26.67 -11.09l1.63 -10.55 2.09 0 -1.63 10.55 -2.09 0zm9.35 -2.31c-0.17,0.52 -0.34,0.92 -0.53,1.21 -0.63,0.95 -1.65,1.43 -3.05,1.43 -1.24,0 -2.11,-0.31 -2.62,-0.94 -0.26,-0.32 -0.43,-0.81 -0.5,-1.44 -0.07,-0.61 -0.04,-1.28 0.07,-1.99 0.14,-0.92 0.39,-1.71 0.75,-2.35 0.39,-0.7 0.97,-1.21 1.74,-1.54 0.52,-0.22 1.07,-0.33 1.64,-0.33 0.84,0 1.51,0.23 2.02,0.7 0.45,0.41 0.7,1 0.77,1.8 0.05,0.57 -0.01,1.5 -0.19,2.78l-4.58 0c0.01,0.45 0.09,0.75 0.23,0.92 0.2,0.21 0.49,0.32 0.89,0.32 0.25,0 0.45,-0.05 0.62,-0.16 0.1,-0.07 0.22,-0.2 0.35,-0.4l2.39 0zm-4.15 -2.69l2.31 0c-0.02,-0.74 -0.34,-1.11 -0.97,-1.11 -0.31,0 -0.58,0.09 -0.82,0.29 -0.2,0.16 -0.38,0.44 -0.52,0.82zm10.85 2.69c-0.17,0.52 -0.34,0.92 -0.53,1.21 -0.63,0.95 -1.65,1.43 -3.05,1.43 -1.24,0 -2.11,-0.31 -2.62,-0.94 -0.26,-0.32 -0.43,-0.81 -0.5,-1.44 -0.07,-0.61 -0.04,-1.28 0.07,-1.99 0.14,-0.92 0.39,-1.71 0.75,-2.35 0.39,-0.7 0.97,-1.21 1.74,-1.54 0.52,-0.22 1.07,-0.33 1.64,-0.33 0.84,0 1.51,0.23 2.02,0.7 0.45,0.41 0.7,1 0.77,1.8 0.05,0.57 -0.01,1.5 -0.19,2.78l-4.58 0c0.01,0.45 0.09,0.75 0.23,0.92 0.2,0.21 0.49,0.32 0.89,0.32 0.25,0 0.45,-0.05 0.62,-0.16 0.1,-0.07 0.22,-0.2 0.35,-0.4l2.39 0zm-4.15 -2.69l2.31 0c-0.02,-0.74 -0.34,-1.11 -0.97,-1.11 -0.31,0 -0.58,0.09 -0.82,0.29 -0.2,0.16 -0.38,0.44 -0.52,0.82zm7.97 -0.59c-0.35,0 -0.66,0.12 -0.91,0.35 -0.28,0.26 -0.46,0.68 -0.55,1.24 -0.17,1.1 0.16,1.66 0.98,1.66 0.83,0 1.32,-0.54 1.49,-1.62 0.17,-1.08 -0.17,-1.62 -1.01,-1.62z"/>
 </g>
</svg>
