<svg xmlns="http://www.w3.org/2000/svg" xmlns:xlink="http://www.w3.org/1999/xlink" width="72" zoomAndPan="magnify" viewBox="0 0 54 50.999998" height="68" preserveAspectRatio="xMidYMid meet" version="1.0"><defs><clipPath id="a20ac92c82"><path d="M 3.914062 1.539062 L 48.914062 1.539062 L 48.914062 49.539062 L 3.914062 49.539062 Z M 3.914062 1.539062 " clip-rule="nonzero"/></clipPath></defs><rect x="-5.4" width="64.8" fill="#ffffff" y="-5.1" height="61.199998" fill-opacity="1"/><rect x="-5.4" width="64.8" fill="#ffffff" y="-5.1" height="61.199998" fill-opacity="1"/><g clip-path="url(#a20ac92c82)"><path fill="#ff914d" d="M 38.160156 30.195312 L 39.960938 30.394531 C 40.546875 30.457031 41.082031 30.03125 41.144531 29.441406 C 41.210938 28.847656 40.78125 28.316406 40.195312 28.25 L 38.394531 28.054688 C 38.121094 28.019531 37.828125 28.105469 37.605469 28.285156 C 36.851562 28.898438 37.226562 30.09375 38.160156 30.195312 Z M 36.855469 33.667969 C 36.851562 33.820312 36.695312 34.171875 36.640625 34.304688 C 36.066406 35.742188 36.132812 36.066406 36.628906 36.304688 C 37 36.484375 37.441406 36.328125 37.621094 35.957031 L 38.277344 34.59375 C 38.542969 34.042969 38.675781 33.550781 38.726562 32.945312 L 38.832031 31.753906 C 38.230469 31.6875 37.660156 31.675781 37.109375 31.394531 Z M 39.347656 19.367188 L 41.144531 19.566406 C 41.738281 19.628906 42.265625 19.203125 42.332031 18.609375 C 42.398438 18.011719 41.96875 17.488281 41.378906 17.421875 L 39.59375 17.222656 C 39.300781 17.195312 39.027344 17.273438 38.800781 17.457031 C 38.035156 18.070312 38.421875 19.265625 39.347656 19.367188 Z M 38.558594 26.585938 L 40.355469 26.78125 C 40.945312 26.847656 41.476562 26.417969 41.542969 25.828125 C 41.609375 25.238281 41.179688 24.707031 40.589844 24.640625 L 38.792969 24.441406 C 38.511719 24.410156 38.230469 24.492188 38.003906 24.675781 C 37.253906 25.273438 37.613281 26.484375 38.558594 26.585938 Z M 38.957031 22.976562 L 40.75 23.175781 C 41.339844 23.238281 41.875 22.8125 41.941406 22.222656 C 42 21.621094 41.570312 21.09375 40.988281 21.03125 L 39.191406 20.835938 C 38.917969 20.800781 38.628906 20.886719 38.402344 21.066406 C 37.652344 21.660156 38.011719 22.871094 38.957031 22.976562 Z M 25.644531 19.582031 C 25.558594 19.132812 25.910156 18.707031 26.367188 18.707031 L 29.925781 18.707031 C 30.558594 18.707031 31.066406 18.195312 31.066406 17.570312 L 31.066406 17.371094 C 31.066406 16.742188 30.558594 16.230469 29.925781 16.230469 L 25.460938 16.230469 C 25.21875 16.230469 25.023438 16.285156 24.820312 16.421875 L 19.59375 19.910156 C 18.601562 20.570312 17.964844 21.453125 17.65625 22.609375 L 16.535156 26.8125 C 16.28125 27.761719 15.863281 28.546875 15.21875 29.285156 L 8.796875 36.589844 L 8.773438 36.550781 C 6.632812 33.261719 5.390625 29.332031 5.390625 25.109375 C 5.390625 16.84375 10.175781 9.496094 17.488281 6.070312 C 18.007812 6.75 18.824219 7.1875 19.742188 7.1875 C 21.300781 7.1875 22.566406 5.917969 22.566406 4.359375 C 22.566406 2.804688 21.300781 1.535156 19.742188 1.535156 C 18.054688 1.535156 16.738281 3 16.933594 4.707031 C 9.070312 8.367188 3.914062 16.257812 3.914062 25.109375 C 3.914062 34.078125 9.222656 42.089844 17.292969 45.671875 L 17.886719 44.328125 L 20.753906 38.46875 C 21.210938 37.753906 21.882812 37.402344 22.476562 37.089844 C 22.957031 36.832031 23.382812 36.609375 23.621094 36.226562 C 24.339844 35.105469 24.664062 33.421875 25.097656 32.070312 C 25.566406 30.644531 25.96875 21.308594 25.644531 19.582031 Z M 48.890625 25.109375 C 48.890625 35.511719 41.769531 44.457031 31.863281 46.929688 C 31.710938 48.34375 30.507812 49.453125 29.054688 49.453125 C 27.496094 49.453125 26.222656 48.183594 26.222656 46.625 C 26.222656 45.070312 27.496094 43.800781 29.054688 43.800781 C 30.195312 43.800781 31.183594 44.484375 31.632812 45.46875 C 40.835938 43.113281 47.417969 34.792969 47.417969 25.109375 C 47.417969 19.648438 45.332031 14.609375 41.832031 10.839844 C 41.066406 11.898438 40.390625 13.304688 40.292969 14.445312 L 40.179688 15.804688 L 39.75 15.757812 C 38.347656 15.605469 37.085938 16.625 36.933594 18.015625 C 36.863281 18.691406 37.050781 19.359375 37.480469 19.890625 C 37.480469 19.894531 37.488281 19.902344 37.496094 19.90625 C 37.488281 19.910156 37.480469 19.910156 37.476562 19.914062 C 36.949219 20.34375 36.613281 20.949219 36.535156 21.625 C 36.464844 22.300781 36.660156 22.96875 37.085938 23.5 C 37.089844 23.503906 37.089844 23.507812 37.097656 23.511719 C 37.089844 23.515625 37.085938 23.519531 37.085938 23.523438 C 35.964844 24.417969 35.800781 26.023438 36.699219 27.125 C 36.691406 27.128906 36.6875 27.128906 36.6875 27.132812 C 36.152344 27.5625 35.820312 28.167969 35.746094 28.84375 C 35.707031 29.160156 35.726562 29.472656 35.8125 29.769531 L 35.402344 33.375 L 34.164062 35.957031 C 33.988281 36.320312 33.539062 36.484375 33.167969 36.304688 C 32.898438 36.171875 32.828125 36.042969 32.800781 35.957031 C 32.710938 35.679688 32.847656 35.234375 33.042969 34.796875 L 33.726562 33.417969 L 33.765625 33.21875 L 34.097656 28.390625 C 34.125 27.984375 33.816406 27.632812 33.414062 27.605469 C 33.003906 27.578125 32.65625 27.882812 32.625 28.289062 L 32.304688 32.984375 L 32.128906 33.320312 C 31.980469 33.59375 31.824219 33.890625 31.6875 34.203125 L 30.472656 36.621094 C 30.042969 37.492188 28.863281 37.210938 28.675781 36.601562 C 28.582031 36.332031 28.640625 35.964844 28.765625 35.570312 L 30.019531 33.027344 L 30.078125 32.847656 L 30.234375 28.367188 C 30.246094 27.957031 29.925781 27.617188 29.523438 27.605469 C 29.117188 27.589844 28.765625 27.910156 28.757812 28.316406 L 28.621094 32.519531 C 28.53125 32.683594 28.433594 32.871094 28.324219 33.066406 C 27.996094 33.667969 27.632812 34.339844 27.398438 35.027344 L 26.554688 36.757812 C 26.25 37.378906 25.394531 37.523438 24.898438 36.960938 C 25.707031 35.671875 26.046875 33.960938 26.511719 32.519531 C 26.972656 31.070312 27.363281 23.234375 27.183594 20.183594 L 29.925781 20.183594 C 31.367188 20.183594 32.546875 19.007812 32.546875 17.570312 L 32.546875 17.371094 C 32.546875 15.925781 31.367188 14.753906 29.925781 14.753906 L 25.460938 14.753906 C 24.527344 14.753906 24.078125 15.144531 23.363281 15.621094 L 24.449219 12.890625 C 24.816406 11.960938 25.382812 11.273438 26.210938 10.71875 L 28.152344 9.425781 C 29.007812 8.855469 29.632812 8.175781 30.128906 7.285156 L 31.609375 4.621094 L 32.144531 3.359375 L 32.261719 3.390625 C 36.980469 4.648438 41.082031 7.421875 44.035156 11.144531 C 47.078125 14.980469 48.890625 19.832031 48.890625 25.109375 Z M 48.890625 25.109375 " fill-opacity="1" fill-rule="evenodd"/></g></svg>