<?xml version="1.0" encoding="UTF-8"?>
<!DOCTYPE svg PUBLIC "-//W3C//DTD SVG 1.1//EN" "http://www.w3.org/Graphics/SVG/1.1/DTD/svg11.dtd">
<!-- Creator: CorelDRAW 2021.5 -->
<svg xmlns="http://www.w3.org/2000/svg" xml:space="preserve" width="0.239996in" height="0.226665in" version="1.1" style="shape-rendering:geometricPrecision; text-rendering:geometricPrecision; image-rendering:optimizeQuality; fill-rule:evenodd; clip-rule:evenodd"
viewBox="0 0 239.99 226.66"
 xmlns:xlink="http://www.w3.org/1999/xlink"
 xmlns:xodm="http://www.corel.com/coreldraw/odm/2003">
 <defs>
  <style type="text/css">
   <![CDATA[
    .fil1 {fill:#FEFEFE}
    .fil2 {fill:#000066}
    .fil0 {fill:white}
    .fil3 {fill:#000066;fill-rule:nonzero}
   ]]>
  </style>
     <clipPath id="id0">
      <path d="M48.01 117c0,3.75 -0.09,7.46 -0.49,11.19 -0.52,4.89 -0.96,9.82 -1.78,14.68 -0.68,4.04 -1.44,8.06 -1.87,12.13 -0.04,0.34 -0.08,0.7 -0.08,1.04 -0.01,1.15 -0.14,2.29 -0.14,3.43 0,1.36 0.01,3.17 -0.19,4.49l-0.2 2.15c-0.37,2.68 -0.91,5.32 -1.42,7.96 -0.7,3.66 -0.82,6.55 0.38,10.13 0.17,0.51 0.41,1.09 0.69,1.55 0.28,0.45 0.56,0.97 0.95,1.33 0.7,0.66 0.36,0.44 0.52,1.22 0.12,0.59 0.33,0.44 0.43,1.38 0.04,0.36 0.06,0.73 0.11,1.1 0.05,0.37 -0.01,0.74 0.04,1.1 0.25,1.8 -0.01,3.93 -0.02,5.78l-0.22 3.86c-0.1,1.25 -0.13,1.18 1.17,1.22 0.79,0.02 1.58,-0.05 2.37,0 0.67,0.04 1.32,0.06 1.99,0.06 0.33,0 0.63,0.05 0.94,0.07l3.35 0.15c1.36,0.04 4.93,0.61 5.91,-0.45 0.31,-0.33 0.28,-1.4 0.32,-1.86 0.23,-2.77 0.61,-5.62 1,-8.38 0.1,-0.69 0.19,-1.38 0.28,-2.07 0.02,-0.17 0.04,-0.35 0.07,-0.52 0.11,-0.52 0.37,-0.37 0.49,-1.28 0.09,-0.61 0.68,-0.92 1.08,-1.37 1.73,-1.96 3.06,-5.17 4.03,-7.6 0.72,-1.8 1.05,-3.93 1.05,-5.87 0,-0.73 0.01,-1.51 -0.1,-2.23 -0.22,-1.48 -0.11,-3.13 -0.11,-4.64 -0,-3.21 0.69,-4.94 1.51,-7.92 0.69,-2.49 1.43,-4.97 1.8,-7.54 0.19,-1.27 0.47,-2.54 1,-3.72 0.24,-0.54 0.54,-1.04 0.81,-1.56 1.38,-2.6 2.15,-3.52 2.75,-6.54 0.27,-1.35 0.33,-2.74 0.53,-4.1 0.21,-1.42 0.2,-2.85 0.43,-4.3 0.05,-0.33 0.11,-0.65 0.19,-0.98l0.67 -2.31 0 1.43c0,1.31 -0.06,2.7 -0.25,4 -0.26,1.79 -0.34,3.85 -0.48,5.67 -0.15,2.06 -0.31,4.14 -0.42,6.21 -0.04,0.67 -0,1.33 -0.1,1.99 -0.1,0.66 -0.04,1.34 -0.14,2 -0.2,1.32 -0.1,2.68 -0.3,3.98l-0.46 5.89c-0,0.66 -0.13,1.33 -0.15,2 -0.02,0.69 0.07,1.39 -0.03,2.07 -0.1,0.68 0.02,1.4 -0.04,2.09 -0.11,1.35 -0.17,2.71 -0.2,4.07 -0.04,1.31 -0.23,2.62 -0.29,3.93 -0.12,2.5 -0.5,4.96 -1.2,7.37 -0.32,1.1 -0.71,2.17 -1.01,3.28 -0.45,1.65 -0.61,3.91 -0.21,5.59 0.13,0.55 0.35,1.07 0.52,1.59l0.46 1.03c0.28,0.67 0.32,1.42 0.64,2.06 0.11,0.2 0.27,0.39 0.44,0.56l0.98 1.21c0.19,0.34 0.02,0.71 0.02,1.05 -0.06,4.37 -0.96,6.39 2.46,9.78 1.59,1.58 4.3,2.48 6.46,2.97 0.29,0.07 0.58,0.14 0.87,0.19 0.61,0.1 1.21,0.22 1.81,0.33 3.69,0.62 7.41,0.48 11.12,0.74 1.58,0.11 3.16,0.05 4.74,0.12l8.94 0.18c0.18,-0.01 0.27,-0.02 0.46,-0 1.43,0.08 2.85,-0.06 4.28,0.01 1.75,0.09 3.5,-0.02 5.26,0.05 0.17,0.01 0.34,0.02 0.52,0.02l1.94 0.02c1.54,0.02 3.08,0.05 4.61,-0.03 0.16,-0.01 0.29,-0.01 0.44,-0.01 0.28,0 0.56,-0.01 0.83,-0.01 0.55,0 1.09,0.02 1.63,-0.01l1.76 -0.03c0.72,0 1.43,-0 2.14,0l9.3 -0.22c1.56,0.01 3.09,-0.13 4.64,-0.22 1.5,-0.09 2.99,-0.33 4.47,-0.57l2.6 -0.54c2.07,-0.48 4.18,-1.21 5.9,-2.5 0.34,-0.26 0.67,-0.51 0.95,-0.84l0.13 -0.15c2.05,-2.47 1.69,-3.66 1.71,-6.7 0,-0.34 -0.06,-0.66 -0.07,-0.99 -0.01,-0.36 0,-0.72 0,-1.08 -0.01,-1.04 0.26,-0.93 0.87,-1.61 0.29,-0.33 0.52,-0.75 0.64,-1.17 0.39,-1.32 1.29,-2.36 1.65,-3.71 1,-3.85 -0.44,-6.56 -1.88,-10 -0.57,-1.37 -0.63,-2.09 -0.82,-3.53 -0.18,-1.31 -0.02,-2.88 -0.02,-4.22 -0,-0.35 0.05,-0.67 0.07,-1.01 0.02,-0.36 -0.02,-0.72 0,-1.07 0.04,-0.67 0.11,-1.33 0.14,-2l0.07 -2c-0,-2.07 0.22,-4.14 0.22,-6.22 0,-0.67 0.01,-1.35 0.07,-2.02 0.06,-0.7 -0.04,-1.43 0,-2.13 0.05,-0.89 0.19,-2.12 0.08,-2.99l-0.08 -3.08c0,-0.34 -0.07,-0.66 -0.07,-1l-0.14 -7.37c0,-1.38 -0.1,-2.76 -0.14,-4.14 -0.02,-0.67 -0.15,-1.33 -0.15,-2.01l0 -0.59 0.43 0.56c0.04,0.06 0.06,0.09 0.09,0.15 0.43,0.76 2.06,4.35 1.96,5.07l-0.37 2.14c-0.37,2.16 -0.43,4.01 -0.43,6.19 0,0.55 0.03,1.11 0,1.65 -0.01,0.27 -0.09,0.48 -0.07,0.76 0.02,0.28 0.07,0.51 0.07,0.81 -0.01,2.67 0.64,5.6 1.83,7.99 0.86,1.72 1.55,2.33 2.81,3.69 0.13,0.14 0.22,0.3 0.35,0.43l1.21 1.38c0.55,0.73 0.76,1.51 1.04,2.35 0.74,2.24 0.62,3.17 -0.65,5.14 -0.21,0.33 -0.43,0.67 -0.63,1 -0.21,0.35 -0.44,0.7 -0.63,1.07 -0.39,0.75 -0.65,1.6 -0.78,2.43 -0.47,2.83 0.61,5.31 1.71,7.83 0.16,0.37 0.33,0.72 0.54,1.06 0.22,0.35 0.53,0.55 0.76,0.86 0.24,0.31 0.11,0.86 0.41,1.21 0.55,0.64 0.39,0.41 0.52,1.35 0.3,2.1 0.28,4.28 0.28,6.39 0,1.08 -0.09,2.2 0,3.27 0.04,0.53 0.07,1.06 0.07,1.59 0,0.27 -0.09,1.05 0.18,1.18 0.14,0.06 0.98,-0.04 1.37,0.09 0.43,0.13 0.87,0.22 1.31,0.31 1.36,0.28 2.75,0.27 4.13,0.28 1.66,0.02 3.3,-0.17 4.95,-0.19l1.53 -0.09c1.06,-0.06 2.13,0.02 3.18,-0.06 0.35,-0.02 0.43,-0.03 0.46,-0.39 0.01,-0.12 0,-0.28 0,-0.4l-0.2 -2.36c-0.03,-0.26 0,-0.52 -0.02,-0.78 -0.13,-1.65 -0.15,-3.3 -0.14,-4.96 0,-1.23 0.29,-3.27 0.6,-4.46 0.05,-0.2 0.07,-0.38 0.27,-0.46 0.03,-0.02 0.07,-0.09 0.09,-0.11 0.25,-0.42 0.06,-0.91 0.43,-1.33 0.54,-0.63 0.72,-1.52 0.96,-2.3l1.71 -5.02c1.04,-2.75 0.07,-6.53 0.47,-9.42 0.07,-0.5 0.05,-1.06 0.05,-1.57 -0.01,-2.16 0.59,-3.97 0.26,-6.23 -0.04,-0.29 -0.04,-0.55 -0.04,-0.84l-0.38 -5.47c-0.14,-1.03 -0.07,-2.12 -0.22,-3.15l-0.34 -4.75c-0.01,-0.49 -0.07,-1.01 -0.13,-1.5 -0.03,-0.28 0.01,-0.56 -0.02,-0.84 -0.26,-2.31 -0.28,-4.98 -0.28,-7.32l0 -6.72c0,-4.88 -2.11,-9.24 -2.78,-14l-0.77 -5.96c-0.39,-3.04 -0.63,-6.1 -1.01,-9.14 -0.13,-1 -0.2,-2.02 -0.33,-3.02l-1.35 -12.09c-0.42,-3.43 -0.9,-6.85 -1.46,-10.26 -0.08,-0.5 -0.2,-1 -0.24,-1.5 -0.04,-0.5 -0.07,-1 -0.13,-1.5 -0.06,-0.5 -0.15,-0.99 -0.22,-1.49 -0.63,-4.5 -1.94,-8.83 -3.74,-13 -0.65,-1.5 -1.41,-2.99 -2.32,-4.35 -1.09,-1.64 -2.23,-3.3 -3.57,-4.74 -0.15,-0.16 -0.29,-0.29 -0.43,-0.46 -0.12,-0.16 -0.25,-0.28 -0.39,-0.43 -0.56,-0.56 -1.12,-1.12 -1.68,-1.68 -0.27,-0.27 -0.57,-0.5 -0.87,-0.74 -0.51,-0.41 -1.28,-0.54 -1.49,-1.16 -0.07,-0.2 -0.14,-0.41 -0.23,-0.61 -0.13,-0.29 -0.51,-0.63 -0.76,-0.82 -0.84,-0.65 -1.57,-1.1 -2.47,-1.65 -0.18,-0.11 -0.34,-0.2 -0.54,-0.28l-16.46 -5.81 0.15 -0.21c0.22,-0.33 0.52,-0.61 0.67,-0.99 0.37,-0.94 0.35,-1.66 -0.06,-2.58 -0.18,-0.41 -0.34,-0.81 -0.57,-1.19l-1.27 -2.23c-1.47,-2.41 -1.62,-5.22 -2.85,-7.68 -0.28,-0.55 -0.44,-0.68 -0.44,-1.37l-0 -0.71c-0.08,-1.74 -1.05,-3.37 -2.18,-4.65 -0.62,-0.7 -0.65,-0.67 -1.55,-0.95 -2.08,-0.65 -5.97,-0.27 -8.22,-0.22l-4.79 0.42c-0.54,0.06 -1.09,0.12 -1.63,0.16l-6.28 0.71c-0.89,0.15 -1.47,0.23 -2.39,0.22 -0.28,-0 -0.52,-0.07 -0.78,-0.08 -0.29,-0.01 -0.58,0.02 -0.87,0l-2.5 -0.14c-2.28,0.01 -4.57,-0.15 -6.86,-0.15 -0.55,0 -1.09,-0.07 -1.65,-0.07l-5.22 -0.07c-0.55,0 -1.09,0.07 -1.64,0.07 -1.26,-0 -3.22,-0.04 -4.17,0.92 -1.26,1.28 -2.08,2.75 -2.28,4.56 -0.06,0.51 0.22,1 -0.02,1.49 -0.6,1.17 -0.72,2.94 -0.98,4.24 -0.47,2.35 -1.43,4.27 -2.32,6.46 -0.1,0.25 -0.5,0.92 -0.46,1.17 0.04,0.22 0.4,0.84 0.56,1 0.3,0.31 0.73,0.5 0.97,0.87l0.13 0.19 -0.21 0.1c-0.94,0.45 -1.96,0.74 -2.94,1.09 -2.93,1.06 -5.97,2.31 -8.96,3.14 -2.19,0.61 -5.35,1.55 -7.25,2.75 -0.8,0.5 -1.5,1.08 -2.09,1.82 -0.15,0.19 -0.29,0.35 -0.41,0.55 -0.39,0.65 -0.07,0.69 -0.93,0.93 -0.14,0.04 -0.24,0.08 -0.37,0.15 -0.46,0.24 -0.91,0.57 -1.3,0.92 -0.1,0.09 -0.22,0.16 -0.31,0.25l-1.54 1.46c-0.19,0.19 -0.34,0.41 -0.52,0.6l-2.62 3.22c-1.29,1.84 -2.59,3.69 -3.6,5.71l-0.79 1.57c-0.13,0.25 -0.26,0.51 -0.38,0.76 -0.67,1.31 -1.21,2.68 -1.86,4l-0.73 1.62c-3.42,7.94 -4.8,15.44 -6.6,23.81 -1.11,5.15 -2.16,10.88 -2.59,16.11 -0.06,0.69 -0.18,1.38 -0.21,2.07l-0.14 3.36c0,0.39 -0.05,0.76 -0.07,1.15 -0.04,0.78 0,1.57 0,2.35zm117.66 -5.05c0,0 0.1,5.14 0.15,6.89 0.05,1.75 0.17,6.61 0.2,7.47 0.03,0.86 0.14,1.72 0.14,1.72 0,0 0.76,-2.55 1.34,-4.09 0.57,-1.54 1.02,-2.27 0.83,-2.48 -0.19,-0.22 -1.5,-3.26 -1.87,-4.78 -0.36,-1.52 -0.31,-2.65 -0.3,-3.1m-87.61 9.24c0,0 -1.09,-3 -1.57,-3.81 -0.48,-0.81 -0.59,-0.97 -0.56,-1.28 0.03,-0.31 2.03,-5.41 2.87,-6.13 0,0 -0.19,3.29 -0.26,4.05 -0.07,0.75 -0.47,7.18 -0.47,7.18z"/>
     </clipPath>
     <clipPath id="id1">
      <path d="M48.01 117c0,3.75 -0.09,7.46 -0.49,11.19 -0.52,4.89 -0.96,9.82 -1.78,14.68 -0.68,4.04 -1.44,8.06 -1.87,12.13 -0.04,0.34 -0.08,0.7 -0.08,1.04 -0.01,1.15 -0.14,2.29 -0.14,3.43 0,1.36 0.01,3.17 -0.19,4.49l-0.2 2.15c-0.37,2.68 -0.91,5.32 -1.42,7.96 -0.7,3.66 -0.82,6.55 0.38,10.13 0.17,0.51 0.41,1.09 0.69,1.55 0.28,0.45 0.56,0.97 0.95,1.33 0.7,0.66 0.36,0.44 0.52,1.22 0.12,0.59 0.33,0.44 0.43,1.38 0.04,0.36 0.06,0.73 0.11,1.1 0.05,0.37 -0.01,0.74 0.04,1.1 0.25,1.8 -0.01,3.93 -0.02,5.78l-0.22 3.86c-0.1,1.25 -0.13,1.18 1.17,1.22 0.79,0.02 1.58,-0.05 2.37,0 0.67,0.04 1.32,0.06 1.99,0.06 0.33,0 0.63,0.05 0.94,0.07l3.35 0.15c1.36,0.04 4.93,0.61 5.91,-0.45 0.31,-0.33 0.28,-1.4 0.32,-1.86 0.23,-2.77 0.61,-5.62 1,-8.38 0.1,-0.69 0.19,-1.38 0.28,-2.07 0.02,-0.17 0.04,-0.35 0.07,-0.52 0.11,-0.52 0.37,-0.37 0.49,-1.28 0.09,-0.61 0.68,-0.92 1.08,-1.37 1.73,-1.96 3.06,-5.17 4.03,-7.6 0.72,-1.8 1.05,-3.93 1.05,-5.87 0,-0.73 0.01,-1.51 -0.1,-2.23 -0.22,-1.48 -0.11,-3.13 -0.11,-4.64 -0,-3.21 0.69,-4.94 1.51,-7.92 0.69,-2.49 1.43,-4.97 1.8,-7.54 0.19,-1.27 0.47,-2.54 1,-3.72 0.24,-0.54 0.54,-1.04 0.81,-1.56 1.38,-2.6 2.15,-3.52 2.75,-6.54 0.27,-1.35 0.33,-2.74 0.53,-4.1 0.21,-1.42 0.2,-2.85 0.43,-4.3 0.05,-0.33 0.11,-0.65 0.19,-0.98l0.67 -2.31 0 1.43c0,1.31 -0.06,2.7 -0.25,4 -0.26,1.79 -0.34,3.85 -0.48,5.67 -0.15,2.06 -0.31,4.14 -0.42,6.21 -0.04,0.67 -0,1.33 -0.1,1.99 -0.1,0.66 -0.04,1.34 -0.14,2 -0.2,1.32 -0.1,2.68 -0.3,3.98l-0.46 5.89c-0,0.66 -0.13,1.33 -0.15,2 -0.02,0.69 0.07,1.39 -0.03,2.07 -0.1,0.68 0.02,1.4 -0.04,2.09 -0.11,1.35 -0.17,2.71 -0.2,4.07 -0.04,1.31 -0.23,2.62 -0.29,3.93 -0.12,2.5 -0.5,4.96 -1.2,7.37 -0.32,1.1 -0.71,2.17 -1.01,3.28 -0.45,1.65 -0.61,3.91 -0.21,5.59 0.13,0.55 0.35,1.07 0.52,1.59l0.46 1.03c0.28,0.67 0.32,1.42 0.64,2.06 0.11,0.2 0.27,0.39 0.44,0.56l0.98 1.21c0.19,0.34 0.02,0.71 0.02,1.05 -0.06,4.37 -0.96,6.39 2.46,9.78 1.59,1.58 4.3,2.48 6.46,2.97 0.29,0.07 0.58,0.14 0.87,0.19 0.61,0.1 1.21,0.22 1.81,0.33 3.69,0.62 7.41,0.48 11.12,0.74 1.58,0.11 3.16,0.05 4.74,0.12l8.94 0.18c0.18,-0.01 0.27,-0.02 0.46,-0 1.43,0.08 2.85,-0.06 4.28,0.01 1.75,0.09 3.5,-0.02 5.26,0.05 0.17,0.01 0.34,0.02 0.52,0.02l1.94 0.02c1.54,0.02 3.08,0.05 4.61,-0.03 0.16,-0.01 0.29,-0.01 0.44,-0.01 0.28,0 0.56,-0.01 0.83,-0.01 0.55,0 1.09,0.02 1.63,-0.01l1.76 -0.03c0.72,0 1.43,-0 2.14,0l9.3 -0.22c1.56,0.01 3.09,-0.13 4.64,-0.22 1.5,-0.09 2.99,-0.33 4.47,-0.57l2.6 -0.54c2.07,-0.48 4.18,-1.21 5.9,-2.5 0.34,-0.26 0.67,-0.51 0.95,-0.84l0.13 -0.15c2.05,-2.47 1.69,-3.66 1.71,-6.7 0,-0.34 -0.06,-0.66 -0.07,-0.99 -0.01,-0.36 0,-0.72 0,-1.08 -0.01,-1.04 0.26,-0.93 0.87,-1.61 0.29,-0.33 0.52,-0.75 0.64,-1.17 0.39,-1.32 1.29,-2.36 1.65,-3.71 1,-3.85 -0.44,-6.56 -1.88,-10 -0.57,-1.37 -0.63,-2.09 -0.82,-3.53 -0.18,-1.31 -0.02,-2.88 -0.02,-4.22 -0,-0.35 0.05,-0.67 0.07,-1.01 0.02,-0.36 -0.02,-0.72 0,-1.07 0.04,-0.67 0.11,-1.33 0.14,-2l0.07 -2c-0,-2.07 0.22,-4.14 0.22,-6.22 0,-0.67 0.01,-1.35 0.07,-2.02 0.06,-0.7 -0.04,-1.43 0,-2.13 0.05,-0.89 0.19,-2.12 0.08,-2.99l-0.08 -3.08c0,-0.34 -0.07,-0.66 -0.07,-1l-0.14 -7.37c0,-1.38 -0.1,-2.76 -0.14,-4.14 -0.02,-0.67 -0.15,-1.33 -0.15,-2.01l0 -0.59 0.43 0.56c0.04,0.06 0.06,0.09 0.09,0.15 0.43,0.76 2.06,4.35 1.96,5.07l-0.37 2.14c-0.37,2.16 -0.43,4.01 -0.43,6.19 0,0.55 0.03,1.11 0,1.65 -0.01,0.27 -0.09,0.48 -0.07,0.76 0.02,0.28 0.07,0.51 0.07,0.81 -0.01,2.67 0.64,5.6 1.83,7.99 0.86,1.72 1.55,2.33 2.81,3.69 0.13,0.14 0.22,0.3 0.35,0.43l1.21 1.38c0.55,0.73 0.76,1.51 1.04,2.35 0.74,2.24 0.62,3.17 -0.65,5.14 -0.21,0.33 -0.43,0.67 -0.63,1 -0.21,0.35 -0.44,0.7 -0.63,1.07 -0.39,0.75 -0.65,1.6 -0.78,2.43 -0.47,2.83 0.61,5.31 1.71,7.83 0.16,0.37 0.33,0.72 0.54,1.06 0.22,0.35 0.53,0.55 0.76,0.86 0.24,0.31 0.11,0.86 0.41,1.21 0.55,0.64 0.39,0.41 0.52,1.35 0.3,2.1 0.28,4.28 0.28,6.39 0,1.08 -0.09,2.2 0,3.27 0.04,0.53 0.07,1.06 0.07,1.59 0,0.27 -0.09,1.05 0.18,1.18 0.14,0.06 0.98,-0.04 1.37,0.09 0.43,0.13 0.87,0.22 1.31,0.31 1.36,0.28 2.75,0.27 4.13,0.28 1.66,0.02 3.3,-0.17 4.95,-0.19l1.53 -0.09c1.06,-0.06 2.13,0.02 3.18,-0.06 0.35,-0.02 0.43,-0.03 0.46,-0.39 0.01,-0.12 0,-0.28 0,-0.4l-0.2 -2.36c-0.03,-0.26 0,-0.52 -0.02,-0.78 -0.13,-1.65 -0.15,-3.3 -0.14,-4.96 0,-1.23 0.29,-3.27 0.6,-4.46 0.05,-0.2 0.07,-0.38 0.27,-0.46 0.03,-0.02 0.07,-0.09 0.09,-0.11 0.25,-0.42 0.06,-0.91 0.43,-1.33 0.54,-0.63 0.72,-1.52 0.96,-2.3l1.71 -5.02c1.04,-2.75 0.07,-6.53 0.47,-9.42 0.07,-0.5 0.05,-1.06 0.05,-1.57 -0.01,-2.16 0.59,-3.97 0.26,-6.23 -0.04,-0.29 -0.04,-0.55 -0.04,-0.84l-0.38 -5.47c-0.14,-1.03 -0.07,-2.12 -0.22,-3.15l-0.34 -4.75c-0.01,-0.49 -0.07,-1.01 -0.13,-1.5 -0.03,-0.28 0.01,-0.56 -0.02,-0.84 -0.26,-2.31 -0.28,-4.98 -0.28,-7.32l0 -6.72c0,-4.88 -2.11,-9.24 -2.78,-14l-0.77 -5.96c-0.39,-3.04 -0.63,-6.1 -1.01,-9.14 -0.13,-1 -0.2,-2.02 -0.33,-3.02l-1.35 -12.09c-0.42,-3.43 -0.9,-6.85 -1.46,-10.26 -0.08,-0.5 -0.2,-1 -0.24,-1.5 -0.04,-0.5 -0.07,-1 -0.13,-1.5 -0.06,-0.5 -0.15,-0.99 -0.22,-1.49 -0.63,-4.5 -1.94,-8.83 -3.74,-13 -0.65,-1.5 -1.41,-2.99 -2.32,-4.35 -1.09,-1.64 -2.23,-3.3 -3.57,-4.74 -0.15,-0.16 -0.29,-0.29 -0.43,-0.46 -0.12,-0.16 -0.25,-0.28 -0.39,-0.43 -0.56,-0.56 -1.12,-1.12 -1.68,-1.68 -0.27,-0.27 -0.57,-0.5 -0.87,-0.74 -0.51,-0.41 -1.28,-0.54 -1.49,-1.16 -0.07,-0.2 -0.14,-0.41 -0.23,-0.61 -0.13,-0.29 -0.51,-0.63 -0.76,-0.82 -0.84,-0.65 -1.57,-1.1 -2.47,-1.65 -0.18,-0.11 -0.34,-0.2 -0.54,-0.28l-16.46 -5.81 0.15 -0.21c0.22,-0.33 0.52,-0.61 0.67,-0.99 0.37,-0.94 0.35,-1.66 -0.06,-2.58 -0.18,-0.41 -0.34,-0.81 -0.57,-1.19l-1.27 -2.23c-1.47,-2.41 -1.62,-5.22 -2.85,-7.68 -0.28,-0.55 -0.44,-0.68 -0.44,-1.37l-0 -0.71c-0.08,-1.74 -1.05,-3.37 -2.18,-4.65 -0.62,-0.7 -0.65,-0.67 -1.55,-0.95 -2.08,-0.65 -5.97,-0.27 -8.22,-0.22l-4.79 0.42c-0.54,0.06 -1.09,0.12 -1.63,0.16l-6.28 0.71c-0.89,0.15 -1.47,0.23 -2.39,0.22 -0.28,-0 -0.52,-0.07 -0.78,-0.08 -0.29,-0.01 -0.58,0.02 -0.87,0l-2.5 -0.14c-2.28,0.01 -4.57,-0.15 -6.86,-0.15 -0.55,0 -1.09,-0.07 -1.65,-0.07l-5.22 -0.07c-0.55,0 -1.09,0.07 -1.64,0.07 -1.26,-0 -3.22,-0.04 -4.17,0.92 -1.26,1.28 -2.08,2.75 -2.28,4.56 -0.06,0.51 0.22,1 -0.02,1.49 -0.6,1.17 -0.72,2.94 -0.98,4.24 -0.47,2.35 -1.43,4.27 -2.32,6.46 -0.1,0.25 -0.5,0.92 -0.46,1.17 0.04,0.22 0.4,0.84 0.56,1 0.3,0.31 0.73,0.5 0.97,0.87l0.13 0.19 -0.21 0.1c-0.94,0.45 -1.96,0.74 -2.94,1.09 -2.93,1.06 -5.97,2.31 -8.96,3.14 -2.19,0.61 -5.35,1.55 -7.25,2.75 -0.8,0.5 -1.5,1.08 -2.09,1.82 -0.15,0.19 -0.29,0.35 -0.41,0.55 -0.39,0.65 -0.07,0.69 -0.93,0.93 -0.14,0.04 -0.24,0.08 -0.37,0.15 -0.46,0.24 -0.91,0.57 -1.3,0.92 -0.1,0.09 -0.22,0.16 -0.31,0.25l-1.54 1.46c-0.19,0.19 -0.34,0.41 -0.52,0.6l-2.62 3.22c-1.29,1.84 -2.59,3.69 -3.6,5.71l-0.79 1.57c-0.13,0.25 -0.26,0.51 -0.38,0.76 -0.67,1.31 -1.21,2.68 -1.86,4l-0.73 1.62c-3.42,7.94 -4.8,15.44 -6.6,23.81 -1.11,5.15 -2.16,10.88 -2.59,16.11 -0.06,0.69 -0.18,1.38 -0.21,2.07l-0.14 3.36c0,0.39 -0.05,0.76 -0.07,1.15 -0.04,0.78 0,1.57 0,2.35zm117.66 -5.05c0,0 0.1,5.14 0.15,6.89 0.05,1.75 0.17,6.61 0.2,7.47 0.03,0.86 0.14,1.72 0.14,1.72 0,0 0.76,-2.55 1.34,-4.09 0.57,-1.54 1.02,-2.27 0.83,-2.48 -0.19,-0.22 -1.5,-3.26 -1.87,-4.78 -0.36,-1.52 -0.31,-2.65 -0.3,-3.1m-87.61 9.24c0,0 -1.09,-3 -1.57,-3.81 -0.48,-0.81 -0.59,-0.97 -0.56,-1.28 0.03,-0.31 2.03,-5.41 2.87,-6.13 0,0 -0.19,3.29 -0.26,4.05 -0.07,0.75 -0.47,7.18 -0.47,7.18z"/>
     </clipPath>
     <clipPath id="id2">
      <path d="M48.01 117c0,3.75 -0.09,7.46 -0.49,11.19 -0.52,4.89 -0.96,9.82 -1.78,14.68 -0.68,4.04 -1.44,8.06 -1.87,12.13 -0.04,0.34 -0.08,0.7 -0.08,1.04 -0.01,1.15 -0.14,2.29 -0.14,3.43 0,1.36 0.01,3.17 -0.19,4.49l-0.2 2.15c-0.37,2.68 -0.91,5.32 -1.42,7.96 -0.7,3.66 -0.82,6.55 0.38,10.13 0.17,0.51 0.41,1.09 0.69,1.55 0.28,0.45 0.56,0.97 0.95,1.33 0.7,0.66 0.36,0.44 0.52,1.22 0.12,0.59 0.33,0.44 0.43,1.38 0.04,0.36 0.06,0.73 0.11,1.1 0.05,0.37 -0.01,0.74 0.04,1.1 0.25,1.8 -0.01,3.93 -0.02,5.78l-0.22 3.86c-0.1,1.25 -0.13,1.18 1.17,1.22 0.79,0.02 1.58,-0.05 2.37,0 0.67,0.04 1.32,0.06 1.99,0.06 0.33,0 0.63,0.05 0.94,0.07l3.35 0.15c1.36,0.04 4.93,0.61 5.91,-0.45 0.31,-0.33 0.28,-1.4 0.32,-1.86 0.23,-2.77 0.61,-5.62 1,-8.38 0.1,-0.69 0.19,-1.38 0.28,-2.07 0.02,-0.17 0.04,-0.35 0.07,-0.52 0.11,-0.52 0.37,-0.37 0.49,-1.28 0.09,-0.61 0.68,-0.92 1.08,-1.37 1.73,-1.96 3.06,-5.17 4.03,-7.6 0.72,-1.8 1.05,-3.93 1.05,-5.87 0,-0.73 0.01,-1.51 -0.1,-2.23 -0.22,-1.48 -0.11,-3.13 -0.11,-4.64 -0,-3.21 0.69,-4.94 1.51,-7.92 0.69,-2.49 1.43,-4.97 1.8,-7.54 0.19,-1.27 0.47,-2.54 1,-3.72 0.24,-0.54 0.54,-1.04 0.81,-1.56 1.38,-2.6 2.15,-3.52 2.75,-6.54 0.27,-1.35 0.33,-2.74 0.53,-4.1 0.21,-1.42 0.2,-2.85 0.43,-4.3 0.05,-0.33 0.11,-0.65 0.19,-0.98l0.67 -2.31 0 1.43c0,1.31 -0.06,2.7 -0.25,4 -0.26,1.79 -0.34,3.85 -0.48,5.67 -0.15,2.06 -0.31,4.14 -0.42,6.21 -0.04,0.67 -0,1.33 -0.1,1.99 -0.1,0.66 -0.04,1.34 -0.14,2 -0.2,1.32 -0.1,2.68 -0.3,3.98l-0.46 5.89c-0,0.66 -0.13,1.33 -0.15,2 -0.02,0.69 0.07,1.39 -0.03,2.07 -0.1,0.68 0.02,1.4 -0.04,2.09 -0.11,1.35 -0.17,2.71 -0.2,4.07 -0.04,1.31 -0.23,2.62 -0.29,3.93 -0.12,2.5 -0.5,4.96 -1.2,7.37 -0.32,1.1 -0.71,2.17 -1.01,3.28 -0.45,1.65 -0.61,3.91 -0.21,5.59 0.13,0.55 0.35,1.07 0.52,1.59l0.46 1.03c0.28,0.67 0.32,1.42 0.64,2.06 0.11,0.2 0.27,0.39 0.44,0.56l0.98 1.21c0.19,0.34 0.02,0.71 0.02,1.05 -0.06,4.37 -0.96,6.39 2.46,9.78 1.59,1.58 4.3,2.48 6.46,2.97 0.29,0.07 0.58,0.14 0.87,0.19 0.61,0.1 1.21,0.22 1.81,0.33 3.69,0.62 7.41,0.48 11.12,0.74 1.58,0.11 3.16,0.05 4.74,0.12l8.94 0.18c0.18,-0.01 0.27,-0.02 0.46,-0 1.43,0.08 2.85,-0.06 4.28,0.01 1.75,0.09 3.5,-0.02 5.26,0.05 0.17,0.01 0.34,0.02 0.52,0.02l1.94 0.02c1.54,0.02 3.08,0.05 4.61,-0.03 0.16,-0.01 0.29,-0.01 0.44,-0.01 0.28,0 0.56,-0.01 0.83,-0.01 0.55,0 1.09,0.02 1.63,-0.01l1.76 -0.03c0.72,0 1.43,-0 2.14,0l9.3 -0.22c1.56,0.01 3.09,-0.13 4.64,-0.22 1.5,-0.09 2.99,-0.33 4.47,-0.57l2.6 -0.54c2.07,-0.48 4.18,-1.21 5.9,-2.5 0.34,-0.26 0.67,-0.51 0.95,-0.84l0.13 -0.15c2.05,-2.47 1.69,-3.66 1.71,-6.7 0,-0.34 -0.06,-0.66 -0.07,-0.99 -0.01,-0.36 0,-0.72 0,-1.08 -0.01,-1.04 0.26,-0.93 0.87,-1.61 0.29,-0.33 0.52,-0.75 0.64,-1.17 0.39,-1.32 1.29,-2.36 1.65,-3.71 1,-3.85 -0.44,-6.56 -1.88,-10 -0.57,-1.37 -0.63,-2.09 -0.82,-3.53 -0.18,-1.31 -0.02,-2.88 -0.02,-4.22 -0,-0.35 0.05,-0.67 0.07,-1.01 0.02,-0.36 -0.02,-0.72 0,-1.07 0.04,-0.67 0.11,-1.33 0.14,-2l0.07 -2c-0,-2.07 0.22,-4.14 0.22,-6.22 0,-0.67 0.01,-1.35 0.07,-2.02 0.06,-0.7 -0.04,-1.43 0,-2.13 0.05,-0.89 0.19,-2.12 0.08,-2.99l-0.08 -3.08c0,-0.34 -0.07,-0.66 -0.07,-1l-0.14 -7.37c0,-1.38 -0.1,-2.76 -0.14,-4.14 -0.02,-0.67 -0.15,-1.33 -0.15,-2.01l0 -0.59 0.43 0.56c0.04,0.06 0.06,0.09 0.09,0.15 0.43,0.76 2.06,4.35 1.96,5.07l-0.37 2.14c-0.37,2.16 -0.43,4.01 -0.43,6.19 0,0.55 0.03,1.11 0,1.65 -0.01,0.27 -0.09,0.48 -0.07,0.76 0.02,0.28 0.07,0.51 0.07,0.81 -0.01,2.67 0.64,5.6 1.83,7.99 0.86,1.72 1.55,2.33 2.81,3.69 0.13,0.14 0.22,0.3 0.35,0.43l1.21 1.38c0.55,0.73 0.76,1.51 1.04,2.35 0.74,2.24 0.62,3.17 -0.65,5.14 -0.21,0.33 -0.43,0.67 -0.63,1 -0.21,0.35 -0.44,0.7 -0.63,1.07 -0.39,0.75 -0.65,1.6 -0.78,2.43 -0.47,2.83 0.61,5.31 1.71,7.83 0.16,0.37 0.33,0.72 0.54,1.06 0.22,0.35 0.53,0.55 0.76,0.86 0.24,0.31 0.11,0.86 0.41,1.21 0.55,0.64 0.39,0.41 0.52,1.35 0.3,2.1 0.28,4.28 0.28,6.39 0,1.08 -0.09,2.2 0,3.27 0.04,0.53 0.07,1.06 0.07,1.59 0,0.27 -0.09,1.05 0.18,1.18 0.14,0.06 0.98,-0.04 1.37,0.09 0.43,0.13 0.87,0.22 1.31,0.31 1.36,0.28 2.75,0.27 4.13,0.28 1.66,0.02 3.3,-0.17 4.95,-0.19l1.53 -0.09c1.06,-0.06 2.13,0.02 3.18,-0.06 0.35,-0.02 0.43,-0.03 0.46,-0.39 0.01,-0.12 0,-0.28 0,-0.4l-0.2 -2.36c-0.03,-0.26 0,-0.52 -0.02,-0.78 -0.13,-1.65 -0.15,-3.3 -0.14,-4.96 0,-1.23 0.29,-3.27 0.6,-4.46 0.05,-0.2 0.07,-0.38 0.27,-0.46 0.03,-0.02 0.07,-0.09 0.09,-0.11 0.25,-0.42 0.06,-0.91 0.43,-1.33 0.54,-0.63 0.72,-1.52 0.96,-2.3l1.71 -5.02c1.04,-2.75 0.07,-6.53 0.47,-9.42 0.07,-0.5 0.05,-1.06 0.05,-1.57 -0.01,-2.16 0.59,-3.97 0.26,-6.23 -0.04,-0.29 -0.04,-0.55 -0.04,-0.84l-0.38 -5.47c-0.14,-1.03 -0.07,-2.12 -0.22,-3.15l-0.34 -4.75c-0.01,-0.49 -0.07,-1.01 -0.13,-1.5 -0.03,-0.28 0.01,-0.56 -0.02,-0.84 -0.26,-2.31 -0.28,-4.98 -0.28,-7.32l0 -6.72c0,-4.88 -2.11,-9.24 -2.78,-14l-0.77 -5.96c-0.39,-3.04 -0.63,-6.1 -1.01,-9.14 -0.13,-1 -0.2,-2.02 -0.33,-3.02l-1.35 -12.09c-0.42,-3.43 -0.9,-6.85 -1.46,-10.26 -0.08,-0.5 -0.2,-1 -0.24,-1.5 -0.04,-0.5 -0.07,-1 -0.13,-1.5 -0.06,-0.5 -0.15,-0.99 -0.22,-1.49 -0.63,-4.5 -1.94,-8.83 -3.74,-13 -0.65,-1.5 -1.41,-2.99 -2.32,-4.35 -1.09,-1.64 -2.23,-3.3 -3.57,-4.74 -0.15,-0.16 -0.29,-0.29 -0.43,-0.46 -0.12,-0.16 -0.25,-0.28 -0.39,-0.43 -0.56,-0.56 -1.12,-1.12 -1.68,-1.68 -0.27,-0.27 -0.57,-0.5 -0.87,-0.74 -0.51,-0.41 -1.28,-0.54 -1.49,-1.16 -0.07,-0.2 -0.14,-0.41 -0.23,-0.61 -0.13,-0.29 -0.51,-0.63 -0.76,-0.82 -0.84,-0.65 -1.57,-1.1 -2.47,-1.65 -0.18,-0.11 -0.34,-0.2 -0.54,-0.28l-16.46 -5.81 0.15 -0.21c0.22,-0.33 0.52,-0.61 0.67,-0.99 0.37,-0.94 0.35,-1.66 -0.06,-2.58 -0.18,-0.41 -0.34,-0.81 -0.57,-1.19l-1.27 -2.23c-1.47,-2.41 -1.62,-5.22 -2.85,-7.68 -0.28,-0.55 -0.44,-0.68 -0.44,-1.37l-0 -0.71c-0.08,-1.74 -1.05,-3.37 -2.18,-4.65 -0.62,-0.7 -0.65,-0.67 -1.55,-0.95 -2.08,-0.65 -5.97,-0.27 -8.22,-0.22l-4.79 0.42c-0.54,0.06 -1.09,0.12 -1.63,0.16l-6.28 0.71c-0.89,0.15 -1.47,0.23 -2.39,0.22 -0.28,-0 -0.52,-0.07 -0.78,-0.08 -0.29,-0.01 -0.58,0.02 -0.87,0l-2.5 -0.14c-2.28,0.01 -4.57,-0.15 -6.86,-0.15 -0.55,0 -1.09,-0.07 -1.65,-0.07l-5.22 -0.07c-0.55,0 -1.09,0.07 -1.64,0.07 -1.26,-0 -3.22,-0.04 -4.17,0.92 -1.26,1.28 -2.08,2.75 -2.28,4.56 -0.06,0.51 0.22,1 -0.02,1.49 -0.6,1.17 -0.72,2.94 -0.98,4.24 -0.47,2.35 -1.43,4.27 -2.32,6.46 -0.1,0.25 -0.5,0.92 -0.46,1.17 0.04,0.22 0.4,0.84 0.56,1 0.3,0.31 0.73,0.5 0.97,0.87l0.13 0.19 -0.21 0.1c-0.94,0.45 -1.96,0.74 -2.94,1.09 -2.93,1.06 -5.97,2.31 -8.96,3.14 -2.19,0.61 -5.35,1.55 -7.25,2.75 -0.8,0.5 -1.5,1.08 -2.09,1.82 -0.15,0.19 -0.29,0.35 -0.41,0.55 -0.39,0.65 -0.07,0.69 -0.93,0.93 -0.14,0.04 -0.24,0.08 -0.37,0.15 -0.46,0.24 -0.91,0.57 -1.3,0.92 -0.1,0.09 -0.22,0.16 -0.31,0.25l-1.54 1.46c-0.19,0.19 -0.34,0.41 -0.52,0.6l-2.62 3.22c-1.29,1.84 -2.59,3.69 -3.6,5.71l-0.79 1.57c-0.13,0.25 -0.26,0.51 -0.38,0.76 -0.67,1.31 -1.21,2.68 -1.86,4l-0.73 1.62c-3.42,7.94 -4.8,15.44 -6.6,23.81 -1.11,5.15 -2.16,10.88 -2.59,16.11 -0.06,0.69 -0.18,1.38 -0.21,2.07l-0.14 3.36c0,0.39 -0.05,0.76 -0.07,1.15 -0.04,0.78 0,1.57 0,2.35zm117.66 -5.05c0,0 0.1,5.14 0.15,6.89 0.05,1.75 0.17,6.61 0.2,7.47 0.03,0.86 0.14,1.72 0.14,1.72 0,0 0.76,-2.55 1.34,-4.09 0.57,-1.54 1.02,-2.27 0.83,-2.48 -0.19,-0.22 -1.5,-3.26 -1.87,-4.78 -0.36,-1.52 -0.31,-2.65 -0.3,-3.1m-87.61 9.24c0,0 -1.09,-3 -1.57,-3.81 -0.48,-0.81 -0.59,-0.97 -0.56,-1.28 0.03,-0.31 2.03,-5.41 2.87,-6.13 0,0 -0.19,3.29 -0.26,4.05 -0.07,0.75 -0.47,7.18 -0.47,7.18z"/>
     </clipPath>
 </defs>
 <g id="Layer_x0020_1">
  <metadata id="CorelCorpID_0Corel-Layer"/>
  <rect class="fil0" x="-0" y="-0" width="239.99" height="226.66"/>
  <g id="_1951374134016">
   <g>
    <g>
     <path id="Edit_x0020_Warna" class="fil1" d="M48.01 117c0,3.75 -0.09,7.46 -0.49,11.19 -0.52,4.89 -0.96,9.82 -1.78,14.68 -0.68,4.04 -1.44,8.06 -1.87,12.13 -0.04,0.34 -0.08,0.7 -0.08,1.04 -0.01,1.15 -0.14,2.29 -0.14,3.43 0,1.36 0.01,3.17 -0.19,4.49l-0.2 2.15c-0.37,2.68 -0.91,5.32 -1.42,7.96 -0.7,3.66 -0.82,6.55 0.38,10.13 0.17,0.51 0.41,1.09 0.69,1.55 0.28,0.45 0.56,0.97 0.95,1.33 0.7,0.66 0.36,0.44 0.52,1.22 0.12,0.59 0.33,0.44 0.43,1.38 0.04,0.36 0.06,0.73 0.11,1.1 0.05,0.37 -0.01,0.74 0.04,1.1 0.25,1.8 -0.01,3.93 -0.02,5.78l-0.22 3.86c-0.1,1.25 -0.13,1.18 1.17,1.22 0.79,0.02 1.58,-0.05 2.37,0 0.67,0.04 1.32,0.06 1.99,0.06 0.33,0 0.63,0.05 0.94,0.07l3.35 0.15c1.36,0.04 4.93,0.61 5.91,-0.45 0.31,-0.33 0.28,-1.4 0.32,-1.86 0.23,-2.77 0.61,-5.62 1,-8.38 0.1,-0.69 0.19,-1.38 0.28,-2.07 0.02,-0.17 0.04,-0.35 0.07,-0.52 0.11,-0.52 0.37,-0.37 0.49,-1.28 0.09,-0.61 0.68,-0.92 1.08,-1.37 1.73,-1.96 3.06,-5.17 4.03,-7.6 0.72,-1.8 1.05,-3.93 1.05,-5.87 0,-0.73 0.01,-1.51 -0.1,-2.23 -0.22,-1.48 -0.11,-3.13 -0.11,-4.64 -0,-3.21 0.69,-4.94 1.51,-7.92 0.69,-2.49 1.43,-4.97 1.8,-7.54 0.19,-1.27 0.47,-2.54 1,-3.72 0.24,-0.54 0.54,-1.04 0.81,-1.56 1.38,-2.6 2.15,-3.52 2.75,-6.54 0.27,-1.35 0.33,-2.74 0.53,-4.1 0.21,-1.42 0.2,-2.85 0.43,-4.3 0.05,-0.33 0.11,-0.65 0.19,-0.98l0.67 -2.31 0 1.43c0,1.31 -0.06,2.7 -0.25,4 -0.26,1.79 -0.34,3.85 -0.48,5.67 -0.15,2.06 -0.31,4.14 -0.42,6.21 -0.04,0.67 -0,1.33 -0.1,1.99 -0.1,0.66 -0.04,1.34 -0.14,2 -0.2,1.32 -0.1,2.68 -0.3,3.98l-0.46 5.89c-0,0.66 -0.13,1.33 -0.15,2 -0.02,0.69 0.07,1.39 -0.03,2.07 -0.1,0.68 0.02,1.4 -0.04,2.09 -0.11,1.35 -0.17,2.71 -0.2,4.07 -0.04,1.31 -0.23,2.62 -0.29,3.93 -0.12,2.5 -0.5,4.96 -1.2,7.37 -0.32,1.1 -0.71,2.17 -1.01,3.28 -0.45,1.65 -0.61,3.91 -0.21,5.59 0.13,0.55 0.35,1.07 0.52,1.59l0.46 1.03c0.28,0.67 0.32,1.42 0.64,2.06 0.11,0.2 0.27,0.39 0.44,0.56l0.98 1.21c0.19,0.34 0.02,0.71 0.02,1.05 -0.06,4.37 -0.96,6.39 2.46,9.78 1.59,1.58 4.3,2.48 6.46,2.97 0.29,0.07 0.58,0.14 0.87,0.19 0.61,0.1 1.21,0.22 1.81,0.33 3.69,0.62 7.41,0.48 11.12,0.74 1.58,0.11 3.16,0.05 4.74,0.12l8.94 0.18c0.18,-0.01 0.27,-0.02 0.46,-0 1.43,0.08 2.85,-0.06 4.28,0.01 1.75,0.09 3.5,-0.02 5.25,0.05 0.17,0.01 0.35,0.02 0.52,0.02l1.94 0.02c1.54,0.02 3.08,0.05 4.61,-0.03 0.16,-0.01 0.29,-0.01 0.44,-0.01 0.28,0 0.56,-0.01 0.83,-0.01 0.55,0 1.09,0.02 1.63,-0.01l1.76 -0.03c0.72,0 1.43,-0 2.14,0l9.3 -0.22c1.56,0.01 3.09,-0.13 4.64,-0.22 1.5,-0.09 2.99,-0.33 4.47,-0.57l2.6 -0.54c2.07,-0.48 4.18,-1.21 5.9,-2.5 0.34,-0.26 0.67,-0.51 0.95,-0.84l0.13 -0.15c2.05,-2.47 1.69,-3.66 1.71,-6.7 0,-0.34 -0.06,-0.66 -0.07,-0.99 -0.01,-0.36 0,-0.72 0,-1.08 -0.01,-1.04 0.26,-0.93 0.87,-1.61 0.29,-0.33 0.52,-0.75 0.64,-1.17 0.39,-1.32 1.29,-2.36 1.65,-3.71 1,-3.85 -0.44,-6.56 -1.88,-10 -0.57,-1.37 -0.63,-2.09 -0.82,-3.53 -0.18,-1.31 -0.02,-2.88 -0.02,-4.22 -0,-0.35 0.05,-0.67 0.07,-1.01 0.02,-0.36 -0.02,-0.72 0,-1.07 0.04,-0.67 0.11,-1.33 0.14,-2l0.07 -2c-0,-2.07 0.22,-4.14 0.22,-6.22 0,-0.67 0.01,-1.35 0.07,-2.02 0.06,-0.7 -0.04,-1.43 0,-2.13 0.05,-0.89 0.19,-2.12 0.08,-2.99l-0.08 -3.08c0,-0.34 -0.07,-0.66 -0.07,-1l-0.14 -7.37c0,-1.38 -0.1,-2.76 -0.14,-4.14 -0.02,-0.67 -0.15,-1.33 -0.15,-2.01l0 -0.59 0.43 0.56c0.04,0.06 0.06,0.09 0.09,0.15 0.43,0.76 2.06,4.35 1.96,5.07l-0.37 2.14c-0.37,2.16 -0.43,4.01 -0.43,6.19 0,0.55 0.03,1.11 0,1.65 -0.01,0.27 -0.09,0.48 -0.07,0.76 0.02,0.28 0.07,0.51 0.07,0.81 -0.01,2.67 0.64,5.6 1.83,7.99 0.86,1.72 1.55,2.33 2.81,3.69 0.13,0.14 0.22,0.3 0.35,0.43l1.21 1.38c0.55,0.73 0.76,1.51 1.04,2.35 0.74,2.24 0.62,3.17 -0.65,5.14 -0.21,0.33 -0.43,0.67 -0.63,1 -0.21,0.35 -0.44,0.7 -0.63,1.07 -0.39,0.75 -0.65,1.6 -0.78,2.43 -0.47,2.83 0.61,5.31 1.71,7.83 0.16,0.37 0.33,0.72 0.54,1.06 0.22,0.35 0.53,0.55 0.76,0.86 0.24,0.31 0.11,0.86 0.41,1.21 0.55,0.64 0.39,0.41 0.52,1.35 0.3,2.1 0.28,4.28 0.28,6.39 0,1.08 -0.09,2.2 0,3.27 0.04,0.53 0.07,1.06 0.07,1.59 0,0.27 -0.09,1.05 0.18,1.18 0.14,0.06 0.98,-0.04 1.37,0.09 0.43,0.13 0.87,0.22 1.31,0.31 1.36,0.28 2.75,0.27 4.13,0.28 1.66,0.02 3.3,-0.17 4.95,-0.19l1.53 -0.09c1.06,-0.06 2.13,0.02 3.18,-0.06 0.35,-0.02 0.43,-0.03 0.46,-0.39 0.01,-0.12 0,-0.28 0,-0.4l-0.2 -2.36c-0.03,-0.26 0,-0.52 -0.02,-0.78 -0.13,-1.65 -0.15,-3.3 -0.14,-4.96 0,-1.23 0.29,-3.27 0.6,-4.46 0.05,-0.2 0.07,-0.38 0.27,-0.46 0.03,-0.02 0.07,-0.09 0.09,-0.11 0.25,-0.42 0.06,-0.91 0.43,-1.33 0.54,-0.63 0.72,-1.52 0.96,-2.3l1.71 -5.02c1.04,-2.75 0.07,-6.53 0.47,-9.42 0.07,-0.5 0.05,-1.06 0.05,-1.57 -0.01,-2.16 0.59,-3.97 0.26,-6.23 -0.04,-0.29 -0.04,-0.55 -0.04,-0.84l-0.38 -5.47c-0.14,-1.03 -0.07,-2.12 -0.22,-3.15l-0.34 -4.75c-0.01,-0.49 -0.07,-1.01 -0.13,-1.5 -0.03,-0.28 0.01,-0.56 -0.02,-0.84 -0.26,-2.31 -0.28,-4.98 -0.28,-7.32l0 -6.72c0,-4.88 -2.11,-9.24 -2.78,-14l-0.77 -5.96c-0.39,-3.04 -0.63,-6.1 -1.01,-9.14 -0.13,-1 -0.2,-2.02 -0.33,-3.02l-1.35 -12.09c-0.42,-3.43 -0.9,-6.85 -1.46,-10.26 -0.08,-0.5 -0.2,-1 -0.24,-1.5 -0.04,-0.5 -0.07,-1 -0.13,-1.5 -0.06,-0.5 -0.15,-0.99 -0.22,-1.49 -0.63,-4.5 -1.94,-8.83 -3.74,-13 -0.65,-1.5 -1.41,-2.99 -2.32,-4.35 -1.09,-1.64 -2.23,-3.3 -3.57,-4.74 -0.15,-0.16 -0.29,-0.29 -0.43,-0.46 -0.12,-0.16 -0.25,-0.28 -0.39,-0.43 -0.56,-0.56 -1.12,-1.12 -1.68,-1.68 -0.27,-0.27 -0.57,-0.5 -0.87,-0.74 -0.51,-0.41 -1.28,-0.54 -1.49,-1.16 -0.07,-0.2 -0.14,-0.41 -0.23,-0.61 -0.13,-0.29 -0.51,-0.63 -0.76,-0.82 -0.84,-0.65 -1.57,-1.1 -2.47,-1.65 -0.18,-0.11 -0.34,-0.2 -0.54,-0.28l-16.46 -5.81 0.15 -0.21c0.22,-0.33 0.52,-0.61 0.67,-0.99 0.37,-0.94 0.35,-1.66 -0.06,-2.58 -0.18,-0.41 -0.34,-0.81 -0.57,-1.19l-1.27 -2.23c-1.47,-2.41 -1.62,-5.22 -2.85,-7.68 -0.28,-0.55 -0.44,-0.68 -0.44,-1.37l-0 -0.71c-0.08,-1.74 -1.05,-3.37 -2.18,-4.65 -0.62,-0.7 -0.65,-0.67 -1.55,-0.95 -2.08,-0.65 -5.97,-0.27 -8.22,-0.22l-4.79 0.42c-0.54,0.06 -1.09,0.12 -1.63,0.16l-6.28 0.71c-0.89,0.15 -1.47,0.23 -2.39,0.22 -0.28,-0 -0.52,-0.07 -0.78,-0.08 -0.29,-0.01 -0.58,0.02 -0.87,0l-2.5 -0.14c-2.28,0.01 -4.57,-0.15 -6.86,-0.15 -0.55,0 -1.09,-0.07 -1.65,-0.07l-5.22 -0.07c-0.55,0 -1.09,0.07 -1.64,0.07 -1.26,-0 -3.22,-0.04 -4.17,0.92 -1.26,1.28 -2.08,2.75 -2.28,4.56 -0.06,0.51 0.22,1 -0.02,1.49 -0.6,1.17 -0.72,2.94 -0.98,4.24 -0.47,2.35 -1.43,4.27 -2.32,6.46 -0.1,0.25 -0.5,0.92 -0.46,1.17 0.04,0.22 0.4,0.84 0.56,1 0.3,0.31 0.73,0.5 0.97,0.87l0.13 0.19 -0.21 0.1c-0.94,0.45 -1.96,0.74 -2.94,1.09 -2.93,1.06 -5.97,2.31 -8.96,3.14 -2.19,0.61 -5.35,1.55 -7.25,2.75 -0.8,0.5 -1.5,1.08 -2.09,1.82 -0.15,0.19 -0.29,0.35 -0.41,0.55 -0.39,0.65 -0.07,0.69 -0.93,0.93 -0.14,0.04 -0.24,0.08 -0.37,0.15 -0.46,0.24 -0.91,0.57 -1.3,0.92 -0.1,0.09 -0.22,0.16 -0.31,0.25l-1.54 1.46c-0.19,0.19 -0.34,0.41 -0.52,0.6l-2.62 3.22c-1.29,1.84 -2.59,3.69 -3.6,5.71l-0.79 1.57c-0.13,0.25 -0.26,0.51 -0.38,0.76 -0.67,1.31 -1.21,2.68 -1.86,4l-0.73 1.62c-3.42,7.94 -4.8,15.44 -6.6,23.81 -1.11,5.15 -2.16,10.88 -2.59,16.11 -0.06,0.69 -0.18,1.38 -0.21,2.07l-0.14 3.36c0,0.39 -0.05,0.76 -0.07,1.15 -0.04,0.78 0,1.57 0,2.35zm30.54 5.81c0,0 -1.09,-3 -1.57,-3.81 -0.48,-0.81 -0.59,-0.97 -0.56,-1.28 0.03,-0.31 2.03,-5.41 2.87,-6.13 0,0 -0.19,3.29 -0.26,4.05 -0.07,0.75 -0.47,7.18 -0.47,7.18zm87.12 -10.86c0,0 0.1,5.14 0.15,6.89 0.05,1.75 0.17,6.61 0.2,7.47 0.03,0.86 0.14,1.72 0.14,1.72 0,0 0.76,-2.55 1.34,-4.09 0.57,-1.54 1.02,-2.27 0.83,-2.48 -0.19,-0.22 -1.5,-3.26 -1.87,-4.78 -0.36,-1.52 -0.31,-2.65 -0.3,-3.1l-0.49 -1.63z"/>
    </g>
    <path id="Edit_x0020_Warna_0" class="fil2" d="M153.96 38.31l0.15 -0.21c0.22,-0.33 0.52,-0.61 0.67,-0.99 0.37,-0.94 0.35,-1.66 -0.06,-2.58 -0.19,-0.41 -0.34,-0.81 -0.57,-1.19l-1.27 -2.23c-1.47,-2.41 -1.62,-5.22 -2.85,-7.68 -0.28,-0.55 -0.44,-0.68 -0.44,-1.37l-0 -0.71c-0.08,-1.74 -1.05,-3.37 -2.18,-4.65 -0.62,-0.7 -0.65,-0.67 -1.55,-0.95 -2.08,-0.65 -5.97,-0.27 -8.22,-0.22l-4.79 0.42c-0.54,0.06 -1.09,0.12 -1.63,0.16l-6.28 0.71c-0.89,0.15 -1.47,0.23 -2.39,0.22 -0.28,-0 -0.52,-0.07 -0.78,-0.08 -0.29,-0.01 -0.58,0.02 -0.87,0l-2.5 -0.14c-2.28,0.01 -4.57,-0.15 -6.86,-0.15 -0.55,0 -1.09,-0.07 -1.65,-0.07l-5.22 -0.07c-0.55,0 -1.09,0.07 -1.64,0.07 -1.26,-0 -3.22,-0.04 -4.17,0.92 -1.26,1.28 -2.08,2.75 -2.28,4.56 -0.06,0.51 0.22,1 -0.02,1.49 -0.6,1.17 -0.72,2.94 -0.98,4.24 -0.47,2.35 -1.43,4.27 -2.32,6.46 -0.1,0.25 -0.5,0.92 -0.46,1.17 0.04,0.22 0.4,0.84 0.56,1 0.3,0.31 0.73,0.5 0.97,0.87l0.13 0.19c0,0 1.58,-0.87 2.31,-1.01 0.73,-0.14 4.3,0.82 5.81,1.2 1.52,0.37 1.63,0.66 1.63,0.66 0,0 1.75,3.57 4.35,5.24 2.61,1.68 5.74,2.93 8.99,3.82 3.25,0.89 4.89,0.96 6.6,0.46 1.71,-0.5 4.1,-2.32 4.1,-2.32 0,0 3.43,0.43 5.53,-0.46 2.11,-0.89 5.32,-2.78 6.17,-3.89 0.86,-1.11 1.86,-2.64 1.86,-2.64 0,0 3,-0.87 5.07,-1.32 2.07,-0.44 3.16,-0.71 3.16,-0.71 0,0 2.74,1.36 3.93,1.78z"/>
    <path id="Edit_x0020_Warna_1" class="fil2" d="M76.02 195.81c0.19,0.34 0.02,0.71 0.02,1.05 -0.06,4.37 -0.96,6.39 2.46,9.78 1.59,1.58 4.3,2.48 6.46,2.97 0.29,0.07 0.58,0.14 0.87,0.19 0.61,0.1 1.21,0.22 1.82,0.33 3.69,0.62 7.4,0.48 11.11,0.74 1.58,0.11 3.16,0.05 4.74,0.12l8.94 0.18c0.18,-0.01 0.27,-0.02 0.46,-0 1.43,0.08 2.85,-0.06 4.28,0.01 1.75,0.09 3.5,-0.02 5.25,0.05 0.17,0.01 0.35,0.02 0.52,0.02l1.94 0.02c1.54,0.02 3.08,0.05 4.61,-0.03 0.16,-0.01 0.29,-0.01 0.44,-0.01 0.28,0 0.56,-0.01 0.83,-0.01 0.55,0 1.09,0.02 1.63,-0.01l1.76 -0.03c0.72,0 1.43,-0 2.14,0l9.3 -0.22c1.56,0.01 3.09,-0.13 4.64,-0.22 1.5,-0.09 2.99,-0.33 4.47,-0.57l2.6 -0.54c2.07,-0.48 4.18,-1.21 5.9,-2.5 0.34,-0.26 0.67,-0.51 0.95,-0.84l0.13 -0.15c2.05,-2.47 1.69,-3.66 1.71,-6.7 0,-0.34 -0.06,-0.66 -0.07,-0.99 -0.01,-0.36 0,-0.72 0,-1.08 0,-0.22 0.01,-0.39 0.03,-0.52 0,0 -3.17,1.48 -6.31,2.51 -3.14,1.04 -5.98,1.25 -7.01,1.29 -1.04,0.04 -5.93,-0.36 -9.85,-0.36 -3.93,0 -9.42,0.68 -10.09,0.86 -0.68,0.18 -5.28,0.14 -7.24,0.14 -1.96,0 -4.43,0.11 -7.14,0.28 -2.71,0.18 -5.03,-0.11 -6.74,-0.61 -1.71,-0.5 -6.19,-0.52 -7.69,-0.35 -1.5,0.16 -3.16,-0.59 -4.33,-0.75 -1.18,-0.16 -2.09,0.16 -2.93,0.5 -0.84,0.34 -2.55,0.35 -3.16,0.28 -0.61,-0.07 -6.96,-1.14 -11.42,-1.93 -4.46,-0.79 -6.04,-2.91 -6.04,-2.91z"/>
    <g>
     <path id="Edit_x0020_Warna_2" class="fil2" d="M48.01 117c0,3.75 -0.09,7.46 -0.49,11.19 -0.52,4.89 -0.96,9.82 -1.78,14.68 -0.68,4.04 -1.44,8.06 -1.87,12.13 -0.04,0.34 -0.08,0.7 -0.08,1.04 -0.01,1.15 -0.14,2.29 -0.14,3.43 0,1.36 0.01,3.17 -0.19,4.49l-0.2 2.15c-0.37,2.68 -0.91,5.32 -1.42,7.96 -0.7,3.66 -0.82,6.55 0.38,10.13 0.17,0.51 0.41,1.09 0.69,1.55 0.28,0.45 0.56,0.97 0.95,1.33 0.7,0.66 0.36,0.44 0.52,1.22 0.12,0.59 0.33,0.44 0.43,1.38 0.04,0.36 0.06,0.74 0.11,1.1 0.05,0.37 -0.01,0.74 0.04,1.1 0.25,1.8 -0.01,3.93 -0.02,5.78l-0.22 3.86c-0.1,1.25 -0.13,1.18 1.17,1.22 0.79,0.02 1.58,-0.05 2.37,0 0.67,0.04 1.32,0.06 1.99,0.06 0.33,0 0.63,0.05 0.94,0.07l3.35 0.15c1.36,0.04 4.93,0.61 5.91,-0.45 0.31,-0.33 0.28,-1.4 0.32,-1.86 0.23,-2.77 0.61,-5.62 1,-8.38 0.1,-0.69 0.19,-1.38 0.28,-2.07 0.02,-0.17 0.03,-0.35 0.07,-0.52 0.11,-0.52 0.36,-0.37 0.49,-1.28 0.09,-0.61 0.68,-0.92 1.08,-1.37 1.73,-1.96 3.06,-5.17 4.03,-7.6 0.72,-1.8 1.05,-3.93 1.05,-5.87 0,-0.73 0.01,-1.51 -0.1,-2.23 -0.22,-1.48 -0.11,-3.13 -0.11,-4.64 -0,-3.21 0.69,-4.94 1.51,-7.92 0.69,-2.49 1.43,-4.97 1.8,-7.54 0.19,-1.27 0.47,-2.54 1,-3.72 0.24,-0.54 0.54,-1.04 0.81,-1.56 1.38,-2.6 2.15,-3.52 2.75,-6.54 0.27,-1.35 0.33,-2.74 0.53,-4.1 0.21,-1.42 0.2,-2.85 0.43,-4.3 0.05,-0.33 0.11,-0.65 0.19,-0.98l0.67 -2.31c0,0 -0.06,-1.38 0.01,-2.61 0.07,-1.23 0.29,-2.38 0.29,-2.38 0,0 -1.09,-3 -1.57,-3.81 -0.48,-0.81 -0.59,-0.97 -0.56,-1.28 0.03,-0.31 2.03,-5.41 2.87,-6.13 0,0 -0.05,-1.68 0.1,-3.36 0.14,-1.68 0.78,-9.63 1.28,-14.17 0.5,-4.53 0.35,-7.35 0.25,-10.46 -0.11,-3.1 -1.78,-7.39 -2.46,-9.28 -0.68,-1.89 -2.28,-5.85 -3.57,-9.6 -1.29,-3.75 -2.35,-10.65 -2.48,-11.29 -0.13,-0.65 -0.46,-3.55 -0.48,-4.07 -0.02,-0.51 0.34,-1.76 0.35,-1.78 -0.08,0.11 -0.22,0.18 -0.63,0.29 -0.14,0.04 -0.24,0.08 -0.37,0.15 -0.46,0.24 -0.91,0.57 -1.3,0.92 -0.1,0.09 -0.22,0.16 -0.31,0.25l-1.54 1.46c-0.19,0.19 -0.34,0.41 -0.52,0.6l-2.62 3.22c-1.29,1.84 -2.59,3.69 -3.6,5.71l-0.79 1.57c-0.13,0.25 -0.26,0.51 -0.38,0.76 -0.67,1.31 -1.21,2.68 -1.86,4l-0.73 1.62c-3.42,7.94 -4.8,15.44 -6.6,23.81 -1.11,5.15 -2.16,10.88 -2.59,16.11 -0.06,0.69 -0.18,1.38 -0.21,2.07l-0.14 3.36c0,0.39 -0.05,0.76 -0.07,1.15 -0.04,0.78 0,1.57 0,2.35zm118.43 18.5l0.43 0.56c0.04,0.06 0.06,0.09 0.09,0.15 0.43,0.76 2.06,4.35 1.97,5.07l-0.37 2.14c-0.37,2.16 -0.43,4.01 -0.43,6.19 0,0.55 0.03,1.11 0,1.65 -0.01,0.27 -0.09,0.48 -0.07,0.76 0.02,0.28 0.07,0.51 0.07,0.81 -0.01,2.67 0.64,5.6 1.83,7.99 0.86,1.72 1.55,2.33 2.81,3.69 0.13,0.14 0.22,0.3 0.35,0.43l1.21 1.38c0.55,0.73 0.76,1.51 1.04,2.35 0.74,2.24 0.62,3.17 -0.65,5.14 -0.21,0.33 -0.43,0.67 -0.63,1 -0.21,0.35 -0.44,0.7 -0.63,1.07 -0.39,0.75 -0.65,1.6 -0.78,2.43 -0.47,2.83 0.61,5.31 1.71,7.83 0.16,0.37 0.33,0.72 0.54,1.06 0.22,0.35 0.53,0.55 0.76,0.86 0.24,0.31 0.11,0.86 0.41,1.21 0.55,0.64 0.39,0.41 0.52,1.35 0.3,2.1 0.28,4.28 0.28,6.39 0,1.08 -0.09,2.2 0,3.27 0.04,0.53 0.07,1.06 0.07,1.59 0,0.27 -0.09,1.05 0.18,1.18 0.14,0.06 0.98,-0.04 1.37,0.09 0.43,0.13 0.87,0.22 1.31,0.31 1.36,0.28 2.75,0.27 4.13,0.28 1.66,0.02 3.3,-0.17 4.95,-0.19l1.53 -0.09c1.06,-0.06 2.13,0.02 3.18,-0.06 0.35,-0.02 0.43,-0.03 0.46,-0.39 0.01,-0.12 0,-0.28 0,-0.4l-0.2 -2.36c-0.03,-0.26 0,-0.52 -0.02,-0.78 -0.13,-1.65 -0.15,-3.3 -0.14,-4.96 0,-1.23 0.29,-3.27 0.6,-4.46 0.05,-0.2 0.07,-0.38 0.28,-0.46 0.02,-0.02 0.07,-0.09 0.08,-0.11 0.25,-0.42 0.06,-0.91 0.43,-1.33 0.54,-0.63 0.72,-1.52 0.96,-2.3l1.71 -5.02c1.04,-2.75 0.07,-6.53 0.47,-9.42 0.07,-0.5 0.05,-1.06 0.05,-1.57 -0.01,-2.16 0.59,-3.97 0.26,-6.23 -0.04,-0.29 -0.04,-0.55 -0.04,-0.84l-0.38 -5.47c-0.14,-1.03 -0.07,-2.12 -0.22,-3.15l-0.34 -4.75c-0.01,-0.49 -0.07,-1.01 -0.13,-1.5 -0.03,-0.28 0.01,-0.56 -0.02,-0.84 -0.26,-2.31 -0.28,-4.98 -0.28,-7.32l0 -6.72c0,-4.88 -2.11,-9.24 -2.78,-14l-0.77 -5.96c-0.39,-3.04 -0.63,-6.1 -1.01,-9.14 -0.13,-1 -0.2,-2.02 -0.33,-3.02l-1.35 -12.09c-0.42,-3.43 -0.9,-6.85 -1.46,-10.26 -0.08,-0.5 -0.2,-1 -0.24,-1.5 -0.04,-0.5 -0.07,-1 -0.13,-1.5 -0.06,-0.5 -0.15,-0.99 -0.22,-1.49 -0.63,-4.5 -1.94,-8.83 -3.74,-13 -0.65,-1.5 -1.41,-2.99 -2.32,-4.35 -1.09,-1.65 -2.23,-3.3 -3.57,-4.75 -0.15,-0.16 -0.29,-0.29 -0.43,-0.46 -0.12,-0.16 -0.25,-0.28 -0.39,-0.43 -0.56,-0.56 -1.12,-1.12 -1.68,-1.68 -0.27,-0.27 -0.57,-0.5 -0.87,-0.74 -0.43,-0.35 -1.04,-0.49 -1.35,-0.91 0,0 -0.19,0.6 -0.61,1.71 -0.43,1.11 -1.43,5.31 -1.82,8.63 -0.39,3.32 -2.75,10.78 -3.35,12.31 -0.61,1.54 -2.85,8.6 -3.39,10.49 -0.54,1.89 -0.89,7.2 -0.93,10.28 -0.04,3.07 1.87,7.12 1.89,7.22 0.02,0.11 -1.21,2.53 -1.21,2.53 0,0 0.27,4.5 0.32,6.14 0.06,1.64 0.23,4.9 0.23,4.9l0.24 2.16 0.37 2.73 0.39 5.08c0,0 -0.54,2.8 -0.52,3.69 0.01,0.45 0,1.38 0.01,2.37 0,0.98 0.01,2.01 0.05,2.71 0.07,1.41 0.22,4.79 0.22,4.79zm-0.27 -7.5c0.09,-0.3 0.79,-2.62 1.33,-4.06 0.57,-1.54 1.02,-2.27 0.83,-2.48 -0.19,-0.22 -1.5,-3.26 -1.87,-4.78 -0.36,-1.52 -0.31,-2.65 -0.3,-3.1l0 14.42z"/>
    </g>
    <path id="Edit_x0020_Warna_3" class="fil2" d="M44.55 188.76c0.1,0.18 0.2,0.35 0.26,0.92 0.04,0.36 0.06,0.74 0.11,1.1 0.05,0.37 -0.01,0.74 0.04,1.1 0.25,1.8 -0.01,3.93 -0.02,5.78l-0.22 3.86c-0.1,1.25 -0.13,1.18 1.17,1.22 0.79,0.02 1.58,-0.05 2.37,0 0.67,0.04 1.32,0.06 1.99,0.06 0.33,0 0.63,0.05 0.94,0.07l3.35 0.15c1.36,0.04 4.93,0.61 5.91,-0.45 0.31,-0.33 0.28,-1.4 0.32,-1.86 0.23,-2.77 0.61,-5.62 1,-8.38 0.1,-0.69 0.19,-1.38 0.28,-2.07 0.02,-0.17 0.03,-0.35 0.07,-0.52 0.05,-0.21 0.11,-0.31 0.19,-0.41 -0.46,-0.62 -1.18,-0.69 -2.2,-0.96 -1.07,-0.28 -3.33,-0.44 -4.48,-0.61 -1.15,-0.17 -3.15,0.02 -3.99,0.14 -0.84,0.13 -2.75,0.13 -4.37,0.46 -1.62,0.34 -2.71,0.4 -2.72,0.4zm131.86 0.84c0,0 2.43,-0.52 5.11,-0.46 2.68,0.05 5.64,0.21 6.57,0.37 0.93,0.16 3.22,0.21 4.53,0.27 1.3,0.05 1.82,-0.01 1.82,-0.01 -0.04,0.08 -0.06,0.17 -0.08,0.27 -0.31,1.19 -0.6,3.23 -0.6,4.46 -0,1.65 0.01,3.31 0.14,4.96 0.02,0.26 -0.02,0.52 0.02,0.78l0.2 2.36c0,0.12 0.01,0.28 0,0.4 -0.03,0.35 -0.11,0.36 -0.46,0.39 -1.05,0.07 -2.12,-0.01 -3.18,0.06l-1.53 0.09c-1.65,0.03 -3.3,0.21 -4.95,0.19 -1.38,-0.01 -2.77,-0 -4.13,-0.28 -0.44,-0.09 -0.88,-0.19 -1.31,-0.31 -0.4,-0.12 -1.24,-0.02 -1.37,-0.09 -0.27,-0.13 -0.18,-0.91 -0.18,-1.18 0,-0.53 -0.02,-1.06 -0.07,-1.59 -0.09,-1.07 -0,-2.19 -0,-3.27 0,-2.12 0.01,-4.29 -0.28,-6.39 -0.1,-0.72 -0.03,-0.75 -0.23,-1.01z"/>
    <path class="fil2" d="M73.84 191.73l0 0c0,0 -0.07,-4.68 0.61,-7.96 0.68,-3.28 0.54,-3.31 1.61,-6.99 1.07,-3.67 3,-10.78 3.57,-12.99 0.57,-2.21 2.82,-11.78 3.75,-14.24 0.93,-2.46 2.68,-6.78 2.68,-6.78 0,0 0.94,0.37 2.19,0.61 1.25,0.24 11.33,0.67 13.65,0.6 2.32,-0.07 4.83,0 7.72,0.14 2.89,0.14 9.15,0.39 10.33,0.39 1.18,0 18.21,-0.38 22.53,-0.23 4.32,0.14 8.22,-0.04 9.83,-0.09 1.6,-0.06 2.46,-0.16 3.17,-0.32 0.71,-0.16 1.21,-0.34 1.21,-0.34 0,0 1.25,2.73 2.68,6.12 1.43,3.39 3.03,11.6 3.57,13.74 0.54,2.14 2.64,11.27 3,13.74 0.36,2.46 1.5,7.81 1.72,9.46 0.21,1.64 0.5,6.16 0.02,7.39 -0.08,0.2 -0.16,0.41 -0.22,0.62 -0.12,0.42 -0.35,0.84 -0.64,1.17 -0.48,0.54 -0.75,0.58 -0.84,1.09 0,0 -3.17,1.48 -6.31,2.51 -3.14,1.04 -5.98,1.25 -7.01,1.29 -1.04,0.04 -5.93,-0.36 -9.85,-0.36 -3.93,0 -9.42,0.68 -10.09,0.86 -0.68,0.18 -5.28,0.14 -7.24,0.14 -1.96,0 -4.43,0.11 -7.14,0.28 -2.71,0.18 -5.03,-0.11 -6.74,-0.61 -1.71,-0.5 -6.19,-0.52 -7.69,-0.35 -1.5,0.16 -3.16,-0.59 -4.33,-0.75 -1.18,-0.16 -2.09,0.16 -2.93,0.5 -0.84,0.34 -2.55,0.35 -3.16,0.28 -0.61,-0.07 -6.96,-1.14 -11.42,-1.93 -4.46,-0.79 -6.04,-2.91 -6.04,-2.91l-0.98 -1.21c-0.17,-0.17 -0.33,-0.35 -0.44,-0.56 -0.32,-0.64 -0.37,-1.39 -0.64,-2.06l-0.11 -0.26z"/>
    <path class="fil2" d="M114.83 36.46c0,0 -0.23,2.15 -0.26,2.77 -0.03,0.63 -0.28,4.61 -0.39,6.07 -0.11,1.46 -0.34,4.73 -0.48,6 -0.14,1.27 -1.46,13.27 -1.75,15.41 -0.29,2.14 -0.78,5.89 -1.02,6.93 -0.23,1.03 -1.36,4.31 -1.44,5.92 -0.09,1.61 -0.09,2.32 -0.09,2.32 0,0 -0.57,-0.02 -0.57,0.96 0,0.98 0.04,2 0.04,2 0,0 -0.71,0.48 -0.76,1.5 -0.06,1.02 -0.15,1.66 -0.39,2.61 -0.25,0.94 -0.72,1.91 -0.72,1.91 0,0 0.51,0.46 0.81,0.07 0,0 0.54,0.28 0.73,0.09 0.19,-0.19 0.22,-1.39 0.37,-1.66 0,0 0.22,0.37 0.24,0.92 0.02,0.55 -0.1,0.93 0.07,1.04 0.17,0.11 0.44,0.15 0.49,0.12 0.06,-0.04 0.15,-0.48 0.15,-0.48 0,0 0.13,0.37 0.5,0.24 0.36,-0.13 0.67,-0.2 0.59,-0.8 -0.08,-0.61 -0.54,-2.37 -0.65,-2.69 -0.12,-0.32 -0.2,-0.66 -0.17,-1.01 0.04,-0.35 0.04,-0.91 0.04,-0.91 0,0 0.91,-0.49 1,-1.26 0.09,-0.77 -0.15,-1.39 -0.15,-1.39 0,0 0.77,-0.35 0.8,-1.07 0.04,-0.72 -0.3,-1.7 -0.02,-3.02 0.28,-1.32 1.05,-3.96 1.41,-5.46 0.35,-1.5 1.11,-7.7 1.5,-10.74 0.39,-3.03 0.96,-8.31 1.18,-10.17 0.21,-1.85 0.55,-5.67 0.61,-6.57 0.06,-0.89 0.36,-5.03 0.39,-5.98 0.04,-0.94 0.25,-2.65 0.25,-3.03 0,-0.38 -0.08,-0.69 -0.08,-0.69 0,0 -1.19,-0.97 -2.22,0.05zm12.98 0.47c0,0 0.13,2.02 0.34,3.04 0.21,1.02 0.76,4.14 1.01,5.15 0.25,1.02 0.54,2.5 0.75,3.34 0.21,0.84 1.52,5.65 2.16,8.19 0.64,2.53 2.03,7.31 2.1,9.49 0.07,2.18 0.68,7.53 0.54,9.6 -0.14,2.07 -0.46,3.19 -0.09,3.91 0,0 -0.35,0.25 -0.42,0.61 -0.07,0.36 -0.3,1.27 -0.13,1.65 0.17,0.39 0.74,0.46 0.74,0.46 0,0 0.3,1.39 0.2,1.91 -0.09,0.52 -0.14,2.44 -0.14,2.87 0,0.43 0.23,0.75 0.47,0.64 0,0 0.48,0.85 0.8,0.58 0.32,-0.28 0.24,-0.34 0.24,-0.34 0,0 0.15,0.42 0.49,0.2 0.34,-0.22 0.11,-1.44 0.11,-1.44 0,0 0.63,1.06 0.94,0.96 0.3,-0.1 0.38,-0.3 0.02,-0.86 -0.37,-0.55 -1.34,-1.84 -1.48,-2.57 -0.14,-0.73 -0.52,-2.5 -0.52,-2.5 0,0 0.92,-0.87 1.02,-1.59 0.1,-0.71 -0.11,-1.13 -0.4,-1.14 0,0 0.15,-1.39 0.22,-2.73 0.07,-1.34 0.12,-9.42 -0.63,-12.31 -0.75,-2.89 -2.68,-11.38 -3.6,-14.56 -0.93,-3.17 -1.44,-6.78 -1.84,-8.69 -0.39,-1.91 -0.46,-2.98 -0.54,-3.4 -0.08,-0.42 -0.34,-0.75 -0.34,-0.75 0,0 -1.6,-0.44 -2.03,0.26z"/>
   </g>
   <g>
    <g>
     <path class="fil2" d="M99.01 79.27c0.09,-0.1 0.77,-1.3 0.84,-1.48 0.21,0.22 1.56,2.56 1.74,2.96 -0.13,0.31 -2.5,4.36 -2.65,4.48 -0.15,-0.48 -3.61,-6.25 -4.02,-6.96 -0.38,-0.66 -0.24,-0.5 0.47,-1.78l1.52 -2.61c0.65,-1.08 0.14,-0.55 -0.78,-2.61l-1.75 0 1.13 1.99 -1.7 2.94c-0.06,-0.05 -0.06,-0.05 -0.11,-0.12l-2.22 -3.84c-0.48,-0.85 -1.96,-3.29 -2.29,-3.96l8.64 -0 2.78 4.77c0.17,0.32 -0.02,0.48 -0.17,0.74l-1.98 3.43c-0.14,0.25 -0.35,0.45 -0.26,0.68 0.09,0.23 0.7,1.24 0.83,1.37z"/>
     <path class="fil2" d="M93.75 68.03c0.67,0.05 1.44,0.01 2.12,0.01 1.02,0 0.53,-0.09 1.62,-0.57 2.32,-1.02 4.82,-1.07 7.17,-0 0.61,0.28 0.79,0.58 1.56,0.57 0.73,-0.01 1.47,0.01 2.2,-0 -0.29,-0.58 -2.2,-1.8 -3.02,-2.17 -4.06,-1.85 -8.52,-0.95 -11.64,2.16z"/>
     <path class="fil2" d="M104.24 84.94c3.66,-1 7.11,-4.99 7.11,-9.54 0,-0.76 -0.04,-1.63 -0.23,-2.34l-0.89 1.46c-0.51,0.85 -0.61,0.87 -0.69,1.63 -0.28,2.42 -1.58,4.56 -3.46,5.91 -0.54,0.39 -0.54,0.58 -0.98,1.34 -0.25,0.44 -0.71,1.12 -0.86,1.53z"/>
     <path class="fil2" d="M97.9 84.93c-0.09,-0.3 -0.63,-1.15 -0.83,-1.49 -0.28,-0.48 -0.47,-1.03 -0.96,-1.37 -1.83,-1.26 -3.18,-3.49 -3.46,-5.84 -0.11,-0.87 -0.17,-0.72 -0.69,-1.64 -0.26,-0.46 -0.66,-1.07 -0.87,-1.52 -0.44,0.73 -0.22,3.41 -0.03,4.31 0.27,1.24 0.81,2.48 1.41,3.36 1.24,1.81 2.88,3.37 5.43,4.18z"/>
     <polygon class="fil2" points="99.92,85.86 101.51,88.64 113.24,68.27 110.02,68.27 "/>
     <polygon class="fil2" points="100.76,76.98 102.34,79.75 108.96,68.27 105.74,68.27 "/>
     <polygon class="fil2" points="98.49,68.28 100.98,72.54 101.76,71.11 102.95,71.11 104.54,68.27 "/>
    </g>
    <path class="fil3" d="M113.55 72.99l2.68 0.13c0.04,0.11 0.09,0.19 0.15,0.23 0.14,0.09 0.36,0.13 0.67,0.13 0.45,0 0.7,-0.1 0.76,-0.3 0.02,-0.09 -0.01,-0.16 -0.11,-0.19 -0.06,-0.02 -0.53,-0.09 -1.42,-0.22 -0.81,-0.11 -1.35,-0.23 -1.62,-0.35 -0.54,-0.25 -0.73,-0.67 -0.57,-1.26 0.11,-0.41 0.33,-0.74 0.68,-1.01 0.37,-0.29 0.87,-0.49 1.52,-0.59 0.37,-0.06 0.86,-0.09 1.44,-0.09 1.4,0 2.32,0.18 2.78,0.54 0.24,0.19 0.39,0.43 0.43,0.7 0.02,0.1 0.02,0.25 0.02,0.44l-2.86 -0.09c-0.09,-0.15 -0.32,-0.23 -0.7,-0.23 -0.26,0 -0.44,0.02 -0.53,0.07 -0.09,0.05 -0.14,0.11 -0.17,0.18 -0.02,0.06 -0,0.11 0.03,0.15 0.06,0.06 0.28,0.11 0.66,0.13 0.81,0.05 1.48,0.13 2.01,0.25 0.53,0.12 0.89,0.29 1.07,0.51 0.2,0.25 0.25,0.58 0.15,0.98 -0.16,0.58 -0.55,1.01 -1.19,1.29 -0.43,0.19 -0.86,0.3 -1.31,0.36 -0.43,0.05 -0.87,0.07 -1.34,0.07 -1.43,0 -2.37,-0.19 -2.83,-0.56 -0.26,-0.21 -0.41,-0.46 -0.43,-0.76 -0.01,-0.11 0,-0.28 0.04,-0.49zm6.56 1.6l1.76 -6.54 2.24 0 -1.75 6.54 -2.25 0zm10.04 -1.43c-0.18,0.32 -0.37,0.57 -0.57,0.75 -0.67,0.59 -1.77,0.89 -3.27,0.89 -1.33,0 -2.27,-0.2 -2.81,-0.58 -0.28,-0.2 -0.46,-0.5 -0.54,-0.9 -0.07,-0.38 -0.05,-0.79 0.07,-1.24 0.15,-0.57 0.42,-1.06 0.8,-1.46 0.42,-0.43 1.04,-0.75 1.87,-0.96 0.56,-0.14 1.15,-0.21 1.77,-0.21 0.9,0 1.62,0.15 2.17,0.44 0.48,0.26 0.75,0.62 0.82,1.11 0.06,0.35 -0.01,0.93 -0.2,1.73l-4.92 0c0.02,0.28 0.1,0.46 0.25,0.57 0.21,0.13 0.53,0.2 0.95,0.2 0.26,0 0.48,-0.03 0.66,-0.1 0.11,-0.04 0.24,-0.12 0.37,-0.24l2.57 0zm-4.46 -1.67l2.48 0c-0.02,-0.46 -0.37,-0.69 -1.04,-0.69 -0.33,0 -0.62,0.06 -0.88,0.18 -0.22,0.1 -0.41,0.27 -0.56,0.51zm11.65 1.67c-0.18,0.32 -0.37,0.57 -0.57,0.75 -0.67,0.59 -1.76,0.89 -3.27,0.89 -1.33,0 -2.27,-0.2 -2.81,-0.58 -0.28,-0.2 -0.46,-0.5 -0.54,-0.9 -0.07,-0.38 -0.05,-0.79 0.07,-1.24 0.15,-0.57 0.42,-1.06 0.8,-1.46 0.42,-0.43 1.04,-0.75 1.87,-0.96 0.56,-0.14 1.15,-0.21 1.77,-0.21 0.9,0 1.63,0.15 2.17,0.44 0.48,0.26 0.75,0.62 0.83,1.11 0.06,0.35 -0.02,0.93 -0.21,1.73l-4.92 0c0.01,0.28 0.09,0.46 0.25,0.57 0.21,0.13 0.53,0.2 0.95,0.2 0.26,0 0.48,-0.03 0.67,-0.1 0.11,-0.04 0.23,-0.12 0.37,-0.24l2.57 0zm-4.46 -1.67l2.48 0c-0.02,-0.46 -0.37,-0.69 -1.04,-0.69 -0.33,0 -0.62,0.06 -0.88,0.18 -0.22,0.1 -0.41,0.27 -0.56,0.51zm5.39 -1.81l2.25 0 -0.13 0.46c0.35,-0.22 0.67,-0.36 0.94,-0.44 0.37,-0.1 0.8,-0.15 1.28,-0.15 0.87,0 1.51,0.19 1.94,0.57 0.55,0.47 0.7,1.15 0.47,2.02 -0.14,0.53 -0.41,1 -0.79,1.43 -0.69,0.78 -1.71,1.16 -3.06,1.16 -0.47,0 -0.89,-0.06 -1.24,-0.17 -0.22,-0.07 -0.44,-0.18 -0.64,-0.34l-0.48 1.81 -2.24 0 1.7 -6.34zm3.17 1.45c-0.38,0 -0.7,0.07 -0.98,0.21 -0.3,0.17 -0.5,0.42 -0.59,0.77 -0.19,0.69 0.17,1.03 1.05,1.03 0.89,0 1.42,-0.33 1.6,-1 0.18,-0.67 -0.18,-1.01 -1.08,-1.01z"/>
    <path class="fil3" d="M116.63 81.46l-1.07 -4.91 2.49 0 0.5 2.39 1.72 -2.39 2.5 0 0.44 2.39 1.73 -2.39 2.31 0 -3.59 4.91 -2.33 0 -0.5 -2.52 -1.94 2.52 -2.26 0zm9.73 -3.44c0.17,-0.32 0.33,-0.57 0.51,-0.75 0.4,-0.4 0.99,-0.68 1.78,-0.82 0.43,-0.07 0.95,-0.11 1.56,-0.11 1.6,0 2.58,0.22 2.94,0.64 0.13,0.16 0.2,0.34 0.22,0.54 0.01,0.21 -0.04,0.53 -0.15,0.95l-0.51 1.92c-0.07,0.28 -0.12,0.5 -0.14,0.63 -0.02,0.14 -0,0.3 0.05,0.45l-2.35 0 0.07 -0.44c-0.35,0.17 -0.66,0.29 -0.93,0.36 -0.48,0.14 -1.01,0.2 -1.6,0.2 -0.78,0 -1.39,-0.13 -1.83,-0.38 -0.22,-0.12 -0.37,-0.29 -0.47,-0.5 -0.11,-0.24 -0.12,-0.51 -0.04,-0.82 0.15,-0.56 0.55,-0.94 1.19,-1.17 0.79,-0.27 1.89,-0.43 3.29,-0.46 0.57,-0.02 0.9,-0.05 1,-0.11 0.06,-0.03 0.09,-0.07 0.1,-0.13 0.03,-0.12 -0.03,-0.21 -0.18,-0.28 -0.21,-0.1 -0.5,-0.16 -0.86,-0.16 -0.29,0 -0.54,0.03 -0.76,0.09 -0.15,0.04 -0.28,0.12 -0.39,0.24l-2.5 0.1zm4.38 1.22l-0.07 0.02c-0.18,0.02 -0.46,0.04 -0.85,0.05 -0.56,0.02 -0.92,0.03 -1.08,0.06 -0.32,0.04 -0.51,0.18 -0.57,0.4 -0.07,0.28 0.19,0.41 0.8,0.41 0.74,0 1.23,-0.1 1.47,-0.3 0.13,-0.11 0.22,-0.27 0.28,-0.5l0.02 -0.12zm1.9 2.22l1.75 -6.54 2.25 0 -1.76 6.54 -2.24 0zm2.47 0l1.75 -6.54 2.24 0 -0.84 3.14 2.03 -1.52 3.06 0 -2.48 1.73 1.34 3.18 -2.82 0 -0.68 -1.89 -1.05 0.75 -0.31 1.14 -2.24 0zm14.02 -1.43c-0.18,0.32 -0.37,0.57 -0.57,0.75 -0.68,0.59 -1.77,0.89 -3.27,0.89 -1.33,0 -2.27,-0.2 -2.81,-0.59 -0.28,-0.2 -0.46,-0.5 -0.54,-0.89 -0.07,-0.38 -0.05,-0.79 0.07,-1.24 0.15,-0.57 0.42,-1.06 0.8,-1.46 0.42,-0.44 1.04,-0.75 1.87,-0.96 0.56,-0.14 1.15,-0.21 1.77,-0.21 0.9,0 1.63,0.15 2.17,0.44 0.48,0.26 0.75,0.62 0.83,1.11 0.06,0.35 -0.02,0.93 -0.21,1.72l-4.92 0c0.01,0.28 0.09,0.47 0.25,0.57 0.21,0.13 0.53,0.2 0.95,0.2 0.26,0 0.49,-0.04 0.67,-0.1 0.11,-0.04 0.23,-0.12 0.37,-0.24l2.57 0zm-4.46 -1.67l2.48 0c-0.02,-0.46 -0.37,-0.69 -1.04,-0.69 -0.33,0 -0.62,0.06 -0.88,0.18 -0.22,0.1 -0.41,0.27 -0.56,0.51zm4.08 3.1l1.31 -4.91 2.25 0 -0.13 0.47c0.66,-0.4 1.33,-0.59 1.99,-0.59 0.57,0 0.97,0.11 1.21,0.33 0.26,0.24 0.33,0.69 0.21,1.33 -0.03,0.18 -0.09,0.43 -0.17,0.74l-2.26 0c0.06,-0.29 0.06,-0.49 -0,-0.6 -0.08,-0.14 -0.24,-0.21 -0.48,-0.21 -0.28,0 -0.51,0.1 -0.69,0.29 -0.16,0.17 -0.29,0.45 -0.4,0.85l-0.61 2.29 -2.24 0z"/>
    <path class="fil2" d="M151.74 69.59c1.12,0 2.03,0.91 2.03,2.03 0,1.12 -0.91,2.03 -2.03,2.03 -1.12,0 -2.03,-0.91 -2.03,-2.03 0,-1.12 0.91,-2.03 2.03,-2.03zm0 0.31c0.95,0 1.72,0.77 1.72,1.72 0,0.95 -0.77,1.72 -1.72,1.72 -0.95,0 -1.72,-0.77 -1.72,-1.72 0,-0.95 0.77,-1.72 1.72,-1.72zm-0.93 2.75l0 -2.07 0.88 0c0.22,0 0.38,0.02 0.48,0.06 0.1,0.04 0.18,0.1 0.24,0.2 0.06,0.1 0.09,0.2 0.09,0.33 0,0.16 -0.05,0.28 -0.14,0.39 -0.09,0.1 -0.22,0.17 -0.41,0.19 0.09,0.05 0.17,0.11 0.22,0.17 0.06,0.06 0.14,0.17 0.24,0.33l0.26 0.41 -0.5 0 -0.3 -0.45c-0.11,-0.16 -0.18,-0.26 -0.22,-0.3 -0.04,-0.04 -0.08,-0.07 -0.13,-0.09 -0.04,-0.02 -0.11,-0.02 -0.21,-0.02l-0.08 0 0 0.87 -0.42 0zm0.42 -1.2l0.31 0c0.2,0 0.33,-0.01 0.38,-0.02 0.05,-0.02 0.09,-0.05 0.12,-0.09 0.03,-0.04 0.04,-0.09 0.04,-0.16 0,-0.07 -0.02,-0.13 -0.06,-0.17 -0.04,-0.04 -0.09,-0.07 -0.16,-0.08 -0.03,-0 -0.13,-0 -0.3,-0l-0.33 0 0 0.52z"/>
   </g>
   <g>
    <g style="clip-path:url(#id0)">
     <image id="Shading_x0020_1" x="16.3" y="-2.26" width="214.49" height="232.37" xlink:href="Divisi Hoodie_Images\Divisi Hoodie_ImgID1.png"/>
    </g>
    <g style="clip-path:url(#id1)">
     <image id="Shading_x0020_2" x="16.3" y="-2.26" width="214.49" height="232.37" xlink:href="Divisi Hoodie_Images\Divisi Hoodie_ImgID2.png"/>
    </g>
    <g style="clip-path:url(#id2)">
     <image id="Shading_x0020_2_4" x="16.3" y="-2.26" width="214.49" height="232.37" xlink:href="Divisi Hoodie_Images\Divisi Hoodie_ImgID3.png"/>
    </g>
   </g>
  </g>
 </g>
</svg>
