<?xml version="1.0" encoding="UTF-8"?>
<!DOCTYPE svg PUBLIC "-//W3C//DTD SVG 1.1//EN" "http://www.w3.org/Graphics/SVG/1.1/DTD/svg11.dtd">
<!-- Creator: CorelDRAW 2021.5 -->
<svg xmlns="http://www.w3.org/2000/svg" xml:space="preserve" width="0.239996in" height="0.226665in" version="1.1" style="shape-rendering:geometricPrecision; text-rendering:geometricPrecision; image-rendering:optimizeQuality; fill-rule:evenodd; clip-rule:evenodd"
viewBox="0 0 239.99 226.66"
 xmlns:xlink="http://www.w3.org/1999/xlink"
 xmlns:xodm="http://www.corel.com/coreldraw/odm/2003">
 <defs>
  <style type="text/css">
   <![CDATA[
    .fil1 {fill:#FEFEFE}
    .fil2 {fill:#000066}
    .fil3 {fill:#003399}
    .fil0 {fill:white}
    .fil4 {fill:#000066;fill-rule:nonzero}
   ]]>
  </style>
    <clipPath id="id0">
     <path d="M34.37 194.82c0,0 0.64,2.98 0.61,4.87 -0.03,1.89 -0.08,3.95 -0.01,4.57 0.07,0.62 0.37,1.36 1.22,1.61 0.85,0.25 3.33,0.3 4.41,0.37 1.09,0.07 4.61,-0.04 5.19,-0.15 0.59,-0.11 2.64,-0.36 2.97,-1.46 0.33,-1.1 0.7,-4.05 0.8,-5.78 0.09,-1.73 0.24,-3.2 0.24,-3.2 0,0 1.26,-0.73 1.72,-1.35 0.46,-0.61 0.96,-1.44 0.97,-2.11 0.01,-0.67 -0.03,-1.07 -0.03,-1.07 0,0 2.21,-1.77 2.58,-3.19 0.37,-1.42 0.67,-1.7 0.67,-1.7 0,0 1.64,-0.76 1.52,-2.48 -0.12,-1.72 -0.36,-2.3 -0.36,-2.3 0,0 0.46,-2 0.56,-3.65 0.1,-1.65 0.11,-3.17 0.78,-4.92 0.67,-1.75 1.09,-2.33 1.82,-3.1 0.73,-0.77 1.85,-2.19 2.37,-3.69 0.52,-1.49 1,-3.98 1.27,-5.5 0.27,-1.52 0.56,-2.52 0.91,-3.57 0.35,-1.05 1.06,-2.4 1.28,-2.71 0.22,-0.31 0.36,-0.63 0.36,-0.63 0,0 0.15,1.69 0.15,2.6 0.01,0.91 0.29,3.24 0.31,4.26 0.03,1.02 0.23,3.76 0.39,5.12 0.16,1.36 0.28,2.33 0.9,3.74 0.61,1.42 1.28,2.72 1.84,3.84 0.57,1.12 1.15,2.72 1.87,3.57 0.72,0.85 1.13,1.47 2.21,1.96 1.09,0.49 1.67,0.7 2.13,1.04 0.45,0.33 1.17,0.91 1.63,1.07 0.45,0.17 0.93,0.44 0.93,0.44 0,0 0.58,1.73 0.6,2.83 0.02,1.09 -0,3.35 -0.16,4.35 -0.15,1.01 -0.22,2.11 0.02,2.52 0.24,0.41 0.74,1.06 2.65,1.3 1.91,0.24 3.75,0.36 5.22,0.5 1.47,0.14 4.71,0.42 6.58,0.47 1.88,0.05 4.09,0.15 5.62,0.07 1.54,-0.08 3.32,-0.46 5.77,-0.38 2.45,0.09 6.37,0.19 8.35,0.37 1.98,0.17 3.05,0.13 4.98,0.13 1.93,0 3.26,0.02 4.17,0.02 0.91,0 3.47,-0.09 5.49,-0.13 2.02,-0.04 3.17,-0.21 4.63,-0.24 1.46,-0.03 3.46,-0.21 4.85,-0.07 1.39,0.14 5.15,0.2 9.07,0.08 3.92,-0.12 8.04,-0.22 10.85,-0.31 2.81,-0.09 5.65,-0.59 6,-0.8 0.34,-0.2 1.08,-0.65 0.85,-2.09 -0.24,-1.44 -0.87,-4.05 -0.74,-4.99 0.13,-0.94 0.23,-1.65 0.56,-2.2 0.33,-0.55 0.61,-1.06 0.61,-1.06 0,0 2.67,-0.61 3.69,-1.74 1.02,-1.13 1.63,-1.83 2.26,-2.3 0.63,-0.46 2.28,-1.81 3.02,-3.06 0.73,-1.26 1.64,-3.13 1.85,-4.22 0.21,-1.09 0.47,-2.3 0.47,-2.3 0,0 0.54,2.07 0.96,3.15 0.42,1.07 3.06,5.56 3.86,7.3 0.8,1.74 1.79,4.6 2.25,5.38 0.46,0.78 0.53,1.17 0.53,1.17 0,0 -0.72,1.65 -0.61,2.2 0.11,0.55 0.75,2.28 1.3,3.72 0.55,1.45 0.85,2.85 1.57,3.31 0.73,0.46 1.61,0.69 2.13,0.75 0.53,0.06 0.69,0.07 0.69,0.07 0,0 0.16,2.21 0.2,3.39 0.04,1.18 0.36,4.28 0.45,5.12 0.09,0.84 0.3,1.51 0.85,1.75 0.55,0.24 2.03,0.48 3.09,0.61 1.06,0.13 5.35,0.3 7.15,0.1 1.81,-0.2 3.76,-0.29 3.87,-1.38 0.11,-1.1 0.04,-4.55 -0.09,-6.15 -0.13,-1.6 0.03,-2.85 0.1,-3.56 0.07,-0.7 0.35,-1.26 0.35,-1.26 0,0 1.94,0 2.37,-0.13 0.43,-0.13 1.4,0.19 2.18,-0.36 0.78,-0.55 3.33,-2.33 3.98,-3.7 0.65,-1.37 0.85,-2.72 0.52,-4.82 -0.33,-2.1 -0.34,-2.29 -0.54,-2.59 -0.2,-0.3 -0.39,-0.58 -0.39,-0.58 0,0 0.35,-3.54 -0.02,-6.43 -0.38,-2.88 -0.72,-5.72 -0.56,-6.94 0.16,-1.22 0.26,-2.64 0.2,-3.35 -0.06,-0.71 -0.12,-0.99 -0.12,-0.99 0,0 0.36,-1.02 0.33,-3.18 -0.03,-2.16 -0.17,-3.33 -0.49,-4.65 -0.32,-1.31 -0.33,-1.25 -0.17,-2.82 0.16,-1.57 0.41,-5.05 0.02,-7.53 -0.39,-2.48 -1.91,-10.71 -1.91,-10.71l-2.52 -12.94 -2.44 -15.55c0,0 -0.91,-6.71 -1.39,-9.02 -0.48,-2.31 -1.95,-8.91 -2.61,-11.25 -0.66,-2.34 -3.31,-9.96 -4.44,-13 -1.13,-3.04 -1.65,-4.55 -1.65,-4.55 0,0 -1.29,-2.68 -2.82,-5.25 -1.52,-2.56 -2.54,-4.47 -3.4,-6.15 -0.85,-1.68 -2.02,-4.26 -3.28,-5.78 -1.26,-1.52 -3.73,-4.12 -6.34,-5.74 -2.6,-1.62 -5.6,-3.33 -7.96,-4.75 -2.36,-1.42 -10.18,-5.27 -12.28,-5.92 -2.11,-0.65 -7.72,-3.22 -10.01,-4.31 -2.3,-1.09 -3.45,-1.7 -4.34,-2.14 -0.88,-0.43 -2.71,-1.5 -4.25,-3.72 -1.54,-2.22 -2.6,-3.75 -4.8,-3.98 -2.19,-0.22 -7.97,-0.48 -11.59,-0.49 -3.63,-0.02 -7.83,-0.05 -11.14,0.06 -3.31,0.11 -6.33,0.13 -7.63,0.45 -1.3,0.32 -2.5,0.84 -3.15,2.04 -0.65,1.2 -1.5,3.2 -2.26,4.07 -0.76,0.87 -2.56,2.18 -3.46,2.51 -0.91,0.33 -1.31,0.62 -2.32,1.24 -1.01,0.62 -5.58,2.56 -8.37,3.76 -2.79,1.2 -6.09,2.31 -9.59,4.13 -3.5,1.82 -6.43,3.45 -8.91,5.13 -2.48,1.68 -5.46,3.75 -7.25,5.56 -1.78,1.81 -2.47,3.03 -4.02,6.73 -1.55,3.7 -3.09,6.83 -4.54,10.37 -1.45,3.53 -3.81,9.61 -4.56,12.03 -0.75,2.41 -2.57,7.98 -3.78,12.28 -1.21,4.3 -2.51,8.54 -3.45,11.88 -0.95,3.34 -3.12,10.74 -3.6,13.26 -0.48,2.52 -3.42,15.72 -3.42,15.72 0,0 -2.44,11.82 -3.05,14.75 -0.61,2.93 -0.65,4.44 -1.1,8.73 -0.45,4.29 -1.1,9.35 -1.1,9.35 0,0 -0.64,5.52 -0.67,8.43 -0.03,2.91 0.06,4.28 0.34,5.66 0.29,1.38 0.5,1.77 0.43,2.18 -0.06,0.41 -0.44,1.39 -0.52,2.84 -0.07,1.45 -0.31,2.53 -0.34,2.87 -0.02,0.34 0,1.44 0.89,1.72 0.89,0.27 1.18,0.25 1.18,0.25 0,0 0.13,0.35 0.22,0.94 0.09,0.59 0.63,2.11 1.23,2.8 0.59,0.69 0.59,1.13 1.87,1.62 1.28,0.49 2.65,1.04 2.65,1.04z"/>
    </clipPath>
    <clipPath id="id1">
     <path d="M34.37 194.82c0,0 0.64,2.98 0.61,4.87 -0.03,1.89 -0.08,3.95 -0.01,4.57 0.07,0.62 0.37,1.36 1.22,1.61 0.85,0.25 3.33,0.3 4.41,0.37 1.09,0.07 4.61,-0.04 5.19,-0.15 0.59,-0.11 2.64,-0.36 2.97,-1.46 0.33,-1.1 0.7,-4.05 0.8,-5.78 0.09,-1.73 0.24,-3.2 0.24,-3.2 0,0 1.26,-0.73 1.72,-1.35 0.46,-0.61 0.96,-1.44 0.97,-2.11 0.01,-0.67 -0.03,-1.07 -0.03,-1.07 0,0 2.21,-1.77 2.58,-3.19 0.37,-1.42 0.67,-1.7 0.67,-1.7 0,0 1.64,-0.76 1.52,-2.48 -0.12,-1.72 -0.36,-2.3 -0.36,-2.3 0,0 0.46,-2 0.56,-3.65 0.1,-1.65 0.11,-3.17 0.78,-4.92 0.67,-1.75 1.09,-2.33 1.82,-3.1 0.73,-0.77 1.85,-2.19 2.37,-3.69 0.52,-1.49 1,-3.98 1.27,-5.5 0.27,-1.52 0.56,-2.52 0.91,-3.57 0.35,-1.05 1.06,-2.4 1.28,-2.71 0.22,-0.31 0.36,-0.63 0.36,-0.63 0,0 0.15,1.69 0.15,2.6 0.01,0.91 0.29,3.24 0.31,4.26 0.03,1.02 0.23,3.76 0.39,5.12 0.16,1.36 0.28,2.33 0.9,3.74 0.61,1.42 1.28,2.72 1.84,3.84 0.57,1.12 1.15,2.72 1.87,3.57 0.72,0.85 1.13,1.47 2.21,1.96 1.09,0.49 1.67,0.7 2.13,1.04 0.45,0.33 1.17,0.91 1.63,1.07 0.45,0.17 0.93,0.44 0.93,0.44 0,0 0.58,1.73 0.6,2.83 0.02,1.09 -0,3.35 -0.16,4.35 -0.15,1.01 -0.22,2.11 0.02,2.52 0.24,0.41 0.74,1.06 2.65,1.3 1.91,0.24 3.75,0.36 5.22,0.5 1.47,0.14 4.71,0.42 6.58,0.47 1.88,0.05 4.09,0.15 5.62,0.07 1.54,-0.08 3.32,-0.46 5.77,-0.38 2.45,0.09 6.37,0.19 8.35,0.37 1.98,0.17 3.05,0.13 4.98,0.13 1.93,0 3.26,0.02 4.17,0.02 0.91,0 3.47,-0.09 5.49,-0.13 2.02,-0.04 3.17,-0.21 4.63,-0.24 1.46,-0.03 3.46,-0.21 4.85,-0.07 1.39,0.14 5.15,0.2 9.07,0.08 3.92,-0.12 8.04,-0.22 10.85,-0.31 2.81,-0.09 5.65,-0.59 6,-0.8 0.34,-0.2 1.08,-0.65 0.85,-2.09 -0.24,-1.44 -0.87,-4.05 -0.74,-4.99 0.13,-0.94 0.23,-1.65 0.56,-2.2 0.33,-0.55 0.61,-1.06 0.61,-1.06 0,0 2.67,-0.61 3.69,-1.74 1.02,-1.13 1.63,-1.83 2.26,-2.3 0.63,-0.46 2.28,-1.81 3.02,-3.06 0.73,-1.26 1.64,-3.13 1.85,-4.22 0.21,-1.09 0.47,-2.3 0.47,-2.3 0,0 0.54,2.07 0.96,3.15 0.42,1.07 3.06,5.56 3.86,7.3 0.8,1.74 1.79,4.6 2.25,5.38 0.46,0.78 0.53,1.17 0.53,1.17 0,0 -0.72,1.65 -0.61,2.2 0.11,0.55 0.75,2.28 1.3,3.72 0.55,1.45 0.85,2.85 1.57,3.31 0.73,0.46 1.61,0.69 2.13,0.75 0.53,0.06 0.69,0.07 0.69,0.07 0,0 0.16,2.21 0.2,3.39 0.04,1.18 0.36,4.28 0.45,5.12 0.09,0.84 0.3,1.51 0.85,1.75 0.55,0.24 2.03,0.48 3.09,0.61 1.06,0.13 5.35,0.3 7.15,0.1 1.81,-0.2 3.76,-0.29 3.87,-1.38 0.11,-1.1 0.04,-4.55 -0.09,-6.15 -0.13,-1.6 0.03,-2.85 0.1,-3.56 0.07,-0.7 0.35,-1.26 0.35,-1.26 0,0 1.94,0 2.37,-0.13 0.43,-0.13 1.4,0.19 2.18,-0.36 0.78,-0.55 3.33,-2.33 3.98,-3.7 0.65,-1.37 0.85,-2.72 0.52,-4.82 -0.33,-2.1 -0.34,-2.29 -0.54,-2.59 -0.2,-0.3 -0.39,-0.58 -0.39,-0.58 0,0 0.35,-3.54 -0.02,-6.43 -0.38,-2.88 -0.72,-5.72 -0.56,-6.94 0.16,-1.22 0.26,-2.64 0.2,-3.35 -0.06,-0.71 -0.12,-0.99 -0.12,-0.99 0,0 0.36,-1.02 0.33,-3.18 -0.03,-2.16 -0.17,-3.33 -0.49,-4.65 -0.32,-1.31 -0.33,-1.25 -0.17,-2.82 0.16,-1.57 0.41,-5.05 0.02,-7.53 -0.39,-2.48 -1.91,-10.71 -1.91,-10.71l-2.52 -12.94 -2.44 -15.55c0,0 -0.91,-6.71 -1.39,-9.02 -0.48,-2.31 -1.95,-8.91 -2.61,-11.25 -0.66,-2.34 -3.31,-9.96 -4.44,-13 -1.13,-3.04 -1.65,-4.55 -1.65,-4.55 0,0 -1.29,-2.68 -2.82,-5.25 -1.52,-2.56 -2.54,-4.47 -3.4,-6.15 -0.85,-1.68 -2.02,-4.26 -3.28,-5.78 -1.26,-1.52 -3.73,-4.12 -6.34,-5.74 -2.6,-1.62 -5.6,-3.33 -7.96,-4.75 -2.36,-1.42 -10.18,-5.27 -12.28,-5.92 -2.11,-0.65 -7.72,-3.22 -10.01,-4.31 -2.3,-1.09 -3.45,-1.7 -4.34,-2.14 -0.88,-0.43 -2.71,-1.5 -4.25,-3.72 -1.54,-2.22 -2.6,-3.75 -4.8,-3.98 -2.19,-0.22 -7.97,-0.48 -11.59,-0.49 -3.63,-0.02 -7.83,-0.05 -11.14,0.06 -3.31,0.11 -6.33,0.13 -7.63,0.45 -1.3,0.32 -2.5,0.84 -3.15,2.04 -0.65,1.2 -1.5,3.2 -2.26,4.07 -0.76,0.87 -2.56,2.18 -3.46,2.51 -0.91,0.33 -1.31,0.62 -2.32,1.24 -1.01,0.62 -5.58,2.56 -8.37,3.76 -2.79,1.2 -6.09,2.31 -9.59,4.13 -3.5,1.82 -6.43,3.45 -8.91,5.13 -2.48,1.68 -5.46,3.75 -7.25,5.56 -1.78,1.81 -2.47,3.03 -4.02,6.73 -1.55,3.7 -3.09,6.83 -4.54,10.37 -1.45,3.53 -3.81,9.61 -4.56,12.03 -0.75,2.41 -2.57,7.98 -3.78,12.28 -1.21,4.3 -2.51,8.54 -3.45,11.88 -0.95,3.34 -3.12,10.74 -3.6,13.26 -0.48,2.52 -3.42,15.72 -3.42,15.72 0,0 -2.44,11.82 -3.05,14.75 -0.61,2.93 -0.65,4.44 -1.1,8.73 -0.45,4.29 -1.1,9.35 -1.1,9.35 0,0 -0.64,5.52 -0.67,8.43 -0.03,2.91 0.06,4.28 0.34,5.66 0.29,1.38 0.5,1.77 0.43,2.18 -0.06,0.41 -0.44,1.39 -0.52,2.84 -0.07,1.45 -0.31,2.53 -0.34,2.87 -0.02,0.34 0,1.44 0.89,1.72 0.89,0.27 1.18,0.25 1.18,0.25 0,0 0.13,0.35 0.22,0.94 0.09,0.59 0.63,2.11 1.23,2.8 0.59,0.69 0.59,1.13 1.87,1.62 1.28,0.49 2.65,1.04 2.65,1.04z"/>
    </clipPath>
    <clipPath id="id2">
     <path d="M34.37 194.82c0,0 0.64,2.98 0.61,4.87 -0.03,1.89 -0.08,3.95 -0.01,4.57 0.07,0.62 0.37,1.36 1.22,1.61 0.85,0.25 3.33,0.3 4.41,0.37 1.09,0.07 4.61,-0.04 5.19,-0.15 0.59,-0.11 2.64,-0.36 2.97,-1.46 0.33,-1.1 0.7,-4.05 0.8,-5.78 0.09,-1.73 0.24,-3.2 0.24,-3.2 0,0 1.26,-0.73 1.72,-1.35 0.46,-0.61 0.96,-1.44 0.97,-2.11 0.01,-0.67 -0.03,-1.07 -0.03,-1.07 0,0 2.21,-1.77 2.58,-3.19 0.37,-1.42 0.67,-1.7 0.67,-1.7 0,0 1.64,-0.76 1.52,-2.48 -0.12,-1.72 -0.36,-2.3 -0.36,-2.3 0,0 0.46,-2 0.56,-3.65 0.1,-1.65 0.11,-3.17 0.78,-4.92 0.67,-1.75 1.09,-2.33 1.82,-3.1 0.73,-0.77 1.85,-2.19 2.37,-3.69 0.52,-1.49 1,-3.98 1.27,-5.5 0.27,-1.52 0.56,-2.52 0.91,-3.57 0.35,-1.05 1.06,-2.4 1.28,-2.71 0.22,-0.31 0.36,-0.63 0.36,-0.63 0,0 0.15,1.69 0.15,2.6 0.01,0.91 0.29,3.24 0.31,4.26 0.03,1.02 0.23,3.76 0.39,5.12 0.16,1.36 0.28,2.33 0.9,3.74 0.61,1.42 1.28,2.72 1.84,3.84 0.57,1.12 1.15,2.72 1.87,3.57 0.72,0.85 1.13,1.47 2.21,1.96 1.09,0.49 1.67,0.7 2.13,1.04 0.45,0.33 1.17,0.91 1.63,1.07 0.45,0.17 0.93,0.44 0.93,0.44 0,0 0.58,1.73 0.6,2.83 0.02,1.09 -0,3.35 -0.16,4.35 -0.15,1.01 -0.22,2.11 0.02,2.52 0.24,0.41 0.74,1.06 2.65,1.3 1.91,0.24 3.75,0.36 5.22,0.5 1.47,0.14 4.71,0.42 6.58,0.47 1.88,0.05 4.09,0.15 5.62,0.07 1.54,-0.08 3.32,-0.46 5.77,-0.38 2.45,0.09 6.37,0.19 8.35,0.37 1.98,0.17 3.05,0.13 4.98,0.13 1.93,0 3.26,0.02 4.17,0.02 0.91,0 3.47,-0.09 5.49,-0.13 2.02,-0.04 3.17,-0.21 4.63,-0.24 1.46,-0.03 3.46,-0.21 4.85,-0.07 1.39,0.14 5.15,0.2 9.07,0.08 3.92,-0.12 8.04,-0.22 10.85,-0.31 2.81,-0.09 5.65,-0.59 6,-0.8 0.34,-0.2 1.08,-0.65 0.85,-2.09 -0.24,-1.44 -0.87,-4.05 -0.74,-4.99 0.13,-0.94 0.23,-1.65 0.56,-2.2 0.33,-0.55 0.61,-1.06 0.61,-1.06 0,0 2.67,-0.61 3.69,-1.74 1.02,-1.13 1.63,-1.83 2.26,-2.3 0.63,-0.46 2.28,-1.81 3.02,-3.06 0.73,-1.26 1.64,-3.13 1.85,-4.22 0.21,-1.09 0.47,-2.3 0.47,-2.3 0,0 0.54,2.07 0.96,3.15 0.42,1.07 3.06,5.56 3.86,7.3 0.8,1.74 1.79,4.6 2.25,5.38 0.46,0.78 0.53,1.17 0.53,1.17 0,0 -0.72,1.65 -0.61,2.2 0.11,0.55 0.75,2.28 1.3,3.72 0.55,1.45 0.85,2.85 1.57,3.31 0.73,0.46 1.61,0.69 2.13,0.75 0.53,0.06 0.69,0.07 0.69,0.07 0,0 0.16,2.21 0.2,3.39 0.04,1.18 0.36,4.28 0.45,5.12 0.09,0.84 0.3,1.51 0.85,1.75 0.55,0.24 2.03,0.48 3.09,0.61 1.06,0.13 5.35,0.3 7.15,0.1 1.81,-0.2 3.76,-0.29 3.87,-1.38 0.11,-1.1 0.04,-4.55 -0.09,-6.15 -0.13,-1.6 0.03,-2.85 0.1,-3.56 0.07,-0.7 0.35,-1.26 0.35,-1.26 0,0 1.94,0 2.37,-0.13 0.43,-0.13 1.4,0.19 2.18,-0.36 0.78,-0.55 3.33,-2.33 3.98,-3.7 0.65,-1.37 0.85,-2.72 0.52,-4.82 -0.33,-2.1 -0.34,-2.29 -0.54,-2.59 -0.2,-0.3 -0.39,-0.58 -0.39,-0.58 0,0 0.35,-3.54 -0.02,-6.43 -0.38,-2.88 -0.72,-5.72 -0.56,-6.94 0.16,-1.22 0.26,-2.64 0.2,-3.35 -0.06,-0.71 -0.12,-0.99 -0.12,-0.99 0,0 0.36,-1.02 0.33,-3.18 -0.03,-2.16 -0.17,-3.33 -0.49,-4.65 -0.32,-1.31 -0.33,-1.25 -0.17,-2.82 0.16,-1.57 0.41,-5.05 0.02,-7.53 -0.39,-2.48 -1.91,-10.71 -1.91,-10.71l-2.52 -12.94 -2.44 -15.55c0,0 -0.91,-6.71 -1.39,-9.02 -0.48,-2.31 -1.95,-8.91 -2.61,-11.25 -0.66,-2.34 -3.31,-9.96 -4.44,-13 -1.13,-3.04 -1.65,-4.55 -1.65,-4.55 0,0 -1.29,-2.68 -2.82,-5.25 -1.52,-2.56 -2.54,-4.47 -3.4,-6.15 -0.85,-1.68 -2.02,-4.26 -3.28,-5.78 -1.26,-1.52 -3.73,-4.12 -6.34,-5.74 -2.6,-1.62 -5.6,-3.33 -7.96,-4.75 -2.36,-1.42 -10.18,-5.27 -12.28,-5.92 -2.11,-0.65 -7.72,-3.22 -10.01,-4.31 -2.3,-1.09 -3.45,-1.7 -4.34,-2.14 -0.88,-0.43 -2.71,-1.5 -4.25,-3.72 -1.54,-2.22 -2.6,-3.75 -4.8,-3.98 -2.19,-0.22 -7.97,-0.48 -11.59,-0.49 -3.63,-0.02 -7.83,-0.05 -11.14,0.06 -3.31,0.11 -6.33,0.13 -7.63,0.45 -1.3,0.32 -2.5,0.84 -3.15,2.04 -0.65,1.2 -1.5,3.2 -2.26,4.07 -0.76,0.87 -2.56,2.18 -3.46,2.51 -0.91,0.33 -1.31,0.62 -2.32,1.24 -1.01,0.62 -5.58,2.56 -8.37,3.76 -2.79,1.2 -6.09,2.31 -9.59,4.13 -3.5,1.82 -6.43,3.45 -8.91,5.13 -2.48,1.68 -5.46,3.75 -7.25,5.56 -1.78,1.81 -2.47,3.03 -4.02,6.73 -1.55,3.7 -3.09,6.83 -4.54,10.37 -1.45,3.53 -3.81,9.61 -4.56,12.03 -0.75,2.41 -2.57,7.98 -3.78,12.28 -1.21,4.3 -2.51,8.54 -3.45,11.88 -0.95,3.34 -3.12,10.74 -3.6,13.26 -0.48,2.52 -3.42,15.72 -3.42,15.72 0,0 -2.44,11.82 -3.05,14.75 -0.61,2.93 -0.65,4.44 -1.1,8.73 -0.45,4.29 -1.1,9.35 -1.1,9.35 0,0 -0.64,5.52 -0.67,8.43 -0.03,2.91 0.06,4.28 0.34,5.66 0.29,1.38 0.5,1.77 0.43,2.18 -0.06,0.41 -0.44,1.39 -0.52,2.84 -0.07,1.45 -0.31,2.53 -0.34,2.87 -0.02,0.34 0,1.44 0.89,1.72 0.89,0.27 1.18,0.25 1.18,0.25 0,0 0.13,0.35 0.22,0.94 0.09,0.59 0.63,2.11 1.23,2.8 0.59,0.69 0.59,1.13 1.87,1.62 1.28,0.49 2.65,1.04 2.65,1.04z"/>
    </clipPath>
 </defs>
 <g id="Layer_x0020_1">
  <metadata id="CorelCorpID_0Corel-Layer"/>
  <rect class="fil0" x="-0" y="-0" width="239.99" height="226.66"/>
  <g id="_1952449466672">
   <path class="fil1" d="M34.37 194.82c0,0 0.64,2.98 0.61,4.87 -0.03,1.89 -0.08,3.95 -0.01,4.57 0.07,0.62 0.37,1.36 1.22,1.61 0.85,0.25 3.33,0.3 4.41,0.37 1.09,0.07 4.61,-0.04 5.19,-0.15 0.59,-0.11 2.64,-0.36 2.97,-1.46 0.33,-1.1 0.7,-4.05 0.8,-5.78 0.09,-1.73 0.24,-3.2 0.24,-3.2 0,0 1.26,-0.73 1.72,-1.35 0.46,-0.61 0.96,-1.44 0.97,-2.11 0.01,-0.67 -0.03,-1.07 -0.03,-1.07 0,0 2.21,-1.77 2.58,-3.19 0.37,-1.42 0.67,-1.7 0.67,-1.7 0,0 1.64,-0.76 1.52,-2.48 -0.12,-1.72 -0.36,-2.3 -0.36,-2.3 0,0 0.46,-2 0.56,-3.65 0.1,-1.65 0.11,-3.17 0.78,-4.92 0.67,-1.75 1.09,-2.33 1.82,-3.1 0.73,-0.77 1.85,-2.19 2.37,-3.69 0.52,-1.49 1,-3.98 1.27,-5.5 0.27,-1.52 0.56,-2.52 0.91,-3.57 0.35,-1.05 1.06,-2.4 1.28,-2.71 0.22,-0.31 0.36,-0.63 0.36,-0.63 0,0 0.15,1.69 0.15,2.6 0.01,0.91 0.29,3.24 0.31,4.26 0.03,1.02 0.23,3.76 0.39,5.12 0.16,1.36 0.28,2.33 0.9,3.74 0.61,1.42 1.28,2.72 1.84,3.84 0.57,1.12 1.15,2.72 1.87,3.57 0.72,0.85 1.13,1.47 2.21,1.96 1.09,0.49 1.67,0.7 2.13,1.04 0.45,0.33 1.17,0.91 1.63,1.07 0.45,0.17 0.93,0.44 0.93,0.44 0,0 0.58,1.73 0.6,2.83 0.02,1.09 -0,3.35 -0.16,4.35 -0.15,1.01 -0.22,2.11 0.02,2.52 0.24,0.41 0.74,1.06 2.65,1.3 1.91,0.24 3.75,0.36 5.22,0.5 1.47,0.14 4.71,0.42 6.58,0.47 1.88,0.05 4.09,0.15 5.62,0.07 1.54,-0.08 3.32,-0.46 5.77,-0.38 2.45,0.09 6.37,0.19 8.35,0.37 1.98,0.17 3.05,0.13 4.98,0.13 1.93,0 3.26,0.02 4.17,0.02 0.91,0 3.47,-0.09 5.49,-0.13 2.02,-0.04 3.17,-0.21 4.63,-0.24 1.46,-0.03 3.46,-0.21 4.85,-0.07 1.39,0.14 5.15,0.2 9.07,0.08 3.92,-0.12 8.04,-0.22 10.85,-0.31 2.81,-0.09 5.65,-0.59 6,-0.8 0.34,-0.2 1.08,-0.65 0.85,-2.09 -0.24,-1.44 -0.87,-4.05 -0.74,-4.99 0.13,-0.94 0.23,-1.65 0.56,-2.2 0.33,-0.55 0.61,-1.06 0.61,-1.06 0,0 2.67,-0.61 3.69,-1.74 1.02,-1.13 1.63,-1.83 2.26,-2.3 0.63,-0.46 2.28,-1.81 3.02,-3.06 0.73,-1.26 1.64,-3.13 1.85,-4.22 0.21,-1.09 0.47,-2.3 0.47,-2.3 0,0 0.54,2.07 0.96,3.15 0.42,1.07 3.06,5.56 3.86,7.3 0.8,1.74 1.79,4.6 2.25,5.38 0.46,0.78 0.53,1.17 0.53,1.17 0,0 -0.72,1.65 -0.61,2.2 0.11,0.55 0.75,2.28 1.3,3.72 0.55,1.45 0.85,2.85 1.57,3.31 0.73,0.46 1.61,0.69 2.13,0.75 0.53,0.06 0.69,0.07 0.69,0.07 0,0 0.16,2.21 0.2,3.39 0.04,1.18 0.36,4.28 0.45,5.12 0.09,0.84 0.3,1.51 0.85,1.75 0.55,0.24 2.03,0.48 3.09,0.61 1.06,0.13 5.35,0.3 7.15,0.1 1.81,-0.2 3.76,-0.29 3.87,-1.38 0.11,-1.1 0.04,-4.55 -0.09,-6.15 -0.13,-1.6 0.03,-2.85 0.1,-3.56 0.07,-0.7 0.35,-1.26 0.35,-1.26 0,0 1.94,0 2.37,-0.13 0.43,-0.13 1.4,0.19 2.18,-0.36 0.78,-0.55 3.33,-2.33 3.98,-3.7 0.65,-1.37 0.85,-2.72 0.52,-4.82 -0.33,-2.1 -0.34,-2.29 -0.54,-2.59 -0.2,-0.3 -0.39,-0.58 -0.39,-0.58 0,0 0.35,-3.54 -0.02,-6.43 -0.38,-2.88 -0.72,-5.72 -0.56,-6.94 0.16,-1.22 0.26,-2.64 0.2,-3.35 -0.06,-0.71 -0.12,-0.99 -0.12,-0.99 0,0 0.36,-1.02 0.33,-3.18 -0.03,-2.16 -0.17,-3.33 -0.49,-4.65 -0.32,-1.31 -0.33,-1.25 -0.17,-2.82 0.16,-1.57 0.41,-5.05 0.02,-7.53 -0.39,-2.48 -1.91,-10.71 -1.91,-10.71l-2.52 -12.94 -2.44 -15.55c0,0 -0.91,-6.71 -1.39,-9.02 -0.48,-2.31 -1.95,-8.91 -2.61,-11.25 -0.66,-2.34 -3.31,-9.96 -4.44,-13 -1.13,-3.04 -1.65,-4.55 -1.65,-4.55 0,0 -1.29,-2.68 -2.82,-5.25 -1.52,-2.56 -2.54,-4.47 -3.4,-6.15 -0.85,-1.68 -2.02,-4.26 -3.28,-5.78 -1.26,-1.52 -3.73,-4.12 -6.34,-5.74 -2.6,-1.62 -5.6,-3.33 -7.96,-4.75 -2.36,-1.42 -10.18,-5.27 -12.28,-5.92 -2.11,-0.65 -7.72,-3.22 -10.01,-4.31 -2.3,-1.09 -3.45,-1.7 -4.34,-2.14 -0.88,-0.43 -2.71,-1.5 -4.25,-3.72 -1.54,-2.22 -2.6,-3.75 -4.8,-3.98 -2.19,-0.22 -7.97,-0.48 -11.59,-0.49 -3.63,-0.02 -7.83,-0.05 -11.14,0.06 -3.31,0.11 -6.33,0.13 -7.63,0.45 -1.3,0.32 -2.5,0.84 -3.15,2.04 -0.65,1.2 -1.5,3.2 -2.26,4.07 -0.76,0.87 -2.56,2.18 -3.46,2.51 -0.91,0.33 -1.31,0.62 -2.32,1.24 -1.01,0.62 -5.58,2.56 -8.37,3.76 -2.79,1.2 -6.09,2.31 -9.59,4.13 -3.5,1.82 -6.43,3.45 -8.91,5.13 -2.48,1.68 -5.46,3.75 -7.25,5.56 -1.78,1.81 -2.47,3.03 -4.02,6.73 -1.55,3.7 -3.09,6.83 -4.54,10.37 -1.45,3.53 -3.81,9.61 -4.56,12.03 -0.75,2.41 -2.57,7.98 -3.78,12.28 -1.21,4.3 -2.51,8.54 -3.45,11.88 -0.95,3.34 -3.12,10.74 -3.6,13.26 -0.48,2.52 -3.42,15.72 -3.42,15.72 0,0 -2.44,11.82 -3.05,14.75 -0.61,2.93 -0.65,4.44 -1.1,8.73 -0.45,4.29 -1.1,9.35 -1.1,9.35 0,0 -0.64,5.52 -0.67,8.43 -0.03,2.91 0.06,4.28 0.34,5.66 0.29,1.38 0.5,1.77 0.43,2.18 -0.06,0.41 -0.45,1.39 -0.52,2.84 -0.07,1.45 -0.31,2.53 -0.34,2.87 -0.02,0.34 0,1.44 0.89,1.72 0.89,0.27 1.18,0.25 1.18,0.25 0,0 0.13,0.35 0.22,0.94 0.09,0.59 0.63,2.11 1.23,2.8 0.59,0.69 0.59,1.13 1.87,1.62 1.28,0.49 2.65,1.04 2.65,1.04z"/>
   <path class="fil2" d="M118.36 193.48c0.73,0 1.37,0 1.94,0.01l-0.12 -12.72 -0.3 -5.36 -0.01 -5.99 -0.03 -8.6 -0.12 -9.16 -0.05 -12.56 -0.09 -16.99 0.37 -14.17 0.18 -6.75 -0.05 -13.47 0.41 -25.24 0.95 -0.11c0,0 0.09,-1.35 0.13,-3.89 0.04,-2.55 -0.17,-8.31 -0.17,-8.31 0,0 0.33,-2.48 0.57,-4.03 0.24,-1.54 0.28,-2.76 0.28,-2.76 0,0 -0.36,-0.02 -0.85,-0.02 -0.49,0 -1.43,-0.02 -2,-0.05 -0.57,-0.02 -1.78,0.04 -1.78,0.04 0,0 0.02,0.48 0.19,1.57 0.17,1.09 0.98,5.13 0.98,5.13l0.27 6.07 0.06 7.6 -0.17 13.74 0.02 11.04 -0.2 6.7 -0.07 10.39 -0.01 9.02 -0.16 10.01 0 8.14 -0.04 11.67 0.06 14.23 0.13 14.49 -0.34 12.51 0.02 7.83z"/>
   <path class="fil3" d="M78.64 181.5c0.15,0.47 0.53,1.77 0.54,2.65 0.02,1.09 -0,3.35 -0.16,4.35 -0.15,1.01 -0.22,2.11 0.02,2.52 0.24,0.41 0.74,1.06 2.65,1.3 1.91,0.24 3.75,0.36 5.22,0.5 1.47,0.14 4.71,0.42 6.58,0.47 1.88,0.05 4.09,0.15 5.62,0.07 1.54,-0.08 3.32,-0.46 5.77,-0.38 2.45,0.09 6.37,0.19 8.35,0.37 1.55,0.13 2.54,0.14 3.83,0.13l-0.05 -13.58c0,0 -0.48,-0.13 -1.81,-0.11 -1.33,0.02 -1.81,0 -3.27,0.21 -1.45,0.21 -3.31,0.23 -4.65,0.04 -1.33,-0.2 -3.18,-0.42 -5.45,-0.2 -2.27,0.22 -4.32,-0.34 -7.03,-0.69 -2.7,-0.35 -5.08,0.74 -6.98,1.48 -1.9,0.74 -4.08,0.83 -5.8,0.98 -1.72,0.15 -3.4,-0.13 -3.4,-0.13zm43.4 12l0.34 0c0.91,0 3.47,-0.09 5.49,-0.13 2.02,-0.04 3.17,-0.21 4.63,-0.24 1.46,-0.03 3.46,-0.21 4.85,-0.07 1.39,0.14 5.15,0.2 9.07,0.08 3.92,-0.12 8.04,-0.22 10.85,-0.31 2.81,-0.09 5.65,-0.59 6,-0.8 0.34,-0.2 1.08,-0.65 0.85,-2.09 -0.24,-1.44 -0.87,-4.05 -0.74,-4.99 0.13,-0.94 0.23,-1.65 0.56,-2.2 0.33,-0.55 0.61,-1.06 0.61,-1.06 0,0 -1.13,0.22 -3.09,0.2 -1.96,-0.02 -5.23,-0.97 -5.23,-0.97 0,0 -0.17,0.31 -2.22,0.55 -2.05,0.23 -4.42,-0.94 -5.92,-1.7 -1.5,-0.76 -3.61,-0.41 -3.61,-0.41 0,0 -0.04,0.55 -1.05,1.15 -1.01,0.59 -5.45,0.57 -6.3,0.38 -0.84,-0.19 -3.99,-0.89 -6.06,-1.09 -2.07,-0.21 -3.82,0.57 -4.69,0.69 -0.87,0.11 -4.8,-0.24 -4.8,-0.24l0.45 13.28z"/>
   <path class="fil3" d="M34.37 194.82c0,0 0.64,2.98 0.61,4.87 -0.03,1.89 -0.08,3.95 -0.01,4.57 0.07,0.62 0.37,1.36 1.22,1.61 0.85,0.25 3.33,0.3 4.41,0.37 1.09,0.07 4.61,-0.04 5.19,-0.15 0.59,-0.11 2.64,-0.36 2.97,-1.46 0.33,-1.1 0.7,-4.05 0.8,-5.78 0.09,-1.73 0.24,-3.2 0.24,-3.2 0,0 1.26,-0.73 1.72,-1.35 0.46,-0.61 0.96,-1.44 0.97,-2.11 0.01,-0.67 -0.03,-1.07 -0.03,-1.07 0,0 2.21,-1.77 2.58,-3.19 0.37,-1.42 0.67,-1.7 0.67,-1.7 0,0 1.64,-0.76 1.52,-2.48 -0.12,-1.72 -0.36,-2.3 -0.36,-2.3 0,0 0.46,-2 0.56,-3.65 0.1,-1.65 0.11,-3.17 0.78,-4.92 0.67,-1.75 1.09,-2.33 1.82,-3.1 0.73,-0.77 1.85,-2.19 2.37,-3.69 0.52,-1.49 1,-3.98 1.27,-5.5 0.27,-1.52 0.56,-2.52 0.91,-3.57 0.35,-1.05 1.06,-2.4 1.28,-2.71 0.21,-0.31 0.36,-0.61 0.36,-0.63l0 0c0,0 -0.07,-0.7 -0.04,-1.78 0.04,-1.07 0.81,-6.22 0.94,-7.37 0.13,-1.15 -0.14,-7.09 -0.16,-9.37 -0.02,-2.28 -0.27,-4.66 -0.3,-7.44 -0.03,-2.79 -0.11,-8.7 -0.11,-11.7 0,-3 0.21,-8.86 0.19,-10.55 -0.02,-1.69 -0.37,-2.27 -0.67,-4.84 -0.3,-2.57 -0.32,-6.46 -0.27,-8.19 0.05,-1.72 -0.17,-2.42 -0.44,-4.67 -0.28,-2.25 -0.65,-6.16 -0.65,-6.16 0,0 -0.2,-0.35 -0.48,-0.76 -0.28,-0.41 -1.31,-1.26 -2.17,-2.24 -0.85,-0.98 -2.52,-3.09 -3.22,-3.88 -0.7,-0.79 -1.42,-1.73 -2.07,-2.51 -0.65,-0.78 -1.89,-1.95 -2.93,-2.91 -1.04,-0.96 -2.8,-2.63 -2.8,-2.63 -1.45,3.56 -3.73,9.44 -4.46,11.81 -0.75,2.41 -2.57,7.98 -3.78,12.28 -1.21,4.3 -2.51,8.54 -3.45,11.88 -0.95,3.34 -3.12,10.74 -3.6,13.26 -0.48,2.52 -3.42,15.72 -3.42,15.72 0,0 -2.44,11.82 -3.05,14.75 -0.61,2.93 -0.65,4.44 -1.1,8.73 -0.45,4.29 -1.1,9.35 -1.1,9.35 0,0 -0.64,5.52 -0.67,8.43 -0.03,2.91 0.06,4.28 0.34,5.66 0.29,1.38 0.5,1.77 0.43,2.18 -0.06,0.41 -0.45,1.39 -0.52,2.84 -0.07,1.45 -0.31,2.53 -0.34,2.87 -0.02,0.34 0,1.44 0.89,1.72 0.89,0.27 1.18,0.25 1.18,0.25 0,0 0.13,0.35 0.22,0.94 0.09,0.59 0.63,2.11 1.23,2.8 0.59,0.69 0.59,1.13 1.87,1.62 1.28,0.49 2.65,1.04 2.65,1.04zm141.47 -26.76c0,0 0.54,2.07 0.96,3.15 0.42,1.07 3.06,5.56 3.86,7.3 0.8,1.74 1.79,4.6 2.25,5.38 0.46,0.78 0.53,1.17 0.53,1.17 0,0 -0.72,1.65 -0.61,2.2 0.11,0.55 0.75,2.28 1.3,3.72 0.55,1.45 0.85,2.85 1.57,3.31 0.73,0.46 1.61,0.69 2.13,0.75 0.53,0.06 0.69,0.07 0.69,0.07 0,0 0.16,2.21 0.2,3.39 0.04,1.18 0.36,4.28 0.45,5.12 0.09,0.84 0.3,1.51 0.85,1.75 0.55,0.24 2.03,0.48 3.09,0.61 1.06,0.13 5.35,0.3 7.15,0.1 1.81,-0.2 3.76,-0.29 3.87,-1.38 0.11,-1.1 0.04,-4.55 -0.09,-6.15 -0.13,-1.6 0.03,-2.85 0.1,-3.56 0.07,-0.7 0.35,-1.26 0.35,-1.26 0,0 1.94,0 2.37,-0.13 0.43,-0.13 1.4,0.19 2.18,-0.36 0.78,-0.55 3.33,-2.33 3.98,-3.7 0.65,-1.37 0.85,-2.72 0.52,-4.82 -0.33,-2.1 -0.34,-2.29 -0.54,-2.59 -0.2,-0.3 -0.39,-0.58 -0.39,-0.58 0,0 0.35,-3.54 -0.02,-6.43 -0.38,-2.88 -0.72,-5.72 -0.56,-6.94 0.16,-1.22 0.26,-2.64 0.2,-3.35 -0.06,-0.71 -0.12,-0.99 -0.12,-0.99 0,0 0.36,-1.02 0.33,-3.18 -0.03,-2.16 -0.17,-3.33 -0.49,-4.65 -0.32,-1.31 -0.33,-1.25 -0.17,-2.82 0.16,-1.57 0.41,-5.05 0.02,-7.53 -0.39,-2.48 -1.91,-10.71 -1.91,-10.71l-2.52 -12.94 -2.44 -15.55c0,0 -0.91,-6.71 -1.39,-9.02 -0.48,-2.31 -1.95,-8.91 -2.61,-11.25 -0.66,-2.34 -3.31,-9.96 -4.44,-13 -1.06,-2.84 -1.57,-4.34 -1.64,-4.53 -0.41,0.52 -1.11,0.86 -2.03,1.4 -1.13,0.66 -1.74,1.31 -2.4,2.64 -0.66,1.32 -1.43,2.19 -2.35,2.94 -0.92,0.76 -3.13,2.22 -4.11,2.99 -0.98,0.77 -3.04,2.64 -4.15,3.68 -1.1,1.05 -2.03,2.34 -2.65,3.48 -0.62,1.14 -1.94,2.96 -1.94,2.96 0,0 0,0.17 0.14,2.06 0.14,1.89 -0.02,4.6 -0.02,4.6 0,0 -0.02,0.23 0,1.48 0.02,1.25 -0.11,5.49 -0.2,8.26 -0.09,2.78 0.16,5.54 0.28,8.24 0.11,2.7 -0.07,6.57 -0.11,8.45 -0.04,1.88 -0.07,6.48 0.04,9.43 0.11,2.94 0.28,9.2 0.28,9.2 0,0 -0.06,2.31 0.02,4.02 0.07,1.71 0.17,5.27 0.07,6.97 -0.1,1.7 0.09,8.43 0.14,10.41 0.06,1.98 -0.02,6.17 -0.02,6.17z"/>
   <path class="fil1" d="M34.37 194.82c0,0 0.64,2.98 0.61,4.87 -0.03,1.89 -0.08,3.95 -0.01,4.57 0.07,0.62 0.37,1.36 1.22,1.61 0.85,0.25 3.33,0.3 4.41,0.37 1.09,0.07 4.61,-0.04 5.19,-0.15 0.59,-0.11 2.64,-0.36 2.97,-1.46 0.33,-1.1 0.7,-4.05 0.8,-5.78 0.09,-1.73 0.24,-3.2 0.24,-3.2 -0.92,0.61 -2.28,0.28 -3.02,0.03 -0.74,-0.25 -1.76,-1.57 -1.76,-1.57 0,0 -0.91,0.74 -2.33,1.41 -1.42,0.66 -2.77,0.48 -4.92,0.2 -2.15,-0.28 -3.4,-0.89 -3.4,-0.89zm15.44 0.83l0.1 -0.06c-0.03,0.02 -0.06,0.04 -0.1,0.06zm138.7 -0.52l0 -0c0,0 1.73,-0.43 3.06,-0.57 1.33,-0.15 2.89,-0.44 4.3,-0.78 1.4,-0.35 2.93,-0.35 4.95,-0.29 2.02,0.06 3.67,0.28 3.67,0.28 0,0 -0.28,0.55 -0.35,1.26 -0.07,0.71 -0.22,1.96 -0.1,3.56 0.13,1.6 0.2,5.05 0.09,6.15 -0.11,1.09 -2.07,1.18 -3.87,1.38 -1.81,0.2 -6.09,0.03 -7.15,-0.1 -1.06,-0.13 -2.55,-0.36 -3.09,-0.61 -0.55,-0.24 -0.76,-0.91 -0.85,-1.75 -0.09,-0.84 -0.41,-3.94 -0.45,-5.12 -0.04,-1.18 -0.2,-3.39 -0.2,-3.39l-0.01 0z"/>
   <path class="fil3" d="M143.94 28.36c-0.97,-0.54 -2.48,-1.59 -3.78,-3.48 -1.54,-2.22 -2.6,-3.75 -4.8,-3.98 -2.19,-0.22 -7.97,-0.48 -11.59,-0.49 -3.63,-0.02 -7.83,-0.05 -11.14,0.06 -3.31,0.11 -6.33,0.13 -7.63,0.45 -1.3,0.32 -2.5,0.84 -3.15,2.04 -0.65,1.2 -1.5,3.2 -2.26,4.07 -0.76,0.87 -2.56,2.18 -3.46,2.51 -0.1,0.04 -0.2,0.07 -0.29,0.11 0,0 -0.06,1.57 1.18,3.54 1.24,1.97 3.21,4.08 5.37,5.02 2.15,0.94 5.64,2.7 7.68,3.06 2.05,0.36 3.76,0.59 4.61,0.59 0.84,0 1.35,-0.03 1.35,-0.03 0,0 -0.73,-1.35 -1.44,-2.29 -0.72,-0.94 -1.72,-1.96 -2.62,-3.03 -0.89,-1.08 -2.31,-2.8 -3.05,-3.89 -0.73,-1.09 -1.22,-1.69 -1.66,-2.41 -0.44,-0.72 -0.75,-1.37 -0.75,-1.37 0,0 3.28,0.22 5.41,0.28 2.13,0.06 11.04,0.17 13.79,0.22 2.75,0.05 4.84,0.13 5.86,0.13 1.02,0 1.57,-0.13 1.57,-0.13 0,0 -1.07,1.59 -1.41,2.06 -0.34,0.46 -1.1,1.22 -2.23,2.48 -1.13,1.26 -2.28,2.62 -3.12,3.56 -0.84,0.94 -1.47,1.93 -1.82,2.81 -0.35,0.89 -0.68,1.57 -0.68,1.57 0,0 1.46,-0.02 2.99,-0.39 1.53,-0.37 3.22,-0.65 4.73,-1.2 1.5,-0.55 2.93,-1.15 3.85,-1.64 0.92,-0.5 2.26,-1.18 3.57,-2.19 1.31,-1.01 3.36,-3 3.91,-3.89 0.47,-0.77 1.12,-2.17 1.01,-4.14z"/>
   <path class="fil3" d="M76.1 111.76l6.92 2.16c0,0 -1.22,6.11 -1.83,9.24 -0.6,3.13 -2.05,8.8 -2.8,12.21 -0.74,3.41 -1.69,7.61 -2.28,9.8 -0.59,2.18 -1.03,3.7 -1.03,5.79 0,2.09 0.03,6.68 -0.02,9.5 -0.05,2.82 -0.01,4.18 -0.01,4.18l-4.5 -2.58 -1.17 -8.15c0,0 -1.14,-3.21 -0.77,-6.1 0.37,-2.89 1.02,-5.61 1.54,-7.96 0.52,-2.35 1.51,-8.33 2.06,-11.37 0.55,-3.03 1.64,-7.84 2.24,-10.19 0.6,-2.35 1.64,-6.52 1.64,-6.52zm79.71 3.65c0,0 4.04,-1.75 5.2,-2.26 1.15,-0.52 1.82,-0.64 1.82,-0.64 0,0 0.24,1.8 0.94,4.04 0.7,2.25 1.5,4.58 2.14,6.67 0.64,2.1 2.11,7.04 2.56,9.62 0.45,2.59 0.98,6.38 1.53,8.42 0.54,2.05 1.71,5.93 1.93,6.76 0.22,0.83 0.79,3.67 0.95,5.82 0.16,2.16 0.43,7.4 0.43,7.4 0,0 -1.38,0.91 -2.6,1.69 -1.22,0.79 -2.54,1.42 -2.84,1.6 -0.3,0.18 -0.5,0.15 -0.5,0.15 0,0 -0.74,-3.55 -1.41,-6.03 -0.67,-2.48 -1.09,-4.47 -1.09,-4.47l-1.78 -8.17c0,0 -1.65,-6.83 -2.3,-9.74 -0.65,-2.91 -1.35,-6.06 -1.35,-6.06l-2.01 -7.36 -0.65 -1.76 -0.98 -5.7z"/>
  </g>
  <g id="_1952449469072">
   <path class="fil2" d="M144.23 67.43c0.08,-0.08 0.63,-1.07 0.69,-1.21 0.17,0.18 1.27,2.09 1.42,2.42 -0.11,0.25 -2.04,3.56 -2.17,3.66 -0.12,-0.39 -2.94,-5.1 -3.28,-5.68 -0.31,-0.54 -0.19,-0.41 0.39,-1.45l1.24 -2.13c0.53,-0.89 0.12,-0.45 -0.64,-2.13l-1.43 0 0.92 1.62 -1.39 2.4c-0.04,-0.04 -0.05,-0.04 -0.09,-0.1l-1.82 -3.13c-0.39,-0.69 -1.6,-2.68 -1.87,-3.24l7.06 -0 2.27 3.9c0.13,0.26 -0.02,0.39 -0.14,0.6l-1.62 2.8c-0.11,0.2 -0.29,0.37 -0.21,0.56 0.07,0.19 0.57,1.02 0.67,1.12z"/>
   <path class="fil2" d="M139.94 58.25c0.54,0.04 1.17,0 1.73,0.01 0.83,0 0.44,-0.07 1.32,-0.46 1.89,-0.83 3.94,-0.87 5.85,-0 0.5,0.23 0.65,0.48 1.27,0.47 0.59,-0 1.2,0.01 1.8,-0 -0.24,-0.47 -1.8,-1.46 -2.46,-1.77 -3.31,-1.51 -6.96,-0.77 -9.5,1.76z"/>
   <path class="fil2" d="M148.5 72.05c2.99,-0.82 5.8,-4.07 5.81,-7.79 0,-0.62 -0.03,-1.33 -0.19,-1.91l-0.73 1.2c-0.42,0.7 -0.5,0.71 -0.57,1.33 -0.22,1.98 -1.3,3.72 -2.82,4.82 -0.44,0.32 -0.44,0.47 -0.8,1.09 -0.2,0.36 -0.58,0.92 -0.7,1.25z"/>
   <path class="fil2" d="M143.33 72.05c-0.07,-0.24 -0.52,-0.94 -0.69,-1.22 -0.23,-0.39 -0.39,-0.84 -0.78,-1.12 -1.49,-1.03 -2.59,-2.85 -2.83,-4.77 -0.08,-0.71 -0.13,-0.59 -0.56,-1.33 -0.22,-0.38 -0.54,-0.88 -0.71,-1.25 -0.36,0.6 -0.19,2.79 -0.02,3.52 0.22,1.02 0.67,2.03 1.15,2.75 1.01,1.48 2.35,2.75 4.43,3.41z"/>
   <polygon class="fil2" points="144.97,72.81 146.27,75.08 155.85,58.44 153.22,58.45 "/>
   <polygon class="fil2" points="145.66,65.55 146.95,67.82 152.36,58.44 149.73,58.45 "/>
   <polygon class="fil2" points="143.8,58.45 145.84,61.93 146.48,60.76 147.45,60.76 148.75,58.44 "/>
  </g>
  <path class="fil4" d="M137.03 79.45l1.34 0.06c0.02,0.06 0.05,0.09 0.08,0.11 0.07,0.04 0.18,0.06 0.33,0.06 0.22,0 0.35,-0.05 0.38,-0.15 0.01,-0.05 -0,-0.08 -0.05,-0.09 -0.03,-0.01 -0.26,-0.05 -0.71,-0.11 -0.41,-0.06 -0.67,-0.11 -0.81,-0.17 -0.27,-0.12 -0.37,-0.33 -0.29,-0.63 0.06,-0.2 0.17,-0.37 0.34,-0.5 0.19,-0.15 0.44,-0.24 0.76,-0.3 0.19,-0.03 0.43,-0.05 0.72,-0.05 0.69,0 1.16,0.09 1.39,0.27 0.12,0.1 0.19,0.21 0.22,0.35 0.01,0.05 0.01,0.12 0.01,0.22l-1.43 -0.05c-0.04,-0.07 -0.16,-0.11 -0.35,-0.11 -0.13,0 -0.22,0.01 -0.27,0.03 -0.04,0.02 -0.07,0.05 -0.08,0.09 -0.01,0.03 -0,0.06 0.01,0.07 0.03,0.03 0.14,0.06 0.33,0.07 0.41,0.02 0.74,0.06 1,0.13 0.27,0.06 0.44,0.14 0.54,0.25 0.1,0.13 0.13,0.29 0.07,0.49 -0.08,0.29 -0.28,0.5 -0.59,0.65 -0.21,0.09 -0.43,0.15 -0.66,0.18 -0.21,0.02 -0.43,0.04 -0.67,0.04 -0.71,0 -1.19,-0.09 -1.41,-0.28 -0.13,-0.11 -0.2,-0.23 -0.22,-0.38 -0,-0.06 0,-0.14 0.02,-0.24zm3.27 0.8l0.87 -3.26 1.12 0 -0.87 3.26 -1.12 0zm5.01 -0.71c-0.09,0.16 -0.19,0.28 -0.28,0.37 -0.34,0.29 -0.88,0.44 -1.63,0.44 -0.67,0 -1.13,-0.1 -1.4,-0.29 -0.14,-0.1 -0.23,-0.25 -0.27,-0.44 -0.04,-0.19 -0.02,-0.4 0.04,-0.62 0.07,-0.28 0.21,-0.53 0.4,-0.73 0.21,-0.21 0.52,-0.37 0.93,-0.48 0.28,-0.07 0.57,-0.1 0.88,-0.1 0.45,0 0.81,0.07 1.08,0.22 0.24,0.13 0.37,0.31 0.41,0.56 0.03,0.17 -0.01,0.46 -0.11,0.86l-2.45 0c0.01,0.14 0.05,0.23 0.13,0.28 0.11,0.07 0.26,0.1 0.48,0.1 0.13,0 0.24,-0.02 0.33,-0.05 0.06,-0.02 0.11,-0.06 0.19,-0.12l1.28 0zm-2.22 -0.83l1.24 0c-0.01,-0.23 -0.19,-0.34 -0.52,-0.34 -0.17,0 -0.31,0.03 -0.44,0.09 -0.11,0.05 -0.2,0.13 -0.28,0.25zm5.81 0.83c-0.09,0.16 -0.18,0.28 -0.28,0.37 -0.33,0.29 -0.88,0.44 -1.63,0.44 -0.67,0 -1.13,-0.1 -1.4,-0.29 -0.14,-0.1 -0.23,-0.25 -0.27,-0.44 -0.04,-0.19 -0.02,-0.4 0.04,-0.62 0.07,-0.28 0.21,-0.53 0.4,-0.73 0.21,-0.21 0.52,-0.37 0.93,-0.48 0.28,-0.07 0.57,-0.1 0.88,-0.1 0.45,0 0.81,0.07 1.08,0.22 0.24,0.13 0.38,0.31 0.41,0.56 0.03,0.17 -0.01,0.46 -0.1,0.86l-2.45 0c0,0.14 0.05,0.23 0.12,0.28 0.11,0.07 0.26,0.1 0.48,0.1 0.13,0 0.24,-0.02 0.33,-0.05 0.06,-0.02 0.12,-0.06 0.19,-0.12l1.28 0zm-2.22 -0.83l1.23 0c-0.01,-0.23 -0.18,-0.34 -0.52,-0.34 -0.17,0 -0.31,0.03 -0.44,0.09 -0.11,0.05 -0.2,0.13 -0.28,0.25zm2.69 -0.9l1.12 0 -0.06 0.23c0.18,-0.11 0.33,-0.18 0.47,-0.22 0.19,-0.05 0.4,-0.08 0.64,-0.08 0.43,0 0.75,0.09 0.97,0.28 0.27,0.24 0.35,0.57 0.24,1 -0.07,0.26 -0.2,0.5 -0.39,0.71 -0.34,0.39 -0.85,0.58 -1.52,0.58 -0.24,0 -0.44,-0.03 -0.62,-0.08 -0.11,-0.04 -0.22,-0.09 -0.32,-0.17l-0.24 0.9 -1.12 0 0.85 -3.16zm1.58 0.72c-0.19,0 -0.35,0.04 -0.49,0.11 -0.15,0.08 -0.25,0.21 -0.3,0.38 -0.09,0.34 0.08,0.51 0.52,0.51 0.44,0 0.71,-0.17 0.8,-0.5 0.09,-0.33 -0.09,-0.5 -0.54,-0.5z"/>
  <path class="fil4" d="M138.57 83.67l-0.53 -2.45 1.24 0 0.25 1.19 0.85 -1.19 1.25 0 0.22 1.19 0.87 -1.19 1.15 0 -1.79 2.45 -1.16 0 -0.25 -1.26 -0.97 1.26 -1.13 0zm4.85 -1.72c0.08,-0.16 0.17,-0.29 0.25,-0.37 0.2,-0.2 0.49,-0.33 0.89,-0.41 0.22,-0.04 0.48,-0.06 0.78,-0.06 0.8,0 1.29,0.11 1.46,0.32 0.07,0.08 0.1,0.17 0.11,0.27 0,0.11 -0.02,0.26 -0.07,0.47l-0.26 0.96c-0.04,0.14 -0.06,0.25 -0.07,0.31 -0.01,0.07 -0,0.15 0.02,0.22l-1.17 0 0.04 -0.22c-0.17,0.08 -0.33,0.14 -0.46,0.18 -0.24,0.07 -0.5,0.1 -0.8,0.1 -0.39,0 -0.69,-0.06 -0.91,-0.19 -0.11,-0.06 -0.19,-0.15 -0.23,-0.25 -0.05,-0.11 -0.06,-0.25 -0.02,-0.41 0.07,-0.28 0.27,-0.47 0.59,-0.58 0.39,-0.13 0.94,-0.21 1.64,-0.23 0.28,-0.01 0.45,-0.02 0.5,-0.05 0.03,-0.02 0.04,-0.04 0.05,-0.06 0.02,-0.06 -0.01,-0.11 -0.09,-0.14 -0.11,-0.06 -0.25,-0.08 -0.43,-0.08 -0.14,0 -0.27,0.02 -0.38,0.04 -0.07,0.02 -0.14,0.06 -0.19,0.12l-1.24 0.05zm2.19 0.61l-0.04 0c-0.09,0.01 -0.23,0.02 -0.43,0.03 -0.28,0.01 -0.46,0.02 -0.54,0.03 -0.16,0.02 -0.25,0.09 -0.28,0.2 -0.04,0.14 0.09,0.2 0.4,0.2 0.37,0 0.61,-0.05 0.74,-0.15 0.06,-0.06 0.11,-0.14 0.14,-0.25l0.01 -0.06zm0.94 1.11l0.87 -3.26 1.12 0 -0.87 3.26 -1.12 0zm1.23 0l0.87 -3.26 1.12 0 -0.42 1.57 1.01 -0.76 1.52 0 -1.24 0.86 0.67 1.59 -1.41 0 -0.34 -0.94 -0.52 0.37 -0.15 0.57 -1.12 0zm6.99 -0.71c-0.09,0.16 -0.19,0.28 -0.29,0.37 -0.33,0.3 -0.88,0.44 -1.63,0.44 -0.67,0 -1.13,-0.09 -1.4,-0.29 -0.14,-0.1 -0.23,-0.25 -0.26,-0.44 -0.04,-0.19 -0.02,-0.39 0.04,-0.61 0.07,-0.29 0.21,-0.53 0.4,-0.73 0.21,-0.22 0.52,-0.37 0.93,-0.48 0.28,-0.07 0.57,-0.1 0.88,-0.1 0.45,0 0.81,0.07 1.09,0.22 0.24,0.13 0.37,0.31 0.41,0.56 0.03,0.18 -0.01,0.46 -0.1,0.86l-2.45 0c0.01,0.13 0.05,0.23 0.13,0.28 0.1,0.07 0.26,0.1 0.47,0.1 0.13,0 0.24,-0.02 0.33,-0.05 0.06,-0.02 0.12,-0.06 0.19,-0.12l1.28 0zm-2.22 -0.83l1.24 0c-0.01,-0.23 -0.19,-0.34 -0.52,-0.34 -0.16,0 -0.31,0.03 -0.44,0.09 -0.11,0.05 -0.2,0.14 -0.28,0.26zm2.03 1.54l0.66 -2.45 1.12 0 -0.06 0.23c0.33,-0.2 0.66,-0.3 0.99,-0.3 0.28,0 0.48,0.06 0.6,0.17 0.13,0.12 0.17,0.35 0.11,0.67 -0.02,0.09 -0.04,0.21 -0.09,0.37l-1.12 0c0.03,-0.14 0.03,-0.24 0,-0.3 -0.04,-0.07 -0.12,-0.1 -0.24,-0.1 -0.14,0 -0.25,0.05 -0.34,0.14 -0.08,0.08 -0.15,0.22 -0.2,0.43l-0.31 1.14 -1.12 0z"/>
  <path class="fil2" d="M156.07 77.75c0.56,0 1.01,0.45 1.01,1.01 0,0.56 -0.45,1.01 -1.01,1.01 -0.56,0 -1.01,-0.45 -1.01,-1.01 0,-0.56 0.45,-1.01 1.01,-1.01zm0 0.16c0.47,0 0.86,0.38 0.86,0.85 0,0.47 -0.39,0.86 -0.86,0.86 -0.47,0 -0.85,-0.39 -0.85,-0.86 0,-0.47 0.38,-0.85 0.85,-0.85zm-0.46 1.37l0 -1.03 0.44 0c0.11,0 0.19,0.01 0.24,0.03 0.05,0.02 0.09,0.05 0.12,0.1 0.03,0.05 0.04,0.1 0.04,0.17 0,0.07 -0.02,0.14 -0.07,0.19 -0.05,0.05 -0.11,0.08 -0.2,0.1 0.05,0.02 0.08,0.06 0.11,0.09 0.03,0.03 0.07,0.09 0.12,0.17l0.13 0.2 -0.25 0 -0.15 -0.22c-0.06,-0.08 -0.09,-0.13 -0.11,-0.15 -0.02,-0.02 -0.04,-0.04 -0.06,-0.04 -0.02,-0.01 -0.06,-0.01 -0.11,-0.01l-0.04 0 0 0.43 -0.21 0zm0.21 -0.59l0.16 0c0.1,0 0.16,-0 0.19,-0.01 0.03,-0.01 0.05,-0.02 0.06,-0.04 0.02,-0.02 0.02,-0.05 0.02,-0.08 0,-0.04 -0.01,-0.06 -0.03,-0.09 -0.02,-0.02 -0.04,-0.03 -0.07,-0.04 -0.02,0 -0.07,-0 -0.15,-0l-0.17 0 0 0.26z"/>
  <g id="_1952449402256">
   <g style="clip-path:url(#id0)">
    <image x="-1.91" y="-12.28" width="441.7" height="247.54" xlink:href="divisi jaket_Images\divisi jaket_ImgID1.png"/>
   </g>
   <g style="clip-path:url(#id1)">
    <image x="-1.91" y="-12.28" width="441.7" height="247.54" xlink:href="divisi jaket_Images\divisi jaket_ImgID2.png"/>
   </g>
   <g style="clip-path:url(#id2)">
    <image x="-1.91" y="-12.28" width="441.7" height="247.54" xlink:href="divisi jaket_Images\divisi jaket_ImgID3.png"/>
   </g>
  </g>
 </g>
</svg>
