<?xml version="1.0" encoding="UTF-8"?>
<!DOCTYPE svg PUBLIC "-//W3C//DTD SVG 1.1//EN" "http://www.w3.org/Graphics/SVG/1.1/DTD/svg11.dtd">
<!-- Creator: CorelDRAW 2021.5 -->
<svg xmlns="http://www.w3.org/2000/svg" xml:space="preserve" width="0.239996in" height="0.226665in" version="1.1" style="shape-rendering:geometricPrecision; text-rendering:geometricPrecision; image-rendering:optimizeQuality; fill-rule:evenodd; clip-rule:evenodd"
viewBox="0 0 239.99 226.66"
 xmlns:xlink="http://www.w3.org/1999/xlink"
 xmlns:xodm="http://www.corel.com/coreldraw/odm/2003">
 <defs>
  <style type="text/css">
   <![CDATA[
    .fil1 {fill:#000066}
    .fil2 {fill:#E6E6E6}
    .fil0 {fill:white}
    .fil4 {fill:white}
    .fil3 {fill:#E6E6E6;fill-rule:nonzero}
   ]]>
  </style>
    <clipPath id="id0">
     <path d="M32.65 101.46c0.39,0.31 1.04,0.8 2.07,1.27 1.04,0.47 2.46,0.92 4.26,1.49 1.8,0.57 3.97,1.25 6.22,1.9 2.25,0.65 4.59,1.26 6.72,1.7 2.14,0.44 4.08,0.7 6.02,0.91 1.94,0.21 3.89,0.37 5.15,0.41 1.26,0.03 1.85,-0.07 2.31,-0.28 0.47,-0.21 0.83,-0.54 1.18,-1.56 0.36,-1.02 0.71,-2.74 1.04,-4.34 0.32,-1.6 0.61,-3.09 0.82,-3.98 0.21,-0.89 0.34,-1.18 0.39,-0.91 0.05,0.28 0.02,1.12 -0.02,2.93 -0.03,1.81 -0.06,4.6 -0.1,7.37 -0.03,2.77 -0.06,5.52 -0.09,7.89 -0.04,2.37 -0.07,4.34 -0.05,5.9 0.02,1.56 0.08,2.69 0.13,3.89 0.05,1.2 0.08,2.46 0.13,3.87 0.05,1.41 0.11,2.96 0.15,4.63 0.03,1.67 0.03,3.45 0.07,5.07 0.03,1.62 0.09,3.08 0.13,4.37 0.03,1.3 0.03,2.43 0.08,3.79 0.05,1.36 0.15,2.95 0.18,4.74 0.04,1.8 0,3.81 0.04,5.49 0.03,1.69 0.13,3.05 0.13,4.67 0,1.62 -0.1,3.5 -0.23,5.57 -0.13,2.07 -0.29,4.34 -0.58,6.71 -0.29,2.36 -0.71,4.83 -1.19,7.56 -0.47,2.74 -0.99,5.75 -1.36,7.95 -0.37,2.2 -0.6,3.6 -0.84,5.3 -0.24,1.7 -0.5,3.71 -0.6,5.09 -0.1,1.37 -0.04,2.12 0.16,2.69 0.19,0.57 0.52,0.95 1.02,1.3 0.5,0.34 1.18,0.63 1.67,0.82 0.48,0.2 0.78,0.3 0.97,0.5 0.19,0.21 0.29,0.54 0.52,0.96 0.23,0.42 0.58,0.94 1.13,1.49 0.55,0.55 1.3,1.13 2.07,1.67 0.78,0.54 1.59,1.02 2.57,1.51 0.99,0.48 2.15,0.97 3.15,1.35 0.99,0.38 1.81,0.65 2.76,0.89 0.94,0.24 2,0.45 3.67,0.7 1.66,0.26 3.91,0.57 5.78,0.78 1.87,0.21 3.35,0.32 4.78,0.42 1.43,0.1 2.8,0.18 5.35,0.28 2.55,0.1 6.29,0.23 11.11,0.29 4.81,0.06 10.71,0.04 15.61,-0.01 4.91,-0.05 8.82,-0.13 12.52,-0.23 3.7,-0.11 7.18,-0.23 9.5,-0.39 2.32,-0.15 3.48,-0.33 4.97,-0.56 1.49,-0.23 3.31,-0.5 4.79,-0.78 1.48,-0.27 2.63,-0.55 3.85,-0.95 1.22,-0.4 2.53,-0.93 3.63,-1.46 1.1,-0.52 2,-1.04 2.78,-1.58 0.78,-0.54 1.42,-1.11 2,-1.76 0.58,-0.65 1.09,-1.39 1.4,-1.89 0.3,-0.5 0.4,-0.76 0.47,-0.93 0.07,-0.18 0.12,-0.28 0.26,-0.36 0.13,-0.09 0.36,-0.17 0.6,-0.24 0.24,-0.07 0.5,-0.13 0.8,-0.2 0.3,-0.06 0.63,-0.13 0.94,-0.32 0.31,-0.19 0.58,-0.52 0.8,-0.86 0.22,-0.34 0.38,-0.72 0.46,-1.49 0.08,-0.77 0.08,-1.95 0.05,-2.84 -0.03,-0.89 -0.09,-1.51 -0.3,-2.89 -0.21,-1.39 -0.57,-3.55 -0.93,-5.72 -0.36,-2.17 -0.73,-4.37 -1.1,-6.41 -0.37,-2.05 -0.74,-3.95 -1.12,-6.04 -0.38,-2.09 -0.77,-4.38 -1.04,-6.21 -0.28,-1.83 -0.44,-3.2 -0.62,-5.17 -0.19,-1.97 -0.39,-4.55 -0.52,-6.44 -0.12,-1.89 -0.15,-3.1 -0.16,-4.86 -0.01,-1.76 0.01,-4.06 0.06,-6.04 0.06,-1.98 0.15,-3.64 0.25,-7.23 0.1,-3.59 0.19,-9.12 0.24,-12.91 0.05,-3.8 0.05,-5.85 0.02,-7.52 -0.02,-1.66 -0.07,-2.91 -0.12,-3.95 -0.05,-1.04 -0.09,-1.86 -0.12,-3.21 -0.02,-1.35 -0.02,-3.24 -0.02,-5.2 0,-1.96 0,-4.01 -0.02,-5.72 -0.02,-1.72 -0.05,-3.1 -0.07,-4.06 -0.02,-0.96 -0.04,-1.49 -0.03,-1.75 0.01,-0.26 0.04,-0.24 0.09,-0.09 0.05,0.15 0.11,0.44 0.27,1.18 0.15,0.73 0.39,1.91 0.64,3.25 0.25,1.35 0.51,2.86 0.73,3.86 0.23,1 0.42,1.48 0.71,1.88 0.29,0.39 0.68,0.7 1.12,0.86 0.44,0.16 0.94,0.18 2.41,0.11 1.47,-0.06 3.9,-0.21 5.71,-0.39 1.81,-0.18 3,-0.39 4.27,-0.63 1.26,-0.24 2.6,-0.52 4.04,-0.86 1.44,-0.35 2.99,-0.77 4.73,-1.31 1.74,-0.54 3.67,-1.2 5.39,-1.82 1.72,-0.62 3.24,-1.2 4.2,-1.6 0.97,-0.4 1.39,-0.63 1.68,-0.83 0.29,-0.2 0.45,-0.38 0.58,-0.61 0.13,-0.23 0.23,-0.52 -0.28,-2.69 -0.52,-2.18 -1.65,-6.24 -2.56,-9.69 -0.91,-3.45 -1.6,-6.28 -2.17,-8.62 -0.56,-2.33 -1,-4.17 -1.41,-5.82 -0.41,-1.65 -0.8,-3.12 -1.2,-4.72 -0.41,-1.6 -0.85,-3.34 -1.23,-4.99 -0.39,-1.65 -0.72,-3.21 -1.11,-4.78 -0.38,-1.57 -0.8,-3.15 -1.34,-4.88 -0.55,-1.73 -1.22,-3.61 -1.9,-5.3 -0.68,-1.69 -1.35,-3.17 -2.12,-4.51 -0.76,-1.34 -1.62,-2.55 -2.44,-3.6 -0.82,-1.05 -1.61,-1.93 -2.43,-2.75 -0.81,-0.81 -1.65,-1.55 -2.64,-2.34 -0.99,-0.79 -2.13,-1.63 -3.81,-2.63 -1.68,-1 -3.88,-2.16 -5.79,-3.07 -1.91,-0.91 -3.52,-1.57 -5.65,-2.52 -2.13,-0.95 -4.79,-2.19 -6.66,-3.07 -1.87,-0.88 -2.94,-1.39 -4.07,-1.97 -1.13,-0.58 -2.3,-1.22 -3.21,-1.72 -0.91,-0.5 -1.56,-0.85 -2.25,-1.25 -0.69,-0.39 -1.43,-0.83 -2.13,-1.24 -0.69,-0.41 -1.33,-0.8 -1.9,-1.19 -0.56,-0.4 -1.04,-0.8 -1.51,-1.15 -0.47,-0.35 -0.92,-0.66 -1.31,-1.04 -0.39,-0.38 -0.71,-0.83 -1.13,-1.36 -0.42,-0.53 -0.93,-1.14 -1.43,-1.65 -0.49,-0.51 -0.96,-0.91 -1.4,-1.25 -0.44,-0.34 -0.86,-0.61 -1.22,-0.81 -0.35,-0.2 -0.64,-0.33 -1,-0.43 -0.35,-0.11 -0.78,-0.19 -1.15,-0.15 -0.38,0.03 -0.72,0.18 -1.73,0.48 -1.02,0.3 -2.7,0.77 -3.94,1.09 -1.24,0.32 -2.03,0.5 -2.76,0.65 -0.73,0.15 -1.41,0.28 -2.65,0.44 -1.24,0.16 -3.04,0.35 -4.21,0.48 -1.17,0.12 -1.7,0.17 -2.59,0.17 -0.89,0 -2.15,-0.05 -3.1,-0.06 -0.95,-0.01 -1.59,0.03 -2.1,0.01 -0.51,-0.02 -0.88,-0.08 -1.43,-0.12 -0.56,-0.04 -1.3,-0.06 -2.08,-0.12 -0.78,-0.06 -1.6,-0.18 -2.36,-0.29 -0.76,-0.11 -1.45,-0.23 -2.13,-0.35 -0.68,-0.13 -1.34,-0.28 -2.04,-0.44 -0.7,-0.16 -1.44,-0.34 -2.28,-0.58 -0.83,-0.24 -1.77,-0.55 -2.57,-0.78 -0.8,-0.22 -1.46,-0.37 -1.95,-0.46 -0.49,-0.09 -0.81,-0.12 -1.21,-0.02 -0.39,0.09 -0.86,0.32 -1.32,0.56 -0.46,0.24 -0.91,0.5 -1.46,1.01 -0.56,0.5 -1.22,1.26 -1.75,1.87 -0.53,0.61 -0.93,1.08 -1.41,1.64 -0.47,0.57 -1.02,1.22 -1.56,1.8 -0.54,0.57 -1.07,1.06 -1.55,1.43 -0.48,0.38 -0.92,0.65 -1.43,0.96 -0.51,0.31 -1.09,0.65 -2.69,1.55 -1.6,0.9 -4.23,2.37 -6.19,3.39 -1.96,1.02 -3.27,1.6 -4.63,2.18 -1.36,0.57 -2.78,1.13 -4.25,1.7 -1.47,0.57 -3,1.15 -4.61,1.79 -1.6,0.64 -3.28,1.33 -4.51,1.85 -1.23,0.52 -2.02,0.88 -2.96,1.38 -0.94,0.5 -2.04,1.14 -2.97,1.76 -0.94,0.62 -1.71,1.21 -2.47,1.88 -0.77,0.67 -1.52,1.41 -2.24,2.18 -0.72,0.76 -1.39,1.55 -2.04,2.37 -0.64,0.81 -1.26,1.65 -1.81,2.6 -0.56,0.95 -1.06,2.01 -1.56,3.11 -0.5,1.11 -1,2.25 -1.59,4.2 -0.59,1.95 -1.29,4.7 -1.82,6.84 -0.53,2.13 -0.9,3.65 -1.49,6.17 -0.59,2.52 -1.39,6.05 -2.09,9.14 -0.69,3.09 -1.28,5.75 -1.98,8.88 -0.71,3.13 -1.54,6.74 -2.19,9.61 -0.65,2.87 -1.09,5 -1.37,6.2 -0.27,1.2 -0.37,1.5 -0.4,1.77 -0.03,0.27 0,0.53 0.08,0.73 0.07,0.2 0.2,0.35 0.58,0.67z"/>
    </clipPath>
    <clipPath id="id1">
     <path d="M32.65 101.46c0.39,0.31 1.04,0.8 2.07,1.27 1.04,0.47 2.46,0.92 4.26,1.49 1.8,0.57 3.97,1.25 6.22,1.9 2.25,0.65 4.59,1.26 6.72,1.7 2.14,0.44 4.08,0.7 6.02,0.91 1.94,0.21 3.89,0.37 5.15,0.41 1.26,0.03 1.85,-0.07 2.31,-0.28 0.47,-0.21 0.83,-0.54 1.18,-1.56 0.36,-1.02 0.71,-2.74 1.04,-4.34 0.32,-1.6 0.61,-3.09 0.82,-3.98 0.21,-0.89 0.34,-1.18 0.39,-0.91 0.05,0.28 0.02,1.12 -0.02,2.93 -0.03,1.81 -0.06,4.6 -0.1,7.37 -0.03,2.77 -0.06,5.52 -0.09,7.89 -0.04,2.37 -0.07,4.34 -0.05,5.9 0.02,1.56 0.08,2.69 0.13,3.89 0.05,1.2 0.08,2.46 0.13,3.87 0.05,1.41 0.11,2.96 0.15,4.63 0.03,1.67 0.03,3.45 0.07,5.07 0.03,1.62 0.09,3.08 0.13,4.37 0.03,1.3 0.03,2.43 0.08,3.79 0.05,1.36 0.15,2.95 0.18,4.74 0.04,1.8 0,3.81 0.04,5.49 0.03,1.69 0.13,3.05 0.13,4.67 0,1.62 -0.1,3.5 -0.23,5.57 -0.13,2.07 -0.29,4.34 -0.58,6.71 -0.29,2.36 -0.71,4.83 -1.19,7.56 -0.47,2.74 -0.99,5.75 -1.36,7.95 -0.37,2.2 -0.6,3.6 -0.84,5.3 -0.24,1.7 -0.5,3.71 -0.6,5.09 -0.1,1.37 -0.04,2.12 0.16,2.69 0.19,0.57 0.52,0.95 1.02,1.3 0.5,0.34 1.18,0.63 1.67,0.82 0.48,0.2 0.78,0.3 0.97,0.5 0.19,0.21 0.29,0.54 0.52,0.96 0.23,0.42 0.58,0.94 1.13,1.49 0.55,0.55 1.3,1.13 2.07,1.67 0.78,0.54 1.59,1.02 2.57,1.51 0.99,0.48 2.15,0.97 3.15,1.35 0.99,0.38 1.81,0.65 2.76,0.89 0.94,0.24 2,0.45 3.67,0.7 1.66,0.26 3.91,0.57 5.78,0.78 1.87,0.21 3.35,0.32 4.78,0.42 1.43,0.1 2.8,0.18 5.35,0.28 2.55,0.1 6.29,0.23 11.11,0.29 4.81,0.06 10.71,0.04 15.61,-0.01 4.91,-0.05 8.82,-0.13 12.52,-0.23 3.7,-0.11 7.18,-0.23 9.5,-0.39 2.32,-0.15 3.48,-0.33 4.97,-0.56 1.49,-0.23 3.31,-0.5 4.79,-0.78 1.48,-0.27 2.63,-0.55 3.85,-0.95 1.22,-0.4 2.53,-0.93 3.63,-1.46 1.1,-0.52 2,-1.04 2.78,-1.58 0.78,-0.54 1.42,-1.11 2,-1.76 0.58,-0.65 1.09,-1.39 1.4,-1.89 0.3,-0.5 0.4,-0.76 0.47,-0.93 0.07,-0.18 0.12,-0.28 0.26,-0.36 0.13,-0.09 0.36,-0.17 0.6,-0.24 0.24,-0.07 0.5,-0.13 0.8,-0.2 0.3,-0.06 0.63,-0.13 0.94,-0.32 0.31,-0.19 0.58,-0.52 0.8,-0.86 0.22,-0.34 0.38,-0.72 0.46,-1.49 0.08,-0.77 0.08,-1.95 0.05,-2.84 -0.03,-0.89 -0.09,-1.51 -0.3,-2.89 -0.21,-1.39 -0.57,-3.55 -0.93,-5.72 -0.36,-2.17 -0.73,-4.37 -1.1,-6.41 -0.37,-2.05 -0.74,-3.95 -1.12,-6.04 -0.38,-2.09 -0.77,-4.38 -1.04,-6.21 -0.28,-1.83 -0.44,-3.2 -0.62,-5.17 -0.19,-1.97 -0.39,-4.55 -0.52,-6.44 -0.12,-1.89 -0.15,-3.1 -0.16,-4.86 -0.01,-1.76 0.01,-4.06 0.06,-6.04 0.06,-1.98 0.15,-3.64 0.25,-7.23 0.1,-3.59 0.19,-9.12 0.24,-12.91 0.05,-3.8 0.05,-5.85 0.02,-7.52 -0.02,-1.66 -0.07,-2.91 -0.12,-3.95 -0.05,-1.04 -0.09,-1.86 -0.12,-3.21 -0.02,-1.35 -0.02,-3.24 -0.02,-5.2 0,-1.96 0,-4.01 -0.02,-5.72 -0.02,-1.72 -0.05,-3.1 -0.07,-4.06 -0.02,-0.96 -0.04,-1.49 -0.03,-1.75 0.01,-0.26 0.04,-0.24 0.09,-0.09 0.05,0.15 0.11,0.44 0.27,1.18 0.15,0.73 0.39,1.91 0.64,3.25 0.25,1.35 0.51,2.86 0.73,3.86 0.23,1 0.42,1.48 0.71,1.88 0.29,0.39 0.68,0.7 1.12,0.86 0.44,0.16 0.94,0.18 2.41,0.11 1.47,-0.06 3.9,-0.21 5.71,-0.39 1.81,-0.18 3,-0.39 4.27,-0.63 1.26,-0.24 2.6,-0.52 4.04,-0.86 1.44,-0.35 2.99,-0.77 4.73,-1.31 1.74,-0.54 3.67,-1.2 5.39,-1.82 1.72,-0.62 3.24,-1.2 4.2,-1.6 0.97,-0.4 1.39,-0.63 1.68,-0.83 0.29,-0.2 0.45,-0.38 0.58,-0.61 0.13,-0.23 0.23,-0.52 -0.28,-2.69 -0.52,-2.18 -1.65,-6.24 -2.56,-9.69 -0.91,-3.45 -1.6,-6.28 -2.17,-8.62 -0.56,-2.33 -1,-4.17 -1.41,-5.82 -0.41,-1.65 -0.8,-3.12 -1.2,-4.72 -0.41,-1.6 -0.85,-3.34 -1.23,-4.99 -0.39,-1.65 -0.72,-3.21 -1.11,-4.78 -0.38,-1.57 -0.8,-3.15 -1.34,-4.88 -0.55,-1.73 -1.22,-3.61 -1.9,-5.3 -0.68,-1.69 -1.35,-3.17 -2.12,-4.51 -0.76,-1.34 -1.62,-2.55 -2.44,-3.6 -0.82,-1.05 -1.61,-1.93 -2.43,-2.75 -0.81,-0.81 -1.65,-1.55 -2.64,-2.34 -0.99,-0.79 -2.13,-1.63 -3.81,-2.63 -1.68,-1 -3.88,-2.16 -5.79,-3.07 -1.91,-0.91 -3.52,-1.57 -5.65,-2.52 -2.13,-0.95 -4.79,-2.19 -6.66,-3.07 -1.87,-0.88 -2.94,-1.39 -4.07,-1.97 -1.13,-0.58 -2.3,-1.22 -3.21,-1.72 -0.91,-0.5 -1.56,-0.85 -2.25,-1.25 -0.69,-0.39 -1.43,-0.83 -2.13,-1.24 -0.69,-0.41 -1.33,-0.8 -1.9,-1.19 -0.56,-0.4 -1.04,-0.8 -1.51,-1.15 -0.47,-0.35 -0.92,-0.66 -1.31,-1.04 -0.39,-0.38 -0.71,-0.83 -1.13,-1.36 -0.42,-0.53 -0.93,-1.14 -1.43,-1.65 -0.49,-0.51 -0.96,-0.91 -1.4,-1.25 -0.44,-0.34 -0.86,-0.61 -1.22,-0.81 -0.35,-0.2 -0.64,-0.33 -1,-0.43 -0.35,-0.11 -0.78,-0.19 -1.15,-0.15 -0.38,0.03 -0.72,0.18 -1.73,0.48 -1.02,0.3 -2.7,0.77 -3.94,1.09 -1.24,0.32 -2.03,0.5 -2.76,0.65 -0.73,0.15 -1.41,0.28 -2.65,0.44 -1.24,0.16 -3.04,0.35 -4.21,0.48 -1.17,0.12 -1.7,0.17 -2.59,0.17 -0.89,0 -2.15,-0.05 -3.1,-0.06 -0.95,-0.01 -1.59,0.03 -2.1,0.01 -0.51,-0.02 -0.88,-0.08 -1.43,-0.12 -0.56,-0.04 -1.3,-0.06 -2.08,-0.12 -0.78,-0.06 -1.6,-0.18 -2.36,-0.29 -0.76,-0.11 -1.45,-0.23 -2.13,-0.35 -0.68,-0.13 -1.34,-0.28 -2.04,-0.44 -0.7,-0.16 -1.44,-0.34 -2.28,-0.58 -0.83,-0.24 -1.77,-0.55 -2.57,-0.78 -0.8,-0.22 -1.46,-0.37 -1.95,-0.46 -0.49,-0.09 -0.81,-0.12 -1.21,-0.02 -0.39,0.09 -0.86,0.32 -1.32,0.56 -0.46,0.24 -0.91,0.5 -1.46,1.01 -0.56,0.5 -1.22,1.26 -1.75,1.87 -0.53,0.61 -0.93,1.08 -1.41,1.64 -0.47,0.57 -1.02,1.22 -1.56,1.8 -0.54,0.57 -1.07,1.06 -1.55,1.43 -0.48,0.38 -0.92,0.65 -1.43,0.96 -0.51,0.31 -1.09,0.65 -2.69,1.55 -1.6,0.9 -4.23,2.37 -6.19,3.39 -1.96,1.02 -3.27,1.6 -4.63,2.18 -1.36,0.57 -2.78,1.13 -4.25,1.7 -1.47,0.57 -3,1.15 -4.61,1.79 -1.6,0.64 -3.28,1.33 -4.51,1.85 -1.23,0.52 -2.02,0.88 -2.96,1.38 -0.94,0.5 -2.04,1.14 -2.97,1.76 -0.94,0.62 -1.71,1.21 -2.47,1.88 -0.77,0.67 -1.52,1.41 -2.24,2.18 -0.72,0.76 -1.39,1.55 -2.04,2.37 -0.64,0.81 -1.26,1.65 -1.81,2.6 -0.56,0.95 -1.06,2.01 -1.56,3.11 -0.5,1.11 -1,2.25 -1.59,4.2 -0.59,1.95 -1.29,4.7 -1.82,6.84 -0.53,2.13 -0.9,3.65 -1.49,6.17 -0.59,2.52 -1.39,6.05 -2.09,9.14 -0.69,3.09 -1.28,5.75 -1.98,8.88 -0.71,3.13 -1.54,6.74 -2.19,9.61 -0.65,2.87 -1.09,5 -1.37,6.2 -0.27,1.2 -0.37,1.5 -0.4,1.77 -0.03,0.27 0,0.53 0.08,0.73 0.07,0.2 0.2,0.35 0.58,0.67z"/>
    </clipPath>
    <clipPath id="id2">
     <path d="M32.65 101.46c0.39,0.31 1.04,0.8 2.07,1.27 1.04,0.47 2.46,0.92 4.26,1.49 1.8,0.57 3.97,1.25 6.22,1.9 2.25,0.65 4.59,1.26 6.72,1.7 2.14,0.44 4.08,0.7 6.02,0.91 1.94,0.21 3.89,0.37 5.15,0.41 1.26,0.03 1.85,-0.07 2.31,-0.28 0.47,-0.21 0.83,-0.54 1.18,-1.56 0.36,-1.02 0.71,-2.74 1.04,-4.34 0.32,-1.6 0.61,-3.09 0.82,-3.98 0.21,-0.89 0.34,-1.18 0.39,-0.91 0.05,0.28 0.02,1.12 -0.02,2.93 -0.03,1.81 -0.06,4.6 -0.1,7.37 -0.03,2.77 -0.06,5.52 -0.09,7.89 -0.04,2.37 -0.07,4.34 -0.05,5.9 0.02,1.56 0.08,2.69 0.13,3.89 0.05,1.2 0.08,2.46 0.13,3.87 0.05,1.41 0.11,2.96 0.15,4.63 0.03,1.67 0.03,3.45 0.07,5.07 0.03,1.62 0.09,3.08 0.13,4.37 0.03,1.3 0.03,2.43 0.08,3.79 0.05,1.36 0.15,2.95 0.18,4.74 0.04,1.8 0,3.81 0.04,5.49 0.03,1.69 0.13,3.05 0.13,4.67 0,1.62 -0.1,3.5 -0.23,5.57 -0.13,2.07 -0.29,4.34 -0.58,6.71 -0.29,2.36 -0.71,4.83 -1.19,7.56 -0.47,2.74 -0.99,5.75 -1.36,7.95 -0.37,2.2 -0.6,3.6 -0.84,5.3 -0.24,1.7 -0.5,3.71 -0.6,5.09 -0.1,1.37 -0.04,2.12 0.16,2.69 0.19,0.57 0.52,0.95 1.02,1.3 0.5,0.34 1.18,0.63 1.67,0.82 0.48,0.2 0.78,0.3 0.97,0.5 0.19,0.21 0.29,0.54 0.52,0.96 0.23,0.42 0.58,0.94 1.13,1.49 0.55,0.55 1.3,1.13 2.07,1.67 0.78,0.54 1.59,1.02 2.57,1.51 0.99,0.48 2.15,0.97 3.15,1.35 0.99,0.38 1.81,0.65 2.76,0.89 0.94,0.24 2,0.45 3.67,0.7 1.66,0.26 3.91,0.57 5.78,0.78 1.87,0.21 3.35,0.32 4.78,0.42 1.43,0.1 2.8,0.18 5.35,0.28 2.55,0.1 6.29,0.23 11.11,0.29 4.81,0.06 10.71,0.04 15.61,-0.01 4.91,-0.05 8.82,-0.13 12.52,-0.23 3.7,-0.11 7.18,-0.23 9.5,-0.39 2.32,-0.15 3.48,-0.33 4.97,-0.56 1.49,-0.23 3.31,-0.5 4.79,-0.78 1.48,-0.27 2.63,-0.55 3.85,-0.95 1.22,-0.4 2.53,-0.93 3.63,-1.46 1.1,-0.52 2,-1.04 2.78,-1.58 0.78,-0.54 1.42,-1.11 2,-1.76 0.58,-0.65 1.09,-1.39 1.4,-1.89 0.3,-0.5 0.4,-0.76 0.47,-0.93 0.07,-0.18 0.12,-0.28 0.26,-0.36 0.13,-0.09 0.36,-0.17 0.6,-0.24 0.24,-0.07 0.5,-0.13 0.8,-0.2 0.3,-0.06 0.63,-0.13 0.94,-0.32 0.31,-0.19 0.58,-0.52 0.8,-0.86 0.22,-0.34 0.38,-0.72 0.46,-1.49 0.08,-0.77 0.08,-1.95 0.05,-2.84 -0.03,-0.89 -0.09,-1.51 -0.3,-2.89 -0.21,-1.39 -0.57,-3.55 -0.93,-5.72 -0.36,-2.17 -0.73,-4.37 -1.1,-6.41 -0.37,-2.05 -0.74,-3.95 -1.12,-6.04 -0.38,-2.09 -0.77,-4.38 -1.04,-6.21 -0.28,-1.83 -0.44,-3.2 -0.62,-5.17 -0.19,-1.97 -0.39,-4.55 -0.52,-6.44 -0.12,-1.89 -0.15,-3.1 -0.16,-4.86 -0.01,-1.76 0.01,-4.06 0.06,-6.04 0.06,-1.98 0.15,-3.64 0.25,-7.23 0.1,-3.59 0.19,-9.12 0.24,-12.91 0.05,-3.8 0.05,-5.85 0.02,-7.52 -0.02,-1.66 -0.07,-2.91 -0.12,-3.95 -0.05,-1.04 -0.09,-1.86 -0.12,-3.21 -0.02,-1.35 -0.02,-3.24 -0.02,-5.2 0,-1.96 0,-4.01 -0.02,-5.72 -0.02,-1.72 -0.05,-3.1 -0.07,-4.06 -0.02,-0.96 -0.04,-1.49 -0.03,-1.75 0.01,-0.26 0.04,-0.24 0.09,-0.09 0.05,0.15 0.11,0.44 0.27,1.18 0.15,0.73 0.39,1.91 0.64,3.25 0.25,1.35 0.51,2.86 0.73,3.86 0.23,1 0.42,1.48 0.71,1.88 0.29,0.39 0.68,0.7 1.12,0.86 0.44,0.16 0.94,0.18 2.41,0.11 1.47,-0.06 3.9,-0.21 5.71,-0.39 1.81,-0.18 3,-0.39 4.27,-0.63 1.26,-0.24 2.6,-0.52 4.04,-0.86 1.44,-0.35 2.99,-0.77 4.73,-1.31 1.74,-0.54 3.67,-1.2 5.39,-1.82 1.72,-0.62 3.24,-1.2 4.2,-1.6 0.97,-0.4 1.39,-0.63 1.68,-0.83 0.29,-0.2 0.45,-0.38 0.58,-0.61 0.13,-0.23 0.23,-0.52 -0.28,-2.69 -0.52,-2.18 -1.65,-6.24 -2.56,-9.69 -0.91,-3.45 -1.6,-6.28 -2.17,-8.62 -0.56,-2.33 -1,-4.17 -1.41,-5.82 -0.41,-1.65 -0.8,-3.12 -1.2,-4.72 -0.41,-1.6 -0.85,-3.34 -1.23,-4.99 -0.39,-1.65 -0.72,-3.21 -1.11,-4.78 -0.38,-1.57 -0.8,-3.15 -1.34,-4.88 -0.55,-1.73 -1.22,-3.61 -1.9,-5.3 -0.68,-1.69 -1.35,-3.17 -2.12,-4.51 -0.76,-1.34 -1.62,-2.55 -2.44,-3.6 -0.82,-1.05 -1.61,-1.93 -2.43,-2.75 -0.81,-0.81 -1.65,-1.55 -2.64,-2.34 -0.99,-0.79 -2.13,-1.63 -3.81,-2.63 -1.68,-1 -3.88,-2.16 -5.79,-3.07 -1.91,-0.91 -3.52,-1.57 -5.65,-2.52 -2.13,-0.95 -4.79,-2.19 -6.66,-3.07 -1.87,-0.88 -2.94,-1.39 -4.07,-1.97 -1.13,-0.58 -2.3,-1.22 -3.21,-1.72 -0.91,-0.5 -1.56,-0.85 -2.25,-1.25 -0.69,-0.39 -1.43,-0.83 -2.13,-1.24 -0.69,-0.41 -1.33,-0.8 -1.9,-1.19 -0.56,-0.4 -1.04,-0.8 -1.51,-1.15 -0.47,-0.35 -0.92,-0.66 -1.31,-1.04 -0.39,-0.38 -0.71,-0.83 -1.13,-1.36 -0.42,-0.53 -0.93,-1.14 -1.43,-1.65 -0.49,-0.51 -0.96,-0.91 -1.4,-1.25 -0.44,-0.34 -0.86,-0.61 -1.22,-0.81 -0.35,-0.2 -0.64,-0.33 -1,-0.43 -0.35,-0.11 -0.78,-0.19 -1.15,-0.15 -0.38,0.03 -0.72,0.18 -1.73,0.48 -1.02,0.3 -2.7,0.77 -3.94,1.09 -1.24,0.32 -2.03,0.5 -2.76,0.65 -0.73,0.15 -1.41,0.28 -2.65,0.44 -1.24,0.16 -3.04,0.35 -4.21,0.48 -1.17,0.12 -1.7,0.17 -2.59,0.17 -0.89,0 -2.15,-0.05 -3.1,-0.06 -0.95,-0.01 -1.59,0.03 -2.1,0.01 -0.51,-0.02 -0.88,-0.08 -1.43,-0.12 -0.56,-0.04 -1.3,-0.06 -2.08,-0.12 -0.78,-0.06 -1.6,-0.18 -2.36,-0.29 -0.76,-0.11 -1.45,-0.23 -2.13,-0.35 -0.68,-0.13 -1.34,-0.28 -2.04,-0.44 -0.7,-0.16 -1.44,-0.34 -2.28,-0.58 -0.83,-0.24 -1.77,-0.55 -2.57,-0.78 -0.8,-0.22 -1.46,-0.37 -1.95,-0.46 -0.49,-0.09 -0.81,-0.12 -1.21,-0.02 -0.39,0.09 -0.86,0.32 -1.32,0.56 -0.46,0.24 -0.91,0.5 -1.46,1.01 -0.56,0.5 -1.22,1.26 -1.75,1.87 -0.53,0.61 -0.93,1.08 -1.41,1.64 -0.47,0.57 -1.02,1.22 -1.56,1.8 -0.54,0.57 -1.07,1.06 -1.55,1.43 -0.48,0.38 -0.92,0.65 -1.43,0.96 -0.51,0.31 -1.09,0.65 -2.69,1.55 -1.6,0.9 -4.23,2.37 -6.19,3.39 -1.96,1.02 -3.27,1.6 -4.63,2.18 -1.36,0.57 -2.78,1.13 -4.25,1.7 -1.47,0.57 -3,1.15 -4.61,1.79 -1.6,0.64 -3.28,1.33 -4.51,1.85 -1.23,0.52 -2.02,0.88 -2.96,1.38 -0.94,0.5 -2.04,1.14 -2.97,1.76 -0.94,0.62 -1.71,1.21 -2.47,1.88 -0.77,0.67 -1.52,1.41 -2.24,2.18 -0.72,0.76 -1.39,1.55 -2.04,2.37 -0.64,0.81 -1.26,1.65 -1.81,2.6 -0.56,0.95 -1.06,2.01 -1.56,3.11 -0.5,1.11 -1,2.25 -1.59,4.2 -0.59,1.95 -1.29,4.7 -1.82,6.84 -0.53,2.13 -0.9,3.65 -1.49,6.17 -0.59,2.52 -1.39,6.05 -2.09,9.14 -0.69,3.09 -1.28,5.75 -1.98,8.88 -0.71,3.13 -1.54,6.74 -2.19,9.61 -0.65,2.87 -1.09,5 -1.37,6.2 -0.27,1.2 -0.37,1.5 -0.4,1.77 -0.03,0.27 0,0.53 0.08,0.73 0.07,0.2 0.2,0.35 0.58,0.67z"/>
    </clipPath>
    <clipPath id="id3">
     <path d="M32.65 101.46c0.39,0.31 1.04,0.8 2.07,1.27 1.04,0.47 2.46,0.92 4.26,1.49 1.8,0.57 3.97,1.25 6.22,1.9 2.25,0.65 4.59,1.26 6.72,1.7 2.14,0.44 4.08,0.7 6.02,0.91 1.94,0.21 3.89,0.37 5.15,0.41 1.26,0.03 1.85,-0.07 2.31,-0.28 0.47,-0.21 0.83,-0.54 1.18,-1.56 0.36,-1.02 0.71,-2.74 1.04,-4.34 0.32,-1.6 0.61,-3.09 0.82,-3.98 0.21,-0.89 0.34,-1.18 0.39,-0.91 0.05,0.28 0.02,1.12 -0.02,2.93 -0.03,1.81 -0.06,4.6 -0.1,7.37 -0.03,2.77 -0.06,5.52 -0.09,7.89 -0.04,2.37 -0.07,4.34 -0.05,5.9 0.02,1.56 0.08,2.69 0.13,3.89 0.05,1.2 0.08,2.46 0.13,3.87 0.05,1.41 0.11,2.96 0.15,4.63 0.03,1.67 0.03,3.45 0.07,5.07 0.03,1.62 0.09,3.08 0.13,4.37 0.03,1.3 0.03,2.43 0.08,3.79 0.05,1.36 0.15,2.95 0.18,4.74 0.04,1.8 0,3.81 0.04,5.49 0.03,1.69 0.13,3.05 0.13,4.67 0,1.62 -0.1,3.5 -0.23,5.57 -0.13,2.07 -0.29,4.34 -0.58,6.71 -0.29,2.36 -0.71,4.83 -1.19,7.56 -0.47,2.74 -0.99,5.75 -1.36,7.95 -0.37,2.2 -0.6,3.6 -0.84,5.3 -0.24,1.7 -0.5,3.71 -0.6,5.09 -0.1,1.37 -0.04,2.12 0.16,2.69 0.19,0.57 0.52,0.95 1.02,1.3 0.5,0.34 1.18,0.63 1.67,0.82 0.48,0.2 0.78,0.3 0.97,0.5 0.19,0.21 0.29,0.54 0.52,0.96 0.23,0.42 0.58,0.94 1.13,1.49 0.55,0.55 1.3,1.13 2.07,1.67 0.78,0.54 1.59,1.02 2.57,1.51 0.99,0.48 2.15,0.97 3.15,1.35 0.99,0.38 1.81,0.65 2.76,0.89 0.94,0.24 2,0.45 3.67,0.7 1.66,0.26 3.91,0.57 5.78,0.78 1.87,0.21 3.35,0.32 4.78,0.42 1.43,0.1 2.8,0.18 5.35,0.28 2.55,0.1 6.29,0.23 11.11,0.29 4.81,0.06 10.71,0.04 15.61,-0.01 4.91,-0.05 8.82,-0.13 12.52,-0.23 3.7,-0.11 7.18,-0.23 9.5,-0.39 2.32,-0.15 3.48,-0.33 4.97,-0.56 1.49,-0.23 3.31,-0.5 4.79,-0.78 1.48,-0.27 2.63,-0.55 3.85,-0.95 1.22,-0.4 2.53,-0.93 3.63,-1.46 1.1,-0.52 2,-1.04 2.78,-1.58 0.78,-0.54 1.42,-1.11 2,-1.76 0.58,-0.65 1.09,-1.39 1.4,-1.89 0.3,-0.5 0.4,-0.76 0.47,-0.93 0.07,-0.18 0.12,-0.28 0.26,-0.36 0.13,-0.09 0.36,-0.17 0.6,-0.24 0.24,-0.07 0.5,-0.13 0.8,-0.2 0.3,-0.06 0.63,-0.13 0.94,-0.32 0.31,-0.19 0.58,-0.52 0.8,-0.86 0.22,-0.34 0.38,-0.72 0.46,-1.49 0.08,-0.77 0.08,-1.95 0.05,-2.84 -0.03,-0.89 -0.09,-1.51 -0.3,-2.89 -0.21,-1.39 -0.57,-3.55 -0.93,-5.72 -0.36,-2.17 -0.73,-4.37 -1.1,-6.41 -0.37,-2.05 -0.74,-3.95 -1.12,-6.04 -0.38,-2.09 -0.77,-4.38 -1.04,-6.21 -0.28,-1.83 -0.44,-3.2 -0.62,-5.17 -0.19,-1.97 -0.39,-4.55 -0.52,-6.44 -0.12,-1.89 -0.15,-3.1 -0.16,-4.86 -0.01,-1.76 0.01,-4.06 0.06,-6.04 0.06,-1.98 0.15,-3.64 0.25,-7.23 0.1,-3.59 0.19,-9.12 0.24,-12.91 0.05,-3.8 0.05,-5.85 0.02,-7.52 -0.02,-1.66 -0.07,-2.91 -0.12,-3.95 -0.05,-1.04 -0.09,-1.86 -0.12,-3.21 -0.02,-1.35 -0.02,-3.24 -0.02,-5.2 0,-1.96 0,-4.01 -0.02,-5.72 -0.02,-1.72 -0.05,-3.1 -0.07,-4.06 -0.02,-0.96 -0.04,-1.49 -0.03,-1.75 0.01,-0.26 0.04,-0.24 0.09,-0.09 0.05,0.15 0.11,0.44 0.27,1.18 0.15,0.73 0.39,1.91 0.64,3.25 0.25,1.35 0.51,2.86 0.73,3.86 0.23,1 0.42,1.48 0.71,1.88 0.29,0.39 0.68,0.7 1.12,0.86 0.44,0.16 0.94,0.18 2.41,0.11 1.47,-0.06 3.9,-0.21 5.71,-0.39 1.81,-0.18 3,-0.39 4.27,-0.63 1.26,-0.24 2.6,-0.52 4.04,-0.86 1.44,-0.35 2.99,-0.77 4.73,-1.31 1.74,-0.54 3.67,-1.2 5.39,-1.82 1.72,-0.62 3.24,-1.2 4.2,-1.6 0.97,-0.4 1.39,-0.63 1.68,-0.83 0.29,-0.2 0.45,-0.38 0.58,-0.61 0.13,-0.23 0.23,-0.52 -0.28,-2.69 -0.52,-2.18 -1.65,-6.24 -2.56,-9.69 -0.91,-3.45 -1.6,-6.28 -2.17,-8.62 -0.56,-2.33 -1,-4.17 -1.41,-5.82 -0.41,-1.65 -0.8,-3.12 -1.2,-4.72 -0.41,-1.6 -0.85,-3.34 -1.23,-4.99 -0.39,-1.65 -0.72,-3.21 -1.11,-4.78 -0.38,-1.57 -0.8,-3.15 -1.34,-4.88 -0.55,-1.73 -1.22,-3.61 -1.9,-5.3 -0.68,-1.69 -1.35,-3.17 -2.12,-4.51 -0.76,-1.34 -1.62,-2.55 -2.44,-3.6 -0.82,-1.05 -1.61,-1.93 -2.43,-2.75 -0.81,-0.81 -1.65,-1.55 -2.64,-2.34 -0.99,-0.79 -2.13,-1.63 -3.81,-2.63 -1.68,-1 -3.88,-2.16 -5.79,-3.07 -1.91,-0.91 -3.52,-1.57 -5.65,-2.52 -2.13,-0.95 -4.79,-2.19 -6.66,-3.07 -1.87,-0.88 -2.94,-1.39 -4.07,-1.97 -1.13,-0.58 -2.3,-1.22 -3.21,-1.72 -0.91,-0.5 -1.56,-0.85 -2.25,-1.25 -0.69,-0.39 -1.43,-0.83 -2.13,-1.24 -0.69,-0.41 -1.33,-0.8 -1.9,-1.19 -0.56,-0.4 -1.04,-0.8 -1.51,-1.15 -0.47,-0.35 -0.92,-0.66 -1.31,-1.04 -0.39,-0.38 -0.71,-0.83 -1.13,-1.36 -0.42,-0.53 -0.93,-1.14 -1.43,-1.65 -0.49,-0.51 -0.96,-0.91 -1.4,-1.25 -0.44,-0.34 -0.86,-0.61 -1.22,-0.81 -0.35,-0.2 -0.64,-0.33 -1,-0.43 -0.35,-0.11 -0.78,-0.19 -1.15,-0.15 -0.38,0.03 -0.72,0.18 -1.73,0.48 -1.02,0.3 -2.7,0.77 -3.94,1.09 -1.24,0.32 -2.03,0.5 -2.76,0.65 -0.73,0.15 -1.41,0.28 -2.65,0.44 -1.24,0.16 -3.04,0.35 -4.21,0.48 -1.17,0.12 -1.7,0.17 -2.59,0.17 -0.89,0 -2.15,-0.05 -3.1,-0.06 -0.95,-0.01 -1.59,0.03 -2.1,0.01 -0.51,-0.02 -0.88,-0.08 -1.43,-0.12 -0.56,-0.04 -1.3,-0.06 -2.08,-0.12 -0.78,-0.06 -1.6,-0.18 -2.36,-0.29 -0.76,-0.11 -1.45,-0.23 -2.13,-0.35 -0.68,-0.13 -1.34,-0.28 -2.04,-0.44 -0.7,-0.16 -1.44,-0.34 -2.28,-0.58 -0.83,-0.24 -1.77,-0.55 -2.57,-0.78 -0.8,-0.22 -1.46,-0.37 -1.95,-0.46 -0.49,-0.09 -0.81,-0.12 -1.21,-0.02 -0.39,0.09 -0.86,0.32 -1.32,0.56 -0.46,0.24 -0.91,0.5 -1.46,1.01 -0.56,0.5 -1.22,1.26 -1.75,1.87 -0.53,0.61 -0.93,1.08 -1.41,1.64 -0.47,0.57 -1.02,1.22 -1.56,1.8 -0.54,0.57 -1.07,1.06 -1.55,1.43 -0.48,0.38 -0.92,0.65 -1.43,0.96 -0.51,0.31 -1.09,0.65 -2.69,1.55 -1.6,0.9 -4.23,2.37 -6.19,3.39 -1.96,1.02 -3.27,1.6 -4.63,2.18 -1.36,0.57 -2.78,1.13 -4.25,1.7 -1.47,0.57 -3,1.15 -4.61,1.79 -1.6,0.64 -3.28,1.33 -4.51,1.85 -1.23,0.52 -2.02,0.88 -2.96,1.38 -0.94,0.5 -2.04,1.14 -2.97,1.76 -0.94,0.62 -1.71,1.21 -2.47,1.88 -0.77,0.67 -1.52,1.41 -2.24,2.18 -0.72,0.76 -1.39,1.55 -2.04,2.37 -0.64,0.81 -1.26,1.65 -1.81,2.6 -0.56,0.95 -1.06,2.01 -1.56,3.11 -0.5,1.11 -1,2.25 -1.59,4.2 -0.59,1.95 -1.29,4.7 -1.82,6.84 -0.53,2.13 -0.9,3.65 -1.49,6.17 -0.59,2.52 -1.39,6.05 -2.09,9.14 -0.69,3.09 -1.28,5.75 -1.98,8.88 -0.71,3.13 -1.54,6.74 -2.19,9.61 -0.65,2.87 -1.09,5 -1.37,6.2 -0.27,1.2 -0.37,1.5 -0.4,1.77 -0.03,0.27 0,0.53 0.08,0.73 0.07,0.2 0.2,0.35 0.58,0.67z"/>
    </clipPath>
    <clipPath id="id4">
     <path d="M32.65 101.46c0.39,0.31 1.04,0.8 2.07,1.27 1.04,0.47 2.46,0.92 4.26,1.49 1.8,0.57 3.97,1.25 6.22,1.9 2.25,0.65 4.59,1.26 6.72,1.7 2.14,0.44 4.08,0.7 6.02,0.91 1.94,0.21 3.89,0.37 5.15,0.41 1.26,0.03 1.85,-0.07 2.31,-0.28 0.47,-0.21 0.83,-0.54 1.18,-1.56 0.36,-1.02 0.71,-2.74 1.04,-4.34 0.32,-1.6 0.61,-3.09 0.82,-3.98 0.21,-0.89 0.34,-1.18 0.39,-0.91 0.05,0.28 0.02,1.12 -0.02,2.93 -0.03,1.81 -0.06,4.6 -0.1,7.37 -0.03,2.77 -0.06,5.52 -0.09,7.89 -0.04,2.37 -0.07,4.34 -0.05,5.9 0.02,1.56 0.08,2.69 0.13,3.89 0.05,1.2 0.08,2.46 0.13,3.87 0.05,1.41 0.11,2.96 0.15,4.63 0.03,1.67 0.03,3.45 0.07,5.07 0.03,1.62 0.09,3.08 0.13,4.37 0.03,1.3 0.03,2.43 0.08,3.79 0.05,1.36 0.15,2.95 0.18,4.74 0.04,1.8 0,3.81 0.04,5.49 0.03,1.69 0.13,3.05 0.13,4.67 0,1.62 -0.1,3.5 -0.23,5.57 -0.13,2.07 -0.29,4.34 -0.58,6.71 -0.29,2.36 -0.71,4.83 -1.19,7.56 -0.47,2.74 -0.99,5.75 -1.36,7.95 -0.37,2.2 -0.6,3.6 -0.84,5.3 -0.24,1.7 -0.5,3.71 -0.6,5.09 -0.1,1.37 -0.04,2.12 0.16,2.69 0.19,0.57 0.52,0.95 1.02,1.3 0.5,0.34 1.18,0.63 1.67,0.82 0.48,0.2 0.78,0.3 0.97,0.5 0.19,0.21 0.29,0.54 0.52,0.96 0.23,0.42 0.58,0.94 1.13,1.49 0.55,0.55 1.3,1.13 2.07,1.67 0.78,0.54 1.59,1.02 2.57,1.51 0.99,0.48 2.15,0.97 3.15,1.35 0.99,0.38 1.81,0.65 2.76,0.89 0.94,0.24 2,0.45 3.67,0.7 1.66,0.26 3.91,0.57 5.78,0.78 1.87,0.21 3.35,0.32 4.78,0.42 1.43,0.1 2.8,0.18 5.35,0.28 2.55,0.1 6.29,0.23 11.11,0.29 4.81,0.06 10.71,0.04 15.61,-0.01 4.91,-0.05 8.82,-0.13 12.52,-0.23 3.7,-0.11 7.18,-0.23 9.5,-0.39 2.32,-0.15 3.48,-0.33 4.97,-0.56 1.49,-0.23 3.31,-0.5 4.79,-0.78 1.48,-0.27 2.63,-0.55 3.85,-0.95 1.22,-0.4 2.53,-0.93 3.63,-1.46 1.1,-0.52 2,-1.04 2.78,-1.58 0.78,-0.54 1.42,-1.11 2,-1.76 0.58,-0.65 1.09,-1.39 1.4,-1.89 0.3,-0.5 0.4,-0.76 0.47,-0.93 0.07,-0.18 0.12,-0.28 0.26,-0.36 0.13,-0.09 0.36,-0.17 0.6,-0.24 0.24,-0.07 0.5,-0.13 0.8,-0.2 0.3,-0.06 0.63,-0.13 0.94,-0.32 0.31,-0.19 0.58,-0.52 0.8,-0.86 0.22,-0.34 0.38,-0.72 0.46,-1.49 0.08,-0.77 0.08,-1.95 0.05,-2.84 -0.03,-0.89 -0.09,-1.51 -0.3,-2.89 -0.21,-1.39 -0.57,-3.55 -0.93,-5.72 -0.36,-2.17 -0.73,-4.37 -1.1,-6.41 -0.37,-2.05 -0.74,-3.95 -1.12,-6.04 -0.38,-2.09 -0.77,-4.38 -1.04,-6.21 -0.28,-1.83 -0.44,-3.2 -0.62,-5.17 -0.19,-1.97 -0.39,-4.55 -0.52,-6.44 -0.12,-1.89 -0.15,-3.1 -0.16,-4.86 -0.01,-1.76 0.01,-4.06 0.06,-6.04 0.06,-1.98 0.15,-3.64 0.25,-7.23 0.1,-3.59 0.19,-9.12 0.24,-12.91 0.05,-3.8 0.05,-5.85 0.02,-7.52 -0.02,-1.66 -0.07,-2.91 -0.12,-3.95 -0.05,-1.04 -0.09,-1.86 -0.12,-3.21 -0.02,-1.35 -0.02,-3.24 -0.02,-5.2 0,-1.96 0,-4.01 -0.02,-5.72 -0.02,-1.72 -0.05,-3.1 -0.07,-4.06 -0.02,-0.96 -0.04,-1.49 -0.03,-1.75 0.01,-0.26 0.04,-0.24 0.09,-0.09 0.05,0.15 0.11,0.44 0.27,1.18 0.15,0.73 0.39,1.91 0.64,3.25 0.25,1.35 0.51,2.86 0.73,3.86 0.23,1 0.42,1.48 0.71,1.88 0.29,0.39 0.68,0.7 1.12,0.86 0.44,0.16 0.94,0.18 2.41,0.11 1.47,-0.06 3.9,-0.21 5.71,-0.39 1.81,-0.18 3,-0.39 4.27,-0.63 1.26,-0.24 2.6,-0.52 4.04,-0.86 1.44,-0.35 2.99,-0.77 4.73,-1.31 1.74,-0.54 3.67,-1.2 5.39,-1.82 1.72,-0.62 3.24,-1.2 4.2,-1.6 0.97,-0.4 1.39,-0.63 1.68,-0.83 0.29,-0.2 0.45,-0.38 0.58,-0.61 0.13,-0.23 0.23,-0.52 -0.28,-2.69 -0.52,-2.18 -1.65,-6.24 -2.56,-9.69 -0.91,-3.45 -1.6,-6.28 -2.17,-8.62 -0.56,-2.33 -1,-4.17 -1.41,-5.82 -0.41,-1.65 -0.8,-3.12 -1.2,-4.72 -0.41,-1.6 -0.85,-3.34 -1.23,-4.99 -0.39,-1.65 -0.72,-3.21 -1.11,-4.78 -0.38,-1.57 -0.8,-3.15 -1.34,-4.88 -0.55,-1.73 -1.22,-3.61 -1.9,-5.3 -0.68,-1.69 -1.35,-3.17 -2.12,-4.51 -0.76,-1.34 -1.62,-2.55 -2.44,-3.6 -0.82,-1.05 -1.61,-1.93 -2.43,-2.75 -0.81,-0.81 -1.65,-1.55 -2.64,-2.34 -0.99,-0.79 -2.13,-1.63 -3.81,-2.63 -1.68,-1 -3.88,-2.16 -5.79,-3.07 -1.91,-0.91 -3.52,-1.57 -5.65,-2.52 -2.13,-0.95 -4.79,-2.19 -6.66,-3.07 -1.87,-0.88 -2.94,-1.39 -4.07,-1.97 -1.13,-0.58 -2.3,-1.22 -3.21,-1.72 -0.91,-0.5 -1.56,-0.85 -2.25,-1.25 -0.69,-0.39 -1.43,-0.83 -2.13,-1.24 -0.69,-0.41 -1.33,-0.8 -1.9,-1.19 -0.56,-0.4 -1.04,-0.8 -1.51,-1.15 -0.47,-0.35 -0.92,-0.66 -1.31,-1.04 -0.39,-0.38 -0.71,-0.83 -1.13,-1.36 -0.42,-0.53 -0.93,-1.14 -1.43,-1.65 -0.49,-0.51 -0.96,-0.91 -1.4,-1.25 -0.44,-0.34 -0.86,-0.61 -1.22,-0.81 -0.35,-0.2 -0.64,-0.33 -1,-0.43 -0.35,-0.11 -0.78,-0.19 -1.15,-0.15 -0.38,0.03 -0.72,0.18 -1.73,0.48 -1.02,0.3 -2.7,0.77 -3.94,1.09 -1.24,0.32 -2.03,0.5 -2.76,0.65 -0.73,0.15 -1.41,0.28 -2.65,0.44 -1.24,0.16 -3.04,0.35 -4.21,0.48 -1.17,0.12 -1.7,0.17 -2.59,0.17 -0.89,0 -2.15,-0.05 -3.1,-0.06 -0.95,-0.01 -1.59,0.03 -2.1,0.01 -0.51,-0.02 -0.88,-0.08 -1.43,-0.12 -0.56,-0.04 -1.3,-0.06 -2.08,-0.12 -0.78,-0.06 -1.6,-0.18 -2.36,-0.29 -0.76,-0.11 -1.45,-0.23 -2.13,-0.35 -0.68,-0.13 -1.34,-0.28 -2.04,-0.44 -0.7,-0.16 -1.44,-0.34 -2.28,-0.58 -0.83,-0.24 -1.77,-0.55 -2.57,-0.78 -0.8,-0.22 -1.46,-0.37 -1.95,-0.46 -0.49,-0.09 -0.81,-0.12 -1.21,-0.02 -0.39,0.09 -0.86,0.32 -1.32,0.56 -0.46,0.24 -0.91,0.5 -1.46,1.01 -0.56,0.5 -1.22,1.26 -1.75,1.87 -0.53,0.61 -0.93,1.08 -1.41,1.64 -0.47,0.57 -1.02,1.22 -1.56,1.8 -0.54,0.57 -1.07,1.06 -1.55,1.43 -0.48,0.38 -0.92,0.65 -1.43,0.96 -0.51,0.31 -1.09,0.65 -2.69,1.55 -1.6,0.9 -4.23,2.37 -6.19,3.39 -1.96,1.02 -3.27,1.6 -4.63,2.18 -1.36,0.57 -2.78,1.13 -4.25,1.7 -1.47,0.57 -3,1.15 -4.61,1.79 -1.6,0.64 -3.28,1.33 -4.51,1.85 -1.23,0.52 -2.02,0.88 -2.96,1.38 -0.94,0.5 -2.04,1.14 -2.97,1.76 -0.94,0.62 -1.71,1.21 -2.47,1.88 -0.77,0.67 -1.52,1.41 -2.24,2.18 -0.72,0.76 -1.39,1.55 -2.04,2.37 -0.64,0.81 -1.26,1.65 -1.81,2.6 -0.56,0.95 -1.06,2.01 -1.56,3.11 -0.5,1.11 -1,2.25 -1.59,4.2 -0.59,1.95 -1.29,4.7 -1.82,6.84 -0.53,2.13 -0.9,3.65 -1.49,6.17 -0.59,2.52 -1.39,6.05 -2.09,9.14 -0.69,3.09 -1.28,5.75 -1.98,8.88 -0.71,3.13 -1.54,6.74 -2.19,9.61 -0.65,2.87 -1.09,5 -1.37,6.2 -0.27,1.2 -0.37,1.5 -0.4,1.77 -0.03,0.27 0,0.53 0.08,0.73 0.07,0.2 0.2,0.35 0.58,0.67z"/>
    </clipPath>
 </defs>
 <g id="Layer_x0020_1">
  <metadata id="CorelCorpID_0Corel-Layer"/>
  <rect class="fil0" x="-0" y="-0" width="239.99" height="226.66"/>
  <g id="_1951743144640">
   <g>
    <path class="fil1" d="M32.65 101.46c0.39,0.31 1.04,0.8 2.07,1.27 1.04,0.47 2.46,0.92 4.26,1.49 1.8,0.57 3.97,1.25 6.22,1.9 2.25,0.65 4.59,1.26 6.72,1.7 2.14,0.44 4.08,0.7 6.02,0.91 1.94,0.21 3.89,0.37 5.15,0.41 1.26,0.03 1.85,-0.07 2.31,-0.28 0.47,-0.21 0.83,-0.54 1.18,-1.56 0.36,-1.02 0.71,-2.74 1.04,-4.34 0.32,-1.6 0.61,-3.09 0.82,-3.98 0.21,-0.89 0.34,-1.18 0.39,-0.91 0.05,0.28 0.02,1.12 -0.02,2.93 -0.03,1.81 -0.06,4.6 -0.1,7.37 -0.03,2.77 -0.06,5.52 -0.09,7.89 -0.04,2.37 -0.07,4.34 -0.05,5.9 0.02,1.56 0.08,2.69 0.13,3.89 0.05,1.2 0.08,2.46 0.13,3.87 0.05,1.41 0.11,2.96 0.15,4.63 0.03,1.67 0.03,3.45 0.07,5.07 0.03,1.62 0.09,3.08 0.13,4.37 0.03,1.3 0.03,2.43 0.08,3.79 0.05,1.36 0.15,2.95 0.18,4.74 0.04,1.8 0,3.81 0.04,5.49 0.03,1.69 0.13,3.05 0.13,4.67 0,1.62 -0.1,3.5 -0.23,5.57 -0.13,2.07 -0.29,4.34 -0.58,6.71 -0.29,2.36 -0.71,4.83 -1.19,7.56 -0.47,2.74 -0.99,5.75 -1.36,7.95 -0.37,2.2 -0.6,3.6 -0.84,5.3 -0.24,1.7 -0.5,3.71 -0.6,5.09 -0.1,1.37 -0.04,2.12 0.16,2.69 0.19,0.57 0.52,0.95 1.02,1.3 0.5,0.34 1.18,0.63 1.67,0.82 0.48,0.2 0.78,0.3 0.97,0.5 0.19,0.21 0.29,0.54 0.52,0.96 0.23,0.42 0.58,0.94 1.13,1.49 0.55,0.55 1.3,1.13 2.07,1.67 0.78,0.54 1.59,1.02 2.57,1.51 0.99,0.48 2.15,0.97 3.15,1.35 0.99,0.38 1.81,0.65 2.76,0.89 0.94,0.24 2,0.45 3.67,0.7 1.66,0.26 3.91,0.57 5.78,0.78 1.87,0.21 3.35,0.32 4.78,0.42 1.43,0.1 2.8,0.18 5.35,0.28 2.55,0.1 6.29,0.23 11.11,0.29 4.81,0.06 10.71,0.04 15.61,-0.01 4.91,-0.05 8.82,-0.13 12.52,-0.23 3.7,-0.11 7.18,-0.23 9.5,-0.39 2.32,-0.15 3.48,-0.33 4.97,-0.56 1.49,-0.23 3.31,-0.5 4.79,-0.78 1.48,-0.27 2.63,-0.55 3.85,-0.95 1.22,-0.4 2.53,-0.93 3.63,-1.46 1.1,-0.52 2,-1.04 2.78,-1.58 0.78,-0.54 1.42,-1.11 2,-1.76 0.58,-0.65 1.09,-1.39 1.4,-1.89 0.3,-0.5 0.4,-0.76 0.47,-0.93 0.07,-0.18 0.12,-0.28 0.26,-0.36 0.13,-0.09 0.36,-0.17 0.6,-0.24 0.24,-0.07 0.5,-0.13 0.8,-0.2 0.3,-0.06 0.63,-0.13 0.94,-0.32 0.31,-0.19 0.58,-0.52 0.8,-0.86 0.22,-0.34 0.38,-0.72 0.46,-1.49 0.08,-0.77 0.08,-1.95 0.05,-2.84 -0.03,-0.89 -0.09,-1.51 -0.3,-2.89 -0.21,-1.39 -0.57,-3.55 -0.93,-5.72 -0.36,-2.17 -0.73,-4.37 -1.1,-6.41 -0.37,-2.05 -0.74,-3.95 -1.12,-6.04 -0.38,-2.09 -0.77,-4.38 -1.04,-6.21 -0.28,-1.83 -0.44,-3.2 -0.62,-5.17 -0.19,-1.97 -0.39,-4.55 -0.52,-6.44 -0.12,-1.89 -0.15,-3.1 -0.16,-4.86 -0.01,-1.76 0.01,-4.06 0.06,-6.04 0.06,-1.98 0.15,-3.64 0.25,-7.23 0.1,-3.59 0.19,-9.12 0.24,-12.91 0.05,-3.8 0.05,-5.85 0.02,-7.52 -0.02,-1.66 -0.07,-2.91 -0.12,-3.95 -0.05,-1.04 -0.09,-1.86 -0.12,-3.21 -0.02,-1.35 -0.02,-3.24 -0.02,-5.2 0,-1.96 0,-4.01 -0.02,-5.72 -0.02,-1.72 -0.05,-3.1 -0.07,-4.06 -0.02,-0.96 -0.04,-1.49 -0.03,-1.75 0.01,-0.26 0.04,-0.24 0.09,-0.09 0.05,0.15 0.11,0.44 0.27,1.18 0.15,0.73 0.39,1.91 0.64,3.25 0.25,1.35 0.51,2.86 0.73,3.86 0.23,1 0.42,1.48 0.71,1.88 0.29,0.39 0.68,0.7 1.12,0.86 0.44,0.16 0.94,0.18 2.41,0.11 1.47,-0.06 3.9,-0.21 5.71,-0.39 1.81,-0.18 3,-0.39 4.27,-0.63 1.26,-0.24 2.6,-0.52 4.04,-0.86 1.44,-0.35 2.99,-0.77 4.73,-1.31 1.74,-0.54 3.67,-1.2 5.39,-1.82 1.72,-0.62 3.24,-1.2 4.2,-1.6 0.96,-0.4 1.39,-0.63 1.68,-0.83 0.29,-0.2 0.45,-0.38 0.58,-0.61 0.13,-0.23 0.23,-0.52 -0.28,-2.69 -0.52,-2.18 -1.65,-6.24 -2.56,-9.69 -0.91,-3.45 -1.6,-6.28 -2.17,-8.62 -0.56,-2.33 -1,-4.17 -1.41,-5.82 -0.41,-1.65 -0.8,-3.12 -1.2,-4.72 -0.41,-1.6 -0.85,-3.34 -1.23,-4.99 -0.39,-1.65 -0.72,-3.21 -1.11,-4.78 -0.38,-1.57 -0.8,-3.15 -1.34,-4.88 -0.55,-1.73 -1.22,-3.61 -1.9,-5.3 -0.68,-1.69 -1.35,-3.17 -2.12,-4.51 -0.76,-1.34 -1.62,-2.55 -2.44,-3.6 -0.82,-1.05 -1.61,-1.93 -2.43,-2.74 -0.81,-0.81 -1.65,-1.56 -2.64,-2.35 -0.99,-0.79 -2.13,-1.63 -3.81,-2.63 -1.68,-1 -3.88,-2.16 -5.79,-3.07 -1.91,-0.91 -3.52,-1.57 -5.65,-2.52 -2.13,-0.95 -4.79,-2.19 -6.66,-3.07 -1.87,-0.88 -2.94,-1.39 -4.07,-1.97 -1.13,-0.58 -2.3,-1.22 -3.21,-1.72 -0.91,-0.5 -1.56,-0.85 -2.25,-1.25 -0.69,-0.39 -1.43,-0.83 -2.13,-1.24 -0.69,-0.41 -1.33,-0.8 -1.9,-1.19 -0.56,-0.4 -1.04,-0.8 -1.51,-1.15 -0.47,-0.35 -0.92,-0.66 -1.31,-1.04 -0.39,-0.38 -0.71,-0.83 -1.13,-1.36 -0.42,-0.53 -0.93,-1.14 -1.43,-1.65 -0.49,-0.51 -0.96,-0.91 -1.4,-1.25 -0.44,-0.34 -0.86,-0.61 -1.22,-0.81 -0.35,-0.2 -0.64,-0.33 -1,-0.43 -0.35,-0.11 -0.78,-0.19 -1.15,-0.15 -0.38,0.03 -0.72,0.18 -1.73,0.48 -1.02,0.3 -2.7,0.77 -3.94,1.09 -1.24,0.32 -2.03,0.5 -2.76,0.65 -0.73,0.15 -1.41,0.28 -2.65,0.44 -1.24,0.16 -3.04,0.35 -4.21,0.48 -1.17,0.12 -1.7,0.17 -2.59,0.17 -0.89,0 -2.15,-0.05 -3.1,-0.06 -0.95,-0.01 -1.59,0.03 -2.1,0.01 -0.51,-0.02 -0.88,-0.08 -1.43,-0.12 -0.56,-0.04 -1.3,-0.06 -2.08,-0.12 -0.78,-0.06 -1.6,-0.18 -2.36,-0.29 -0.76,-0.11 -1.45,-0.23 -2.13,-0.35 -0.68,-0.13 -1.34,-0.28 -2.04,-0.44 -0.7,-0.16 -1.44,-0.34 -2.28,-0.58 -0.83,-0.24 -1.77,-0.55 -2.57,-0.78 -0.8,-0.22 -1.46,-0.37 -1.95,-0.46 -0.49,-0.09 -0.81,-0.12 -1.21,-0.02 -0.39,0.09 -0.86,0.32 -1.32,0.56 -0.46,0.24 -0.91,0.5 -1.46,1.01 -0.56,0.5 -1.22,1.26 -1.75,1.87 -0.53,0.61 -0.93,1.08 -1.41,1.64 -0.47,0.57 -1.02,1.22 -1.56,1.8 -0.54,0.57 -1.07,1.06 -1.55,1.43 -0.48,0.38 -0.92,0.65 -1.43,0.96 -0.51,0.31 -1.09,0.65 -2.69,1.55 -1.6,0.9 -4.23,2.37 -6.19,3.39 -1.96,1.02 -3.27,1.6 -4.63,2.18 -1.36,0.57 -2.78,1.13 -4.25,1.7 -1.47,0.57 -3,1.15 -4.61,1.79 -1.6,0.64 -3.28,1.33 -4.51,1.85 -1.23,0.52 -2.02,0.88 -2.96,1.38 -0.94,0.5 -2.04,1.14 -2.97,1.76 -0.94,0.62 -1.71,1.21 -2.47,1.88 -0.77,0.67 -1.52,1.41 -2.24,2.18 -0.72,0.76 -1.39,1.55 -2.04,2.37 -0.64,0.81 -1.26,1.65 -1.81,2.6 -0.56,0.95 -1.06,2.01 -1.56,3.11 -0.5,1.11 -1,2.25 -1.59,4.2 -0.59,1.95 -1.29,4.7 -1.82,6.84 -0.53,2.13 -0.9,3.65 -1.49,6.17 -0.59,2.52 -1.39,6.05 -2.09,9.14 -0.69,3.09 -1.28,5.75 -1.98,8.88 -0.71,3.13 -1.54,6.74 -2.19,9.61 -0.65,2.87 -1.09,5 -1.37,6.2 -0.27,1.2 -0.37,1.5 -0.4,1.77 -0.03,0.27 0,0.53 0.08,0.73 0.07,0.2 0.2,0.35 0.58,0.67z"/>
    <g>
     <path class="fil2" d="M97.76 67.38c0.07,-0.08 0.61,-1.04 0.67,-1.18 0.17,0.18 1.24,2.04 1.38,2.36 -0.1,0.25 -1.99,3.48 -2.11,3.57 -0.12,-0.39 -2.87,-4.98 -3.2,-5.55 -0.3,-0.52 -0.19,-0.41 0.38,-1.42l1.2 -2.08c0.52,-0.86 0.11,-0.44 -0.62,-2.07l-1.39 0 0.9 1.58 -1.35 2.34c-0.05,-0.04 -0.05,-0.04 -0.09,-0.09l-1.77 -3.06c-0.39,-0.68 -1.57,-2.62 -1.82,-3.16l6.88 -0 2.22 3.8c0.13,0.26 -0.02,0.39 -0.14,0.59l-1.58 2.73c-0.11,0.2 -0.28,0.36 -0.21,0.55 0.07,0.18 0.56,0.99 0.66,1.09z"/>
     <path class="fil2" d="M93.57 58.43c0.53,0.04 1.15,0.01 1.69,0.01 0.81,0 0.43,-0.07 1.29,-0.45 1.85,-0.81 3.84,-0.85 5.71,-0 0.49,0.22 0.63,0.46 1.24,0.46 0.58,-0.01 1.17,0.01 1.75,-0 -0.23,-0.46 -1.76,-1.43 -2.4,-1.72 -3.24,-1.48 -6.79,-0.76 -9.28,1.72z"/>
     <path class="fil2" d="M101.92 71.9c2.92,-0.8 5.67,-3.98 5.67,-7.6 0,-0.61 -0.03,-1.3 -0.18,-1.87l-0.72 1.17c-0.41,0.68 -0.48,0.69 -0.55,1.3 -0.22,1.93 -1.26,3.63 -2.75,4.7 -0.43,0.31 -0.43,0.46 -0.78,1.07 -0.2,0.35 -0.56,0.89 -0.69,1.22z"/>
     <path class="fil2" d="M96.88 71.89c-0.07,-0.24 -0.5,-0.91 -0.67,-1.19 -0.23,-0.38 -0.38,-0.82 -0.77,-1.09 -1.45,-1.01 -2.53,-2.78 -2.76,-4.65 -0.08,-0.7 -0.13,-0.58 -0.55,-1.3 -0.21,-0.37 -0.53,-0.85 -0.69,-1.22 -0.35,0.58 -0.18,2.72 -0.02,3.44 0.22,0.99 0.65,1.98 1.12,2.68 0.99,1.44 2.29,2.68 4.33,3.33z"/>
     <polygon class="fil2" points="98.48,72.63 99.75,74.85 109.09,58.61 106.53,58.62 "/>
     <polygon class="fil2" points="99.15,65.55 100.42,67.77 105.68,58.61 103.12,58.62 "/>
     <polygon class="fil2" points="97.34,58.62 99.33,62.02 99.95,60.88 100.9,60.88 102.16,58.61 "/>
    </g>
    <path class="fil3" d="M109.34 62.38l2.14 0.1c0.03,0.09 0.07,0.15 0.12,0.18 0.11,0.07 0.29,0.1 0.53,0.1 0.36,0 0.56,-0.08 0.6,-0.24 0.02,-0.07 -0.01,-0.13 -0.09,-0.15 -0.04,-0.02 -0.42,-0.07 -1.13,-0.17 -0.65,-0.09 -1.08,-0.19 -1.29,-0.28 -0.43,-0.2 -0.58,-0.53 -0.46,-1 0.09,-0.32 0.26,-0.59 0.54,-0.8 0.3,-0.23 0.7,-0.39 1.21,-0.48 0.3,-0.05 0.69,-0.07 1.15,-0.07 1.11,0 1.85,0.14 2.22,0.43 0.2,0.15 0.31,0.34 0.35,0.56 0.02,0.08 0.02,0.2 0.01,0.35l-2.28 -0.07c-0.07,-0.12 -0.26,-0.18 -0.56,-0.18 -0.2,0 -0.35,0.02 -0.42,0.05 -0.07,0.04 -0.11,0.09 -0.13,0.15 -0.01,0.05 -0.01,0.09 0.02,0.11 0.05,0.05 0.22,0.09 0.52,0.1 0.65,0.04 1.18,0.11 1.6,0.2 0.43,0.09 0.71,0.23 0.85,0.4 0.16,0.2 0.2,0.46 0.11,0.78 -0.13,0.47 -0.44,0.81 -0.94,1.03 -0.34,0.15 -0.69,0.24 -1.05,0.28 -0.34,0.04 -0.7,0.06 -1.07,0.06 -1.13,0 -1.89,-0.15 -2.25,-0.44 -0.21,-0.17 -0.33,-0.37 -0.35,-0.61 -0,-0.09 0,-0.22 0.03,-0.39zm5.23 1.28l1.39 -5.21 1.79 0 -1.4 5.21 -1.79 0zm8 -1.14c-0.14,0.26 -0.3,0.46 -0.46,0.6 -0.54,0.47 -1.41,0.71 -2.6,0.71 -1.06,0 -1.81,-0.16 -2.24,-0.46 -0.22,-0.16 -0.37,-0.4 -0.43,-0.72 -0.06,-0.3 -0.04,-0.63 0.06,-0.98 0.12,-0.46 0.33,-0.84 0.64,-1.17 0.33,-0.35 0.83,-0.6 1.48,-0.76 0.45,-0.11 0.92,-0.17 1.41,-0.17 0.72,0 1.3,0.11 1.73,0.35 0.38,0.2 0.6,0.5 0.66,0.89 0.04,0.28 -0.01,0.74 -0.17,1.37l-3.92 0c0.01,0.22 0.08,0.37 0.2,0.45 0.17,0.11 0.42,0.16 0.76,0.16 0.21,0 0.39,-0.03 0.53,-0.08 0.09,-0.03 0.19,-0.1 0.3,-0.2l2.05 0zm-3.55 -1.33l1.97 0c-0.02,-0.37 -0.3,-0.55 -0.83,-0.55 -0.26,0 -0.5,0.05 -0.7,0.14 -0.18,0.08 -0.33,0.22 -0.44,0.41zm9.28 1.33c-0.14,0.26 -0.3,0.46 -0.45,0.6 -0.54,0.47 -1.41,0.71 -2.61,0.71 -1.06,0 -1.81,-0.16 -2.24,-0.46 -0.22,-0.16 -0.37,-0.4 -0.43,-0.72 -0.06,-0.3 -0.04,-0.63 0.06,-0.98 0.12,-0.46 0.33,-0.84 0.64,-1.17 0.33,-0.35 0.83,-0.6 1.48,-0.76 0.45,-0.11 0.92,-0.17 1.41,-0.17 0.72,0 1.3,0.11 1.73,0.35 0.38,0.2 0.6,0.5 0.66,0.89 0.04,0.28 -0.01,0.74 -0.17,1.37l-3.92 0c0.01,0.22 0.08,0.37 0.2,0.45 0.17,0.11 0.42,0.16 0.76,0.16 0.21,0 0.39,-0.03 0.53,-0.08 0.09,-0.03 0.19,-0.1 0.3,-0.2l2.05 0zm-3.55 -1.33l1.97 0c-0.02,-0.37 -0.3,-0.55 -0.83,-0.55 -0.26,0 -0.5,0.05 -0.7,0.14 -0.18,0.08 -0.32,0.22 -0.44,0.41zm4.3 -1.44l1.79 0 -0.1 0.37c0.28,-0.18 0.53,-0.29 0.75,-0.35 0.3,-0.08 0.64,-0.12 1.02,-0.12 0.69,0 1.21,0.15 1.55,0.45 0.43,0.38 0.56,0.92 0.37,1.61 -0.11,0.42 -0.32,0.8 -0.63,1.14 -0.55,0.62 -1.36,0.93 -2.43,0.93 -0.38,0 -0.71,-0.04 -0.99,-0.13 -0.18,-0.06 -0.35,-0.15 -0.51,-0.27l-0.39 1.44 -1.79 0 1.35 -5.05zm2.52 1.15c-0.3,0 -0.56,0.06 -0.78,0.17 -0.24,0.13 -0.4,0.33 -0.47,0.61 -0.15,0.54 0.13,0.81 0.84,0.81 0.71,0 1.13,-0.26 1.28,-0.8 0.14,-0.54 -0.15,-0.8 -0.86,-0.8z"/>
    <path class="fil3" d="M111.8 69.13l-0.85 -3.91 1.98 0 0.4 1.91 1.37 -1.91 1.99 0 0.35 1.91 1.38 -1.91 1.84 0 -2.86 3.91 -1.85 0 -0.4 -2.01 -1.55 2.01 -1.8 0zm7.76 -2.74c0.13,-0.26 0.26,-0.46 0.4,-0.59 0.32,-0.32 0.79,-0.54 1.42,-0.66 0.35,-0.06 0.76,-0.09 1.24,-0.09 1.28,0 2.06,0.17 2.34,0.51 0.1,0.13 0.16,0.27 0.17,0.43 0.01,0.17 -0.03,0.42 -0.12,0.76l-0.41 1.53c-0.06,0.22 -0.09,0.39 -0.11,0.5 -0.02,0.11 -0,0.24 0.04,0.36l-1.87 0 0.06 -0.35c-0.28,0.14 -0.53,0.23 -0.74,0.29 -0.38,0.11 -0.81,0.16 -1.28,0.16 -0.62,0 -1.11,-0.1 -1.46,-0.3 -0.17,-0.1 -0.3,-0.23 -0.37,-0.4 -0.09,-0.19 -0.09,-0.4 -0.03,-0.65 0.12,-0.45 0.43,-0.76 0.95,-0.93 0.63,-0.22 1.5,-0.34 2.62,-0.36 0.46,-0.01 0.72,-0.04 0.8,-0.08 0.04,-0.02 0.07,-0.06 0.08,-0.11 0.02,-0.09 -0.02,-0.17 -0.14,-0.22 -0.17,-0.08 -0.4,-0.13 -0.69,-0.13 -0.23,0 -0.43,0.02 -0.61,0.07 -0.12,0.03 -0.22,0.09 -0.31,0.19l-1.98 0.08zm3.49 0.97l-0.05 0.01c-0.14,0.02 -0.37,0.03 -0.68,0.04 -0.44,0.01 -0.73,0.02 -0.86,0.04 -0.26,0.04 -0.41,0.14 -0.46,0.32 -0.06,0.22 0.15,0.33 0.63,0.33 0.59,0 0.98,-0.08 1.17,-0.24 0.1,-0.08 0.17,-0.22 0.22,-0.4l0.02 -0.09zm1.51 1.77l1.4 -5.21 1.79 0 -1.4 5.21 -1.79 0zm1.97 0l1.4 -5.21 1.79 0 -0.67 2.51 1.62 -1.21 2.43 0 -1.97 1.37 1.07 2.54 -2.25 0 -0.54 -1.5 -0.83 0.59 -0.24 0.91 -1.79 0zm11.17 -1.14c-0.14,0.26 -0.29,0.46 -0.45,0.6 -0.54,0.47 -1.41,0.71 -2.61,0.71 -1.06,0 -1.81,-0.15 -2.24,-0.46 -0.22,-0.16 -0.36,-0.4 -0.43,-0.72 -0.06,-0.3 -0.04,-0.63 0.06,-0.98 0.12,-0.46 0.33,-0.84 0.64,-1.17 0.33,-0.34 0.83,-0.6 1.49,-0.76 0.44,-0.11 0.91,-0.17 1.41,-0.17 0.72,0 1.3,0.11 1.73,0.35 0.38,0.2 0.6,0.5 0.66,0.89 0.05,0.28 -0.01,0.74 -0.17,1.37l-3.92 0c0.01,0.22 0.07,0.37 0.2,0.45 0.17,0.11 0.42,0.16 0.76,0.16 0.21,0 0.39,-0.03 0.53,-0.08 0.09,-0.03 0.19,-0.1 0.3,-0.2l2.04 0zm-3.55 -1.33l1.97 0c-0.02,-0.37 -0.29,-0.55 -0.83,-0.55 -0.26,0 -0.5,0.05 -0.7,0.14 -0.17,0.08 -0.32,0.22 -0.44,0.41zm3.25 2.47l1.05 -3.91 1.79 0 -0.1 0.37c0.53,-0.32 1.06,-0.48 1.59,-0.48 0.45,0 0.77,0.09 0.96,0.27 0.21,0.19 0.26,0.55 0.17,1.06 -0.02,0.14 -0.07,0.34 -0.13,0.59l-1.8 0c0.05,-0.23 0.05,-0.39 0,-0.48 -0.07,-0.11 -0.19,-0.17 -0.38,-0.17 -0.22,0 -0.41,0.08 -0.55,0.23 -0.13,0.13 -0.23,0.36 -0.32,0.68l-0.49 1.83 -1.79 0z"/>
    <g>
     <path class="fil4" d="M32.72 96.77c7.73,4.2 23.64,7.71 34.45,8.37 -0.38,0.98 -0.43,3.5 -2.29,3.89 -7.27,0.44 -19.32,-2.3 -28.61,-5.72 -0.07,-0.02 -0.13,-0.04 -0.2,-0.06 -1.09,-0.38 -1.92,-0.69 -2.81,-1.32 -0.75,-0.57 -1.37,-0.91 -1.27,-1.85l0.74 -3.3z"/>
     <path class="fil4" d="M207.26 97.25c-7.73,4.21 -23.64,7.72 -34.45,8.38 0.38,0.98 0.43,3.5 2.29,3.88 7.27,0.44 19.32,-2.3 28.61,-5.72 0.07,-0.02 0.13,-0.04 0.2,-0.06 1.09,-0.38 1.92,-0.69 2.81,-1.32 0.75,-0.57 1.37,-0.91 1.27,-1.85l-0.74 -3.3z"/>
    </g>
    <g>
     <path class="fil1" d="M32.72 96.77l5.74 -25.56 4.86 -19.76c2.41,-7.78 6.71,-13.54 13.18,-17.26 1.09,-0.66 2.26,-1.29 3.49,-1.92 0.27,-0.14 0.7,-0.28 0.98,-0.39 4.63,-1.8 9.78,-3.59 14.71,-5.84 4.78,-2.18 9.32,-4.81 13.59,-7.49 0.33,3.64 1.48,6.78 3.75,9.26 -5.13,3.66 -10.94,5.96 -15.83,10.54 -6.78,6.5 -12.22,14.35 -13.64,24.59 -0.3,4.57 0.52,9.24 2.62,13.03 0.71,1.46 1.43,2.91 2.14,4.37 0.76,2.26 0.85,4.32 0.78,6.42 0.31,4.05 -0.08,7.7 -0.24,11.31 -0.66,0.46 -1.02,4.29 -1.54,6.44 -0.04,0.21 -0.09,0.43 -0.14,0.64 -12.35,-1.18 -24.15,-3.4 -34.45,-8.37z"/>
     <path class="fil1" d="M207.26 97.25c-2.98,-9.14 -5.13,-20.13 -7.39,-29.9 -1.51,-6.53 -3.07,-12.51 -4.96,-17.03 -2.01,-6.38 -6.1,-11.26 -11.68,-15.07 -4.31,-2.9 -9.29,-5.07 -14.33,-7.26 -7.12,-3.09 -13.62,-6.44 -19.79,-10.43 0.13,4.22 -1.86,6.57 -3.67,9.98 5.7,3.76 11.55,6.61 16.55,11.66 8.7,9.13 14.74,19.21 13.55,31.9 -0.98,4.48 -3,7.8 -4.49,11.7 -0.71,4.33 -0.13,7.82 0.07,11.8 0.22,1.75 0.64,3.56 0.67,5.24 0.34,1.93 0.68,3.86 1.02,5.79 11.62,-0.78 23.11,-3.51 34.45,-8.38z"/>
    </g>
    <path class="fil2" d="M68.31 80.34c-3.38,-11.28 -2.72,-21.31 2.9,-29.81 2.53,-3.74 5.39,-7.25 8.91,-10.64 5.61,-4.88 12.63,-7.33 18.07,-12.04 10.04,10.71 30.71,10.86 41.96,-0.15 5.44,4.69 14.3,7.44 20.18,14.46l8.96 12.98c4.09,5.17 4.32,12.87 3.43,19.52 -0.41,3.04 -1.51,6.02 -1.67,8.15 2.71,-5.69 4.89,-10.22 4.59,-14.59 -0.01,-0.13 -0.03,-0.25 -0.02,-0.38 0.07,-1.93 -0.06,-3.7 -0.43,-5.56 -2.07,-8.72 -6.01,-15.74 -11.57,-21.31 -4.13,-4.47 -10.75,-8.94 -18.19,-13.42 1.59,-3.27 3.93,-6.06 3.67,-10.04 -1.56,-0.87 -2.78,-2.07 -3.8,-3.45 -0.93,-1.29 -2.1,-2.43 -3.68,-3.35 -1.54,-0.89 -2.71,-0.69 -4.07,-0.04 -11.26,3.69 -25.12,3.89 -37.39,-0.41 -0.67,-0.11 -1.22,-0.08 -1.83,-0.02 -3.7,0.99 -5.85,5.8 -9.06,8.32 0.04,3.17 1.4,6.25 3.75,9.26 -7.36,5.43 -14.62,7.23 -21.64,16.96 -3.71,5.68 -8.3,11.44 -7.86,21.24 -0.09,6.2 2.65,9.95 4.78,14.33z"/>
    <path class="fil0" d="M139.77 59.67c0.89,0 1.62,0.72 1.62,1.62 0,0.89 -0.72,1.61 -1.62,1.61 -0.89,0 -1.61,-0.72 -1.61,-1.61 0,-0.89 0.72,-1.62 1.61,-1.62zm0 0.25c0.76,0 1.37,0.61 1.37,1.37 0,0.76 -0.61,1.37 -1.37,1.37 -0.76,0 -1.37,-0.61 -1.37,-1.37 0,-0.76 0.61,-1.37 1.37,-1.37zm-0.74 2.19l0 -1.65 0.7 0c0.18,0 0.31,0.02 0.39,0.04 0.08,0.03 0.15,0.08 0.19,0.16 0.05,0.08 0.07,0.17 0.07,0.26 0,0.12 -0.04,0.22 -0.11,0.31 -0.07,0.08 -0.18,0.13 -0.32,0.15 0.07,0.04 0.13,0.09 0.18,0.14 0.05,0.05 0.11,0.14 0.19,0.27l0.2 0.32 -0.4 0 -0.24 -0.36c-0.09,-0.13 -0.15,-0.21 -0.18,-0.24 -0.03,-0.03 -0.06,-0.06 -0.1,-0.07 -0.04,-0.01 -0.09,-0.02 -0.17,-0.02l-0.07 0 0 0.69 -0.33 0zm0.33 -0.95l0.24 0c0.16,0 0.26,-0 0.3,-0.02 0.04,-0.01 0.07,-0.04 0.09,-0.07 0.02,-0.04 0.04,-0.07 0.04,-0.13 0,-0.06 -0.02,-0.1 -0.05,-0.13 -0.03,-0.04 -0.07,-0.06 -0.12,-0.07 -0.03,-0 -0.11,-0 -0.24,-0l-0.26 0 0 0.42z"/>
   </g>
   <g style="clip-path:url(#id0)">
    <image x="19.49" y="-17.29" width="195.88" height="242.1" xlink:href="divisi-jersey_Images\divisi-jersey_ImgID1.png"/>
   </g>
   <g style="clip-path:url(#id1)">
    <image x="19.49" y="-17.29" width="195.88" height="242.1" xlink:href="divisi-jersey_Images\divisi-jersey_ImgID2.png"/>
   </g>
   <g style="clip-path:url(#id2)">
    <image x="19.49" y="-17.29" width="195.88" height="242.1" xlink:href="divisi-jersey_Images\divisi-jersey_ImgID3.png"/>
   </g>
   <g style="clip-path:url(#id3)">
    <image x="19.49" y="-17.29" width="195.88" height="242.1" xlink:href="divisi-jersey_Images\divisi-jersey_ImgID4.png"/>
   </g>
   <g style="clip-path:url(#id4)">
    <image x="19.49" y="-17.29" width="195.88" height="242.1" xlink:href="divisi-jersey_Images\divisi-jersey_ImgID5.png"/>
   </g>
  </g>
 </g>
</svg>
