<?xml version="1.0" encoding="UTF-8"?>
<!DOCTYPE svg PUBLIC "-//W3C//DTD SVG 1.1//EN" "http://www.w3.org/Graphics/SVG/1.1/DTD/svg11.dtd">
<!-- Creator: CorelDRAW 2021.5 -->
<svg xmlns="http://www.w3.org/2000/svg" xml:space="preserve" width="0.239996in" height="0.226665in" version="1.1" style="shape-rendering:geometricPrecision; text-rendering:geometricPrecision; image-rendering:optimizeQuality; fill-rule:evenodd; clip-rule:evenodd"
viewBox="0 0 239.99 226.66"
 xmlns:xlink="http://www.w3.org/1999/xlink"
 xmlns:xodm="http://www.corel.com/coreldraw/odm/2003">
 <defs>
  <style type="text/css">
   <![CDATA[
    .fil1 {fill:#FEFEFE}
    .fil3 {fill:#606062}
    .fil2 {fill:#003399}
    .fil0 {fill:white}
    .fil4 {fill:#003399;fill-rule:nonzero}
   ]]>
  </style>
    <clipPath id="id0">
     <path d="M117.21 212.59c0.65,-0.01 1.3,-0.08 1.95,-0.09 0.17,0 0.33,-0.04 0.5,-0.05l4.61 -0.32c0.34,-0.02 0.67,-0.08 1,-0.1 0.28,-0.02 0.56,-0.07 0.83,-0.11l10.32 -1.7c3.83,-0.63 9.02,-1.07 12.47,-2.79l3.87 -2.14 2.5 -1.86 1.99 -1.83c0.09,-0.09 0.16,-0.2 0.24,-0.29 0.09,-0.1 0.19,-0.19 0.28,-0.28l1.81 -1.99c0.46,-0.46 0.81,-1.01 1.19,-1.52l0.66 -0.97c0.63,-1.06 1.18,-2.13 1.62,-3.28 0.44,-1.15 0.8,-2.53 0.8,-3.77 0,-0.56 0.02,-1.15 -0.06,-1.7 -0.09,-0.69 -0.11,-1.39 -0.12,-2.09 -0,-0.14 -0.04,-0.26 -0.05,-0.41 -0.02,-0.31 0,-0.61 0,-0.92 0,-0.29 -0.05,-0.57 -0.05,-0.87 0,-0.31 0,-0.61 0,-0.91l-0.24 -7.33c0,-0.04 -0.01,-0.08 0,-0.11 0,-0.02 0,-0.05 0.01,-0.07 0.02,-0.36 -0.04,-0.72 -0.04,-1.08 0,-0.27 -0.05,-0.54 -0.05,-0.82 0,-1.48 -0.09,-2.96 -0.09,-4.43 0,-1.46 -0.09,-2.93 -0.09,-4.39 0,-0.6 -0.06,-1.19 -0.05,-1.79l0.05 -1.19c0,-0.02 0,-0.06 -0,-0.07 -0.02,-0.04 -0.02,-0.06 -0.02,-0.11 0,-0.06 -0,-0.1 0.03,-0.16 0,-0.02 0,-0.05 0,-0.07 0,-0.08 -0.02,-0.15 -0.02,-0.23l-0.12 -5.01c-0.12,-1.06 -0.14,-2.14 -0.26,-3.21l-0.1 -6.12c0,-1.28 0.31,-2.54 0.39,-3.81l0.06 -1.27c0.01,-0.15 -0.01,-0.31 0.01,-0.45l0.04 -1.83c0,-0.57 -0.14,-1.12 -0.14,-1.69 0.01,-1.35 -0.31,-2.67 -0.45,-4.02 -0.02,-0.15 0,-0.3 -0.01,-0.44 -0.02,-0.16 -0.04,-0.27 -0.04,-0.43l0 -0.38 0.22 0.3c0.02,0.02 0.04,0.05 0.04,0.08l0.12 0.33c0.13,0.5 0.3,0.97 0.41,1.48 0.08,0.34 0.15,0.69 0.21,1.03 0.07,0.37 0.1,0.74 0.17,1.11l1.3 6.66c0.15,0.87 0.38,1.72 0.56,2.58l0.87 4.15c0.04,0.18 0.07,0.35 0.11,0.54 0.02,0.08 0.03,0.17 0.06,0.26l1.52 6.25c0.32,1.31 0.83,2.62 1.11,3.92l0.58 1.93c0.5,1.95 1.01,3.92 1.66,5.83l1.28 3.74c0.23,0.64 0.39,1.3 0.57,1.95 0.19,0.67 0.41,1.31 0.54,2l0.35 2.17c0.09,0.71 0.22,1.42 0.38,2.12 0.16,0.68 0.27,1.37 0.46,2.05 0.19,0.67 0.36,1.34 0.51,2.02 0.28,1.28 0.74,2.64 1.1,3.91 0.43,1.48 0.75,2.98 1.17,4.46 0.19,0.67 0.2,0.67 0.84,0.92 1.64,0.66 3.74,0.36 5.47,0.32 0.79,-0.02 1.75,-0.2 2.54,-0.33 0.77,-0.13 1.59,-0.27 2.35,-0.46 0.72,-0.18 1.39,-0.42 2.05,-0.74 0.22,-0.11 0.36,-0.22 0.54,-0.37 0.78,-0.65 0.57,-2.22 0.57,-3.13 0,-1.23 0.09,-2.46 0.09,-3.7 0,-0.64 -0.01,-1.28 0,-1.92 0,-0.31 0.08,-0.56 0.04,-0.88 -0.04,-0.26 -0.03,-0.58 -0,-0.83l0.06 -3.72c0,-0.82 -0.18,-4.78 0.07,-5.21 0.05,-0.08 0.16,-0.21 0.22,-0.28 0.14,-0.14 0.17,-0.24 0.23,-0.42 0.15,-0.46 0.25,-0.87 0.32,-1.35 0.08,-0.55 0.15,-1.1 0.21,-1.66 0.09,-0.83 0.28,-1.64 0.36,-2.47 0.08,-0.93 0.17,-1.75 0.17,-2.69 0,-0.31 0.05,-0.61 0.05,-0.91 0,-1.45 0.16,-2.94 -0.03,-4.38 -0.06,-0.42 -0.09,-0.72 -0.18,-1.13 -0.16,-0.72 -0.18,-1.54 -0.33,-2.28l-0.46 -2.14c-0.22,-1.05 -0.54,-2.07 -0.81,-3.11l-1.27 -3.93c-0.13,-0.33 -0.21,-0.68 -0.31,-1.03 -0.38,-1.34 -0.53,-1.53 -0.54,-2.98 0,-0.28 0.05,-0.55 0.05,-0.82 -0,-0.81 0,-1.63 -0.11,-2.43l-0.25 -2.27c-0.11,-1.02 -0.19,-2.04 -0.28,-3.06l-0.76 -8.56c-0.18,-1.26 -0.2,-2.53 -0.4,-3.79 -0.12,-0.74 -0.25,-1.48 -0.3,-2.22l-0.19 -1.51c-0.11,-0.72 -0.15,-1.47 -0.32,-2.18 -0.35,-1.43 -0.49,-2.9 -0.69,-4.35l-0.24 -1.48c-0.22,-0.97 -0.33,-1.96 -0.53,-2.94 -0.29,-1.43 -0.49,-2.88 -0.76,-4.32 -0.18,-0.97 -0.3,-1.95 -0.5,-2.92 -0.23,-1.14 -0.58,-2.65 -0.57,-3.8 0,-0.13 -0.01,-0.24 -0.03,-0.37 -0.01,-0.13 -0.04,-0.23 0.06,-0.32 0.01,-0.02 0.02,-0.06 0.02,-0.07l0.04 -0.15 0.14 0.07c0.62,0.32 0.81,-0.21 1.12,-0.65 0.13,-0.19 0.61,-0.83 0.67,-0.99 -0,-0.11 -0.11,-0.29 -0.23,-0.31 -0.32,-0.07 -0.32,-0.03 -0.68,-0.18 -0.26,-0.11 -0.91,0.17 -1.25,0.17l-0.13 0 0 -0.12c0,-0.53 -0.13,-1.06 -0.19,-1.57l-0.39 -2.73c-0.03,-0.26 -0.15,-1.17 -0.23,-1.35l-0.07 -0.14 0.15 -0.04c0.19,-0.04 0.33,-0.13 0.44,-0.3 0.07,-0.11 0.1,-0.16 0.19,-0.26l0.19 -0.2 -0.04 -1.41c0,-0.18 -0.05,-0.33 -0.05,-0.5l0 -0.16 0.15 0.04c0.24,0.06 0.28,0.04 0.5,-0.06 0.05,-0.02 0.09,-0.03 0.14,-0.05 0.02,-0.03 0.04,-0.07 0.05,-0.1 0.12,-0.24 0.13,-0.42 0.18,-0.68l0.07 -0.83c0,-0.29 0.05,-0.57 0.05,-0.86 0,-0.41 -0.03,-0.82 -0.04,-1.23l-0.07 -1.2c-0.11,-0.76 -0.08,-1.53 -0.18,-2.29 -0.05,-0.38 -0.06,-0.77 -0.12,-1.15 -0.07,-0.49 -0.09,-1.12 -0.31,-1.56 -0.21,-0.42 -0.17,-0.89 -0.76,-0.89 -0.15,0 -0.18,0.08 -0.3,0.16l-0.2 0.13 0 -0.24c0,-0.28 -0.05,-0.54 -0.05,-0.82 0,-0.19 0.05,-0.65 -0.03,-0.81l-0.12 -0.24 0.26 0.07c0.49,0.13 0.74,0.56 1,0.96l0.66 1.22c0.26,0.52 0.14,0.7 0.73,0.7 0.31,0 0.17,-0.84 0.04,-0.99l-0.09 -0.11c-0.03,-0.05 -0.04,-0.09 -0.07,-0.13l-0.75 -1.35c-0.15,-0.22 -0.24,-0.46 -0.44,-0.65 -0.28,-0.27 -0.26,-0.26 -0.62,-0.42 -0.16,-0.07 -0.3,-0.08 -0.47,-0.04l-0.15 0.04 0 -0.16c0,-0.56 0.05,-1.28 -0.07,-1.82 -0.03,-0.13 -0.09,-0.2 -0.12,-0.32 -0.02,-0.08 -0.02,-0.12 -0.02,-0.19 -0.02,-0.01 -0.04,-0.03 -0.05,-0.04 -0.01,-0.01 -0.04,-0.03 -0.06,-0.04 -0.09,0.02 -0.16,-0.05 -0.23,-0.11 -0.2,-0.18 -0.36,-0.14 -0.61,-0.14l-0.13 0 0 -0.13c0,-0.98 -0.18,-2.19 -0.29,-3.18 -0.12,-1.05 -0.25,-2.1 -0.36,-3.15 -0.15,-1.39 -0.44,-2.97 -0.78,-4.32 -0.28,-1.12 -0.56,-2.25 -0.93,-3.35 -0.07,-0.22 -0.15,-0.43 -0.22,-0.65 -0.54,-1.65 -1.29,-3.22 -2.06,-4.76l-0.6 -1.09c-0.06,-0.1 -0.11,-0.17 -0.08,-0.29 0,-0.01 -0,-0.03 -0.01,-0.05l-0.04 -0.07c-0.08,-0.13 -0.2,-0.2 -0.3,-0.31 -0.12,-0.12 -0.13,-0.19 -0.11,-0.31 -0.16,-0.09 -0.18,-0.15 -0.31,-0.33 -0.62,-0.86 -0.94,-1.63 -1.72,-2.41l-1.01 -1.09c-1.07,-1.07 -1.91,-1.62 -3.07,-2.53 -0.26,-0.21 -0.53,-0.41 -0.8,-0.59l-1.28 -0.78c-0.16,-0.08 -0.33,-0.15 -0.48,-0.25 -0.87,-0.52 -1.86,-0.98 -2.8,-1.39 -0.66,-0.29 -1.35,-0.5 -2.02,-0.76l-5.93 -2.48c-1.58,-0.77 -3.29,-1.39 -4.91,-2.08l-4.9 -2.09c-0.33,-0.15 -0.59,-0.36 -0.89,-0.55 -0.28,-0.18 -0.57,-0.34 -0.85,-0.5l-1.83 -0.96c-0.19,-0.1 -0.53,-0.62 -0.68,-0.81 -0.41,-0.5 -1.07,-0.96 -1.4,-1.45 -0.81,-1.22 -1.43,-2.2 -2.07,-3.53l-0.43 -0.94c-0.29,-0.67 -0.61,-1.23 -0.95,-1.87 -0.43,-0.8 -1.28,-1.59 -2.01,-2.12 -1.13,-0.82 -2.49,-1.31 -3.83,-1.68 -0.38,-0.1 -0.77,-0.17 -1.15,-0.25l-1.21 -0.2c-0.83,-0.11 -1.69,-0.11 -2.52,-0.17l-1.94 -0.03c-0.22,0.01 -0.44,-0.04 -0.67,-0.04 -1.61,0.01 -3.27,0.07 -4.87,-0.02l-0.62 -0.02c-1.99,0 -3.99,-0.07 -5.98,0.09 -1.63,0.13 -2.71,0.28 -4.31,0.69 -1.5,0.38 -2.93,1.08 -4.13,2.06 -0.08,0.06 -0.17,0.12 -0.24,0.19 -0.82,0.91 -1.34,2.05 -1.79,3.17 -0.47,1.19 -0.91,2.39 -1.56,3.49 -0.1,0.18 -0.19,0.36 -0.28,0.54 -0.1,0.19 -0.22,0.36 -0.32,0.55 -0.29,0.54 -0.72,0.97 -1.03,1.49 -0.24,0.39 -0.64,0.49 -1,0.73 -0.52,0.34 -1.11,0.58 -1.67,0.86 -0.17,0.09 -0.33,0.21 -0.5,0.31 -0.19,0.11 -0.35,0.23 -0.54,0.33 -0.53,0.3 -0.99,0.7 -1.56,0.93 -1.39,0.56 -2.75,1.19 -4.14,1.76l-3.6 1.47c-2.75,1.15 -5.48,2.35 -8.24,3.45 -0.41,0.16 -0.81,0.32 -1.2,0.48l-1.13 0.5c-0.89,0.44 -1.89,0.93 -2.72,1.46 -1.41,0.9 -2.87,1.87 -4.07,3.02l-1.44 1.48c-0.72,0.71 -1.26,1.57 -1.78,2.43 -0.1,0.17 -0.27,0.48 -0.48,0.57 -0,0.02 -0.01,0.04 -0.02,0.04 0.03,0.03 0,0.1 -0.02,0.17 -0.02,0.06 -0.06,0.13 -0.11,0.19 -0.09,0.11 -0.29,0.23 -0.31,0.38 -0.03,0.2 0,0.12 -0.1,0.31 -0.46,0.83 -0.88,1.69 -1.28,2.55 -0.17,0.37 -0.37,0.74 -0.53,1.11 -0.72,1.6 -1.26,3.3 -1.69,5l-0.35 1.34c-0.39,1.96 -0.65,3.82 -0.88,5.81 -0.03,0.23 -0.1,0.46 -0.15,0.69 -0.11,0.49 -0.08,1.01 -0.18,1.51 -0.06,0.26 -0.11,0.45 -0.11,0.72l0 0.16 -0.16 -0.04c-0.24,-0.06 -0.25,0.04 -0.46,0.1 -0.35,0.11 -0.25,-0 -0.46,0.43 -0.24,0.5 -0.32,0.55 -0.47,1.14 -0.06,0.25 -0.19,0.62 -0.2,0.87l0 0.12 -0.12 0c-0.14,0 -0.28,-0.04 -0.41,-0.02l-0.36 0.07c-0.33,0.15 -0.76,0.42 -0.93,0.76 -0.04,0.09 -0.05,0.11 -0.11,0.19 -0.15,0.22 -0.26,0.46 -0.39,0.69l-0.37 0.68c-0.12,0.24 -0.47,0.68 -0.28,0.95 0.05,0.06 0.15,0.19 0.23,0.2 0.17,0.05 0.82,0.01 1.05,0.01l0.2 0 -0.09 0.18c-0.25,0.52 -0.39,3.02 -0.45,3.75l-0.17 1.26c-0.11,0.85 -0.14,1.72 -0.26,2.57 -0.05,0.35 0,0.95 0.02,1.32 0.01,0.14 0.04,0.41 0.12,0.54 0.13,0.21 0.38,0.22 0.6,0.17l0.25 -0.06 -0.11 0.24c-0.12,0.24 -0.06,1.26 0.03,1.52 0.04,0.1 0.16,0.39 0.16,0.48 0,0.06 -0,0.1 -0.03,0.15 0.01,0.03 0.03,0.07 0.04,0.09 0.08,0.17 0.21,0.24 0.39,0.29 0.14,0.04 0.13,-0 0.28,-0.02l0.17 -0.01 -0.04 0.17c-0.06,0.26 -0.16,0.52 -0.25,0.77 -0.18,0.52 -0.27,1.06 -0.4,1.6 -0.2,0.83 -0.41,1.64 -0.58,2.47 -0.11,0.57 -0.27,1.14 -0.32,1.72l-0.02 0.19 -0.17 -0.09c-0.18,-0.09 -0.43,-0.07 -0.63,-0.07 -0.22,0.01 -1.66,0.9 -1.93,1.08 -0.63,0.43 -0.49,0.39 -0.11,1.06 0.18,0.31 0.52,0.52 0.78,0.76 0.05,0.04 0.08,0.09 0.13,0.13 0.04,0.02 0.14,0.02 0.18,0.03 0.31,0.05 0.64,0.12 0.96,0.12l0.08 0 0.03 0.07c0.08,0.16 0.15,0.23 0.15,0.43l-0.5 5.12c-0.01,0.2 -0.04,0.43 -0.07,0.63 -0.1,0.67 -0.04,1.34 -0.15,2 -0.03,0.21 -0.01,0.43 -0.04,0.64l-0.22 1.93c-0.06,0.41 -0.08,0.83 -0.12,1.24 -0.04,0.42 -0.11,0.84 -0.17,1.26 -0.21,1.67 -0.43,3.33 -0.57,5.01l-0.33 2.5c-0.06,0.4 -0.1,0.81 -0.18,1.2l-0.49 3.76c-0.14,1.24 -0.43,2.5 -0.5,3.74 -0.06,0.83 -0.21,1.66 -0.32,2.48l-1.48 11.04c-0.11,0.81 -0.31,1.59 -0.45,2.39 -0.07,0.39 -0.16,0.79 -0.24,1.18l-0.23 1.19c-0.25,1.32 -0.64,2.81 -0.74,4.13 -0.02,0.24 -0.05,0.41 -0.1,0.65 -0.2,0.98 -0.25,1.48 -0.14,2.48 0.11,1.01 -0.06,1.54 -0.3,2.48 -0.19,0.76 -0.37,1.52 -0.57,2.27 -0.1,0.37 -0.18,0.74 -0.27,1.1 -0.25,1.06 -0.41,1.89 -0.51,2.98 -0.03,0.35 -0.22,0.76 -0.22,1.1 -0,0.2 0.08,0.41 0.09,0.63l-0 1.24c0,0.22 0.05,0.42 0.05,0.63l0.09 2.06c0.04,0.45 0,0.9 0.06,1.35 0.06,0.4 0.05,0.81 0.09,1.21 0.05,0.39 0.09,0.8 0.16,1.19 0.04,0.2 0.06,0.4 0.09,0.59 0.04,0.23 0.04,0.45 0.06,0.68l0.08 1.34c0.02,0.6 0.3,1.73 0.47,2.33 0.09,0.33 0.3,0.54 0.57,0.72l0.06 0.04 0 0.07c0,0.64 -0.09,1.28 -0.09,1.92 0,0.67 -0.05,1.34 -0.05,2.01 0,0.67 -0.02,1.35 -0.02,2.03 -0.01,0.55 -0.05,1.27 0.01,1.81l0.06 10.19c-0,0.9 0.3,1.38 1.06,1.82l0.71 0.33c1.02,0.41 2.19,0.64 3.28,0.8 0.6,0.08 1.2,0.16 1.81,0.24 0.78,0.11 1.56,0.18 2.35,0.2 0.55,0.02 1.08,0.09 1.64,0.09 0.52,0 1.04,-0.06 1.55,-0.16 0.3,-0.06 1.74,-0.41 1.88,-0.63 0.07,-0.11 0.16,-0.52 0.2,-0.67 0.13,-0.46 0.24,-0.94 0.38,-1.4 0.41,-1.4 0.69,-2.84 1.09,-4.25 0.14,-0.47 0.23,-0.95 0.37,-1.42 0.13,-0.45 0.24,-0.91 0.36,-1.37 0.35,-1.39 0.81,-2.75 1.22,-4.13 0.28,-0.95 0.44,-1.94 0.64,-2.91 0.29,-1.44 0.56,-2.89 1.02,-4.3l0.98 -3c0.05,-0.12 0.06,-0.23 0.1,-0.35l0.42 -1.36c0.04,-0.11 0.08,-0.22 0.11,-0.34 0.04,-0.12 0.06,-0.25 0.09,-0.37 0.28,-0.88 0.66,-1.73 0.96,-2.61l2.03 -6.83c0.3,-0.8 0.7,-2.06 0.85,-2.89l0.28 -1.06c0.14,-0.38 0.17,-0.8 0.28,-1.19l0.26 -1c0.02,-0.07 0.02,-0.13 0.03,-0.19 0.12,-0.69 0.38,-1.37 0.49,-2.07 0.02,-0.15 0.06,-0.23 0.1,-0.37 0.01,-0.06 0.01,-0.09 0.02,-0.15 0.01,-0.07 0.02,-0.09 0.04,-0.16l0.42 -1.81c0.03,-0.13 0.03,-0.23 0.07,-0.36 0.04,-0.11 0.05,-0.19 0.07,-0.31 0,-0.01 0,-0.02 0.01,-0.04l0.4 -1.82c0.17,-0.46 0.46,-1.87 0.51,-2.37l0.28 -1.41c0.01,-0.04 0.02,-0.07 0.03,-0.1l0.38 -2.02c0,-0.01 0,-0.03 0.01,-0.04 0.07,-0.3 0.1,-0.6 0.2,-0.89l0.21 -0.88c0.03,-0.13 0.05,-0.25 0.08,-0.38 0.03,-0.13 0.05,-0.25 0.07,-0.38l0.15 -0.71c0.06,-0.24 0.14,-0.48 0.19,-0.72 0.1,-0.5 0.2,-1 0.27,-1.5 0.04,-0.28 -0.01,-0.57 0.02,-0.85l0.22 -2.02c0.01,-0.15 0.05,-0.24 0.08,-0.39 0.02,-0.12 0.04,-0.24 0.06,-0.36 0.09,-0.56 0.07,-1.13 0.28,-1.67 0.09,-0.22 0.16,-0.45 0.22,-0.68 0.04,-0.12 0.07,-0.2 0.11,-0.31 0.02,-0.06 0.04,-0.1 0.06,-0.16 0.09,-0.28 0.26,-0.52 0.36,-0.79 0.1,-0.29 0.12,-0.53 0.25,-0.85l0.07 -0.3c0.08,-0.16 0.07,-0.35 0.09,-0.52 0.1,-0.62 0.24,-1.22 0.46,-1.81 0.09,-0.24 0.11,-0.49 0.17,-0.73 0.25,-1.01 0.33,-2.01 0.54,-3.02l0.15 -1.12c0.02,-0.13 0.06,-0.25 0.08,-0.38 0.06,-0.54 0.14,-1.09 0.14,-1.63l0.07 -1.63c0.08,-0.76 0.22,-1.53 0.4,-2.28 0.06,-0.24 0.13,-0.48 0.17,-0.73l0.19 -1.05c0.04,-0.13 0.05,-0.26 0.08,-0.38 0.09,-0.36 0.19,-0.7 0.23,-1.07 0.01,-0.13 0.04,-0.26 0.06,-0.39l0.13 -1.01c0.02,-0.14 0.03,-0.27 0.03,-0.41l0 -0.13 0.3 0 0 0.13c0,0.8 0.12,1.57 0.18,2.37 0.03,0.41 0.01,0.82 0.06,1.22l0.31 4.81c0.02,0.21 -0.01,0.43 0,0.64l0.09 1.83c-0,0.21 0.04,0.39 0.04,0.59 0.01,0.21 -0.02,0.43 0,0.63 0.04,0.48 0.06,0.71 -0.04,1.19 -0.07,0.35 -0.17,0.69 -0.25,1.04 -0.17,0.68 -0.34,1.35 -0.53,2.03l-0.49 2.07c-0.26,1.03 -0.53,2.05 -0.74,3.09 -0.07,0.35 -0.18,0.68 -0.26,1.02 -0.17,0.7 -0.29,1.4 -0.45,2.1 -0.5,2.14 -0.85,4.31 -1.19,6.48l-0.54 3.3c-0.05,0.37 -0.1,0.75 -0.16,1.12 -0.16,0.92 -0.24,1.84 -0.33,2.77 -0.17,1.79 -0.31,3.59 -0.37,5.38 -0.01,0.2 -0.05,0.38 -0.05,0.59 0,0.83 -0.09,1.65 -0.09,2.48l-0.14 2.96c0,0.84 0.05,1.7 -0.02,2.54 -0.06,0.61 0.03,1.53 0.05,2.16 0.03,0.85 0.06,1.7 0.11,2.56 0.04,0.85 0,1.72 0,2.57 -0,0.82 0.09,1.65 0.09,2.46l0.05 1.23c0.01,0.43 -0.02,0.85 -0,1.28l0.05 1.24c0,0.21 0.04,0.39 0.05,0.59l0 1.92c0,0.41 0.04,0.82 0.04,1.23 0,1.71 0.05,3.41 0.05,5.12l0 6.17c0,1.46 -0.17,2.18 0.09,3.68 0.3,1.8 1.38,4.23 2.41,5.74 0.37,0.54 0.7,1.1 1.13,1.58l0.96 1.09c0.32,0.35 0.65,0.72 1.02,1.01l0.73 0.65c0.08,0.07 0.17,0.13 0.25,0.2 0.9,0.79 1.91,1.45 2.95,2.04l1.19 0.65c0.19,0.12 0.41,0.2 0.61,0.31 2.25,1.21 4.76,2.04 7.19,2.83 1.9,0.62 3.87,1.03 5.81,1.49 0.25,0.06 0.5,0.11 0.75,0.15 0.26,0.04 0.51,0.1 0.77,0.14l3.98 0.59c0.84,0.1 1.69,0.09 2.53,0.21 1,0.15 2.31,0.1 3.34,0.11 0.29,0 0.57,0.05 0.87,0.05l2.36 0 0 1.36c0,0.07 0.02,0.13 0.03,0.19z"/>
    </clipPath>
    <clipPath id="id1">
     <path d="M117.21 212.59c0.65,-0.01 1.3,-0.08 1.95,-0.09 0.17,0 0.33,-0.04 0.5,-0.05l4.61 -0.32c0.34,-0.02 0.67,-0.08 1,-0.1 0.28,-0.02 0.56,-0.07 0.83,-0.11l10.32 -1.7c3.83,-0.63 9.02,-1.07 12.47,-2.79l3.87 -2.14 2.5 -1.86 1.99 -1.83c0.09,-0.09 0.16,-0.2 0.24,-0.29 0.09,-0.1 0.19,-0.19 0.28,-0.28l1.81 -1.99c0.46,-0.46 0.81,-1.01 1.19,-1.52l0.66 -0.97c0.63,-1.06 1.18,-2.13 1.62,-3.28 0.44,-1.15 0.8,-2.53 0.8,-3.77 0,-0.56 0.02,-1.15 -0.06,-1.7 -0.09,-0.69 -0.11,-1.39 -0.12,-2.09 -0,-0.14 -0.04,-0.26 -0.05,-0.41 -0.02,-0.31 0,-0.61 0,-0.92 0,-0.29 -0.05,-0.57 -0.05,-0.87 0,-0.31 0,-0.61 0,-0.91l-0.24 -7.33c0,-0.04 -0.01,-0.08 0,-0.11 0,-0.02 0,-0.05 0.01,-0.07 0.02,-0.36 -0.04,-0.72 -0.04,-1.08 0,-0.27 -0.05,-0.54 -0.05,-0.82 0,-1.48 -0.09,-2.96 -0.09,-4.43 0,-1.46 -0.09,-2.93 -0.09,-4.39 0,-0.6 -0.06,-1.19 -0.05,-1.79l0.05 -1.19c0,-0.02 0,-0.06 -0,-0.07 -0.02,-0.04 -0.02,-0.06 -0.02,-0.11 0,-0.06 -0,-0.1 0.03,-0.16 0,-0.02 0,-0.05 0,-0.07 0,-0.08 -0.02,-0.15 -0.02,-0.23l-0.12 -5.01c-0.12,-1.06 -0.14,-2.14 -0.26,-3.21l-0.1 -6.12c0,-1.28 0.31,-2.54 0.39,-3.81l0.06 -1.27c0.01,-0.15 -0.01,-0.31 0.01,-0.45l0.04 -1.83c0,-0.57 -0.14,-1.12 -0.14,-1.69 0.01,-1.35 -0.31,-2.67 -0.45,-4.02 -0.02,-0.15 0,-0.3 -0.01,-0.44 -0.02,-0.16 -0.04,-0.27 -0.04,-0.43l0 -0.38 0.22 0.3c0.02,0.02 0.04,0.05 0.04,0.08l0.12 0.33c0.13,0.5 0.3,0.97 0.41,1.48 0.08,0.34 0.15,0.69 0.21,1.03 0.07,0.37 0.1,0.74 0.17,1.11l1.3 6.66c0.15,0.87 0.38,1.72 0.56,2.58l0.87 4.15c0.04,0.18 0.07,0.35 0.11,0.54 0.02,0.08 0.03,0.17 0.06,0.26l1.52 6.25c0.32,1.31 0.83,2.62 1.11,3.92l0.58 1.93c0.5,1.95 1.01,3.92 1.66,5.83l1.28 3.74c0.23,0.64 0.39,1.3 0.57,1.95 0.19,0.67 0.41,1.31 0.54,2l0.35 2.17c0.09,0.71 0.22,1.42 0.38,2.12 0.16,0.68 0.27,1.37 0.46,2.05 0.19,0.67 0.36,1.34 0.51,2.02 0.28,1.28 0.74,2.64 1.1,3.91 0.43,1.48 0.75,2.98 1.17,4.46 0.19,0.67 0.2,0.67 0.84,0.92 1.64,0.66 3.74,0.36 5.47,0.32 0.79,-0.02 1.75,-0.2 2.54,-0.33 0.77,-0.13 1.59,-0.27 2.35,-0.46 0.72,-0.18 1.39,-0.42 2.05,-0.74 0.22,-0.11 0.36,-0.22 0.54,-0.37 0.78,-0.65 0.57,-2.22 0.57,-3.13 0,-1.23 0.09,-2.46 0.09,-3.7 0,-0.64 -0.01,-1.28 0,-1.92 0,-0.31 0.08,-0.56 0.04,-0.88 -0.04,-0.26 -0.03,-0.58 -0,-0.83l0.06 -3.72c0,-0.82 -0.18,-4.78 0.07,-5.21 0.05,-0.08 0.16,-0.21 0.22,-0.28 0.14,-0.14 0.17,-0.24 0.23,-0.42 0.15,-0.46 0.25,-0.87 0.32,-1.35 0.08,-0.55 0.15,-1.1 0.21,-1.66 0.09,-0.83 0.28,-1.64 0.36,-2.47 0.08,-0.93 0.17,-1.75 0.17,-2.69 0,-0.31 0.05,-0.61 0.05,-0.91 0,-1.45 0.16,-2.94 -0.03,-4.38 -0.06,-0.42 -0.09,-0.72 -0.18,-1.13 -0.16,-0.72 -0.18,-1.54 -0.33,-2.28l-0.46 -2.14c-0.22,-1.05 -0.54,-2.07 -0.81,-3.11l-1.27 -3.93c-0.13,-0.33 -0.21,-0.68 -0.31,-1.03 -0.38,-1.34 -0.53,-1.53 -0.54,-2.98 0,-0.28 0.05,-0.55 0.05,-0.82 -0,-0.81 0,-1.63 -0.11,-2.43l-0.25 -2.27c-0.11,-1.02 -0.19,-2.04 -0.28,-3.06l-0.76 -8.56c-0.18,-1.26 -0.2,-2.53 -0.4,-3.79 -0.12,-0.74 -0.25,-1.48 -0.3,-2.22l-0.19 -1.51c-0.11,-0.72 -0.15,-1.47 -0.32,-2.18 -0.35,-1.43 -0.49,-2.9 -0.69,-4.35l-0.24 -1.48c-0.22,-0.97 -0.33,-1.96 -0.53,-2.94 -0.29,-1.43 -0.49,-2.88 -0.76,-4.32 -0.18,-0.97 -0.3,-1.95 -0.5,-2.92 -0.23,-1.14 -0.58,-2.65 -0.57,-3.8 0,-0.13 -0.01,-0.24 -0.03,-0.37 -0.01,-0.13 -0.04,-0.23 0.06,-0.32 0.01,-0.02 0.02,-0.06 0.02,-0.07l0.04 -0.15 0.14 0.07c0.62,0.32 0.81,-0.21 1.12,-0.65 0.13,-0.19 0.61,-0.83 0.67,-0.99 -0,-0.11 -0.11,-0.29 -0.23,-0.31 -0.32,-0.07 -0.32,-0.03 -0.68,-0.18 -0.26,-0.11 -0.91,0.17 -1.25,0.17l-0.13 0 0 -0.12c0,-0.53 -0.13,-1.06 -0.19,-1.57l-0.39 -2.73c-0.03,-0.26 -0.15,-1.17 -0.23,-1.35l-0.07 -0.14 0.15 -0.04c0.19,-0.04 0.33,-0.13 0.44,-0.3 0.07,-0.11 0.1,-0.16 0.19,-0.26l0.19 -0.2 -0.04 -1.41c0,-0.18 -0.05,-0.33 -0.05,-0.5l0 -0.16 0.15 0.04c0.24,0.06 0.28,0.04 0.5,-0.06 0.05,-0.02 0.09,-0.03 0.14,-0.05 0.02,-0.03 0.04,-0.07 0.05,-0.1 0.12,-0.24 0.13,-0.42 0.18,-0.68l0.07 -0.83c0,-0.29 0.05,-0.57 0.05,-0.86 0,-0.41 -0.03,-0.82 -0.04,-1.23l-0.07 -1.2c-0.11,-0.76 -0.08,-1.53 -0.18,-2.29 -0.05,-0.38 -0.06,-0.77 -0.12,-1.15 -0.07,-0.49 -0.09,-1.12 -0.31,-1.56 -0.21,-0.42 -0.17,-0.89 -0.76,-0.89 -0.15,0 -0.18,0.08 -0.3,0.16l-0.2 0.13 0 -0.24c0,-0.28 -0.05,-0.54 -0.05,-0.82 0,-0.19 0.05,-0.65 -0.03,-0.81l-0.12 -0.24 0.26 0.07c0.49,0.13 0.74,0.56 1,0.96l0.66 1.22c0.26,0.52 0.14,0.7 0.73,0.7 0.31,0 0.17,-0.84 0.04,-0.99l-0.09 -0.11c-0.03,-0.05 -0.04,-0.09 -0.07,-0.13l-0.75 -1.35c-0.15,-0.22 -0.24,-0.46 -0.44,-0.65 -0.28,-0.27 -0.26,-0.26 -0.62,-0.42 -0.16,-0.07 -0.3,-0.08 -0.47,-0.04l-0.15 0.04 0 -0.16c0,-0.56 0.05,-1.28 -0.07,-1.82 -0.03,-0.13 -0.09,-0.2 -0.12,-0.32 -0.02,-0.08 -0.02,-0.12 -0.02,-0.19 -0.02,-0.01 -0.04,-0.03 -0.05,-0.04 -0.01,-0.01 -0.04,-0.03 -0.06,-0.04 -0.09,0.02 -0.16,-0.05 -0.23,-0.11 -0.2,-0.18 -0.36,-0.14 -0.61,-0.14l-0.13 0 0 -0.13c0,-0.98 -0.18,-2.19 -0.29,-3.18 -0.12,-1.05 -0.25,-2.1 -0.36,-3.15 -0.15,-1.39 -0.44,-2.97 -0.78,-4.32 -0.28,-1.12 -0.56,-2.25 -0.93,-3.35 -0.07,-0.22 -0.15,-0.43 -0.22,-0.65 -0.54,-1.65 -1.29,-3.22 -2.06,-4.76l-0.6 -1.09c-0.06,-0.1 -0.11,-0.17 -0.08,-0.29 0,-0.01 -0,-0.03 -0.01,-0.05l-0.04 -0.07c-0.08,-0.13 -0.2,-0.2 -0.3,-0.31 -0.12,-0.12 -0.13,-0.19 -0.11,-0.31 -0.16,-0.09 -0.18,-0.15 -0.31,-0.33 -0.62,-0.86 -0.94,-1.63 -1.72,-2.41l-1.01 -1.09c-1.07,-1.07 -1.91,-1.62 -3.07,-2.53 -0.26,-0.21 -0.53,-0.41 -0.8,-0.59l-1.28 -0.78c-0.16,-0.08 -0.33,-0.15 -0.48,-0.25 -0.87,-0.52 -1.86,-0.98 -2.8,-1.39 -0.66,-0.29 -1.35,-0.5 -2.02,-0.76l-5.93 -2.48c-1.58,-0.77 -3.29,-1.39 -4.91,-2.08l-4.9 -2.09c-0.33,-0.15 -0.59,-0.36 -0.89,-0.55 -0.28,-0.18 -0.57,-0.34 -0.85,-0.5l-1.83 -0.96c-0.19,-0.1 -0.53,-0.62 -0.68,-0.81 -0.41,-0.5 -1.07,-0.96 -1.4,-1.45 -0.81,-1.22 -1.43,-2.2 -2.07,-3.53l-0.43 -0.94c-0.29,-0.67 -0.61,-1.23 -0.95,-1.87 -0.43,-0.8 -1.28,-1.59 -2.01,-2.12 -1.13,-0.82 -2.49,-1.31 -3.83,-1.68 -0.38,-0.1 -0.77,-0.17 -1.15,-0.25l-1.21 -0.2c-0.83,-0.11 -1.69,-0.11 -2.52,-0.17l-1.94 -0.03c-0.22,0.01 -0.44,-0.04 -0.67,-0.04 -1.61,0.01 -3.27,0.07 -4.87,-0.02l-0.62 -0.02c-1.99,0 -3.99,-0.07 -5.98,0.09 -1.63,0.13 -2.71,0.28 -4.31,0.69 -1.5,0.38 -2.93,1.08 -4.13,2.06 -0.08,0.06 -0.17,0.12 -0.24,0.19 -0.82,0.91 -1.34,2.05 -1.79,3.17 -0.47,1.19 -0.91,2.39 -1.56,3.49 -0.1,0.18 -0.19,0.36 -0.28,0.54 -0.1,0.19 -0.22,0.36 -0.32,0.55 -0.29,0.54 -0.72,0.97 -1.03,1.49 -0.24,0.39 -0.64,0.49 -1,0.73 -0.52,0.34 -1.11,0.58 -1.67,0.86 -0.17,0.09 -0.33,0.21 -0.5,0.31 -0.19,0.11 -0.35,0.23 -0.54,0.33 -0.53,0.3 -0.99,0.7 -1.56,0.93 -1.39,0.56 -2.75,1.19 -4.14,1.76l-3.6 1.47c-2.75,1.15 -5.48,2.35 -8.24,3.45 -0.41,0.16 -0.81,0.32 -1.2,0.48l-1.13 0.5c-0.89,0.44 -1.89,0.93 -2.72,1.46 -1.41,0.9 -2.87,1.87 -4.07,3.02l-1.44 1.48c-0.72,0.71 -1.26,1.57 -1.78,2.43 -0.1,0.17 -0.27,0.48 -0.48,0.57 -0,0.02 -0.01,0.04 -0.02,0.04 0.03,0.03 0,0.1 -0.02,0.17 -0.02,0.06 -0.06,0.13 -0.11,0.19 -0.09,0.11 -0.29,0.23 -0.31,0.38 -0.03,0.2 0,0.12 -0.1,0.31 -0.46,0.83 -0.88,1.69 -1.28,2.55 -0.17,0.37 -0.37,0.74 -0.53,1.11 -0.72,1.6 -1.26,3.3 -1.69,5l-0.35 1.34c-0.39,1.96 -0.65,3.82 -0.88,5.81 -0.03,0.23 -0.1,0.46 -0.15,0.69 -0.11,0.49 -0.08,1.01 -0.18,1.51 -0.06,0.26 -0.11,0.45 -0.11,0.72l0 0.16 -0.16 -0.04c-0.24,-0.06 -0.25,0.04 -0.46,0.1 -0.35,0.11 -0.25,-0 -0.46,0.43 -0.24,0.5 -0.32,0.55 -0.47,1.14 -0.06,0.25 -0.19,0.62 -0.2,0.87l0 0.12 -0.12 0c-0.14,0 -0.28,-0.04 -0.41,-0.02l-0.36 0.07c-0.33,0.15 -0.76,0.42 -0.93,0.76 -0.04,0.09 -0.05,0.11 -0.11,0.19 -0.15,0.22 -0.26,0.46 -0.39,0.69l-0.37 0.68c-0.12,0.24 -0.47,0.68 -0.28,0.95 0.05,0.06 0.15,0.19 0.23,0.2 0.17,0.05 0.82,0.01 1.05,0.01l0.2 0 -0.09 0.18c-0.25,0.52 -0.39,3.02 -0.45,3.75l-0.17 1.26c-0.11,0.85 -0.14,1.72 -0.26,2.57 -0.05,0.35 0,0.95 0.02,1.32 0.01,0.14 0.04,0.41 0.12,0.54 0.13,0.21 0.38,0.22 0.6,0.17l0.25 -0.06 -0.11 0.24c-0.12,0.24 -0.06,1.26 0.03,1.52 0.04,0.1 0.16,0.39 0.16,0.48 0,0.06 -0,0.1 -0.03,0.15 0.01,0.03 0.03,0.07 0.04,0.09 0.08,0.17 0.21,0.24 0.39,0.29 0.14,0.04 0.13,-0 0.28,-0.02l0.17 -0.01 -0.04 0.17c-0.06,0.26 -0.16,0.52 -0.25,0.77 -0.18,0.52 -0.27,1.06 -0.4,1.6 -0.2,0.83 -0.41,1.64 -0.58,2.47 -0.11,0.57 -0.27,1.14 -0.32,1.72l-0.02 0.19 -0.17 -0.09c-0.18,-0.09 -0.43,-0.07 -0.63,-0.07 -0.22,0.01 -1.66,0.9 -1.93,1.08 -0.63,0.43 -0.49,0.39 -0.11,1.06 0.18,0.31 0.52,0.52 0.78,0.76 0.05,0.04 0.08,0.09 0.13,0.13 0.04,0.02 0.14,0.02 0.18,0.03 0.31,0.05 0.64,0.12 0.96,0.12l0.08 0 0.03 0.07c0.08,0.16 0.15,0.23 0.15,0.43l-0.5 5.12c-0.01,0.2 -0.04,0.43 -0.07,0.63 -0.1,0.67 -0.04,1.34 -0.15,2 -0.03,0.21 -0.01,0.43 -0.04,0.64l-0.22 1.93c-0.06,0.41 -0.08,0.83 -0.12,1.24 -0.04,0.42 -0.11,0.84 -0.17,1.26 -0.21,1.67 -0.43,3.33 -0.57,5.01l-0.33 2.5c-0.06,0.4 -0.1,0.81 -0.18,1.2l-0.49 3.76c-0.14,1.24 -0.43,2.5 -0.5,3.74 -0.06,0.83 -0.21,1.66 -0.32,2.48l-1.48 11.04c-0.11,0.81 -0.31,1.59 -0.45,2.39 -0.07,0.39 -0.16,0.79 -0.24,1.18l-0.23 1.19c-0.25,1.32 -0.64,2.81 -0.74,4.13 -0.02,0.24 -0.05,0.41 -0.1,0.65 -0.2,0.98 -0.25,1.48 -0.14,2.48 0.11,1.01 -0.06,1.54 -0.3,2.48 -0.19,0.76 -0.37,1.52 -0.57,2.27 -0.1,0.37 -0.18,0.74 -0.27,1.1 -0.25,1.06 -0.41,1.89 -0.51,2.98 -0.03,0.35 -0.22,0.76 -0.22,1.1 -0,0.2 0.08,0.41 0.09,0.63l-0 1.24c0,0.22 0.05,0.42 0.05,0.63l0.09 2.06c0.04,0.45 0,0.9 0.06,1.35 0.06,0.4 0.05,0.81 0.09,1.21 0.05,0.39 0.09,0.8 0.16,1.19 0.04,0.2 0.06,0.4 0.09,0.59 0.04,0.23 0.04,0.45 0.06,0.68l0.08 1.34c0.02,0.6 0.3,1.73 0.47,2.33 0.09,0.33 0.3,0.54 0.57,0.72l0.06 0.04 0 0.07c0,0.64 -0.09,1.28 -0.09,1.92 0,0.67 -0.05,1.34 -0.05,2.01 0,0.67 -0.02,1.35 -0.02,2.03 -0.01,0.55 -0.05,1.27 0.01,1.81l0.06 10.19c-0,0.9 0.3,1.38 1.06,1.82l0.71 0.33c1.02,0.41 2.19,0.64 3.28,0.8 0.6,0.08 1.2,0.16 1.81,0.24 0.78,0.11 1.56,0.18 2.35,0.2 0.55,0.02 1.08,0.09 1.64,0.09 0.52,0 1.04,-0.06 1.55,-0.16 0.3,-0.06 1.74,-0.41 1.88,-0.63 0.07,-0.11 0.16,-0.52 0.2,-0.67 0.13,-0.46 0.24,-0.94 0.38,-1.4 0.41,-1.4 0.69,-2.84 1.09,-4.25 0.14,-0.47 0.23,-0.95 0.37,-1.42 0.13,-0.45 0.24,-0.91 0.36,-1.37 0.35,-1.39 0.81,-2.75 1.22,-4.13 0.28,-0.95 0.44,-1.94 0.64,-2.91 0.29,-1.44 0.56,-2.89 1.02,-4.3l0.98 -3c0.05,-0.12 0.06,-0.23 0.1,-0.35l0.42 -1.36c0.04,-0.11 0.08,-0.22 0.11,-0.34 0.04,-0.12 0.06,-0.25 0.09,-0.37 0.28,-0.88 0.66,-1.73 0.96,-2.61l2.03 -6.83c0.3,-0.8 0.7,-2.06 0.85,-2.89l0.28 -1.06c0.14,-0.38 0.17,-0.8 0.28,-1.19l0.26 -1c0.02,-0.07 0.02,-0.13 0.03,-0.19 0.12,-0.69 0.38,-1.37 0.49,-2.07 0.02,-0.15 0.06,-0.23 0.1,-0.37 0.01,-0.06 0.01,-0.09 0.02,-0.15 0.01,-0.07 0.02,-0.09 0.04,-0.16l0.42 -1.81c0.03,-0.13 0.03,-0.23 0.07,-0.36 0.04,-0.11 0.05,-0.19 0.07,-0.31 0,-0.01 0,-0.02 0.01,-0.04l0.4 -1.82c0.17,-0.46 0.46,-1.87 0.51,-2.37l0.28 -1.41c0.01,-0.04 0.02,-0.07 0.03,-0.1l0.38 -2.02c0,-0.01 0,-0.03 0.01,-0.04 0.07,-0.3 0.1,-0.6 0.2,-0.89l0.21 -0.88c0.03,-0.13 0.05,-0.25 0.08,-0.38 0.03,-0.13 0.05,-0.25 0.07,-0.38l0.15 -0.71c0.06,-0.24 0.14,-0.48 0.19,-0.72 0.1,-0.5 0.2,-1 0.27,-1.5 0.04,-0.28 -0.01,-0.57 0.02,-0.85l0.22 -2.02c0.01,-0.15 0.05,-0.24 0.08,-0.39 0.02,-0.12 0.04,-0.24 0.06,-0.36 0.09,-0.56 0.07,-1.13 0.28,-1.67 0.09,-0.22 0.16,-0.45 0.22,-0.68 0.04,-0.12 0.07,-0.2 0.11,-0.31 0.02,-0.06 0.04,-0.1 0.06,-0.16 0.09,-0.28 0.26,-0.52 0.36,-0.79 0.1,-0.29 0.12,-0.53 0.25,-0.85l0.07 -0.3c0.08,-0.16 0.07,-0.35 0.09,-0.52 0.1,-0.62 0.24,-1.22 0.46,-1.81 0.09,-0.24 0.11,-0.49 0.17,-0.73 0.25,-1.01 0.33,-2.01 0.54,-3.02l0.15 -1.12c0.02,-0.13 0.06,-0.25 0.08,-0.38 0.06,-0.54 0.14,-1.09 0.14,-1.63l0.07 -1.63c0.08,-0.76 0.22,-1.53 0.4,-2.28 0.06,-0.24 0.13,-0.48 0.17,-0.73l0.19 -1.05c0.04,-0.13 0.05,-0.26 0.08,-0.38 0.09,-0.36 0.19,-0.7 0.23,-1.07 0.01,-0.13 0.04,-0.26 0.06,-0.39l0.13 -1.01c0.02,-0.14 0.03,-0.27 0.03,-0.41l0 -0.13 0.3 0 0 0.13c0,0.8 0.12,1.57 0.18,2.37 0.03,0.41 0.01,0.82 0.06,1.22l0.31 4.81c0.02,0.21 -0.01,0.43 0,0.64l0.09 1.83c-0,0.21 0.04,0.39 0.04,0.59 0.01,0.21 -0.02,0.43 0,0.63 0.04,0.48 0.06,0.71 -0.04,1.19 -0.07,0.35 -0.17,0.69 -0.25,1.04 -0.17,0.68 -0.34,1.35 -0.53,2.03l-0.49 2.07c-0.26,1.03 -0.53,2.05 -0.74,3.09 -0.07,0.35 -0.18,0.68 -0.26,1.02 -0.17,0.7 -0.29,1.4 -0.45,2.1 -0.5,2.14 -0.85,4.31 -1.19,6.48l-0.54 3.3c-0.05,0.37 -0.1,0.75 -0.16,1.12 -0.16,0.92 -0.24,1.84 -0.33,2.77 -0.17,1.79 -0.31,3.59 -0.37,5.38 -0.01,0.2 -0.05,0.38 -0.05,0.59 0,0.83 -0.09,1.65 -0.09,2.48l-0.14 2.96c0,0.84 0.05,1.7 -0.02,2.54 -0.06,0.61 0.03,1.53 0.05,2.16 0.03,0.85 0.06,1.7 0.11,2.56 0.04,0.85 0,1.72 0,2.57 -0,0.82 0.09,1.65 0.09,2.46l0.05 1.23c0.01,0.43 -0.02,0.85 -0,1.28l0.05 1.24c0,0.21 0.04,0.39 0.05,0.59l0 1.92c0,0.41 0.04,0.82 0.04,1.23 0,1.71 0.05,3.41 0.05,5.12l0 6.17c0,1.46 -0.17,2.18 0.09,3.68 0.3,1.8 1.38,4.23 2.41,5.74 0.37,0.54 0.7,1.1 1.13,1.58l0.96 1.09c0.32,0.35 0.65,0.72 1.02,1.01l0.73 0.65c0.08,0.07 0.17,0.13 0.25,0.2 0.9,0.79 1.91,1.45 2.95,2.04l1.19 0.65c0.19,0.12 0.41,0.2 0.61,0.31 2.25,1.21 4.76,2.04 7.19,2.83 1.9,0.62 3.87,1.03 5.81,1.49 0.25,0.06 0.5,0.11 0.75,0.15 0.26,0.04 0.51,0.1 0.77,0.14l3.98 0.59c0.84,0.1 1.69,0.09 2.53,0.21 1,0.15 2.31,0.1 3.34,0.11 0.29,0 0.57,0.05 0.87,0.05l2.36 0 0 1.36c0,0.07 0.02,0.13 0.03,0.19z"/>
    </clipPath>
    <clipPath id="id2">
     <path d="M117.21 212.59c0.65,-0.01 1.3,-0.08 1.95,-0.09 0.17,0 0.33,-0.04 0.5,-0.05l4.61 -0.32c0.34,-0.02 0.67,-0.08 1,-0.1 0.28,-0.02 0.56,-0.07 0.83,-0.11l10.32 -1.7c3.83,-0.63 9.02,-1.07 12.47,-2.79l3.87 -2.14 2.5 -1.86 1.99 -1.83c0.09,-0.09 0.16,-0.2 0.24,-0.29 0.09,-0.1 0.19,-0.19 0.28,-0.28l1.81 -1.99c0.46,-0.46 0.81,-1.01 1.19,-1.52l0.66 -0.97c0.63,-1.06 1.18,-2.13 1.62,-3.28 0.44,-1.15 0.8,-2.53 0.8,-3.77 0,-0.56 0.02,-1.15 -0.06,-1.7 -0.09,-0.69 -0.11,-1.39 -0.12,-2.09 -0,-0.14 -0.04,-0.26 -0.05,-0.41 -0.02,-0.31 0,-0.61 0,-0.92 0,-0.29 -0.05,-0.57 -0.05,-0.87 0,-0.31 0,-0.61 0,-0.91l-0.24 -7.33c0,-0.04 -0.01,-0.08 0,-0.11 0,-0.02 0,-0.05 0.01,-0.07 0.02,-0.36 -0.04,-0.72 -0.04,-1.08 0,-0.27 -0.05,-0.54 -0.05,-0.82 0,-1.48 -0.09,-2.96 -0.09,-4.43 0,-1.46 -0.09,-2.93 -0.09,-4.39 0,-0.6 -0.06,-1.19 -0.05,-1.79l0.05 -1.19c0,-0.02 0,-0.06 -0,-0.07 -0.02,-0.04 -0.02,-0.06 -0.02,-0.11 0,-0.06 -0,-0.1 0.03,-0.16 0,-0.02 0,-0.05 0,-0.07 0,-0.08 -0.02,-0.15 -0.02,-0.23l-0.12 -5.01c-0.12,-1.06 -0.14,-2.14 -0.26,-3.21l-0.1 -6.12c0,-1.28 0.31,-2.54 0.39,-3.81l0.06 -1.27c0.01,-0.15 -0.01,-0.31 0.01,-0.45l0.04 -1.83c0,-0.57 -0.14,-1.12 -0.14,-1.69 0.01,-1.35 -0.31,-2.67 -0.45,-4.02 -0.02,-0.15 0,-0.3 -0.01,-0.44 -0.02,-0.16 -0.04,-0.27 -0.04,-0.43l0 -0.38 0.22 0.3c0.02,0.02 0.04,0.05 0.04,0.08l0.12 0.33c0.13,0.5 0.3,0.97 0.41,1.48 0.08,0.34 0.15,0.69 0.21,1.03 0.07,0.37 0.1,0.74 0.17,1.11l1.3 6.66c0.15,0.87 0.38,1.72 0.56,2.58l0.87 4.15c0.04,0.18 0.07,0.35 0.11,0.54 0.02,0.08 0.03,0.17 0.06,0.26l1.52 6.25c0.32,1.31 0.83,2.62 1.11,3.92l0.58 1.93c0.5,1.95 1.01,3.92 1.66,5.83l1.28 3.74c0.23,0.64 0.39,1.3 0.57,1.95 0.19,0.67 0.41,1.31 0.54,2l0.35 2.17c0.09,0.71 0.22,1.42 0.38,2.12 0.16,0.68 0.27,1.37 0.46,2.05 0.19,0.67 0.36,1.34 0.51,2.02 0.28,1.28 0.74,2.64 1.1,3.91 0.43,1.48 0.75,2.98 1.17,4.46 0.19,0.67 0.2,0.67 0.84,0.92 1.64,0.66 3.74,0.36 5.47,0.32 0.79,-0.02 1.75,-0.2 2.54,-0.33 0.77,-0.13 1.59,-0.27 2.35,-0.46 0.72,-0.18 1.39,-0.42 2.05,-0.74 0.22,-0.11 0.36,-0.22 0.54,-0.37 0.78,-0.65 0.57,-2.22 0.57,-3.13 0,-1.23 0.09,-2.46 0.09,-3.7 0,-0.64 -0.01,-1.28 0,-1.92 0,-0.31 0.08,-0.56 0.04,-0.88 -0.04,-0.26 -0.03,-0.58 -0,-0.83l0.06 -3.72c0,-0.82 -0.18,-4.78 0.07,-5.21 0.05,-0.08 0.16,-0.21 0.22,-0.28 0.14,-0.14 0.17,-0.24 0.23,-0.42 0.15,-0.46 0.25,-0.87 0.32,-1.35 0.08,-0.55 0.15,-1.1 0.21,-1.66 0.09,-0.83 0.28,-1.64 0.36,-2.47 0.08,-0.93 0.17,-1.75 0.17,-2.69 0,-0.31 0.05,-0.61 0.05,-0.91 0,-1.45 0.16,-2.94 -0.03,-4.38 -0.06,-0.42 -0.09,-0.72 -0.18,-1.13 -0.16,-0.72 -0.18,-1.54 -0.33,-2.28l-0.46 -2.14c-0.22,-1.05 -0.54,-2.07 -0.81,-3.11l-1.27 -3.93c-0.13,-0.33 -0.21,-0.68 -0.31,-1.03 -0.38,-1.34 -0.53,-1.53 -0.54,-2.98 0,-0.28 0.05,-0.55 0.05,-0.82 -0,-0.81 0,-1.63 -0.11,-2.43l-0.25 -2.27c-0.11,-1.02 -0.19,-2.04 -0.28,-3.06l-0.76 -8.56c-0.18,-1.26 -0.2,-2.53 -0.4,-3.79 -0.12,-0.74 -0.25,-1.48 -0.3,-2.22l-0.19 -1.51c-0.11,-0.72 -0.15,-1.47 -0.32,-2.18 -0.35,-1.43 -0.49,-2.9 -0.69,-4.35l-0.24 -1.48c-0.22,-0.97 -0.33,-1.96 -0.53,-2.94 -0.29,-1.43 -0.49,-2.88 -0.76,-4.32 -0.18,-0.97 -0.3,-1.95 -0.5,-2.92 -0.23,-1.14 -0.58,-2.65 -0.57,-3.8 0,-0.13 -0.01,-0.24 -0.03,-0.37 -0.01,-0.13 -0.04,-0.23 0.06,-0.32 0.01,-0.02 0.02,-0.06 0.02,-0.07l0.04 -0.15 0.14 0.07c0.62,0.32 0.81,-0.21 1.12,-0.65 0.13,-0.19 0.61,-0.83 0.67,-0.99 -0,-0.11 -0.11,-0.29 -0.23,-0.31 -0.32,-0.07 -0.32,-0.03 -0.68,-0.18 -0.26,-0.11 -0.91,0.17 -1.25,0.17l-0.13 0 0 -0.12c0,-0.53 -0.13,-1.06 -0.19,-1.57l-0.39 -2.73c-0.03,-0.26 -0.15,-1.17 -0.23,-1.35l-0.07 -0.14 0.15 -0.04c0.19,-0.04 0.33,-0.13 0.44,-0.3 0.07,-0.11 0.1,-0.16 0.19,-0.26l0.19 -0.2 -0.04 -1.41c0,-0.18 -0.05,-0.33 -0.05,-0.5l0 -0.16 0.15 0.04c0.24,0.06 0.28,0.04 0.5,-0.06 0.05,-0.02 0.09,-0.03 0.14,-0.05 0.02,-0.03 0.04,-0.07 0.05,-0.1 0.12,-0.24 0.13,-0.42 0.18,-0.68l0.07 -0.83c0,-0.29 0.05,-0.57 0.05,-0.86 0,-0.41 -0.03,-0.82 -0.04,-1.23l-0.07 -1.2c-0.11,-0.76 -0.08,-1.53 -0.18,-2.29 -0.05,-0.38 -0.06,-0.77 -0.12,-1.15 -0.07,-0.49 -0.09,-1.12 -0.31,-1.56 -0.21,-0.42 -0.17,-0.89 -0.76,-0.89 -0.15,0 -0.18,0.08 -0.3,0.16l-0.2 0.13 0 -0.24c0,-0.28 -0.05,-0.54 -0.05,-0.82 0,-0.19 0.05,-0.65 -0.03,-0.81l-0.12 -0.24 0.26 0.07c0.49,0.13 0.74,0.56 1,0.96l0.66 1.22c0.26,0.52 0.14,0.7 0.73,0.7 0.31,0 0.17,-0.84 0.04,-0.99l-0.09 -0.11c-0.03,-0.05 -0.04,-0.09 -0.07,-0.13l-0.75 -1.35c-0.15,-0.22 -0.24,-0.46 -0.44,-0.65 -0.28,-0.27 -0.26,-0.26 -0.62,-0.42 -0.16,-0.07 -0.3,-0.08 -0.47,-0.04l-0.15 0.04 0 -0.16c0,-0.56 0.05,-1.28 -0.07,-1.82 -0.03,-0.13 -0.09,-0.2 -0.12,-0.32 -0.02,-0.08 -0.02,-0.12 -0.02,-0.19 -0.02,-0.01 -0.04,-0.03 -0.05,-0.04 -0.01,-0.01 -0.04,-0.03 -0.06,-0.04 -0.09,0.02 -0.16,-0.05 -0.23,-0.11 -0.2,-0.18 -0.36,-0.14 -0.61,-0.14l-0.13 0 0 -0.13c0,-0.98 -0.18,-2.19 -0.29,-3.18 -0.12,-1.05 -0.25,-2.1 -0.36,-3.15 -0.15,-1.39 -0.44,-2.97 -0.78,-4.32 -0.28,-1.12 -0.56,-2.25 -0.93,-3.35 -0.07,-0.22 -0.15,-0.43 -0.22,-0.65 -0.54,-1.65 -1.29,-3.22 -2.06,-4.76l-0.6 -1.09c-0.06,-0.1 -0.11,-0.17 -0.08,-0.29 0,-0.01 -0,-0.03 -0.01,-0.05l-0.04 -0.07c-0.08,-0.13 -0.2,-0.2 -0.3,-0.31 -0.12,-0.12 -0.13,-0.19 -0.11,-0.31 -0.16,-0.09 -0.18,-0.15 -0.31,-0.33 -0.62,-0.86 -0.94,-1.63 -1.72,-2.41l-1.01 -1.09c-1.07,-1.07 -1.91,-1.62 -3.07,-2.53 -0.26,-0.21 -0.53,-0.41 -0.8,-0.59l-1.28 -0.78c-0.16,-0.08 -0.33,-0.15 -0.48,-0.25 -0.87,-0.52 -1.86,-0.98 -2.8,-1.39 -0.66,-0.29 -1.35,-0.5 -2.02,-0.76l-5.93 -2.48c-1.58,-0.77 -3.29,-1.39 -4.91,-2.08l-4.9 -2.09c-0.33,-0.15 -0.59,-0.36 -0.89,-0.55 -0.28,-0.18 -0.57,-0.34 -0.85,-0.5l-1.83 -0.96c-0.19,-0.1 -0.53,-0.62 -0.68,-0.81 -0.41,-0.5 -1.07,-0.96 -1.4,-1.45 -0.81,-1.22 -1.43,-2.2 -2.07,-3.53l-0.43 -0.94c-0.29,-0.67 -0.61,-1.23 -0.95,-1.87 -0.43,-0.8 -1.28,-1.59 -2.01,-2.12 -1.13,-0.82 -2.49,-1.31 -3.83,-1.68 -0.38,-0.1 -0.77,-0.17 -1.15,-0.25l-1.21 -0.2c-0.83,-0.11 -1.69,-0.11 -2.52,-0.17l-1.94 -0.03c-0.22,0.01 -0.44,-0.04 -0.67,-0.04 -1.61,0.01 -3.27,0.07 -4.87,-0.02l-0.62 -0.02c-1.99,0 -3.99,-0.07 -5.98,0.09 -1.63,0.13 -2.71,0.28 -4.31,0.69 -1.5,0.38 -2.93,1.08 -4.13,2.06 -0.08,0.06 -0.17,0.12 -0.24,0.19 -0.82,0.91 -1.34,2.05 -1.79,3.17 -0.47,1.19 -0.91,2.39 -1.56,3.49 -0.1,0.18 -0.19,0.36 -0.28,0.54 -0.1,0.19 -0.22,0.36 -0.32,0.55 -0.29,0.54 -0.72,0.97 -1.03,1.49 -0.24,0.39 -0.64,0.49 -1,0.73 -0.52,0.34 -1.11,0.58 -1.67,0.86 -0.17,0.09 -0.33,0.21 -0.5,0.31 -0.19,0.11 -0.35,0.23 -0.54,0.33 -0.53,0.3 -0.99,0.7 -1.56,0.93 -1.39,0.56 -2.75,1.19 -4.14,1.76l-3.6 1.47c-2.75,1.15 -5.48,2.35 -8.24,3.45 -0.41,0.16 -0.81,0.32 -1.2,0.48l-1.13 0.5c-0.89,0.44 -1.89,0.93 -2.72,1.46 -1.41,0.9 -2.87,1.87 -4.07,3.02l-1.44 1.48c-0.72,0.71 -1.26,1.57 -1.78,2.43 -0.1,0.17 -0.27,0.48 -0.48,0.57 -0,0.02 -0.01,0.04 -0.02,0.04 0.03,0.03 0,0.1 -0.02,0.17 -0.02,0.06 -0.06,0.13 -0.11,0.19 -0.09,0.11 -0.29,0.23 -0.31,0.38 -0.03,0.2 0,0.12 -0.1,0.31 -0.46,0.83 -0.88,1.69 -1.28,2.55 -0.17,0.37 -0.37,0.74 -0.53,1.11 -0.72,1.6 -1.26,3.3 -1.69,5l-0.35 1.34c-0.39,1.96 -0.65,3.82 -0.88,5.81 -0.03,0.23 -0.1,0.46 -0.15,0.69 -0.11,0.49 -0.08,1.01 -0.18,1.51 -0.06,0.26 -0.11,0.45 -0.11,0.72l0 0.16 -0.16 -0.04c-0.24,-0.06 -0.25,0.04 -0.46,0.1 -0.35,0.11 -0.25,-0 -0.46,0.43 -0.24,0.5 -0.32,0.55 -0.47,1.14 -0.06,0.25 -0.19,0.62 -0.2,0.87l0 0.12 -0.12 0c-0.14,0 -0.28,-0.04 -0.41,-0.02l-0.36 0.07c-0.33,0.15 -0.76,0.42 -0.93,0.76 -0.04,0.09 -0.05,0.11 -0.11,0.19 -0.15,0.22 -0.26,0.46 -0.39,0.69l-0.37 0.68c-0.12,0.24 -0.47,0.68 -0.28,0.95 0.05,0.06 0.15,0.19 0.23,0.2 0.17,0.05 0.82,0.01 1.05,0.01l0.2 0 -0.09 0.18c-0.25,0.52 -0.39,3.02 -0.45,3.75l-0.17 1.26c-0.11,0.85 -0.14,1.72 -0.26,2.57 -0.05,0.35 0,0.95 0.02,1.32 0.01,0.14 0.04,0.41 0.12,0.54 0.13,0.21 0.38,0.22 0.6,0.17l0.25 -0.06 -0.11 0.24c-0.12,0.24 -0.06,1.26 0.03,1.52 0.04,0.1 0.16,0.39 0.16,0.48 0,0.06 -0,0.1 -0.03,0.15 0.01,0.03 0.03,0.07 0.04,0.09 0.08,0.17 0.21,0.24 0.39,0.29 0.14,0.04 0.13,-0 0.28,-0.02l0.17 -0.01 -0.04 0.17c-0.06,0.26 -0.16,0.52 -0.25,0.77 -0.18,0.52 -0.27,1.06 -0.4,1.6 -0.2,0.83 -0.41,1.64 -0.58,2.47 -0.11,0.57 -0.27,1.14 -0.32,1.72l-0.02 0.19 -0.17 -0.09c-0.18,-0.09 -0.43,-0.07 -0.63,-0.07 -0.22,0.01 -1.66,0.9 -1.93,1.08 -0.63,0.43 -0.49,0.39 -0.11,1.06 0.18,0.31 0.52,0.52 0.78,0.76 0.05,0.04 0.08,0.09 0.13,0.13 0.04,0.02 0.14,0.02 0.18,0.03 0.31,0.05 0.64,0.12 0.96,0.12l0.08 0 0.03 0.07c0.08,0.16 0.15,0.23 0.15,0.43l-0.5 5.12c-0.01,0.2 -0.04,0.43 -0.07,0.63 -0.1,0.67 -0.04,1.34 -0.15,2 -0.03,0.21 -0.01,0.43 -0.04,0.64l-0.22 1.93c-0.06,0.41 -0.08,0.83 -0.12,1.24 -0.04,0.42 -0.11,0.84 -0.17,1.26 -0.21,1.67 -0.43,3.33 -0.57,5.01l-0.33 2.5c-0.06,0.4 -0.1,0.81 -0.18,1.2l-0.49 3.76c-0.14,1.24 -0.43,2.5 -0.5,3.74 -0.06,0.83 -0.21,1.66 -0.32,2.48l-1.48 11.04c-0.11,0.81 -0.31,1.59 -0.45,2.39 -0.07,0.39 -0.16,0.79 -0.24,1.18l-0.23 1.19c-0.25,1.32 -0.64,2.81 -0.74,4.13 -0.02,0.24 -0.05,0.41 -0.1,0.65 -0.2,0.98 -0.25,1.48 -0.14,2.48 0.11,1.01 -0.06,1.54 -0.3,2.48 -0.19,0.76 -0.37,1.52 -0.57,2.27 -0.1,0.37 -0.18,0.74 -0.27,1.1 -0.25,1.06 -0.41,1.89 -0.51,2.98 -0.03,0.35 -0.22,0.76 -0.22,1.1 -0,0.2 0.08,0.41 0.09,0.63l-0 1.24c0,0.22 0.05,0.42 0.05,0.63l0.09 2.06c0.04,0.45 0,0.9 0.06,1.35 0.06,0.4 0.05,0.81 0.09,1.21 0.05,0.39 0.09,0.8 0.16,1.19 0.04,0.2 0.06,0.4 0.09,0.59 0.04,0.23 0.04,0.45 0.06,0.68l0.08 1.34c0.02,0.6 0.3,1.73 0.47,2.33 0.09,0.33 0.3,0.54 0.57,0.72l0.06 0.04 0 0.07c0,0.64 -0.09,1.28 -0.09,1.92 0,0.67 -0.05,1.34 -0.05,2.01 0,0.67 -0.02,1.35 -0.02,2.03 -0.01,0.55 -0.05,1.27 0.01,1.81l0.06 10.19c-0,0.9 0.3,1.38 1.06,1.82l0.71 0.33c1.02,0.41 2.19,0.64 3.28,0.8 0.6,0.08 1.2,0.16 1.81,0.24 0.78,0.11 1.56,0.18 2.35,0.2 0.55,0.02 1.08,0.09 1.64,0.09 0.52,0 1.04,-0.06 1.55,-0.16 0.3,-0.06 1.74,-0.41 1.88,-0.63 0.07,-0.11 0.16,-0.52 0.2,-0.67 0.13,-0.46 0.24,-0.94 0.38,-1.4 0.41,-1.4 0.69,-2.84 1.09,-4.25 0.14,-0.47 0.23,-0.95 0.37,-1.42 0.13,-0.45 0.24,-0.91 0.36,-1.37 0.35,-1.39 0.81,-2.75 1.22,-4.13 0.28,-0.95 0.44,-1.94 0.64,-2.91 0.29,-1.44 0.56,-2.89 1.02,-4.3l0.98 -3c0.05,-0.12 0.06,-0.23 0.1,-0.35l0.42 -1.36c0.04,-0.11 0.08,-0.22 0.11,-0.34 0.04,-0.12 0.06,-0.25 0.09,-0.37 0.28,-0.88 0.66,-1.73 0.96,-2.61l2.03 -6.83c0.3,-0.8 0.7,-2.06 0.85,-2.89l0.28 -1.06c0.14,-0.38 0.17,-0.8 0.28,-1.19l0.26 -1c0.02,-0.07 0.02,-0.13 0.03,-0.19 0.12,-0.69 0.38,-1.37 0.49,-2.07 0.02,-0.15 0.06,-0.23 0.1,-0.37 0.01,-0.06 0.01,-0.09 0.02,-0.15 0.01,-0.07 0.02,-0.09 0.04,-0.16l0.42 -1.81c0.03,-0.13 0.03,-0.23 0.07,-0.36 0.04,-0.11 0.05,-0.19 0.07,-0.31 0,-0.01 0,-0.02 0.01,-0.04l0.4 -1.82c0.17,-0.46 0.46,-1.87 0.51,-2.37l0.28 -1.41c0.01,-0.04 0.02,-0.07 0.03,-0.1l0.38 -2.02c0,-0.01 0,-0.03 0.01,-0.04 0.07,-0.3 0.1,-0.6 0.2,-0.89l0.21 -0.88c0.03,-0.13 0.05,-0.25 0.08,-0.38 0.03,-0.13 0.05,-0.25 0.07,-0.38l0.15 -0.71c0.06,-0.24 0.14,-0.48 0.19,-0.72 0.1,-0.5 0.2,-1 0.27,-1.5 0.04,-0.28 -0.01,-0.57 0.02,-0.85l0.22 -2.02c0.01,-0.15 0.05,-0.24 0.08,-0.39 0.02,-0.12 0.04,-0.24 0.06,-0.36 0.09,-0.56 0.07,-1.13 0.28,-1.67 0.09,-0.22 0.16,-0.45 0.22,-0.68 0.04,-0.12 0.07,-0.2 0.11,-0.31 0.02,-0.06 0.04,-0.1 0.06,-0.16 0.09,-0.28 0.26,-0.52 0.36,-0.79 0.1,-0.29 0.12,-0.53 0.25,-0.85l0.07 -0.3c0.08,-0.16 0.07,-0.35 0.09,-0.52 0.1,-0.62 0.24,-1.22 0.46,-1.81 0.09,-0.24 0.11,-0.49 0.17,-0.73 0.25,-1.01 0.33,-2.01 0.54,-3.02l0.15 -1.12c0.02,-0.13 0.06,-0.25 0.08,-0.38 0.06,-0.54 0.14,-1.09 0.14,-1.63l0.07 -1.63c0.08,-0.76 0.22,-1.53 0.4,-2.28 0.06,-0.24 0.13,-0.48 0.17,-0.73l0.19 -1.05c0.04,-0.13 0.05,-0.26 0.08,-0.38 0.09,-0.36 0.19,-0.7 0.23,-1.07 0.01,-0.13 0.04,-0.26 0.06,-0.39l0.13 -1.01c0.02,-0.14 0.03,-0.27 0.03,-0.41l0 -0.13 0.3 0 0 0.13c0,0.8 0.12,1.57 0.18,2.37 0.03,0.41 0.01,0.82 0.06,1.22l0.31 4.81c0.02,0.21 -0.01,0.43 0,0.64l0.09 1.83c-0,0.21 0.04,0.39 0.04,0.59 0.01,0.21 -0.02,0.43 0,0.63 0.04,0.48 0.06,0.71 -0.04,1.19 -0.07,0.35 -0.17,0.69 -0.25,1.04 -0.17,0.68 -0.34,1.35 -0.53,2.03l-0.49 2.07c-0.26,1.03 -0.53,2.05 -0.74,3.09 -0.07,0.35 -0.18,0.68 -0.26,1.02 -0.17,0.7 -0.29,1.4 -0.45,2.1 -0.5,2.14 -0.85,4.31 -1.19,6.48l-0.54 3.3c-0.05,0.37 -0.1,0.75 -0.16,1.12 -0.16,0.92 -0.24,1.84 -0.33,2.77 -0.17,1.79 -0.31,3.59 -0.37,5.38 -0.01,0.2 -0.05,0.38 -0.05,0.59 0,0.83 -0.09,1.65 -0.09,2.48l-0.14 2.96c0,0.84 0.05,1.7 -0.02,2.54 -0.06,0.61 0.03,1.53 0.05,2.16 0.03,0.85 0.06,1.7 0.11,2.56 0.04,0.85 0,1.72 0,2.57 -0,0.82 0.09,1.65 0.09,2.46l0.05 1.23c0.01,0.43 -0.02,0.85 -0,1.28l0.05 1.24c0,0.21 0.04,0.39 0.05,0.59l0 1.92c0,0.41 0.04,0.82 0.04,1.23 0,1.71 0.05,3.41 0.05,5.12l0 6.17c0,1.46 -0.17,2.18 0.09,3.68 0.3,1.8 1.38,4.23 2.41,5.74 0.37,0.54 0.7,1.1 1.13,1.58l0.96 1.09c0.32,0.35 0.65,0.72 1.02,1.01l0.73 0.65c0.08,0.07 0.17,0.13 0.25,0.2 0.9,0.79 1.91,1.45 2.95,2.04l1.19 0.65c0.19,0.12 0.41,0.2 0.61,0.31 2.25,1.21 4.76,2.04 7.19,2.83 1.9,0.62 3.87,1.03 5.81,1.49 0.25,0.06 0.5,0.11 0.75,0.15 0.26,0.04 0.51,0.1 0.77,0.14l3.98 0.59c0.84,0.1 1.69,0.09 2.53,0.21 1,0.15 2.31,0.1 3.34,0.11 0.29,0 0.57,0.05 0.87,0.05l2.36 0 0 1.36c0,0.07 0.02,0.13 0.03,0.19z"/>
    </clipPath>
 </defs>
 <g id="Layer_x0020_1">
  <metadata id="CorelCorpID_0Corel-Layer"/>
  <rect class="fil0" x="-0" y="-0" width="239.99" height="226.66"/>
  <g id="_1952009657280">
   <path class="fil1" d="M117.21 212.59c0.65,-0.01 1.3,-0.08 1.95,-0.09 0.17,0 0.33,-0.04 0.5,-0.05l4.61 -0.32c0.34,-0.02 0.67,-0.08 1,-0.1 0.28,-0.02 0.56,-0.07 0.83,-0.11l10.32 -1.7c3.83,-0.63 9.02,-1.07 12.47,-2.79l3.87 -2.14 2.5 -1.86 1.99 -1.83c0.09,-0.09 0.16,-0.2 0.24,-0.29 0.09,-0.1 0.19,-0.19 0.28,-0.28l1.81 -1.99c0.46,-0.46 0.81,-1.01 1.19,-1.52l0.66 -0.97c0.63,-1.06 1.18,-2.13 1.62,-3.28 0.44,-1.15 0.8,-2.53 0.8,-3.77 0,-0.56 0.02,-1.15 -0.06,-1.7 -0.09,-0.69 -0.11,-1.39 -0.12,-2.09 -0,-0.14 -0.04,-0.26 -0.05,-0.41 -0.02,-0.31 -0,-0.61 0,-0.92 0,-0.29 -0.05,-0.57 -0.05,-0.87 0,-0.31 0,-0.61 0,-0.91l-0.24 -7.33c0,-0.04 -0.01,-0.08 0,-0.11 0,-0.02 0,-0.05 0.01,-0.07 0.02,-0.36 -0.04,-0.72 -0.04,-1.08 0,-0.27 -0.05,-0.54 -0.05,-0.82 0,-1.48 -0.09,-2.96 -0.09,-4.43 0,-1.46 -0.09,-2.93 -0.09,-4.39 0,-0.6 -0.06,-1.19 -0.05,-1.79l0.05 -1.19c0,-0.02 0,-0.06 -0,-0.07 -0.02,-0.04 -0.02,-0.06 -0.02,-0.11 0,-0.06 -0,-0.1 0.03,-0.16 0,-0.02 0,-0.05 0,-0.07 0,-0.08 -0.02,-0.15 -0.03,-0.23l-0.11 -5.01c-0.12,-1.06 -0.14,-2.14 -0.26,-3.21l-0.1 -6.12c0,-1.28 0.31,-2.54 0.39,-3.81l0.06 -1.27c0.01,-0.15 -0.01,-0.31 0.01,-0.45l0.04 -1.83c0,-0.57 -0.14,-1.12 -0.14,-1.69 0.01,-1.35 -0.31,-2.67 -0.45,-4.02 -0.02,-0.15 0,-0.3 -0.01,-0.44 -0.02,-0.16 -0.04,-0.27 -0.04,-0.43l0 -0.38 0.22 0.3c0.02,0.02 0.04,0.05 0.04,0.08l0.12 0.33c0.13,0.5 0.3,0.97 0.41,1.48 0.08,0.34 0.15,0.69 0.21,1.03 0.07,0.37 0.1,0.74 0.17,1.11l1.3 6.66c0.15,0.87 0.38,1.72 0.56,2.58l0.87 4.15c0.04,0.18 0.07,0.35 0.11,0.54 0.02,0.08 0.03,0.17 0.06,0.26l1.52 6.25c0.32,1.31 0.83,2.62 1.11,3.92l0.58 1.93c0.5,1.95 1.01,3.92 1.66,5.83l1.28 3.74c0.23,0.64 0.39,1.3 0.57,1.95 0.19,0.67 0.41,1.31 0.54,2l0.35 2.17c0.09,0.71 0.22,1.42 0.38,2.12 0.16,0.68 0.27,1.37 0.46,2.05 0.19,0.67 0.36,1.34 0.51,2.02 0.28,1.28 0.74,2.64 1.1,3.91 0.43,1.48 0.75,2.98 1.17,4.46 0.19,0.67 0.2,0.67 0.84,0.92 1.64,0.66 3.74,0.36 5.47,0.32 0.79,-0.02 1.75,-0.2 2.54,-0.33 0.77,-0.13 1.59,-0.27 2.35,-0.46 0.72,-0.18 1.39,-0.43 2.05,-0.75 0.22,-0.11 0.36,-0.22 0.54,-0.38 0.78,-0.65 0.57,-2.22 0.57,-3.12 0,-1.23 0.09,-2.46 0.09,-3.7 0,-0.64 -0.01,-1.28 0,-1.92 0,-0.31 0.08,-0.56 0.04,-0.88 -0.04,-0.26 -0.03,-0.58 -0,-0.83l0.06 -3.72c0,-0.82 -0.18,-4.78 0.07,-5.21 0.05,-0.08 0.16,-0.21 0.23,-0.28 0.13,-0.14 0.17,-0.24 0.23,-0.42 0.15,-0.46 0.25,-0.87 0.32,-1.35 0.08,-0.55 0.15,-1.1 0.21,-1.66 0.09,-0.83 0.28,-1.64 0.36,-2.47 0.08,-0.93 0.17,-1.75 0.17,-2.69 0,-0.31 0.05,-0.61 0.05,-0.91 0,-1.45 0.16,-2.94 -0.03,-4.38 -0.06,-0.42 -0.09,-0.72 -0.18,-1.13 -0.16,-0.72 -0.18,-1.54 -0.33,-2.28l-0.46 -2.14c-0.22,-1.05 -0.54,-2.07 -0.81,-3.11l-1.27 -3.93c-0.13,-0.33 -0.21,-0.68 -0.31,-1.03 -0.38,-1.34 -0.53,-1.53 -0.54,-2.98 0,-0.28 0.05,-0.55 0.05,-0.82 -0,-0.81 0,-1.63 -0.11,-2.43l-0.25 -2.27c-0.11,-1.02 -0.19,-2.04 -0.28,-3.06l-0.76 -8.56c-0.18,-1.26 -0.2,-2.53 -0.4,-3.79 -0.12,-0.74 -0.25,-1.48 -0.3,-2.22l-0.19 -1.51c-0.11,-0.72 -0.15,-1.47 -0.32,-2.18 -0.35,-1.43 -0.49,-2.9 -0.69,-4.35l-0.24 -1.48c-0.22,-0.97 -0.33,-1.96 -0.53,-2.94 -0.29,-1.43 -0.49,-2.88 -0.76,-4.32 -0.18,-0.97 -0.3,-1.95 -0.5,-2.92 -0.23,-1.14 -0.58,-2.65 -0.57,-3.8 0,-0.13 -0.01,-0.24 -0.03,-0.37 -0.02,-0.13 -0.05,-0.23 0.05,-0.32 0.01,-0.02 0.02,-0.06 0.02,-0.07l0.04 -0.15 0.14 0.07c0.62,0.33 0.81,-0.21 1.12,-0.65 0.13,-0.19 0.61,-0.83 0.67,-0.99 -0,-0.11 -0.11,-0.29 -0.23,-0.31 -0.32,-0.07 -0.32,-0.03 -0.68,-0.18 -0.26,-0.11 -0.91,0.17 -1.25,0.17l-0.13 0 0 -0.12c0,-0.53 -0.13,-1.06 -0.19,-1.57l-0.39 -2.73c-0.03,-0.26 -0.15,-1.17 -0.23,-1.35l-0.07 -0.14 0.15 -0.04c0.19,-0.04 0.33,-0.13 0.44,-0.3 0.07,-0.11 0.1,-0.16 0.19,-0.26l0.19 -0.2 -0.04 -1.41c0,-0.18 -0.05,-0.33 -0.05,-0.5l0 -0.16 0.15 0.04c0.24,0.06 0.28,0.04 0.5,-0.06 0.05,-0.02 0.09,-0.04 0.14,-0.05 0.02,-0.03 0.04,-0.07 0.05,-0.1 0.12,-0.24 0.13,-0.42 0.18,-0.68l0.07 -0.83c0,-0.29 0.05,-0.57 0.05,-0.86 0,-0.41 -0.03,-0.82 -0.04,-1.23l-0.07 -1.2c-0.11,-0.76 -0.08,-1.53 -0.17,-2.29 -0.05,-0.38 -0.07,-0.77 -0.12,-1.15 -0.07,-0.49 -0.09,-1.12 -0.31,-1.56 -0.21,-0.42 -0.17,-0.89 -0.76,-0.89 -0.15,0 -0.18,0.08 -0.3,0.16l-0.2 0.13 0 -0.24c0,-0.28 -0.05,-0.54 -0.05,-0.82 0,-0.19 0.05,-0.65 -0.03,-0.81l-0.12 -0.24 0.26 0.07c0.49,0.13 0.74,0.56 1,0.96l0.66 1.22c0.26,0.52 0.14,0.69 0.73,0.69 0.31,0 0.17,-0.84 0.04,-0.98l-0.09 -0.11c-0.03,-0.05 -0.04,-0.09 -0.07,-0.13l-0.75 -1.35c-0.15,-0.22 -0.24,-0.46 -0.44,-0.65 -0.28,-0.27 -0.26,-0.26 -0.62,-0.42 -0.16,-0.07 -0.3,-0.08 -0.47,-0.04l-0.15 0.04 0 -0.16c0,-0.56 0.05,-1.28 -0.07,-1.82 -0.03,-0.13 -0.09,-0.2 -0.12,-0.32 -0.02,-0.08 -0.02,-0.12 -0.02,-0.19 -0.02,-0.01 -0.04,-0.03 -0.05,-0.04 -0.01,-0.01 -0.04,-0.03 -0.06,-0.04 -0.09,0.02 -0.16,-0.05 -0.23,-0.11 -0.2,-0.18 -0.36,-0.14 -0.61,-0.14l-0.13 0 0 -0.13c0,-0.98 -0.18,-2.19 -0.29,-3.18 -0.12,-1.05 -0.25,-2.1 -0.36,-3.15 -0.15,-1.39 -0.44,-2.97 -0.78,-4.32 -0.28,-1.12 -0.56,-2.25 -0.93,-3.35 -0.07,-0.22 -0.14,-0.43 -0.22,-0.65 -0.54,-1.65 -1.29,-3.22 -2.06,-4.76l-0.6 -1.09c-0.06,-0.1 -0.11,-0.17 -0.08,-0.29 0,-0.01 -0,-0.03 -0.01,-0.05l-0.04 -0.07c-0.08,-0.13 -0.2,-0.2 -0.3,-0.31 -0.12,-0.12 -0.13,-0.19 -0.11,-0.31 -0.16,-0.09 -0.18,-0.15 -0.31,-0.33 -0.62,-0.86 -0.94,-1.63 -1.72,-2.41l-1.01 -1.09c-1.07,-1.07 -1.91,-1.62 -3.07,-2.53 -0.26,-0.21 -0.53,-0.41 -0.8,-0.59l-1.28 -0.78c-0.16,-0.08 -0.33,-0.15 -0.48,-0.25 -0.87,-0.52 -1.86,-0.98 -2.8,-1.39 -0.66,-0.29 -1.35,-0.5 -2.02,-0.76l-5.93 -2.48c-1.58,-0.77 -3.29,-1.39 -4.91,-2.08l-4.9 -2.09c-0.33,-0.15 -0.59,-0.36 -0.89,-0.55 -0.28,-0.18 -0.57,-0.34 -0.85,-0.5l-1.83 -0.96c-0.19,-0.1 -0.53,-0.62 -0.68,-0.81 -0.41,-0.5 -1.07,-0.96 -1.4,-1.45 -0.81,-1.22 -1.43,-2.2 -2.07,-3.53l-0.43 -0.94c-0.29,-0.67 -0.61,-1.23 -0.95,-1.87 -0.43,-0.8 -1.28,-1.59 -2.01,-2.12 -1.13,-0.82 -2.49,-1.31 -3.83,-1.68 -0.38,-0.1 -0.77,-0.17 -1.15,-0.25l-1.21 -0.2c-0.83,-0.11 -1.69,-0.11 -2.52,-0.17l-1.94 -0.03c-0.22,0.01 -0.44,-0.04 -0.67,-0.04 -1.61,0.01 -3.27,0.07 -4.87,-0.02l-0.62 -0.02c-1.99,0 -3.99,-0.07 -5.98,0.09 -1.63,0.13 -2.71,0.28 -4.31,0.69 -1.5,0.38 -2.93,1.08 -4.13,2.06 -0.08,0.06 -0.17,0.12 -0.24,0.19 -0.82,0.91 -1.34,2.05 -1.79,3.17 -0.47,1.19 -0.91,2.39 -1.56,3.49 -0.1,0.18 -0.19,0.36 -0.28,0.54 -0.1,0.19 -0.22,0.36 -0.32,0.55 -0.29,0.54 -0.72,0.97 -1.03,1.49 -0.24,0.39 -0.64,0.49 -1,0.73 -0.52,0.34 -1.11,0.58 -1.67,0.86 -0.17,0.09 -0.33,0.21 -0.5,0.31 -0.19,0.11 -0.35,0.23 -0.54,0.33 -0.53,0.3 -0.99,0.7 -1.56,0.93 -1.39,0.56 -2.75,1.19 -4.14,1.76l-3.6 1.47c-2.75,1.15 -5.48,2.35 -8.24,3.45 -0.41,0.16 -0.81,0.32 -1.2,0.48l-1.13 0.5c-0.89,0.44 -1.89,0.93 -2.72,1.46 -1.41,0.9 -2.87,1.87 -4.07,3.02l-1.44 1.48c-0.72,0.71 -1.26,1.57 -1.78,2.43 -0.1,0.17 -0.27,0.48 -0.48,0.57 -0,0.02 -0.01,0.04 -0.02,0.04 0.03,0.03 0,0.1 -0.02,0.17 -0.02,0.06 -0.06,0.13 -0.11,0.19 -0.09,0.11 -0.29,0.23 -0.31,0.38 -0.03,0.2 0,0.12 -0.1,0.31 -0.46,0.83 -0.88,1.69 -1.28,2.55 -0.17,0.37 -0.37,0.74 -0.53,1.11 -0.72,1.6 -1.26,3.3 -1.69,5l-0.35 1.34c-0.39,1.96 -0.65,3.82 -0.88,5.81 -0.03,0.23 -0.1,0.46 -0.15,0.69 -0.11,0.49 -0.08,1.01 -0.18,1.51 -0.06,0.26 -0.12,0.45 -0.12,0.72l0 0.16 -0.15 -0.04c-0.24,-0.06 -0.25,0.04 -0.46,0.1 -0.35,0.11 -0.25,-0 -0.46,0.43 -0.24,0.5 -0.32,0.55 -0.47,1.14 -0.06,0.25 -0.19,0.62 -0.2,0.87l0 0.12 -0.12 0c-0.14,0 -0.28,-0.04 -0.41,-0.02l-0.36 0.07c-0.33,0.15 -0.76,0.42 -0.93,0.76 -0.04,0.09 -0.05,0.11 -0.11,0.19 -0.15,0.22 -0.26,0.46 -0.39,0.69l-0.37 0.68c-0.12,0.24 -0.47,0.68 -0.28,0.95 0.05,0.06 0.15,0.19 0.23,0.2 0.17,0.05 0.82,0.01 1.05,0.01l0.2 0 -0.09 0.18c-0.25,0.52 -0.39,3.02 -0.45,3.75l-0.17 1.26c-0.11,0.85 -0.14,1.72 -0.26,2.57 -0.05,0.35 0,0.95 0.02,1.32 0.01,0.14 0.04,0.41 0.12,0.54 0.13,0.21 0.38,0.22 0.6,0.17l0.25 -0.06 -0.11 0.24c-0.12,0.24 -0.06,1.26 0.03,1.52 0.04,0.1 0.16,0.39 0.16,0.48 0,0.06 -0,0.1 -0.03,0.15 0.01,0.03 0.03,0.07 0.04,0.09 0.08,0.17 0.21,0.24 0.39,0.29 0.14,0.04 0.13,-0 0.28,-0.02l0.17 -0.01 -0.04 0.17c-0.06,0.26 -0.16,0.52 -0.25,0.77 -0.18,0.52 -0.27,1.06 -0.4,1.6 -0.2,0.83 -0.41,1.64 -0.58,2.47 -0.11,0.57 -0.27,1.14 -0.32,1.72l-0.02 0.19 -0.17 -0.09c-0.18,-0.09 -0.43,-0.07 -0.63,-0.07 -0.22,0.01 -1.66,0.9 -1.93,1.08 -0.63,0.43 -0.49,0.39 -0.11,1.06 0.18,0.31 0.52,0.52 0.78,0.76 0.05,0.04 0.08,0.09 0.13,0.13 0.04,0.02 0.14,0.02 0.18,0.03 0.31,0.05 0.64,0.12 0.96,0.12l0.08 0 0.03 0.07c0.08,0.16 0.15,0.23 0.15,0.43l-0.5 5.12c-0.01,0.2 -0.04,0.43 -0.06,0.63 -0.1,0.67 -0.04,1.34 -0.15,2 -0.03,0.21 -0.01,0.43 -0.04,0.64l-0.22 1.93c-0.06,0.41 -0.08,0.83 -0.12,1.24 -0.04,0.42 -0.11,0.84 -0.17,1.26 -0.21,1.67 -0.43,3.33 -0.57,5.01l-0.33 2.5c-0.06,0.4 -0.1,0.81 -0.18,1.2l-0.49 3.76c-0.14,1.24 -0.43,2.5 -0.5,3.74 -0.06,0.83 -0.21,1.65 -0.32,2.48l-1.48 11.04c-0.11,0.81 -0.31,1.59 -0.45,2.39 -0.07,0.39 -0.16,0.79 -0.24,1.18l-0.23 1.19c-0.25,1.32 -0.64,2.81 -0.74,4.13 -0.02,0.24 -0.05,0.41 -0.1,0.65 -0.2,0.98 -0.25,1.48 -0.14,2.48 0.11,1.01 -0.06,1.54 -0.3,2.48 -0.19,0.76 -0.37,1.52 -0.57,2.27 -0.1,0.37 -0.18,0.74 -0.27,1.1 -0.25,1.06 -0.41,1.89 -0.51,2.98 -0.03,0.35 -0.22,0.76 -0.22,1.1 -0,0.2 0.08,0.41 0.09,0.63l-0 1.24c0,0.22 0.05,0.42 0.05,0.63l0.09 2.06c0.04,0.45 0,0.9 0.06,1.35 0.06,0.4 0.05,0.81 0.09,1.21 0.05,0.39 0.09,0.8 0.16,1.19 0.04,0.2 0.06,0.4 0.09,0.6 0.04,0.22 0.04,0.45 0.06,0.68l0.08 1.34c0.02,0.6 0.3,1.73 0.47,2.33 0.09,0.33 0.3,0.54 0.57,0.72l0.06 0.04 0 0.07c0,0.64 -0.09,1.28 -0.09,1.92 0,0.67 -0.05,1.34 -0.05,2.01 0,0.67 -0.02,1.35 -0.02,2.03 -0.01,0.55 -0.05,1.27 0.01,1.81l0.06 10.19c-0,0.9 0.3,1.38 1.06,1.82l0.71 0.33c1.02,0.41 2.19,0.64 3.28,0.8 0.6,0.08 1.2,0.16 1.81,0.24 0.78,0.11 1.56,0.18 2.35,0.2 0.55,0.02 1.08,0.09 1.64,0.09 0.52,0 1.04,-0.06 1.55,-0.16 0.3,-0.06 1.74,-0.41 1.88,-0.63 0.07,-0.11 0.16,-0.52 0.2,-0.67 0.13,-0.46 0.24,-0.94 0.38,-1.4 0.41,-1.4 0.69,-2.84 1.09,-4.25 0.14,-0.47 0.23,-0.95 0.37,-1.42 0.13,-0.45 0.24,-0.91 0.36,-1.37 0.35,-1.39 0.81,-2.75 1.22,-4.13 0.28,-0.95 0.44,-1.94 0.64,-2.91 0.29,-1.44 0.56,-2.89 1.02,-4.3l0.98 -3c0.05,-0.12 0.06,-0.23 0.1,-0.35l0.42 -1.36c0.04,-0.11 0.08,-0.22 0.11,-0.34 0.04,-0.12 0.06,-0.25 0.09,-0.37 0.28,-0.88 0.66,-1.73 0.96,-2.61l2.03 -6.83c0.3,-0.8 0.7,-2.06 0.85,-2.89l0.28 -1.06c0.14,-0.38 0.17,-0.8 0.28,-1.19l0.26 -1c0.02,-0.07 0.02,-0.13 0.03,-0.19 0.12,-0.69 0.38,-1.37 0.49,-2.07 0.02,-0.15 0.06,-0.23 0.1,-0.37 0.01,-0.06 0.01,-0.09 0.02,-0.15 0.01,-0.07 0.02,-0.09 0.04,-0.16l0.42 -1.81c0.03,-0.13 0.03,-0.23 0.07,-0.36 0.04,-0.11 0.05,-0.19 0.07,-0.31 0,-0.01 0,-0.02 0.01,-0.04l0.4 -1.82c0.17,-0.46 0.46,-1.87 0.51,-2.37l0.28 -1.41c0.01,-0.04 0.02,-0.07 0.03,-0.1l0.38 -2.02c0,-0.01 0,-0.03 0.01,-0.04 0.07,-0.3 0.1,-0.6 0.2,-0.89l0.21 -0.88c0.03,-0.13 0.05,-0.25 0.08,-0.38 0.03,-0.13 0.05,-0.25 0.07,-0.38l0.15 -0.71c0.06,-0.24 0.14,-0.48 0.19,-0.72 0.1,-0.5 0.2,-1 0.27,-1.5 0.04,-0.28 -0.01,-0.57 0.02,-0.85l0.22 -2.01c0.01,-0.16 0.05,-0.25 0.08,-0.39 0.02,-0.12 0.04,-0.24 0.06,-0.36 0.09,-0.56 0.07,-1.13 0.28,-1.67 0.09,-0.22 0.16,-0.45 0.22,-0.68 0.04,-0.12 0.07,-0.2 0.11,-0.31 0.02,-0.06 0.04,-0.1 0.06,-0.16 0.09,-0.28 0.26,-0.52 0.36,-0.79 0.1,-0.29 0.12,-0.53 0.25,-0.85l0.07 -0.3c0.08,-0.16 0.07,-0.35 0.09,-0.52 0.1,-0.62 0.24,-1.22 0.46,-1.81 0.09,-0.24 0.11,-0.49 0.17,-0.73 0.25,-1.01 0.33,-2.01 0.54,-3.02l0.15 -1.12c0.02,-0.13 0.06,-0.25 0.08,-0.38 0.06,-0.54 0.14,-1.09 0.14,-1.63l0.07 -1.63c0.08,-0.76 0.22,-1.53 0.4,-2.28 0.06,-0.24 0.13,-0.48 0.17,-0.73l0.19 -1.05c0.03,-0.13 0.05,-0.26 0.08,-0.38 0.09,-0.36 0.19,-0.7 0.23,-1.07 0.01,-0.13 0.04,-0.26 0.06,-0.39l0.13 -1.01c0.02,-0.14 0.03,-0.27 0.03,-0.41l0 -0.13 0.3 0 0 0.13c0,0.8 0.12,1.57 0.18,2.37 0.03,0.41 0.01,0.82 0.06,1.22l0.31 4.81c0.02,0.21 -0.01,0.43 0,0.64l0.09 1.83c-0,0.21 0.04,0.39 0.04,0.59 0.01,0.21 -0.02,0.43 0,0.63 0.04,0.48 0.06,0.71 -0.04,1.19 -0.07,0.35 -0.17,0.69 -0.25,1.04 -0.17,0.68 -0.34,1.35 -0.53,2.03l-0.49 2.07c-0.26,1.03 -0.53,2.05 -0.74,3.09 -0.07,0.35 -0.18,0.68 -0.26,1.02 -0.17,0.7 -0.29,1.4 -0.45,2.1 -0.5,2.14 -0.85,4.31 -1.19,6.48l-0.54 3.3c-0.05,0.37 -0.1,0.75 -0.16,1.12 -0.16,0.92 -0.24,1.84 -0.33,2.77 -0.17,1.79 -0.31,3.59 -0.37,5.38 -0.01,0.2 -0.05,0.38 -0.05,0.59 0,0.83 -0.09,1.65 -0.09,2.48l-0.14 2.96c0,0.84 0.05,1.7 -0.02,2.54 -0.06,0.61 0.03,1.53 0.05,2.16 0.03,0.85 0.06,1.7 0.11,2.56 0.04,0.85 0,1.72 0,2.57 -0,0.82 0.09,1.65 0.09,2.46l0.05 1.23c0.01,0.43 -0.02,0.85 -0,1.28l0.05 1.24c0,0.21 0.04,0.39 0.05,0.59l0 1.92c0,0.41 0.04,0.82 0.04,1.23 0,1.71 0.05,3.41 0.05,5.12l0 6.17c0,1.46 -0.17,2.18 0.09,3.68 0.3,1.8 1.38,4.23 2.41,5.74 0.37,0.54 0.7,1.1 1.13,1.58l0.96 1.09c0.32,0.35 0.65,0.72 1.02,1.01l0.73 0.65c0.08,0.07 0.17,0.13 0.25,0.2 0.9,0.79 1.91,1.45 2.95,2.04l1.19 0.65c0.19,0.12 0.41,0.2 0.61,0.31 2.25,1.21 4.76,2.04 7.19,2.83 1.9,0.62 3.87,1.03 5.81,1.49 0.25,0.06 0.5,0.11 0.75,0.15 0.26,0.04 0.51,0.1 0.77,0.14l3.98 0.59c0.84,0.1 1.69,0.09 2.53,0.21 1,0.15 2.31,0.1 3.34,0.11 0.29,0 0.57,0.05 0.87,0.05l2.36 0 0 1.36c0,0.07 0.02,0.13 0.03,0.19z"/>
   <path class="fil2" d="M117.21 212.59c0.65,-0.01 1.3,-0.08 1.95,-0.09 0.17,0 0.33,-0.04 0.5,-0.05l4.61 -0.32c0.34,-0.02 0.67,-0.08 1,-0.1 0.05,-0 0.1,-0.01 0.16,-0.01l0 0 -0.08 -3.56 -0.07 -8.52 -0.15 -10.47 -0.19 -5.29 -0.12 -0.95 0.15 -5.35 -0.15 -10.81 -0.13 -8.86 -0.21 -8.56 -0.13 -8.84 -0.11 -10.85 -0.1 -6.43 -0.05 -5.01 -0.01 -3.65c0,0 0.01,-3.11 0.01,-4.59 0,-1.49 -0.07,-6.32 -0.09,-7.43 -0.02,-1.1 0.14,-5.58 0.17,-6.93 0.03,-1.35 0.07,-5.24 0.07,-5.24l0.1 -8.64 0.18 -8.33 0.12 -8.35 0.11 -7.2 0.1 -7.81 0.22 -4.67 1.41 -0.04 0.35 -6.65c-0.4,0.18 -2.2,1.51 -3.09,2.11 -0.89,0.6 -1.69,1.33 -1.69,1.33 0,0 -0.38,-0.24 -0.89,-0.57 -0.5,-0.33 -1.05,-0.79 -1.61,-1.23 -0.56,-0.44 -1.76,-1.37 -1.76,-1.37l0 0c1.11,1.12 1.34,3.82 1.34,3.82 -0.36,-0.02 -2.3,-0.36 -3.44,-0.68 -0.2,-0.06 -0.39,-0.11 -0.57,-0.17 0.03,0.33 0.07,0.75 0.08,1.07 0.03,0.6 0.33,4.68 0.4,5.18 0.07,0.49 -0.04,3.93 -0.04,3.93l0.04 6.97 0.16 12.77 0.02 7.57 0 6.63 0.02 4.84 0.08 7.85 -0.08 4.81 0 6.66 -0.05 5.28 0.02 7 -0.04 6.27 0.1 4.44 0.04 3.93 0.1 7.85 0.04 9.6 0.17 10.65 0.14 9.94 0.28 12.75 0.19 6.25 0.19 9.54 0.12 7.04 0.13 0 0 1.36c0,0.07 0.02,0.13 0.03,0.19z"/>
   <path class="fil2" d="M143.11 27.21c-0.19,-0.1 -0.53,-0.62 -0.68,-0.81 -0.41,-0.5 -1.07,-0.96 -1.4,-1.45 -0.81,-1.22 -1.43,-2.2 -2.07,-3.53l-0.43 -0.94c-0.29,-0.67 -0.61,-1.23 -0.95,-1.87 -0.43,-0.8 -1.28,-1.59 -2.01,-2.12 -1.13,-0.82 -2.49,-1.31 -3.83,-1.68 -0.38,-0.1 -0.77,-0.17 -1.15,-0.25l-1.21 -0.2c-0.83,-0.11 -1.69,-0.11 -2.52,-0.17l-1.94 -0.03c-0.22,0.01 -0.44,-0.04 -0.67,-0.04 -1.61,0.01 -3.27,0.07 -4.87,-0.02l-0.62 -0.02c-1.99,0 -3.99,-0.07 -5.98,0.09 -1.63,0.13 -2.71,0.28 -4.31,0.69 -1.5,0.38 -2.93,1.08 -4.13,2.06 -0.08,0.06 -0.17,0.12 -0.24,0.19 -0.82,0.91 -1.34,2.05 -1.79,3.17 -0.47,1.19 -0.91,2.39 -1.56,3.49 -0.1,0.18 -0.19,0.36 -0.28,0.54 -0.1,0.19 -0.22,0.36 -0.32,0.55 -0.29,0.54 -0.72,0.97 -1.03,1.49 -0.12,0.2 -0.28,0.32 -0.45,0.42 0,0 -0.56,0.95 -1.01,1.84 -0.46,0.89 -0.69,1.33 -0.94,2.49 -0.26,1.15 -0.41,2.93 -0.41,4.21 0,1.29 0.11,2.82 0.25,3.87 0.14,1.05 0.65,4.39 0.98,5.98 0.33,1.59 0.8,4.08 0.8,4.08l0.27 0.23c0,0 3.18,-2.35 4.74,-3.6 1.56,-1.25 4.41,-3.78 5.24,-4.59 0.83,-0.82 1.46,-1.68 1.46,-1.68l1.13 -0.39c0,0 0.87,1.13 1.65,1.77 0.78,0.64 1.68,1.09 2.83,1.41 1.15,0.32 3.09,0.66 3.44,0.68 0,0 -0.26,-3.07 -1.57,-4.02 0,0 -1.94,-1.64 -2.8,-2.15 -0.86,-0.51 -2.16,-1.48 -2.8,-1.8 -0.64,-0.32 -1.38,-0.74 -1.38,-0.74 0,0 -1.09,-2.13 -2,-3.19 -0.91,-1.07 -1.23,-1.32 -1.76,-2.06 -0.53,-0.74 -0.84,-1.16 -0.84,-1.16 0,0 -0.52,-0.99 -0.66,-1.22 -0.15,-0.22 -0.41,-0.57 -0.5,-0.89 -0.09,-0.32 -0.31,-1.15 -0.31,-1.15 0,0 6.7,-0.41 9.17,-0.43 2.48,-0.02 6.46,-0.04 7.89,-0.1 1.42,-0.06 4.15,-0.18 7.5,-0.02 3.35,0.16 7.56,0.38 7.56,0.38l0.01 3.14c0,0 -0.76,1.13 -1.05,1.64 -0.29,0.51 -0.73,1.08 -0.78,1.29 -0.06,0.21 -0.24,0.56 -0.24,0.56 0,0 -1.03,1.07 -1.75,1.81 -0.71,0.74 -1.14,1.16 -1.47,1.68 -0.33,0.52 -1.55,1.6 -2.11,2.17 -0.56,0.57 -2.41,2.16 -2.41,2.16l-0.35 6.65c0,0 3.48,-0.61 4.41,-1.12 0.92,-0.5 2.03,-1.74 2.27,-2.3 0.25,-0.56 0.52,-1.06 0.52,-1.06l1.31 0.37c0,0 1.33,1.36 2.6,2.22 1.28,0.86 3.59,2.36 5.01,3.1 1.42,0.74 4.94,2.56 5.19,2.68l-0.1 -6.18c0,0 -0.64,-6.72 -0.78,-7.92 -0.15,-1.19 -0.72,-3.2 -1.31,-4.31 -0.59,-1.11 -1.7,-2.43 -1.94,-2.98 -0.25,-0.55 -0.53,-0.92 -0.53,-0.92z"/>
   <path class="fil2" d="M162.45 132.1l0.22 0.3c0.02,0.02 0.04,0.05 0.04,0.08l0.12 0.33c0.13,0.5 0.3,0.97 0.41,1.48 0.08,0.34 0.15,0.69 0.21,1.03 0.07,0.37 0.1,0.74 0.17,1.11l1.3 6.66c0.15,0.87 0.38,1.72 0.56,2.58l0.87 4.15c0.04,0.18 0.07,0.35 0.11,0.54 0.02,0.08 0.03,0.17 0.06,0.26l1.52 6.25c0.32,1.31 0.83,2.62 1.11,3.92l0.58 1.93c0.5,1.95 1.01,3.92 1.66,5.83l1.28 3.74c0.23,0.64 0.39,1.3 0.57,1.95 0.19,0.67 0.41,1.31 0.54,2l0.35 2.17c0.09,0.71 0.22,1.42 0.38,2.12 0.16,0.68 0.27,1.37 0.46,2.05 0.19,0.67 0.36,1.34 0.51,2.02 0.28,1.28 0.74,2.64 1.1,3.91 0.43,1.48 0.75,2.98 1.17,4.46 0.19,0.67 0.2,0.67 0.84,0.92 1.64,0.66 3.74,0.36 5.47,0.32 0.79,-0.02 1.75,-0.2 2.54,-0.33 0.77,-0.13 1.59,-0.27 2.35,-0.46 0.72,-0.18 1.39,-0.43 2.05,-0.75 0.22,-0.11 0.36,-0.22 0.54,-0.38 0.78,-0.65 0.57,-2.22 0.57,-3.12 0,-1.23 0.09,-2.46 0.09,-3.7 0,-0.64 -0.01,-1.28 0,-1.92 0,-0.31 0.08,-0.56 0.04,-0.88 -0.04,-0.26 -0.03,-0.58 -0,-0.83l0.06 -3.72c0,-0.82 -0.18,-4.78 0.07,-5.21 0.05,-0.08 0.16,-0.21 0.23,-0.28 0.13,-0.14 0.17,-0.24 0.23,-0.42 0.15,-0.46 0.25,-0.87 0.32,-1.35 0.08,-0.55 0.15,-1.1 0.21,-1.66 0.09,-0.83 0.28,-1.64 0.36,-2.47 0.08,-0.93 0.17,-1.75 0.17,-2.69 0,-0.31 0.05,-0.61 0.05,-0.91 0,-1.45 0.16,-2.94 -0.03,-4.38 -0.06,-0.42 -0.09,-0.72 -0.18,-1.13 -0.16,-0.72 -0.18,-1.54 -0.33,-2.28l-0.46 -2.14c-0.22,-1.05 -0.54,-2.07 -0.81,-3.11l-1.27 -3.93c-0.13,-0.33 -0.21,-0.68 -0.31,-1.03 -0.38,-1.34 -0.53,-1.53 -0.54,-2.98 0,-0.28 0.05,-0.55 0.05,-0.82 -0,-0.81 0,-1.63 -0.11,-2.43l-0.25 -2.27c-0.11,-1.02 -0.19,-2.04 -0.28,-3.06l-0.76 -8.56c-0.18,-1.26 -0.2,-2.53 -0.4,-3.79 -0.12,-0.74 -0.25,-1.48 -0.3,-2.22l-0.19 -1.51c-0.11,-0.72 -0.15,-1.47 -0.32,-2.18 -0.35,-1.43 -0.49,-2.9 -0.69,-4.35l-0.24 -1.48c-0.22,-0.97 -0.33,-1.96 -0.53,-2.94 -0.29,-1.43 -0.49,-2.88 -0.76,-4.32 -0.18,-0.97 -0.3,-1.95 -0.5,-2.92 -0.23,-1.14 -0.58,-2.65 -0.57,-3.8 0,-0.13 -0.01,-0.24 -0.03,-0.37 -0.02,-0.13 -0.05,-0.23 0.05,-0.32 0.01,-0.02 0.02,-0.06 0.02,-0.07l0.04 -0.15 0.14 0.07c0.62,0.33 0.81,-0.21 1.12,-0.65 0.13,-0.19 0.61,-0.83 0.67,-0.99 -0,-0.11 -0.11,-0.29 -0.23,-0.31 -0.32,-0.07 -0.32,-0.03 -0.68,-0.18 -0.26,-0.11 -0.91,0.17 -1.25,0.17l-0.13 0 0 -0.12c0,-0.53 -0.13,-1.06 -0.19,-1.57l-0.39 -2.73c-0.03,-0.26 -0.15,-1.17 -0.23,-1.35l-0.07 -0.14 0.15 -0.04c0.19,-0.04 0.33,-0.13 0.44,-0.3 0.07,-0.11 0.1,-0.16 0.19,-0.26l0.19 -0.2 -0.04 -1.41c0,-0.18 -0.05,-0.33 -0.05,-0.5l0 -0.16 0.15 0.04c0.24,0.06 0.28,0.04 0.5,-0.06 0.05,-0.02 0.09,-0.04 0.14,-0.05 0.02,-0.03 0.04,-0.07 0.05,-0.1 0.12,-0.24 0.13,-0.42 0.18,-0.68l0.07 -0.83c0,-0.29 0.05,-0.57 0.05,-0.86 0,-0.41 -0.03,-0.82 -0.04,-1.23l-0.07 -1.2c-0.11,-0.76 -0.08,-1.53 -0.17,-2.29 -0.05,-0.38 -0.07,-0.77 -0.12,-1.15 -0.07,-0.49 -0.09,-1.12 -0.31,-1.56 -0.21,-0.42 -0.17,-0.89 -0.76,-0.89 -0.15,0 -0.18,0.08 -0.3,0.16l-0.2 0.13 0 -0.24c0,-0.28 -0.05,-0.54 -0.05,-0.82 0,-0.19 0.05,-0.65 -0.03,-0.81l-0.12 -0.24 0.26 0.07c0.49,0.13 0.74,0.56 1,0.96l0.66 1.22c0.26,0.52 0.14,0.69 0.73,0.69 0.31,0 0.17,-0.84 0.04,-0.98l-0.09 -0.11c-0.03,-0.05 -0.04,-0.09 -0.07,-0.13l-0.75 -1.35c-0.15,-0.22 -0.24,-0.46 -0.44,-0.65 -0.28,-0.27 -0.26,-0.26 -0.62,-0.42 -0.16,-0.07 -0.3,-0.08 -0.47,-0.04l-0.15 0.04 0 -0.16c0,-0.56 0.05,-1.28 -0.07,-1.82 -0.03,-0.13 -0.09,-0.2 -0.12,-0.32 -0.02,-0.08 -0.02,-0.12 -0.02,-0.19 -0.02,-0.01 -0.04,-0.03 -0.05,-0.04 -0.01,-0.01 -0.04,-0.03 -0.06,-0.04 -0.09,0.02 -0.16,-0.05 -0.23,-0.11 -0.2,-0.18 -0.36,-0.14 -0.61,-0.14l-0.13 0 0 -0.13c0,-0.98 -0.18,-2.19 -0.29,-3.18 -0.12,-1.05 -0.25,-2.1 -0.36,-3.15 -0.15,-1.39 -0.44,-2.97 -0.78,-4.32 -0.28,-1.12 -0.56,-2.25 -0.93,-3.35 -0.07,-0.22 -0.14,-0.43 -0.22,-0.65 -0.54,-1.65 -1.29,-3.22 -2.06,-4.76l-0.6 -1.09c-0.06,-0.1 -0.11,-0.17 -0.08,-0.29 0,-0.01 -0,-0.03 -0.01,-0.05l-0.04 -0.07c-0.08,-0.13 -0.2,-0.2 -0.3,-0.31 -0.12,-0.12 -0.13,-0.19 -0.11,-0.31 -0.03,-0.02 -0.05,-0.03 -0.07,-0.04 -0.65,0.62 -1.65,3.05 -3.05,6.27 -1.4,3.22 -3.37,7.04 -4.17,8.64 -0.8,1.6 -2.28,4.8 -2.28,4.8 0,0 -0.32,2.59 -0.57,3.86 -0.25,1.27 -1.52,2.93 -1.79,3.47 -0.28,0.55 -0.17,1.32 -0.26,2.11 -0.09,0.8 -0.2,1.2 -0.5,1.82 -0.3,0.61 -0.18,1.5 -0.32,2.43 -0.13,0.93 -0.42,2.67 -0.98,4.03 -0.56,1.37 -1.8,2.98 -1.8,2.98 0,0 0.3,2.21 0.33,3.06 0.03,0.85 0.28,1.82 0.37,3.43 0.09,1.61 0.46,7.04 0.46,8.51 0,1.47 0.33,6.38 0.35,8.31 0.02,1.93 -0.32,6.13 -0.3,7.94 0.03,1.81 0.2,4.58 0.3,5.63 0.1,1.06 0.34,4.09 0.41,5.13 0.07,1.05 0.41,3.7 0.41,3.7zm-97.41 -85.96c-0,0.02 -0.01,0.04 -0.02,0.04 0.03,0.03 0,0.1 -0.02,0.17 -0.02,0.06 -0.06,0.13 -0.11,0.19 -0.09,0.11 -0.29,0.23 -0.31,0.38 -0.03,0.2 0,0.12 -0.1,0.31 -0.46,0.83 -0.88,1.69 -1.28,2.55 -0.17,0.37 -0.37,0.74 -0.53,1.11 -0.72,1.6 -1.26,3.3 -1.69,5l-0.35 1.34c-0.39,1.96 -0.65,3.82 -0.88,5.81 -0.03,0.23 -0.1,0.46 -0.15,0.69 -0.11,0.49 -0.08,1.01 -0.18,1.51 -0.06,0.26 -0.12,0.45 -0.12,0.72l0 0.16 -0.15 -0.04c-0.24,-0.06 -0.25,0.04 -0.46,0.1 -0.35,0.11 -0.25,-0 -0.46,0.43 -0.24,0.5 -0.32,0.55 -0.47,1.14 -0.06,0.25 -0.19,0.62 -0.2,0.87l0 0.12 -0.12 0c-0.14,0 -0.28,-0.04 -0.41,-0.02l-0.36 0.07c-0.33,0.15 -0.76,0.42 -0.93,0.76 -0.04,0.09 -0.05,0.11 -0.11,0.19 -0.15,0.22 -0.26,0.46 -0.39,0.69l-0.37 0.68c-0.12,0.24 -0.47,0.68 -0.28,0.95 0.05,0.06 0.15,0.19 0.23,0.2 0.17,0.05 0.82,0.01 1.05,0.01l0.2 0 -0.09 0.18c-0.25,0.52 -0.39,3.02 -0.45,3.75l-0.17 1.26c-0.11,0.85 -0.14,1.72 -0.26,2.57 -0.05,0.35 0,0.95 0.02,1.32 0.01,0.14 0.04,0.41 0.12,0.54 0.13,0.21 0.38,0.22 0.6,0.17l0.25 -0.06 -0.11 0.24c-0.12,0.24 -0.06,1.26 0.03,1.52 0.04,0.1 0.16,0.39 0.16,0.48 0,0.06 -0,0.1 -0.03,0.15 0.01,0.03 0.03,0.07 0.04,0.09 0.08,0.17 0.21,0.24 0.39,0.29 0.14,0.04 0.13,-0 0.28,-0.02l0.17 -0.01 -0.04 0.17c-0.06,0.26 -0.16,0.52 -0.25,0.77 -0.18,0.52 -0.27,1.06 -0.4,1.6 -0.2,0.83 -0.41,1.64 -0.58,2.47 -0.11,0.57 -0.27,1.14 -0.32,1.72l-0.02 0.19 -0.17 -0.09c-0.18,-0.09 -0.43,-0.07 -0.63,-0.07 -0.22,0.01 -1.66,0.9 -1.93,1.08 -0.63,0.43 -0.49,0.39 -0.11,1.06 0.18,0.31 0.52,0.52 0.78,0.76 0.05,0.04 0.08,0.09 0.13,0.13 0.04,0.02 0.14,0.02 0.18,0.03 0.31,0.05 0.64,0.12 0.96,0.12l0.08 0 0.03 0.07c0.08,0.16 0.15,0.23 0.15,0.43l-0.5 5.12c-0.01,0.2 -0.04,0.43 -0.06,0.63 -0.1,0.67 -0.04,1.34 -0.15,2 -0.03,0.21 -0.01,0.43 -0.04,0.64l-0.22 1.93c-0.06,0.41 -0.08,0.83 -0.12,1.24 -0.04,0.42 -0.11,0.84 -0.17,1.26 -0.21,1.67 -0.43,3.33 -0.57,5.01l-0.33 2.5c-0.06,0.4 -0.1,0.81 -0.18,1.2l-0.49 3.76c-0.14,1.24 -0.43,2.5 -0.5,3.74 -0.06,0.83 -0.21,1.65 -0.32,2.48l-1.48 11.04c-0.11,0.81 -0.31,1.59 -0.45,2.39 -0.07,0.39 -0.16,0.79 -0.24,1.18l-0.23 1.19c-0.25,1.32 -0.64,2.81 -0.74,4.13 -0.02,0.24 -0.05,0.41 -0.1,0.65 -0.2,0.98 -0.25,1.48 -0.14,2.48 0.11,1.01 -0.06,1.54 -0.3,2.48 -0.19,0.76 -0.37,1.52 -0.57,2.27 -0.1,0.37 -0.18,0.74 -0.27,1.1 -0.25,1.06 -0.41,1.89 -0.51,2.98 -0.03,0.35 -0.22,0.76 -0.22,1.1 -0,0.2 0.08,0.41 0.09,0.63l-0 1.24c0,0.22 0.05,0.42 0.05,0.63l0.09 2.06c0.04,0.45 0,0.9 0.06,1.35 0.06,0.4 0.05,0.81 0.09,1.21 0.05,0.39 0.09,0.8 0.16,1.19 0.04,0.2 0.06,0.4 0.09,0.6 0.04,0.22 0.04,0.45 0.06,0.68l0.08 1.34c0.02,0.6 0.3,1.73 0.47,2.33 0.09,0.33 0.3,0.54 0.57,0.72l0.06 0.04 0 0.07c0,0.64 -0.09,1.28 -0.09,1.92 0,0.67 -0.05,1.34 -0.05,2.01 0,0.67 -0.02,1.35 -0.02,2.03 -0.01,0.55 -0.05,1.27 0.01,1.81l0.06 10.19c-0,0.9 0.3,1.38 1.06,1.82l0.71 0.33c1.02,0.41 2.19,0.64 3.28,0.8 0.6,0.08 1.2,0.16 1.81,0.24 0.78,0.11 1.56,0.18 2.35,0.2 0.55,0.02 1.08,0.09 1.64,0.09 0.52,0 1.04,-0.06 1.55,-0.16 0.3,-0.06 1.74,-0.41 1.88,-0.63 0.07,-0.11 0.16,-0.52 0.2,-0.67 0.13,-0.46 0.24,-0.94 0.38,-1.4 0.41,-1.4 0.69,-2.84 1.09,-4.25 0.14,-0.47 0.23,-0.95 0.37,-1.42 0.13,-0.45 0.24,-0.91 0.36,-1.37 0.35,-1.39 0.81,-2.75 1.22,-4.13 0.28,-0.95 0.44,-1.94 0.64,-2.91 0.29,-1.44 0.56,-2.89 1.02,-4.3l0.98 -3c0.05,-0.12 0.06,-0.23 0.1,-0.35l0.42 -1.36c0.04,-0.11 0.08,-0.22 0.11,-0.34 0.04,-0.12 0.06,-0.25 0.09,-0.37 0.28,-0.88 0.66,-1.73 0.96,-2.61l2.03 -6.83c0.3,-0.8 0.7,-2.06 0.85,-2.89l0.28 -1.06c0.14,-0.38 0.17,-0.8 0.28,-1.19l0.26 -1c0.02,-0.07 0.02,-0.13 0.03,-0.19 0.12,-0.69 0.38,-1.37 0.49,-2.07 0.02,-0.15 0.06,-0.23 0.1,-0.37 0.01,-0.06 0.01,-0.09 0.02,-0.15 0.01,-0.07 0.02,-0.09 0.04,-0.16l0.42 -1.81c0.03,-0.13 0.03,-0.23 0.07,-0.36 0.04,-0.11 0.05,-0.19 0.07,-0.31 0,-0.01 0,-0.02 0.01,-0.04l0.4 -1.82c0.17,-0.46 0.46,-1.87 0.51,-2.37l0.28 -1.41c0.01,-0.04 0.02,-0.07 0.03,-0.1l0.38 -2.02c0,-0.01 0,-0.03 0.01,-0.04 0.07,-0.3 0.1,-0.6 0.2,-0.89l0.21 -0.88c0.03,-0.13 0.05,-0.25 0.08,-0.38 0.03,-0.13 0.05,-0.25 0.07,-0.38l0.15 -0.71c0.06,-0.24 0.14,-0.48 0.19,-0.72 0.1,-0.5 0.2,-1 0.27,-1.5 0.04,-0.28 -0.01,-0.57 0.02,-0.85l0.22 -2.01c0.01,-0.16 0.05,-0.25 0.08,-0.39 0.02,-0.12 0.04,-0.24 0.06,-0.36 0.09,-0.56 0.07,-1.13 0.28,-1.67 0.09,-0.22 0.16,-0.45 0.22,-0.68 0.04,-0.12 0.07,-0.2 0.11,-0.31 0.02,-0.06 0.04,-0.1 0.06,-0.16 0.09,-0.28 0.26,-0.52 0.36,-0.79 0.1,-0.29 0.12,-0.53 0.25,-0.85l0.07 -0.3c0.08,-0.16 0.07,-0.35 0.09,-0.52 0.1,-0.62 0.24,-1.22 0.46,-1.81 0.09,-0.24 0.11,-0.49 0.17,-0.73 0.25,-1.01 0.33,-2.01 0.54,-3.02l0.15 -1.12c0.02,-0.13 0.06,-0.25 0.08,-0.38 0.06,-0.54 0.14,-1.09 0.14,-1.63l0.07 -1.63c0.08,-0.76 0.22,-1.53 0.4,-2.28 0.06,-0.24 0.13,-0.48 0.17,-0.73l0.19 -1.05c0.03,-0.13 0.05,-0.26 0.08,-0.38 0.09,-0.36 0.19,-0.7 0.23,-1.07 0.01,-0.13 0.04,-0.26 0.06,-0.39l0.13 -1.01c0.02,-0.14 0.03,-0.27 0.03,-0.41l0 -0.13 0.15 0c0,0 -0.17,-1.57 -0.19,-2.43 -0.02,-0.86 -0.52,-3.71 -0.73,-4.52 -0.21,-0.81 -0.59,-3.15 -0.59,-3.15 0,0 -0.59,-2.04 -0.77,-2.91 -0.17,-0.87 -0.29,-1.63 -0.33,-2.59 -0.04,-0.96 0.03,-2.17 0.06,-2.71 0.04,-0.54 0.13,-1.23 0.17,-2.13 0.04,-0.9 0.12,-1.98 0.12,-1.98 0,0 -1.15,-2.67 -2.01,-4.74 -0.85,-2.07 -0.72,-2.59 -0.72,-2.59 0,0 -1.7,-1.87 -2.72,-3.28 -1.02,-1.41 -1.33,-3.44 -1.47,-4.41 -0.14,-0.97 -0.69,-2.14 -1.13,-4.19 -0.44,-2.05 -0.43,-1.57 -0.95,-2.58 -0.53,-1.01 -0.84,-1.67 -1.09,-2.74 -0.24,-1.07 -0.2,-3 -0.2,-3 0,0 -0.3,-0.75 -0.57,-1.19 -0.27,-0.44 -0.57,-1.1 -0.83,-1.77 -0.26,-0.67 -1.19,-2.68 -1.64,-3.85 -0.45,-1.17 -0.86,-2.23 -1.23,-3.2 -0.37,-0.98 -0.74,-1.5 -0.74,-1.5z"/>
   <path class="fil1" d="M173.7 175.92c0.02,0.1 0.04,0.2 0.06,0.3l0.35 2.17c0.09,0.71 0.22,1.42 0.38,2.12 0.16,0.68 0.27,1.37 0.46,2.05 0.19,0.67 0.36,1.34 0.51,2.02 0.28,1.28 0.74,2.64 1.1,3.91 0.43,1.48 0.75,2.98 1.17,4.46 0.19,0.67 0.2,0.67 0.84,0.92 1.64,0.66 3.74,0.36 5.47,0.32 0.79,-0.02 1.75,-0.2 2.54,-0.33 0.77,-0.13 1.59,-0.27 2.35,-0.46 0.72,-0.18 1.39,-0.43 2.05,-0.75 0.22,-0.11 0.36,-0.22 0.54,-0.38 0.78,-0.65 0.57,-2.22 0.57,-3.12 0,-1.23 0.09,-2.46 0.09,-3.7 0,-0.64 -0.01,-1.28 0,-1.92 0,-0.31 0.08,-0.56 0.04,-0.88 -0.04,-0.26 -0.03,-0.58 -0,-0.83l0.06 -3.72c0,-0.77 -0.16,-4.24 0.02,-5.07l0 0c0,0 -0.31,0.22 -0.94,0.51 -0.63,0.28 -0.79,0.57 -1.27,0.92 -0.48,0.35 -0.95,0.46 -1.78,0.46 -0.83,0 -2.21,0.37 -4.7,0.84 -2.5,0.47 -5.03,0.57 -6.48,0.35 -1.44,-0.22 -3.43,-0.17 -3.43,-0.17zm-125.83 -2.26c0,0 1.08,0.36 1.66,0.87 0.58,0.51 0.9,0.8 2.26,1.07 1.36,0.26 4.25,0.82 5.7,0.95 1.45,0.13 4.89,0.28 6.08,0.29 1.19,0.01 2.6,0.04 3.02,-0.06 -0.09,0.47 -0.19,0.94 -0.28,1.41 -0.19,0.97 -0.36,1.96 -0.64,2.91 -0.41,1.38 -0.87,2.74 -1.22,4.13 -0.12,0.46 -0.22,0.92 -0.36,1.37 -0.14,0.47 -0.23,0.95 -0.37,1.42 -0.41,1.41 -0.69,2.85 -1.09,4.25 -0.14,0.46 -0.25,0.94 -0.38,1.4 -0.04,0.15 -0.13,0.56 -0.2,0.67 -0.14,0.23 -1.58,0.57 -1.88,0.63 -0.51,0.11 -1.03,0.16 -1.55,0.16 -0.56,0 -1.09,-0.08 -1.64,-0.09 -0.79,-0.02 -1.56,-0.09 -2.35,-0.2 -0.6,-0.08 -1.2,-0.16 -1.81,-0.24 -1.09,-0.15 -2.26,-0.39 -3.28,-0.8l-0.71 -0.33c-0.76,-0.44 -1.06,-0.92 -1.06,-1.82l-0.06 -10.19c-0.06,-0.54 -0.02,-1.26 -0.01,-1.81 0,-0.68 0.02,-1.36 0.02,-2.03 0,-0.67 0.05,-1.34 0.05,-2.01 -0,-0.64 0.09,-1.28 0.09,-1.92l0 -0.04z"/>
   <path class="fil3" d="M120.6 47.39c0.76,0 1.37,0.6 1.37,1.34 0,0.74 -0.61,1.34 -1.37,1.34 -0.76,0 -1.37,-0.6 -1.37,-1.34 0,-0.74 0.61,-1.34 1.37,-1.34zm-0.34 26.52c0.76,0 1.36,0.61 1.36,1.37 0,0.76 -0.61,1.37 -1.36,1.37 -0.75,0 -1.36,-0.61 -1.36,-1.37 0,-0.76 0.61,-1.37 1.36,-1.37zm-0.43 27.69c0.72,0 1.31,0.6 1.31,1.33 0,0.74 -0.59,1.33 -1.31,1.33 -0.72,0 -1.31,-0.59 -1.31,-1.33 0,-0.74 0.59,-1.33 1.31,-1.33zm-0.07 27.76c0.75,0 1.35,0.61 1.35,1.36 0,0.75 -0.6,1.36 -1.35,1.36 -0.74,0 -1.35,-0.61 -1.35,-1.36 0,-0.76 0.6,-1.36 1.35,-1.36zm0.58 27.71c0.75,0 1.35,0.63 1.35,1.4 0,0.77 -0.61,1.4 -1.35,1.4 -0.75,0 -1.35,-0.63 -1.35,-1.4 0,-0.77 0.61,-1.4 1.35,-1.4zm0.2 26.95c0.76,0 1.37,0.62 1.37,1.38 0,0.76 -0.61,1.38 -1.37,1.38 -0.76,0 -1.37,-0.61 -1.37,-1.38 0,-0.76 0.61,-1.38 1.37,-1.38z"/>
   <path class="fil2" d="M80.43 63.97c0,0 3.07,-0.1 4.69,-0.19 1.61,-0.08 4.89,-0.16 6.07,-0.23 1.18,-0.07 6,-0.13 8.11,-0.21 2.11,-0.08 4.1,-0.16 6.15,-0.25 2.06,-0.09 5.17,-0.22 5.94,-0.23 0.77,-0.01 1.02,-0.01 1.02,-0.01 0,0 0,1.41 -0.05,2.04 -0.05,0.63 -0.15,4.18 -0.15,4.18l-0.02 6.66 0.1 8.48 0.13 7.11 0.25 3.86 0.15 3.39 0.04 0.59c0,0 -2.54,0.22 -3.84,0.24 -1.3,0.02 -6,0.09 -7.56,0.13 -1.56,0.03 -8.86,0.37 -8.86,0.37l-7.26 0.29 -2.83 0.15c0,0 -0.16,-3.19 -0.21,-4.46 -0.05,-1.27 -0.19,-4.53 -0.21,-4.96 -0.02,-0.44 -0.19,-2.49 -0.22,-3.25 -0.04,-0.76 -0.42,-4.46 -0.42,-4.46l-0.24 -3.65c0,0 -0.1,-3.05 -0.22,-4.18 -0.11,-1.13 -0.24,-2.73 -0.24,-2.73 0,0 -0.14,-3.33 -0.17,-4.18 -0.04,-0.85 -0.16,-4.5 -0.16,-4.5z"/>
   <path class="fil1" d="M86.59 69.57l19.5 -0.98 0.28 0.07 0.06 25.74c-6.36,0.27 -12.72,0.54 -19.09,0.81 -0.09,-0.94 -0.1,-1.9 0,-2.89l-0.52 -15.3c-0,-0.11 -0.36,0.09 -0.37,-0.02 -0.39,-3.45 -0.17,-6.73 0.14,-7.44z"/>
   <path class="fil1" d="M108.2 94.77l2.18 -0.05c0,0 -0.01,-5.2 -0.07,-6.59 -0.06,-1.39 -0.07,-9.17 -0.06,-10.86 0.02,-1.69 0.09,-10.31 0.09,-10.31l0.03 -1.05 -2.48 0.02 -0.01 6.63 -0.02 9.53 0.13 7.6c0,0 0.07,4.56 0.2,5.08z"/>
   <path class="fil2" d="M128.02 63.09l15.35 0.87 13.77 0.65 2.56 0.14c0,0 -0.12,2.85 -0.14,4.63 -0.02,1.78 0.03,3.42 -0.11,6.17 -0.14,2.75 -0.19,4.89 -0.52,6.64 -0.33,1.76 -0.39,1.85 -0.51,3.28 -0.12,1.43 -0.37,3.16 -0.5,4 -0.13,0.84 -0.77,3.75 -0.77,3.75 0,0 0.35,0.43 0.32,1.86 -0.03,1.43 0.2,5.22 0.2,5.22 0,0 -0.94,0.11 -1.92,0.09 -0.98,-0.01 -5.15,-0.21 -5.15,-0.21l-5.13 -0.17 -2.46 -0.08 -3.39 -0.07 -5.08 -0.1 -3.89 -0.03 -2.83 -0.22 -0.56 -0.08 0.28 -3.6 0.22 -3.86 0.2 -8.37 0.11 -6.09 0.11 -4.51 -0.01 -3.01 -0.17 -4.74c0,0 -0.17,-2.17 -0,-2.18z"/>
   <path class="fil1" d="M134.49 68.86c0,0 9.05,0.61 12.61,0.77 3.56,0.15 7.09,0.41 7.09,0.41 0,0 0.33,1.09 0.37,3.41 0.04,2.32 0.08,3.54 0.08,3.54l-0.47 0.07 -0.2 5.7 -0.35 4.54c0,0 -0.31,4.01 -0.4,5.43 -0.09,1.42 -0.11,2.82 -0.11,2.82 0,0 -2.19,-0.01 -3.19,-0.09 -1,-0.08 -3.57,-0.22 -4.39,-0.24 -0.82,-0.02 -4,-0.11 -5.29,-0.18 -1.28,-0.06 -3.02,-0.11 -3.76,-0.11 -0.74,0 -2.46,-0.15 -2.46,-0.15l0.04 -2.07 0.21 -6.67 0.18 -4.63 0.06 -4.63 -0.04 -5.85 0.03 -2.06z"/>
   <polygon class="fil1" points="130.18,66.28 132.79,66.31 132.49,73.24 132.29,84.34 132.15,95.38 129.8,95.31 129.88,91.16 130.03,84.44 130.1,74.13 "/>
  </g>
  <path class="fil4" d="M132.39 56.68l1.41 0.13c0.02,0.06 0.04,0.1 0.07,0.12 0.07,0.05 0.19,0.07 0.35,0.08 0.24,0.01 0.37,-0.04 0.4,-0.14 0.02,-0.05 0,-0.08 -0.05,-0.1 -0.03,-0.01 -0.28,-0.06 -0.74,-0.15 -0.43,-0.08 -0.7,-0.15 -0.84,-0.22 -0.28,-0.14 -0.37,-0.37 -0.28,-0.67 0.07,-0.21 0.19,-0.38 0.38,-0.52 0.2,-0.15 0.47,-0.24 0.81,-0.28 0.2,-0.02 0.45,-0.03 0.76,-0.02 0.73,0.03 1.22,0.15 1.45,0.35 0.13,0.1 0.2,0.23 0.21,0.37 0.01,0.06 0.01,0.13 0,0.23l-1.5 -0.11c-0.04,-0.08 -0.17,-0.13 -0.36,-0.13 -0.13,-0 -0.23,0 -0.28,0.02 -0.05,0.02 -0.08,0.05 -0.09,0.09 -0.01,0.03 -0.01,0.06 0.01,0.08 0.03,0.04 0.15,0.06 0.35,0.08 0.43,0.04 0.78,0.1 1.05,0.18 0.28,0.07 0.46,0.17 0.55,0.29 0.1,0.14 0.12,0.31 0.06,0.52 -0.09,0.3 -0.31,0.52 -0.65,0.65 -0.23,0.09 -0.46,0.14 -0.7,0.16 -0.22,0.02 -0.46,0.02 -0.7,0.01 -0.75,-0.03 -1.24,-0.15 -1.48,-0.35 -0.13,-0.12 -0.2,-0.26 -0.21,-0.41 -0,-0.06 0.01,-0.15 0.03,-0.26zm3.41 0.98l1.07 -3.4 1.18 0.05 -1.06 3.4 -1.18 -0.05zm5.31 -0.53c-0.1,0.17 -0.21,0.29 -0.32,0.38 -0.37,0.3 -0.95,0.43 -1.74,0.39 -0.7,-0.03 -1.19,-0.15 -1.46,-0.37 -0.14,-0.11 -0.23,-0.28 -0.26,-0.48 -0.03,-0.2 -0,-0.42 0.07,-0.65 0.09,-0.3 0.24,-0.55 0.45,-0.75 0.23,-0.22 0.56,-0.37 1,-0.46 0.3,-0.06 0.61,-0.08 0.93,-0.07 0.48,0.02 0.85,0.11 1.13,0.28 0.24,0.14 0.38,0.34 0.41,0.6 0.02,0.19 -0.03,0.49 -0.15,0.9l-2.59 -0.11c0,0.15 0.04,0.25 0.12,0.3 0.11,0.07 0.27,0.11 0.5,0.13 0.14,0 0.26,-0.01 0.35,-0.04 0.06,-0.02 0.13,-0.06 0.2,-0.12l1.35 0.06zm-2.31 -0.98l1.3 0.06c0,-0.24 -0.18,-0.37 -0.53,-0.38 -0.17,-0.01 -0.33,0.02 -0.47,0.07 -0.12,0.05 -0.22,0.13 -0.3,0.25zm6.08 1.13c-0.1,0.17 -0.2,0.29 -0.31,0.38 -0.37,0.3 -0.95,0.43 -1.74,0.39 -0.7,-0.03 -1.19,-0.15 -1.46,-0.37 -0.15,-0.11 -0.23,-0.28 -0.26,-0.48 -0.03,-0.2 -0.01,-0.42 0.06,-0.65 0.09,-0.3 0.25,-0.55 0.46,-0.75 0.23,-0.22 0.56,-0.37 1,-0.46 0.3,-0.06 0.61,-0.08 0.93,-0.07 0.47,0.02 0.85,0.11 1.13,0.28 0.24,0.14 0.38,0.34 0.41,0.6 0.02,0.19 -0.03,0.49 -0.15,0.9l-2.58 -0.11c0,0.15 0.04,0.24 0.12,0.3 0.11,0.07 0.28,0.11 0.5,0.13 0.14,0 0.26,-0.01 0.35,-0.04 0.06,-0.02 0.13,-0.06 0.2,-0.12l1.35 0.06zm-2.31 -0.98l1.3 0.06c-0,-0.24 -0.18,-0.37 -0.53,-0.38 -0.17,-0.01 -0.33,0.02 -0.46,0.07 -0.12,0.05 -0.22,0.13 -0.31,0.25zm2.87 -0.83l1.18 0.05 -0.07 0.24c0.19,-0.11 0.36,-0.18 0.5,-0.21 0.2,-0.05 0.43,-0.06 0.68,-0.06 0.45,0.02 0.79,0.13 1.01,0.34 0.28,0.26 0.34,0.62 0.2,1.07 -0.09,0.28 -0.24,0.52 -0.44,0.74 -0.38,0.39 -0.93,0.57 -1.63,0.54 -0.25,-0.01 -0.47,-0.05 -0.65,-0.11 -0.11,-0.04 -0.22,-0.11 -0.33,-0.19l-0.3 0.94 -1.18 -0.05 1.03 -3.29zm1.63 0.83c-0.2,-0.01 -0.37,0.02 -0.52,0.09 -0.16,0.08 -0.27,0.21 -0.33,0.39 -0.11,0.35 0.07,0.54 0.53,0.56 0.47,0.02 0.76,-0.15 0.86,-0.49 0.11,-0.35 -0.07,-0.54 -0.54,-0.56z"/>
  <path class="fil4" d="M133.82 61.2l-0.46 -2.61 1.31 0.06 0.21 1.27 0.96 -1.22 1.31 0.05 0.18 1.27 0.96 -1.22 1.21 0.05 -1.99 2.5 -1.22 -0.05 -0.21 -1.33 -1.07 1.28 -1.19 -0.05zm5.19 -1.59c0.09,-0.17 0.19,-0.3 0.28,-0.39 0.22,-0.2 0.54,-0.33 0.95,-0.39 0.23,-0.03 0.5,-0.04 0.82,-0.03 0.84,0.04 1.35,0.17 1.53,0.4 0.06,0.09 0.1,0.18 0.1,0.29 0,0.11 -0.03,0.28 -0.1,0.5l-0.31 0.99c-0.04,0.15 -0.07,0.26 -0.09,0.33 -0.01,0.07 -0.01,0.15 0.02,0.24l-1.24 -0.05 0.05 -0.23c-0.19,0.08 -0.35,0.14 -0.5,0.17 -0.26,0.06 -0.54,0.08 -0.85,0.07 -0.41,-0.02 -0.72,-0.09 -0.95,-0.24 -0.11,-0.07 -0.19,-0.16 -0.24,-0.28 -0.05,-0.13 -0.05,-0.27 0,-0.43 0.09,-0.29 0.31,-0.48 0.65,-0.59 0.42,-0.13 1,-0.18 1.74,-0.17 0.3,0 0.48,-0.01 0.53,-0.03 0.03,-0.02 0.04,-0.04 0.06,-0.07 0.02,-0.06 -0.01,-0.11 -0.09,-0.15 -0.11,-0.06 -0.26,-0.09 -0.45,-0.1 -0.15,-0 -0.28,0 -0.4,0.03 -0.08,0.02 -0.15,0.06 -0.21,0.12l-1.31 0zm2.28 0.74l-0.04 0c-0.09,0.01 -0.24,0.01 -0.45,0.01 -0.3,-0 -0.49,-0 -0.57,0 -0.17,0.02 -0.27,0.08 -0.31,0.2 -0.04,0.14 0.09,0.22 0.41,0.23 0.39,0.02 0.65,-0.03 0.78,-0.13 0.07,-0.05 0.12,-0.14 0.16,-0.26l0.02 -0.06zm0.94 1.21l1.07 -3.4 1.18 0.05 -1.06 3.4 -1.18 -0.05zm1.3 0.06l1.06 -3.4 1.18 0.05 -0.51 1.63 1.1 -0.75 1.6 0.07 -1.34 0.85 0.63 1.7 -1.48 -0.06 -0.32 -1.01 -0.57 0.37 -0.19 0.59 -1.18 -0.05zm7.4 -0.45c-0.1,0.17 -0.21,0.3 -0.32,0.38 -0.37,0.3 -0.94,0.43 -1.74,0.4 -0.7,-0.03 -1.19,-0.15 -1.46,-0.37 -0.14,-0.11 -0.23,-0.27 -0.26,-0.48 -0.03,-0.2 -0.01,-0.42 0.06,-0.65 0.09,-0.3 0.24,-0.54 0.45,-0.75 0.23,-0.22 0.56,-0.37 1,-0.46 0.3,-0.06 0.61,-0.08 0.93,-0.07 0.47,0.02 0.85,0.11 1.13,0.28 0.25,0.15 0.38,0.35 0.41,0.61 0.02,0.19 -0.03,0.49 -0.15,0.9l-2.58 -0.11c0,0.14 0.04,0.24 0.12,0.3 0.11,0.07 0.27,0.11 0.5,0.12 0.14,0.01 0.26,-0 0.35,-0.04 0.06,-0.02 0.13,-0.06 0.2,-0.12l1.35 0.06zm-2.31 -0.97l1.3 0.06c0,-0.24 -0.18,-0.37 -0.53,-0.38 -0.17,-0.01 -0.33,0.02 -0.47,0.07 -0.12,0.05 -0.22,0.13 -0.3,0.26zm2.07 1.72l0.8 -2.56 1.18 0.05 -0.08 0.24c0.36,-0.19 0.71,-0.28 1.06,-0.27 0.3,0.01 0.51,0.08 0.63,0.2 0.13,0.13 0.16,0.37 0.08,0.71 -0.02,0.09 -0.06,0.22 -0.11,0.39l-1.19 -0.05c0.04,-0.15 0.04,-0.26 0.01,-0.31 -0.04,-0.07 -0.12,-0.11 -0.24,-0.12 -0.15,-0 -0.27,0.04 -0.37,0.14 -0.09,0.08 -0.16,0.23 -0.23,0.44l-0.37 1.19 -1.18 -0.05z"/>
  <path class="fil2" d="M152.53 55.73c0.59,0.02 1.05,0.52 1.02,1.11 -0.03,0.59 -0.52,1.05 -1.11,1.02 -0.59,-0.03 -1.05,-0.52 -1.02,-1.11 0.02,-0.59 0.52,-1.04 1.11,-1.02zm-0.01 0.17c0.5,0.02 0.89,0.44 0.87,0.94 -0.02,0.5 -0.44,0.89 -0.94,0.87 -0.5,-0.02 -0.89,-0.44 -0.86,-0.94 0.02,-0.5 0.44,-0.89 0.94,-0.86zm-0.55 1.43l0.04 -1.09 0.46 0.02c0.11,0 0.2,0.02 0.25,0.04 0.05,0.02 0.09,0.06 0.12,0.11 0.03,0.05 0.04,0.11 0.04,0.17 0,0.08 -0.03,0.15 -0.08,0.2 -0.05,0.05 -0.12,0.08 -0.22,0.09 0.05,0.03 0.09,0.06 0.11,0.1 0.03,0.03 0.07,0.09 0.12,0.18l0.12 0.22 -0.26 -0.01 -0.15 -0.24c-0.05,-0.09 -0.09,-0.14 -0.11,-0.16 -0.02,-0.02 -0.04,-0.04 -0.06,-0.05 -0.02,-0.01 -0.06,-0.01 -0.11,-0.02l-0.04 0 -0.02 0.45 -0.22 -0.01zm0.24 -0.62l0.17 0c0.1,0 0.17,0 0.2,-0 0.03,-0.01 0.05,-0.02 0.06,-0.04 0.02,-0.02 0.02,-0.05 0.03,-0.08 0,-0.04 -0.01,-0.06 -0.03,-0.09 -0.02,-0.02 -0.04,-0.04 -0.08,-0.05 -0.02,-0 -0.07,-0.01 -0.16,-0.01l-0.17 -0.01 -0.01 0.28z"/>
  <g id="_1952436910912">
   <path class="fil2" d="M142.61 86.7c0.06,-0.06 0.5,-0.84 0.54,-0.95 0.13,0.14 1,1.65 1.12,1.91 -0.08,0.2 -1.62,2.81 -1.72,2.89 -0.1,-0.31 -2.33,-4.04 -2.59,-4.49 -0.24,-0.43 -0.15,-0.33 0.31,-1.15l0.98 -1.69c0.42,-0.7 0.09,-0.36 -0.5,-1.68l-1.13 0 0.72 1.28 -1.1 1.9c-0.04,-0.03 -0.04,-0.03 -0.07,-0.07l-1.43 -2.48c-0.31,-0.55 -1.27,-2.12 -1.48,-2.56l5.57 0 1.8 3.08c0.11,0.21 -0.02,0.31 -0.11,0.48l-1.28 2.22c-0.09,0.16 -0.23,0.29 -0.17,0.44 0.06,0.15 0.45,0.8 0.54,0.88z"/>
   <path class="fil2" d="M139.22 79.45c0.43,0.03 0.93,0 1.37,0 0.66,0 0.35,-0.06 1.04,-0.37 1.5,-0.66 3.11,-0.69 4.63,-0 0.39,0.18 0.51,0.38 1,0.37 0.47,-0.01 0.95,0.01 1.42,-0 -0.19,-0.37 -1.43,-1.16 -1.94,-1.4 -2.63,-1.2 -5.5,-0.61 -7.52,1.39z"/>
   <path class="fil2" d="M145.99 90.36c2.36,-0.65 4.59,-3.22 4.59,-6.16 0,-0.49 -0.02,-1.05 -0.15,-1.51l-0.57 0.94c-0.33,0.55 -0.39,0.56 -0.45,1.06 -0.18,1.56 -1.02,2.94 -2.23,3.81 -0.35,0.25 -0.35,0.37 -0.63,0.87 -0.16,0.28 -0.46,0.72 -0.56,0.99z"/>
   <path class="fil2" d="M141.9 90.35c-0.06,-0.19 -0.41,-0.74 -0.54,-0.96 -0.19,-0.31 -0.31,-0.67 -0.62,-0.88 -1.18,-0.81 -2.05,-2.26 -2.23,-3.77 -0.07,-0.56 -0.11,-0.46 -0.44,-1.06 -0.17,-0.3 -0.43,-0.69 -0.56,-0.98 -0.29,0.47 -0.15,2.2 -0.02,2.78 0.18,0.8 0.52,1.61 0.91,2.17 0.8,1.17 1.86,2.18 3.51,2.7z"/>
   <polygon class="fil2" points="143.2,90.96 144.22,92.75 151.8,79.6 149.72,79.6 "/>
   <polygon class="fil2" points="143.74,85.22 144.77,87.01 149.03,79.6 146.95,79.6 "/>
   <polygon class="fil2" points="142.28,79.6 143.88,82.36 144.39,81.43 145.16,81.43 146.18,79.6 "/>
  </g>
  <g id="_1952436914704">
   <g style="clip-path:url(#id0)">
    <image x="40.03" y="1.39" width="159.91" height="223.88" xlink:href="kemeja_Images\kemeja_ImgID1.png"/>
   </g>
   <g style="clip-path:url(#id1)">
    <image x="40.03" y="1.39" width="159.91" height="223.88" xlink:href="kemeja_Images\kemeja_ImgID2.png"/>
   </g>
   <g style="clip-path:url(#id2)">
    <image x="40.03" y="1.39" width="159.91" height="223.88" xlink:href="kemeja_Images\kemeja_ImgID3.png"/>
   </g>
  </g>
 </g>
</svg>
