<svg xmlns="http://www.w3.org/2000/svg" xmlns:xlink="http://www.w3.org/1999/xlink" width="72" zoomAndPan="magnify" viewBox="0 0 54 50.999998" height="68" preserveAspectRatio="xMidYMid meet" version="1.0"><defs><clipPath id="1609fc6f3d"><path d="M 29 2.007812 L 51.679688 2.007812 L 51.679688 21 L 29 21 Z M 29 2.007812 " clip-rule="nonzero"/></clipPath><clipPath id="0b6ba34806"><path d="M 1.429688 29 L 24 29 L 24 48.507812 L 1.429688 48.507812 Z M 1.429688 29 " clip-rule="nonzero"/></clipPath></defs><rect x="-5.4" width="64.8" fill="#ffffff" y="-5.1" height="61.199998" fill-opacity="1"/><rect x="-5.4" width="64.8" fill="#ffffff" y="-5.1" height="61.199998" fill-opacity="1"/><path fill="#ff914d" d="M 26.742188 44.804688 C 15.738281 44.804688 6.789062 35.855469 6.789062 24.851562 C 6.789062 13.851562 15.738281 4.898438 26.742188 4.898438 C 37.746094 4.898438 46.695312 13.851562 46.695312 24.851562 C 46.695312 35.855469 37.746094 44.804688 26.742188 44.804688 Z M 26.742188 6.527344 C 16.640625 6.527344 8.417969 14.75 8.417969 24.851562 C 8.417969 34.957031 16.640625 43.179688 26.742188 43.179688 C 36.84375 43.179688 45.066406 34.957031 45.066406 24.851562 C 45.066406 14.75 36.84375 6.527344 26.742188 6.527344 Z M 26.742188 6.527344 " fill-opacity="1" fill-rule="nonzero"/><path fill="#ff914d" d="M 26.742188 40.023438 C 18.378906 40.023438 11.574219 33.21875 11.574219 24.851562 C 11.574219 16.488281 18.378906 9.683594 26.742188 9.683594 C 35.105469 9.683594 41.910156 16.488281 41.910156 24.851562 C 41.910156 33.21875 35.105469 40.023438 26.742188 40.023438 Z M 26.742188 11.3125 C 19.277344 11.3125 13.203125 17.390625 13.203125 24.851562 C 13.203125 32.316406 19.277344 38.394531 26.742188 38.394531 C 34.207031 38.394531 40.28125 32.316406 40.28125 24.851562 C 40.28125 17.390625 34.207031 11.3125 26.742188 11.3125 Z M 26.742188 11.3125 " fill-opacity="1" fill-rule="nonzero"/><path fill="#ff914d" d="M 26.742188 32.902344 C 24.742188 32.902344 23.113281 31.273438 23.113281 29.277344 L 23.113281 28.941406 C 23.113281 28.492188 23.480469 28.128906 23.929688 28.128906 C 24.375 28.128906 24.742188 28.492188 24.742188 28.941406 L 24.742188 29.277344 C 24.742188 30.378906 25.640625 31.273438 26.742188 31.273438 C 27.847656 31.273438 28.742188 30.378906 28.742188 29.277344 L 28.742188 27.59375 C 28.742188 26.492188 27.847656 25.59375 26.742188 25.59375 C 24.742188 25.59375 23.113281 23.964844 23.113281 21.964844 L 23.113281 20.429688 C 23.113281 18.433594 24.742188 16.804688 26.742188 16.804688 C 28.742188 16.804688 30.371094 18.433594 30.371094 20.429688 L 30.371094 20.765625 C 30.371094 21.214844 30.003906 21.578125 29.554688 21.578125 C 29.109375 21.578125 28.742188 21.214844 28.742188 20.765625 L 28.742188 20.429688 C 28.742188 19.328125 27.847656 18.433594 26.742188 18.433594 C 25.640625 18.433594 24.742188 19.328125 24.742188 20.429688 L 24.742188 21.964844 C 24.742188 23.070312 25.640625 23.964844 26.742188 23.964844 C 28.742188 23.964844 30.371094 25.59375 30.371094 27.59375 L 30.371094 29.277344 C 30.371094 31.273438 28.742188 32.902344 26.742188 32.902344 Z M 26.742188 32.902344 " fill-opacity="1" fill-rule="nonzero"/><path fill="#ff914d" d="M 26.742188 36.066406 C 26.292969 36.066406 25.929688 35.703125 25.929688 35.253906 L 25.929688 32.300781 C 25.929688 31.851562 26.292969 31.488281 26.742188 31.488281 C 27.191406 31.488281 27.558594 31.851562 27.558594 32.300781 L 27.558594 35.253906 C 27.558594 35.703125 27.191406 36.066406 26.742188 36.066406 Z M 26.742188 36.066406 " fill-opacity="1" fill-rule="nonzero"/><path fill="#ff914d" d="M 26.742188 18.152344 C 26.292969 18.152344 25.929688 17.785156 25.929688 17.335938 L 25.929688 14.382812 C 25.929688 13.9375 26.292969 13.570312 26.742188 13.570312 C 27.191406 13.570312 27.558594 13.9375 27.558594 14.382812 L 27.558594 17.335938 C 27.558594 17.785156 27.191406 18.152344 26.742188 18.152344 Z M 26.742188 18.152344 " fill-opacity="1" fill-rule="nonzero"/><g clip-path="url(#1609fc6f3d)"><path fill="#ff914d" d="M 45.996094 1.992188 L 35.179688 1.992188 C 32.101562 1.992188 29.59375 4.496094 29.59375 7.578125 L 29.59375 11.464844 C 29.59375 14.546875 32.097656 17.050781 35.179688 17.050781 L 42.507812 17.050781 L 47.167969 20.667969 C 47.316406 20.78125 47.488281 20.839844 47.667969 20.839844 C 47.792969 20.839844 47.914062 20.808594 48.027344 20.757812 C 48.308594 20.621094 48.484375 20.335938 48.484375 20.023438 L 48.484375 16.464844 C 50.355469 15.527344 51.582031 13.585938 51.582031 11.464844 L 51.582031 7.578125 C 51.582031 4.496094 49.078125 1.992188 45.996094 1.992188 Z M 45.996094 1.992188 " fill-opacity="1" fill-rule="nonzero"/></g><g clip-path="url(#0b6ba34806)"><path fill="#ff914d" d="M 17.898438 29.277344 L 7.082031 29.277344 C 4.003906 29.277344 1.496094 31.78125 1.496094 34.863281 L 1.496094 38.746094 C 1.496094 40.867188 2.722656 42.816406 4.59375 43.746094 L 4.59375 47.308594 C 4.59375 47.617188 4.769531 47.902344 5.050781 48.039062 C 5.164062 48.097656 5.285156 48.121094 5.410156 48.121094 C 5.589844 48.121094 5.761719 48.0625 5.910156 47.949219 L 10.566406 44.335938 L 17.898438 44.335938 C 20.976562 44.335938 23.484375 41.828125 23.484375 38.746094 L 23.484375 34.863281 C 23.484375 31.78125 20.980469 29.277344 17.898438 29.277344 Z M 17.898438 29.277344 " fill-opacity="1" fill-rule="nonzero"/></g></svg>