<svg xmlns="http://www.w3.org/2000/svg" xmlns:xlink="http://www.w3.org/1999/xlink" width="72" zoomAndPan="magnify" viewBox="0 0 54 50.999998" height="68" preserveAspectRatio="xMidYMid meet" version="1.0"><defs><clipPath id="e65886eebd"><path d="M 10.4375 1.410156 L 43 1.410156 L 43 49.410156 L 10.4375 49.410156 Z M 10.4375 1.410156 " clip-rule="nonzero"/></clipPath><clipPath id="def4d55702"><path d="M 18 38 L 22 38 L 22 44 L 18 44 Z M 18 38 " clip-rule="nonzero"/></clipPath><clipPath id="142e9409fc"><path d="M 12.835938 50.992188 L 2.367188 31.929688 L 14.859375 25.070312 L 25.324219 44.136719 Z M 12.835938 50.992188 " clip-rule="nonzero"/></clipPath><clipPath id="2ca0f680e3"><path d="M 12.835938 50.992188 L 2.367188 31.929688 L 14.859375 25.070312 L 25.324219 44.136719 Z M 12.835938 50.992188 " clip-rule="nonzero"/></clipPath><clipPath id="c596e36cd6"><path d="M 17 36 L 23 36 L 23 46 L 17 46 Z M 17 36 " clip-rule="nonzero"/></clipPath><clipPath id="c0ac84235d"><path d="M 12.835938 50.992188 L 2.367188 31.929688 L 14.859375 25.070312 L 25.324219 44.136719 Z M 12.835938 50.992188 " clip-rule="nonzero"/></clipPath><clipPath id="e3f393008b"><path d="M 12.835938 50.992188 L 2.367188 31.929688 L 14.859375 25.070312 L 25.324219 44.136719 Z M 12.835938 50.992188 " clip-rule="nonzero"/></clipPath><clipPath id="f47b83811f"><path d="M 20.09375 47 L 15.058594 37.832031 L 19.980469 35.132812 L 25.015625 44.296875 Z M 20.09375 47 " clip-rule="nonzero"/></clipPath><clipPath id="d432452efb"><path d="M 7 37 L 17 37 L 17 43 L 7 43 Z M 7 37 " clip-rule="nonzero"/></clipPath><clipPath id="9dd6281ca9"><path d="M 12.835938 50.992188 L 2.367188 31.929688 L 14.859375 25.070312 L 25.324219 44.136719 Z M 12.835938 50.992188 " clip-rule="nonzero"/></clipPath><clipPath id="bf5cf9a394"><path d="M 12.835938 50.992188 L 2.367188 31.929688 L 14.859375 25.070312 L 25.324219 44.136719 Z M 12.835938 50.992188 " clip-rule="nonzero"/></clipPath><clipPath id="b8430da90f"><path d="M 9 37 L 15 37 L 15 41 L 9 41 Z M 9 37 " clip-rule="nonzero"/></clipPath><clipPath id="fc4579aa74"><path d="M 12.835938 50.992188 L 2.367188 31.929688 L 14.859375 25.070312 L 25.324219 44.136719 Z M 12.835938 50.992188 " clip-rule="nonzero"/></clipPath><clipPath id="2e7df13615"><path d="M 12.835938 50.992188 L 2.367188 31.929688 L 14.859375 25.070312 L 25.324219 44.136719 Z M 12.835938 50.992188 " clip-rule="nonzero"/></clipPath><clipPath id="11d72cd252"><path d="M 6 32 L 17 32 L 17 39 L 6 39 Z M 6 32 " clip-rule="nonzero"/></clipPath><clipPath id="7e8e7b2874"><path d="M 12.835938 50.992188 L 2.367188 31.929688 L 14.859375 25.070312 L 25.324219 44.136719 Z M 12.835938 50.992188 " clip-rule="nonzero"/></clipPath><clipPath id="e4b23397e0"><path d="M 12.835938 50.992188 L 2.367188 31.929688 L 14.859375 25.070312 L 25.324219 44.136719 Z M 12.835938 50.992188 " clip-rule="nonzero"/></clipPath><clipPath id="cccd1591b5"><path d="M 9 33 L 13 33 L 13 37 L 9 37 Z M 9 33 " clip-rule="nonzero"/></clipPath><clipPath id="7412ad643e"><path d="M 12.835938 50.992188 L 2.367188 31.929688 L 14.859375 25.070312 L 25.324219 44.136719 Z M 12.835938 50.992188 " clip-rule="nonzero"/></clipPath><clipPath id="7bebcc352e"><path d="M 12.835938 50.992188 L 2.367188 31.929688 L 14.859375 25.070312 L 25.324219 44.136719 Z M 12.835938 50.992188 " clip-rule="nonzero"/></clipPath><clipPath id="4058eeaa0d"><path d="M 12 29 L 18 29 L 18 35 L 12 35 Z M 12 29 " clip-rule="nonzero"/></clipPath><clipPath id="92b416ce7a"><path d="M 12.835938 50.992188 L 2.367188 31.929688 L 14.859375 25.070312 L 25.324219 44.136719 Z M 12.835938 50.992188 " clip-rule="nonzero"/></clipPath><clipPath id="bca615d158"><path d="M 12.835938 50.992188 L 2.367188 31.929688 L 14.859375 25.070312 L 25.324219 44.136719 Z M 12.835938 50.992188 " clip-rule="nonzero"/></clipPath><clipPath id="5949d00df2"><path d="M 11 26 L 18 26 L 18 37 L 11 37 Z M 11 26 " clip-rule="nonzero"/></clipPath><clipPath id="9619ce0180"><path d="M 12.835938 50.992188 L 2.367188 31.929688 L 14.859375 25.070312 L 25.324219 44.136719 Z M 12.835938 50.992188 " clip-rule="nonzero"/></clipPath><clipPath id="0267269888"><path d="M 12.835938 50.992188 L 2.367188 31.929688 L 14.859375 25.070312 L 25.324219 44.136719 Z M 12.835938 50.992188 " clip-rule="nonzero"/></clipPath><clipPath id="03aba350c3"><path d="M 14.164062 37.503906 L 9.15625 28.382812 L 14.628906 25.378906 L 19.636719 34.5 Z M 14.164062 37.503906 " clip-rule="nonzero"/></clipPath><clipPath id="0a25b67948"><path d="M 12 36 L 19 36 L 19 47 L 12 47 Z M 12 36 " clip-rule="nonzero"/></clipPath><clipPath id="70df9a6e1b"><path d="M 12.835938 50.992188 L 2.367188 31.929688 L 14.859375 25.070312 L 25.324219 44.136719 Z M 12.835938 50.992188 " clip-rule="nonzero"/></clipPath><clipPath id="c11db11d2d"><path d="M 12.835938 50.992188 L 2.367188 31.929688 L 14.859375 25.070312 L 25.324219 44.136719 Z M 12.835938 50.992188 " clip-rule="nonzero"/></clipPath><clipPath id="a569118039"><path d="M 14 38 L 18 38 L 18 45 L 14 45 Z M 14 38 " clip-rule="nonzero"/></clipPath><clipPath id="9238e58f9a"><path d="M 12.835938 50.992188 L 2.367188 31.929688 L 14.859375 25.070312 L 25.324219 44.136719 Z M 12.835938 50.992188 " clip-rule="nonzero"/></clipPath><clipPath id="735f314844"><path d="M 12.835938 50.992188 L 2.367188 31.929688 L 14.859375 25.070312 L 25.324219 44.136719 Z M 12.835938 50.992188 " clip-rule="nonzero"/></clipPath></defs><rect x="-5.4" width="64.8" fill="#ffffff" y="-5.1" height="61.199998" fill-opacity="1"/><rect x="-5.4" width="64.8" fill="#ffffff" y="-5.1" height="61.199998" fill-opacity="1"/><g clip-path="url(#e65886eebd)"><path fill="#ffb600" d="M 30.25 4.402344 C 30.285156 4.351562 30.320312 4.328125 30.347656 4.335938 C 30.363281 4.339844 30.371094 4.347656 30.375 4.363281 C 30.53125 5.804688 30.671875 7.253906 30.796875 8.695312 C 30.800781 8.726562 30.808594 8.75 30.824219 8.761719 C 30.835938 8.773438 30.855469 8.78125 30.875 8.78125 C 30.898438 8.78125 30.910156 8.773438 30.90625 8.75 C 30.898438 7.816406 30.957031 6.890625 31.078125 5.96875 C 31.078125 5.953125 31.082031 5.945312 31.09375 5.9375 C 31.117188 5.914062 31.15625 5.910156 31.175781 5.933594 C 31.1875 5.941406 31.191406 5.953125 31.195312 5.964844 C 31.398438 7.085938 31.308594 8.179688 30.929688 9.25 C 30.925781 9.253906 30.921875 9.261719 30.921875 9.269531 C 30.921875 9.304688 30.957031 9.339844 30.992188 9.339844 C 31.015625 9.339844 31.039062 9.324219 31.050781 9.304688 C 32.523438 6.820312 31.820312 3.722656 30.332031 1.433594 C 30.324219 1.421875 30.304688 1.410156 30.289062 1.410156 C 30.265625 1.410156 30.246094 1.425781 30.238281 1.449219 C 29.871094 2.75 29.476562 4.050781 29.058594 5.347656 C 28.636719 6.664062 29.519531 8.492188 30.1875 9.613281 C 30.191406 9.617188 30.199219 9.621094 30.203125 9.625 C 30.214844 9.628906 30.230469 9.621094 30.234375 9.605469 C 30.238281 9.601562 30.238281 9.59375 30.238281 9.589844 C 29.855469 8.582031 29.648438 7.535156 29.613281 6.453125 C 29.613281 6.453125 29.613281 6.449219 29.613281 6.445312 C 29.613281 6.425781 29.632812 6.40625 29.65625 6.40625 C 29.675781 6.40625 29.695312 6.421875 29.695312 6.441406 L 30.308594 8.453125 C 30.3125 8.460938 30.316406 8.464844 30.320312 8.464844 C 30.328125 8.472656 30.34375 8.46875 30.351562 8.457031 C 30.355469 8.453125 30.355469 8.449219 30.355469 8.445312 L 30.214844 4.507812 C 30.214844 4.46875 30.226562 4.433594 30.25 4.402344 Z M 31.914062 36.0625 C 32.546875 35.617188 33.265625 35.367188 34.078125 35.304688 C 35.804688 35.179688 38.285156 35.40625 40.378906 35.359375 C 43.070312 35.292969 42.9375 32.671875 41.949219 30.984375 C 41.472656 30.164062 43.542969 28.78125 41.878906 28.242188 C 41.820312 28.222656 41.78125 28.171875 41.78125 28.109375 C 41.78125 28.058594 41.808594 28.011719 41.855469 27.988281 C 42.347656 27.71875 42.535156 27.3125 42.421875 26.757812 C 42.40625 26.679688 42.359375 26.613281 42.300781 26.566406 L 41.667969 26.105469 C 41.613281 26.0625 41.582031 26.007812 41.574219 25.9375 C 41.453125 24.597656 41.941406 24.253906 42.648438 23.253906 C 43.277344 22.371094 42.949219 21.859375 42.140625 21.300781 C 40.972656 20.488281 39.785156 19.664062 38.585938 18.824219 C 38.558594 18.808594 38.542969 18.78125 38.542969 18.75 C 38.542969 18.722656 38.558594 18.695312 38.582031 18.679688 C 39.238281 18.179688 39.648438 17.519531 39.804688 16.699219 C 39.804688 16.691406 39.804688 16.6875 39.804688 16.6875 C 39.804688 16.648438 39.777344 16.617188 39.738281 16.617188 C 39.71875 16.617188 39.695312 16.628906 39.683594 16.644531 C 39.382812 17.023438 38.894531 17.777344 38.433594 17.953125 C 38.351562 17.984375 38.300781 17.960938 38.269531 17.878906 C 37.894531 16.863281 37.988281 15.785156 37.761719 14.9375 C 37.070312 12.308594 35.054688 9.75 32.992188 7.976562 C 32.792969 7.808594 32.703125 7.851562 32.71875 8.109375 C 32.945312 12.167969 28.277344 14.976562 25.027344 16.257812 C 20.832031 17.910156 16.640625 19.359375 13.511719 22.804688 C 11.4375 25.09375 10.453125 27.558594 10.660156 30.632812 C 10.664062 30.664062 10.691406 30.691406 10.722656 30.691406 C 10.753906 30.691406 10.78125 30.667969 10.789062 30.636719 C 11.753906 25.53125 14.816406 22.964844 19.21875 20.6875 C 21.605469 19.453125 24.011719 18.21875 26.4375 16.980469 C 26.449219 16.976562 26.460938 16.972656 26.476562 16.972656 C 26.519531 16.972656 26.5625 17.011719 26.5625 17.058594 C 26.5625 17.058594 26.5625 17.0625 26.5625 17.066406 C 26.550781 17.167969 26.496094 17.261719 26.394531 17.347656 C 19.65625 22.9375 15.089844 31.789062 22.503906 39.339844 C 22.542969 39.378906 22.578125 39.375 22.597656 39.324219 C 22.605469 39.308594 22.613281 39.289062 22.617188 39.273438 C 22.621094 39.253906 22.617188 39.242188 22.609375 39.226562 C 20.957031 37.078125 19.722656 34.304688 19.773438 31.625 C 19.828125 28.492188 21.566406 26.074219 23.433594 23.578125 C 23.628906 23.3125 23.769531 23.023438 24.089844 22.839844 C 24.101562 22.835938 24.113281 22.832031 24.121094 22.832031 C 24.160156 22.832031 24.195312 22.863281 24.195312 22.902344 C 24.195312 22.914062 24.1875 22.929688 24.183594 22.9375 C 22.109375 26.117188 21.714844 29.652344 23.871094 32.929688 C 23.878906 32.945312 23.898438 32.957031 23.914062 32.957031 C 23.941406 32.957031 23.96875 32.929688 23.96875 32.902344 C 23.96875 32.902344 23.96875 32.898438 23.96875 32.894531 C 23.855469 32.144531 23.761719 31.378906 23.683594 30.597656 C 23.371094 27.3125 24.484375 24.339844 26.429688 21.734375 C 28.980469 18.324219 30.605469 16.121094 31.296875 15.136719 C 32.203125 13.851562 32.796875 12.445312 33.074219 10.90625 C 33.078125 10.902344 33.082031 10.894531 33.085938 10.890625 C 33.101562 10.875 33.125 10.875 33.140625 10.890625 C 33.144531 10.894531 33.148438 10.902344 33.148438 10.90625 C 34.28125 16.210938 31.296875 18.582031 28.378906 22.484375 C 26.484375 25.023438 25.871094 27.625 26.921875 30.746094 C 27.5625 32.648438 28.53125 34.367188 29.832031 35.898438 C 31.824219 38.25 33.78125 40.585938 32.898438 43.828125 C 32.722656 44.488281 32.765625 44.503906 33.035156 43.871094 C 34.171875 41.1875 33.789062 38.667969 31.882812 36.304688 C 31.859375 36.273438 31.84375 36.238281 31.84375 36.199219 C 31.84375 36.144531 31.871094 36.09375 31.914062 36.0625 Z M 33.886719 10.199219 C 34.242188 11.1875 34.550781 12.128906 34.796875 13.023438 C 36.835938 20.359375 32.679688 25.753906 29.152344 31.589844 C 29.117188 31.644531 29.085938 31.644531 29.058594 31.585938 C 28.445312 30.34375 28.445312 28.753906 28.664062 27.363281 C 28.988281 25.277344 30.785156 22.789062 32.363281 20.6875 C 34.242188 18.1875 34.90625 15.410156 34.367188 12.355469 C 34.242188 11.640625 33.980469 10.890625 33.757812 10.152344 C 33.726562 10.046875 33.75 10.023438 33.820312 10.089844 C 33.847656 10.109375 33.867188 10.148438 33.886719 10.199219 Z M 27.835938 34.574219 C 27.777344 34.503906 27.730469 34.507812 27.703125 34.597656 C 27.128906 36.226562 26.777344 37.976562 26.992188 39.695312 C 27.457031 43.480469 30.054688 47.011719 32.753906 49.566406 C 32.769531 49.582031 32.789062 49.585938 32.808594 49.585938 C 32.855469 49.585938 32.890625 49.550781 32.890625 49.503906 C 32.890625 49.492188 32.886719 49.480469 32.882812 49.46875 C 32.761719 49.242188 32.707031 48.945312 32.59375 48.734375 C 30.644531 45.039062 28.886719 42.203125 30.507812 38.167969 C 30.550781 38.054688 30.53125 37.929688 30.457031 37.835938 Z M 26.128906 12.164062 C 26.753906 11.777344 27.644531 11.527344 28.800781 11.410156 C 28.820312 11.40625 28.820312 11.402344 28.800781 11.394531 C 26.785156 10.636719 23.921875 12.539062 22.738281 14.039062 C 22.730469 14.054688 22.726562 14.066406 22.726562 14.078125 C 22.726562 14.109375 22.75 14.132812 22.78125 14.132812 C 25.382812 14.15625 27.523438 14.421875 29.234375 12.011719 C 29.234375 12.003906 29.238281 12 29.238281 11.992188 C 29.238281 11.976562 29.226562 11.964844 29.210938 11.964844 C 29.203125 11.964844 29.195312 11.964844 29.191406 11.972656 C 28.527344 12.496094 27.808594 12.929688 27.035156 13.265625 C 27.027344 13.273438 27.019531 13.277344 27.007812 13.277344 C 26.96875 13.277344 26.941406 13.246094 26.941406 13.210938 C 26.941406 13.1875 26.953125 13.164062 26.976562 13.15625 L 28.402344 12.195312 C 28.414062 12.1875 28.417969 12.179688 28.417969 12.167969 C 28.417969 12.148438 28.40625 12.136719 28.390625 12.136719 C 28.382812 12.136719 28.378906 12.136719 28.375 12.140625 L 25.105469 13.417969 C 25.027344 13.449219 24.996094 13.421875 25.003906 13.339844 C 25.011719 13.28125 25.058594 13.226562 25.148438 13.1875 C 26.058594 12.777344 26.792969 12.453125 27.347656 12.21875 C 27.984375 11.949219 27.964844 11.890625 27.289062 12.042969 C 27.007812 12.105469 26.652344 12.207031 26.226562 12.351562 C 26.15625 12.375 26.113281 12.378906 26.097656 12.359375 C 26.078125 12.335938 26.066406 12.304688 26.066406 12.277344 C 26.066406 12.226562 26.089844 12.183594 26.128906 12.164062 Z M 27.050781 8.257812 C 27.03125 8.242188 27.015625 8.21875 27.015625 8.191406 C 27.015625 8.148438 27.050781 8.109375 27.09375 8.109375 C 27.101562 8.109375 27.105469 8.109375 27.117188 8.113281 C 28.09375 8.394531 28.890625 8.941406 29.503906 9.757812 C 29.574219 9.847656 29.59375 9.839844 29.570312 9.726562 C 29.523438 9.527344 29.4375 9.34375 29.308594 9.183594 C 27.84375 7.324219 25.542969 6.695312 23.261719 6.777344 C 23.167969 6.78125 23.152344 6.816406 23.214844 6.886719 C 23.898438 7.636719 24.589844 8.367188 25.285156 9.085938 C 26.496094 10.335938 27.535156 10.335938 29.179688 10.4375 C 29.21875 10.441406 29.246094 10.433594 29.269531 10.421875 C 29.285156 10.410156 29.296875 10.398438 29.304688 10.386719 C 29.328125 10.359375 29.324219 10.335938 29.285156 10.332031 C 28.277344 10.132812 27.5 9.929688 26.957031 9.730469 C 26.859375 9.695312 26.800781 9.613281 26.769531 9.484375 C 26.757812 9.421875 26.78125 9.394531 26.847656 9.414062 L 28.4375 9.8125 C 28.644531 9.859375 28.652344 9.839844 28.464844 9.746094 L 25.519531 8.253906 C 25.453125 8.21875 25.449219 8.179688 25.503906 8.125 C 25.554688 8.082031 25.609375 8.074219 25.664062 8.097656 C 26.757812 8.550781 27.582031 8.914062 28.136719 9.195312 C 29.003906 9.632812 29.039062 9.578125 28.234375 9.03125 C 27.847656 8.761719 27.453125 8.503906 27.050781 8.257812 Z M 27.050781 8.257812 " fill-opacity="1" fill-rule="evenodd"/></g><g clip-path="url(#def4d55702)"><g clip-path="url(#142e9409fc)"><g clip-path="url(#2ca0f680e3)"><path fill="#cda146" d="M 20.234375 42.742188 C 20.191406 42.730469 20.144531 42.71875 20.101562 42.707031 L 19.964844 42.667969 C 19.921875 42.65625 19.875 42.644531 19.832031 42.632812 C 19.789062 42.621094 19.746094 42.609375 19.703125 42.59375 C 19.660156 42.582031 19.617188 42.570312 19.574219 42.554688 C 19.53125 42.539062 19.488281 42.523438 19.445312 42.507812 C 19.402344 42.492188 19.363281 42.472656 19.320312 42.457031 C 19.277344 42.4375 19.234375 42.417969 19.195312 42.398438 C 19.152344 42.382812 19.109375 42.359375 19.066406 42.339844 C 19.027344 42.320312 18.984375 42.296875 18.941406 42.273438 L 18.988281 42.328125 C 19.003906 42.347656 19.019531 42.363281 19.035156 42.382812 C 19.070312 42.414062 19.101562 42.449219 19.136719 42.480469 C 19.171875 42.515625 19.207031 42.546875 19.246094 42.578125 C 19.28125 42.609375 19.320312 42.636719 19.355469 42.667969 C 19.394531 42.695312 19.433594 42.722656 19.476562 42.75 C 19.515625 42.777344 19.554688 42.804688 19.597656 42.828125 C 19.640625 42.851562 19.683594 42.875 19.726562 42.898438 C 19.765625 42.921875 19.808594 42.945312 19.847656 42.964844 L 19.972656 43.03125 C 20.015625 43.050781 20.054688 43.074219 20.097656 43.09375 L 20.347656 43.21875 L 20.597656 43.339844 C 20.640625 43.359375 20.679688 43.378906 20.722656 43.398438 L 20.847656 43.457031 L 21.132812 43.589844 L 21.195312 43.25 C 21.214844 43.125 21.238281 43 21.257812 42.871094 C 21.277344 42.746094 21.296875 42.621094 21.316406 42.496094 C 21.332031 42.371094 21.351562 42.242188 21.367188 42.117188 L 21.378906 42.015625 L 21.386719 41.96875 L 21.390625 41.914062 C 21.390625 41.878906 21.394531 41.839844 21.394531 41.804688 L 21.398438 41.699219 C 21.398438 41.5625 21.390625 41.421875 21.371094 41.28125 C 21.367188 41.246094 21.363281 41.214844 21.355469 41.179688 C 21.351562 41.144531 21.347656 41.109375 21.339844 41.074219 L 21.292969 40.871094 C 21.253906 40.734375 21.210938 40.601562 21.160156 40.472656 C 21.105469 40.34375 21.042969 40.21875 20.972656 40.097656 C 20.957031 40.070312 20.9375 40.039062 20.921875 40.007812 C 20.902344 39.980469 20.882812 39.949219 20.863281 39.921875 L 20.804688 39.835938 L 20.742188 39.753906 C 20.722656 39.726562 20.699219 39.699219 20.679688 39.671875 C 20.65625 39.644531 20.632812 39.617188 20.609375 39.59375 L 20.542969 39.515625 L 20.46875 39.441406 C 20.445312 39.417969 20.417969 39.394531 20.394531 39.371094 C 20.367188 39.347656 20.34375 39.324219 20.316406 39.300781 L 20.238281 39.234375 L 20.15625 39.171875 C 20.128906 39.152344 20.101562 39.132812 20.074219 39.113281 C 20.046875 39.09375 20.019531 39.074219 19.988281 39.054688 C 19.960938 39.035156 19.933594 39.019531 19.902344 39 L 19.8125 38.949219 C 19.785156 38.933594 19.753906 38.917969 19.722656 38.902344 C 19.695312 38.886719 19.664062 38.871094 19.632812 38.855469 L 19.445312 38.777344 C 19.414062 38.765625 19.382812 38.753906 19.351562 38.742188 C 19.320312 38.730469 19.289062 38.71875 19.257812 38.710938 L 19.160156 38.683594 C 19.128906 38.675781 19.097656 38.667969 19.066406 38.660156 C 18.941406 38.628906 18.816406 38.597656 18.691406 38.570312 C 18.566406 38.542969 18.441406 38.515625 18.3125 38.492188 C 18.421875 38.5625 18.53125 38.628906 18.644531 38.691406 C 18.753906 38.757812 18.867188 38.820312 18.980469 38.882812 L 19.0625 38.925781 L 19.144531 38.972656 C 19.167969 38.988281 19.195312 39.003906 19.222656 39.019531 C 19.246094 39.035156 19.273438 39.050781 19.296875 39.070312 L 19.375 39.121094 L 19.445312 39.171875 C 19.472656 39.191406 19.496094 39.210938 19.519531 39.226562 C 19.542969 39.246094 19.566406 39.265625 19.589844 39.285156 C 19.683594 39.359375 19.769531 39.441406 19.851562 39.523438 C 19.933594 39.609375 20.011719 39.695312 20.085938 39.789062 C 20.160156 39.878906 20.226562 39.976562 20.289062 40.074219 C 20.351562 40.171875 20.40625 40.273438 20.457031 40.375 L 20.496094 40.453125 L 20.53125 40.535156 C 20.542969 40.558594 20.550781 40.585938 20.5625 40.613281 C 20.574219 40.640625 20.582031 40.667969 20.59375 40.695312 L 20.648438 40.859375 C 20.65625 40.886719 20.664062 40.914062 20.671875 40.941406 C 20.679688 40.96875 20.6875 40.996094 20.691406 41.023438 C 20.71875 41.136719 20.738281 41.25 20.753906 41.363281 L 20.765625 41.445312 L 20.773438 41.53125 C 20.777344 41.5625 20.777344 41.589844 20.777344 41.617188 C 20.777344 41.648438 20.78125 41.675781 20.78125 41.703125 L 20.78125 41.789062 C 20.78125 41.820312 20.78125 41.84375 20.78125 41.871094 L 20.777344 41.914062 L 20.773438 41.960938 L 20.769531 42.050781 C 20.757812 42.175781 20.746094 42.304688 20.738281 42.429688 C 20.730469 42.558594 20.71875 42.683594 20.710938 42.8125 C 20.710938 42.835938 20.710938 42.859375 20.707031 42.882812 L 20.503906 42.820312 L 20.234375 42.742188 " fill-opacity="1" fill-rule="nonzero"/></g></g></g><g clip-path="url(#c596e36cd6)"><g clip-path="url(#c0ac84235d)"><g clip-path="url(#e3f393008b)"><g clip-path="url(#f47b83811f)"><path fill="#ffe100" d="M 17.753906 36.683594 C 17.855469 36.734375 17.957031 36.785156 18.058594 36.832031 C 18.160156 36.882812 18.261719 36.929688 18.359375 36.980469 C 18.460938 37.027344 18.5625 37.078125 18.664062 37.125 C 18.765625 37.171875 18.867188 37.222656 18.96875 37.269531 L 19.273438 37.410156 L 19.582031 37.546875 C 19.683594 37.59375 19.785156 37.640625 19.886719 37.6875 L 19.875 37.679688 C 19.949219 37.726562 20.03125 37.769531 20.105469 37.816406 L 20.21875 37.886719 L 20.273438 37.925781 C 20.292969 37.9375 20.3125 37.949219 20.332031 37.960938 L 20.4375 38.039062 C 20.476562 38.0625 20.511719 38.089844 20.546875 38.117188 L 20.597656 38.15625 L 20.625 38.175781 L 20.648438 38.199219 L 20.75 38.28125 C 20.882812 38.398438 21.007812 38.519531 21.125 38.648438 C 21.238281 38.777344 21.34375 38.914062 21.441406 39.058594 C 21.492188 39.128906 21.539062 39.203125 21.582031 39.28125 L 21.652344 39.394531 L 21.683594 39.453125 L 21.71875 39.511719 L 21.734375 39.542969 L 21.78125 39.625 C 21.800781 39.664062 21.820312 39.703125 21.839844 39.742188 C 21.875 39.820312 21.910156 39.902344 21.945312 39.980469 C 22.011719 40.140625 22.070312 40.304688 22.117188 40.472656 C 22.140625 40.554688 22.164062 40.636719 22.179688 40.722656 L 22.195312 40.785156 L 22.207031 40.851562 C 22.214844 40.894531 22.222656 40.933594 22.230469 40.976562 C 22.261719 41.148438 22.277344 41.320312 22.285156 41.492188 C 22.296875 41.667969 22.292969 41.839844 22.28125 42.011719 C 22.28125 42.054688 22.277344 42.097656 22.273438 42.140625 L 22.265625 42.207031 L 22.257812 42.277344 L 22.230469 42.550781 C 22.207031 42.734375 22.191406 42.921875 22.171875 43.105469 C 22.15625 43.289062 22.132812 43.472656 22.117188 43.660156 L 22.066406 44.210938 C 22.046875 44.398438 22.035156 44.582031 22.015625 44.765625 C 22.011719 44.84375 22.003906 44.921875 21.996094 44.996094 L 21.808594 44.929688 L 21.296875 44.753906 C 21.128906 44.695312 20.957031 44.636719 20.785156 44.578125 C 20.613281 44.523438 20.441406 44.464844 20.273438 44.410156 C 20.101562 44.351562 19.929688 44.296875 19.757812 44.242188 L 19.496094 44.160156 L 19.238281 44.078125 C 19.195312 44.066406 19.15625 44.054688 19.113281 44.039062 C 19.070312 44.023438 19.03125 44.007812 18.988281 43.992188 C 18.90625 43.960938 18.820312 43.929688 18.742188 43.894531 C 18.660156 43.855469 18.578125 43.820312 18.496094 43.777344 C 18.414062 43.738281 18.335938 43.695312 18.257812 43.652344 C 18.324219 43.710938 18.394531 43.769531 18.46875 43.824219 C 18.539062 43.878906 18.617188 43.933594 18.691406 43.980469 C 18.769531 44.03125 18.847656 44.078125 18.925781 44.125 C 18.964844 44.148438 19.007812 44.167969 19.046875 44.191406 C 19.089844 44.210938 19.132812 44.234375 19.171875 44.253906 C 19.253906 44.292969 19.335938 44.332031 19.417969 44.371094 L 19.660156 44.484375 C 19.824219 44.5625 19.988281 44.636719 20.152344 44.710938 C 20.316406 44.785156 20.480469 44.863281 20.644531 44.9375 C 20.8125 45.007812 20.976562 45.085938 21.140625 45.15625 L 21.636719 45.375 L 22.132812 45.589844 L 22.429688 45.714844 L 22.480469 45.378906 C 22.507812 45.195312 22.53125 45.011719 22.558594 44.828125 C 22.582031 44.644531 22.609375 44.460938 22.632812 44.277344 L 22.707031 43.722656 C 22.730469 43.539062 22.75 43.355469 22.773438 43.171875 C 22.796875 42.988281 22.820312 42.804688 22.839844 42.621094 L 22.875 42.34375 L 22.882812 42.277344 L 22.890625 42.203125 C 22.894531 42.152344 22.898438 42.101562 22.902344 42.054688 C 22.910156 41.957031 22.914062 41.855469 22.914062 41.757812 C 22.914062 41.660156 22.910156 41.558594 22.90625 41.460938 C 22.894531 41.265625 22.871094 41.066406 22.839844 40.871094 C 22.828125 40.824219 22.820312 40.773438 22.808594 40.726562 L 22.792969 40.65625 L 22.785156 40.617188 L 22.777344 40.582031 C 22.753906 40.488281 22.726562 40.390625 22.695312 40.296875 C 22.667969 40.203125 22.636719 40.109375 22.601562 40.015625 C 22.582031 39.972656 22.5625 39.925781 22.546875 39.878906 C 22.527344 39.835938 22.507812 39.789062 22.488281 39.746094 C 22.445312 39.65625 22.402344 39.566406 22.355469 39.480469 C 22.332031 39.4375 22.308594 39.394531 22.285156 39.351562 L 22.246094 39.285156 L 22.207031 39.222656 L 22.171875 39.160156 L 22.132812 39.101562 C 22.109375 39.0625 22.082031 39.019531 22.054688 38.980469 C 22 38.898438 21.945312 38.820312 21.882812 38.742188 C 21.765625 38.582031 21.636719 38.433594 21.496094 38.292969 C 21.355469 38.15625 21.203125 38.027344 21.046875 37.910156 L 20.925781 37.824219 L 20.898438 37.804688 L 20.804688 37.746094 C 20.765625 37.71875 20.722656 37.691406 20.683594 37.667969 L 20.554688 37.59375 C 20.535156 37.582031 20.515625 37.570312 20.492188 37.558594 L 20.429688 37.527344 L 20.300781 37.460938 C 20.214844 37.417969 20.125 37.378906 20.039062 37.339844 L 20.027344 37.335938 L 20.023438 37.335938 C 19.917969 37.296875 19.8125 37.261719 19.707031 37.226562 L 19.386719 37.121094 L 19.066406 37.019531 C 18.960938 36.984375 18.851562 36.953125 18.746094 36.917969 C 18.640625 36.882812 18.53125 36.851562 18.425781 36.816406 C 18.316406 36.785156 18.210938 36.75 18.101562 36.71875 C 17.996094 36.6875 17.886719 36.65625 17.78125 36.625 L 17.453125 36.53125 L 17.605469 36.609375 L 17.753906 36.683594 " fill-opacity="1" fill-rule="nonzero"/></g></g></g></g><g clip-path="url(#d432452efb)"><g clip-path="url(#9dd6281ca9)"><g clip-path="url(#bf5cf9a394)"><path fill="#ffe100" d="M 14.308594 41.457031 L 14.371094 41.421875 L 14.488281 41.339844 C 14.570312 41.289062 14.648438 41.230469 14.726562 41.171875 C 14.882812 41.050781 15.03125 40.917969 15.167969 40.777344 C 15.308594 40.636719 15.429688 40.484375 15.546875 40.332031 L 15.628906 40.210938 L 15.652344 40.179688 L 15.671875 40.148438 L 15.710938 40.089844 C 15.734375 40.046875 15.761719 40.007812 15.785156 39.964844 L 15.855469 39.839844 C 15.867188 39.816406 15.878906 39.796875 15.890625 39.777344 L 15.921875 39.710938 L 15.988281 39.582031 C 16.007812 39.539062 16.027344 39.496094 16.046875 39.453125 L 16.105469 39.320312 L 16.109375 39.3125 L 16.179688 39.085938 C 16.203125 39.011719 16.230469 38.933594 16.253906 38.859375 C 16.300781 38.707031 16.347656 38.558594 16.390625 38.40625 L 16.460938 38.179688 L 16.59375 37.726562 C 16.613281 37.648438 16.636719 37.574219 16.65625 37.496094 C 16.617188 37.566406 16.582031 37.636719 16.546875 37.707031 L 16.335938 38.128906 L 16.230469 38.34375 C 16.160156 38.484375 16.09375 38.628906 16.027344 38.769531 C 15.992188 38.84375 15.957031 38.914062 15.925781 38.984375 L 15.824219 39.199219 L 15.828125 39.1875 C 15.78125 39.265625 15.738281 39.34375 15.691406 39.421875 L 15.617188 39.535156 L 15.582031 39.589844 C 15.570312 39.609375 15.554688 39.625 15.542969 39.644531 L 15.464844 39.753906 C 15.4375 39.789062 15.410156 39.824219 15.382812 39.859375 L 15.34375 39.914062 L 15.324219 39.9375 L 15.300781 39.964844 L 15.214844 40.066406 C 15.097656 40.195312 14.976562 40.324219 14.84375 40.4375 C 14.710938 40.550781 14.574219 40.65625 14.429688 40.753906 C 14.355469 40.800781 14.28125 40.847656 14.207031 40.894531 L 14.089844 40.960938 L 14.03125 40.996094 L 13.972656 41.027344 L 13.941406 41.042969 L 13.914062 41.058594 L 13.855469 41.089844 C 13.816406 41.109375 13.777344 41.128906 13.738281 41.144531 C 13.660156 41.183594 13.582031 41.21875 13.5 41.253906 C 13.421875 41.285156 13.339844 41.316406 13.257812 41.34375 C 13.175781 41.371094 13.089844 41.398438 13.007812 41.421875 C 12.925781 41.445312 12.839844 41.464844 12.753906 41.484375 L 12.707031 41.496094 L 12.695312 41.5 L 12.625 41.511719 C 12.582031 41.519531 12.542969 41.527344 12.5 41.535156 C 12.328125 41.5625 12.15625 41.578125 11.984375 41.585938 C 11.898438 41.589844 11.8125 41.59375 11.726562 41.59375 C 11.636719 41.589844 11.550781 41.585938 11.464844 41.582031 C 11.421875 41.578125 11.378906 41.574219 11.335938 41.570312 L 11.203125 41.554688 L 10.925781 41.527344 C 10.742188 41.507812 10.558594 41.484375 10.371094 41.46875 L 9.820312 41.414062 C 9.636719 41.394531 9.449219 41.378906 9.265625 41.359375 C 9.082031 41.34375 8.898438 41.324219 8.710938 41.3125 L 8.488281 41.292969 L 8.546875 41.121094 C 8.605469 40.953125 8.664062 40.785156 8.722656 40.617188 C 8.75 40.535156 8.777344 40.449219 8.808594 40.367188 L 8.890625 40.113281 L 8.976562 39.863281 L 9.058594 39.609375 C 9.085938 39.523438 9.113281 39.441406 9.140625 39.355469 L 9.222656 39.101562 C 9.246094 39.019531 9.273438 38.933594 9.300781 38.847656 L 9.378906 38.59375 C 9.40625 38.511719 9.429688 38.429688 9.460938 38.347656 C 9.488281 38.265625 9.519531 38.183594 9.554688 38.101562 C 9.589844 38.019531 9.621094 37.9375 9.660156 37.859375 C 9.699219 37.777344 9.738281 37.699219 9.78125 37.621094 C 9.722656 37.6875 9.667969 37.757812 9.613281 37.832031 C 9.558594 37.902344 9.507812 37.976562 9.460938 38.050781 C 9.414062 38.128906 9.367188 38.207031 9.324219 38.285156 C 9.28125 38.363281 9.238281 38.445312 9.199219 38.523438 L 9.085938 38.765625 C 9.046875 38.84375 9.007812 38.925781 8.972656 39.003906 L 8.859375 39.246094 C 8.820312 39.324219 8.785156 39.40625 8.746094 39.488281 L 8.417969 40.214844 C 8.378906 40.292969 8.34375 40.375 8.308594 40.457031 C 8.238281 40.617188 8.164062 40.78125 8.09375 40.941406 L 7.882812 41.429688 L 7.75 41.738281 L 8.097656 41.785156 L 8.648438 41.863281 C 8.832031 41.886719 9.015625 41.910156 9.203125 41.9375 C 9.386719 41.960938 9.570312 41.984375 9.753906 42.007812 L 10.304688 42.078125 C 10.488281 42.101562 10.671875 42.121094 10.855469 42.140625 L 11.132812 42.171875 L 11.203125 42.179688 L 11.277344 42.1875 C 11.324219 42.195312 11.375 42.199219 11.421875 42.203125 C 11.523438 42.207031 11.621094 42.210938 11.71875 42.210938 C 11.820312 42.210938 11.917969 42.210938 12.015625 42.203125 C 12.113281 42.199219 12.214844 42.191406 12.3125 42.179688 C 12.410156 42.164062 12.507812 42.152344 12.605469 42.132812 C 12.652344 42.125 12.703125 42.113281 12.75 42.101562 L 12.820312 42.089844 L 12.839844 42.082031 L 12.859375 42.078125 L 12.894531 42.070312 C 12.988281 42.046875 13.085938 42.019531 13.179688 41.992188 C 13.273438 41.960938 13.367188 41.925781 13.457031 41.890625 C 13.550781 41.855469 13.640625 41.816406 13.730469 41.777344 C 13.910156 41.695312 14.082031 41.601562 14.25 41.496094 L 14.308594 41.457031 " fill-opacity="1" fill-rule="nonzero"/></g></g></g><g clip-path="url(#b8430da90f)"><g clip-path="url(#fc4579aa74)"><g clip-path="url(#2e7df13615)"><path fill="#cda146" d="M 10.667969 39.792969 C 10.695312 39.703125 10.722656 39.609375 10.746094 39.519531 C 10.761719 39.472656 10.773438 39.429688 10.785156 39.382812 L 10.824219 39.246094 L 10.859375 39.109375 C 10.871094 39.066406 10.882812 39.023438 10.898438 38.980469 C 10.914062 38.933594 10.925781 38.890625 10.941406 38.847656 L 10.964844 38.785156 L 10.988281 38.71875 C 11.007812 38.675781 11.023438 38.632812 11.042969 38.589844 C 11.0625 38.546875 11.082031 38.503906 11.101562 38.460938 C 11.140625 38.375 11.1875 38.292969 11.230469 38.207031 C 11.214844 38.222656 11.195312 38.238281 11.175781 38.253906 C 11.15625 38.269531 11.140625 38.285156 11.121094 38.300781 C 11.085938 38.332031 11.050781 38.367188 11.015625 38.402344 C 10.984375 38.4375 10.949219 38.472656 10.917969 38.511719 C 10.886719 38.546875 10.855469 38.585938 10.824219 38.625 C 10.792969 38.664062 10.765625 38.703125 10.738281 38.742188 C 10.710938 38.785156 10.683594 38.824219 10.65625 38.867188 C 10.628906 38.910156 10.605469 38.953125 10.582031 38.996094 L 10.5625 39.03125 L 10.515625 39.125 L 10.449219 39.25 C 10.425781 39.292969 10.40625 39.335938 10.382812 39.378906 C 10.34375 39.460938 10.296875 39.546875 10.257812 39.632812 L 10.195312 39.761719 C 10.175781 39.804688 10.152344 39.84375 10.132812 39.886719 C 10.09375 39.972656 10.054688 40.058594 10.011719 40.144531 L 9.878906 40.4375 L 10.226562 40.5 C 10.347656 40.519531 10.464844 40.539062 10.585938 40.558594 C 10.703125 40.578125 10.824219 40.597656 10.945312 40.613281 C 11.0625 40.628906 11.183594 40.648438 11.304688 40.664062 L 11.371094 40.671875 L 11.398438 40.675781 L 11.488281 40.683594 L 11.511719 40.6875 L 11.539062 40.6875 L 11.589844 40.691406 C 11.625 40.695312 11.660156 40.695312 11.691406 40.695312 L 11.792969 40.699219 C 11.824219 40.699219 11.859375 40.695312 11.890625 40.695312 C 11.925781 40.695312 11.957031 40.695312 11.992188 40.691406 L 12.089844 40.683594 C 12.222656 40.667969 12.355469 40.648438 12.484375 40.621094 C 12.515625 40.613281 12.546875 40.601562 12.582031 40.59375 C 12.613281 40.585938 12.644531 40.578125 12.675781 40.570312 L 12.769531 40.539062 C 12.800781 40.527344 12.832031 40.515625 12.863281 40.507812 L 12.957031 40.46875 C 12.988281 40.457031 13.019531 40.445312 13.050781 40.433594 C 13.109375 40.40625 13.167969 40.378906 13.226562 40.347656 C 13.285156 40.316406 13.34375 40.285156 13.402344 40.25 C 13.429688 40.234375 13.457031 40.214844 13.484375 40.199219 C 13.511719 40.179688 13.539062 40.164062 13.566406 40.144531 C 13.675781 40.070312 13.777344 39.988281 13.875 39.898438 L 13.949219 39.832031 L 14.015625 39.765625 C 14.039062 39.742188 14.0625 39.71875 14.085938 39.691406 C 14.105469 39.667969 14.128906 39.644531 14.148438 39.621094 C 14.234375 39.523438 14.3125 39.417969 14.382812 39.308594 C 14.453125 39.203125 14.515625 39.089844 14.570312 38.972656 C 14.625 38.859375 14.671875 38.742188 14.710938 38.621094 C 14.730469 38.558594 14.746094 38.5 14.761719 38.4375 C 14.777344 38.378906 14.789062 38.320312 14.800781 38.257812 C 14.828125 38.140625 14.851562 38.019531 14.875 37.898438 C 14.804688 38 14.742188 38.105469 14.679688 38.210938 C 14.648438 38.265625 14.621094 38.316406 14.589844 38.371094 C 14.558594 38.421875 14.53125 38.472656 14.496094 38.519531 C 14.480469 38.546875 14.464844 38.570312 14.449219 38.59375 L 14.398438 38.667969 C 14.382812 38.691406 14.363281 38.710938 14.347656 38.734375 C 14.328125 38.757812 14.3125 38.78125 14.292969 38.804688 L 14.242188 38.871094 C 14.222656 38.894531 14.203125 38.914062 14.183594 38.9375 C 14.148438 38.980469 14.109375 39.023438 14.070312 39.0625 C 14.03125 39.105469 13.988281 39.144531 13.949219 39.183594 C 13.90625 39.222656 13.863281 39.257812 13.824219 39.296875 C 13.734375 39.367188 13.648438 39.4375 13.558594 39.5 C 13.464844 39.5625 13.371094 39.625 13.273438 39.675781 C 13.226562 39.703125 13.175781 39.726562 13.128906 39.753906 C 13.078125 39.777344 13.027344 39.800781 12.976562 39.820312 C 12.878906 39.863281 12.773438 39.902344 12.667969 39.933594 C 12.566406 39.96875 12.460938 39.992188 12.351562 40.015625 L 12.273438 40.03125 C 12.246094 40.035156 12.21875 40.039062 12.191406 40.042969 C 12.136719 40.054688 12.082031 40.058594 12.03125 40.066406 C 11.921875 40.074219 11.8125 40.078125 11.703125 40.078125 C 11.675781 40.078125 11.652344 40.078125 11.625 40.078125 L 11.585938 40.074219 L 11.542969 40.074219 L 11.453125 40.066406 L 11.4375 40.066406 C 11.429688 40.066406 11.4375 40.066406 11.441406 40.066406 L 11.4375 40.066406 L 11.414062 40.0625 L 11.371094 40.058594 C 11.25 40.050781 11.128906 40.039062 11.007812 40.03125 C 10.886719 40.019531 10.769531 40.011719 10.648438 40.003906 C 10.632812 40.003906 10.617188 40 10.605469 40 C 10.613281 39.976562 10.617188 39.953125 10.625 39.929688 L 10.667969 39.792969 " fill-opacity="1" fill-rule="nonzero"/></g></g></g><g clip-path="url(#11d72cd252)"><g clip-path="url(#7e8e7b2874)"><g clip-path="url(#e4b23397e0)"><path fill="#ffe100" d="M 14.191406 37.441406 L 14.203125 37.4375 C 14.117188 37.460938 14.03125 37.484375 13.945312 37.503906 L 13.816406 37.535156 L 13.75 37.550781 C 13.726562 37.554688 13.707031 37.558594 13.683594 37.5625 L 13.554688 37.585938 C 13.511719 37.59375 13.464844 37.597656 13.421875 37.605469 C 13.335938 37.617188 13.246094 37.625 13.160156 37.632812 C 12.984375 37.644531 12.8125 37.648438 12.640625 37.636719 C 12.464844 37.628906 12.292969 37.605469 12.125 37.574219 C 12.039062 37.558594 11.953125 37.535156 11.867188 37.515625 L 11.738281 37.484375 L 11.671875 37.464844 L 11.609375 37.449219 C 11.441406 37.402344 11.277344 37.34375 11.117188 37.277344 C 11.035156 37.246094 10.957031 37.210938 10.878906 37.171875 C 10.800781 37.136719 10.722656 37.09375 10.648438 37.054688 C 10.574219 37.011719 10.5 36.96875 10.425781 36.921875 L 10.382812 36.894531 L 10.371094 36.886719 L 10.3125 36.851562 C 10.277344 36.824219 10.246094 36.804688 10.210938 36.777344 C 10.066406 36.675781 9.933594 36.570312 9.804688 36.453125 C 9.742188 36.394531 9.675781 36.335938 9.617188 36.273438 C 9.554688 36.210938 9.496094 36.148438 9.4375 36.085938 C 9.410156 36.050781 9.382812 36.019531 9.355469 35.984375 L 9.3125 35.9375 L 9.269531 35.882812 L 9.09375 35.667969 L 8.742188 35.234375 L 8.386719 34.808594 L 8.207031 34.59375 L 8.03125 34.382812 C 7.910156 34.238281 7.789062 34.097656 7.671875 33.957031 L 7.503906 33.761719 L 7.628906 33.703125 L 8.042969 33.5 L 8.246094 33.394531 C 8.316406 33.363281 8.382812 33.328125 8.453125 33.292969 C 8.589844 33.222656 8.726562 33.15625 8.863281 33.085938 C 8.996094 33.015625 9.132812 32.945312 9.269531 32.871094 L 9.472656 32.765625 L 9.675781 32.65625 L 9.878906 32.550781 L 10.082031 32.4375 C 10.148438 32.402344 10.214844 32.367188 10.285156 32.332031 C 10.351562 32.300781 10.421875 32.265625 10.492188 32.234375 C 10.417969 32.25 10.339844 32.269531 10.265625 32.289062 C 10.191406 32.308594 10.117188 32.332031 10.046875 32.355469 L 9.390625 32.578125 L 9.175781 32.65625 C 9.03125 32.707031 8.886719 32.761719 8.742188 32.8125 C 8.597656 32.863281 8.457031 32.917969 8.3125 32.972656 C 8.238281 33 8.167969 33.023438 8.097656 33.050781 L 7.453125 33.296875 L 7.023438 33.464844 L 6.742188 33.574219 L 6.933594 33.832031 L 7.265625 34.28125 C 7.375 34.429688 7.488281 34.574219 7.601562 34.722656 L 7.9375 35.167969 L 8.277344 35.609375 L 8.617188 36.046875 L 8.832031 36.320312 L 8.878906 36.378906 C 8.910156 36.417969 8.941406 36.453125 8.972656 36.492188 C 9.039062 36.566406 9.105469 36.636719 9.175781 36.710938 C 9.246094 36.78125 9.316406 36.847656 9.386719 36.914062 C 9.535156 37.046875 9.691406 37.171875 9.851562 37.28125 C 9.890625 37.3125 9.9375 37.339844 9.976562 37.367188 L 10.035156 37.40625 L 10.054688 37.417969 L 10.101562 37.445312 C 10.183594 37.496094 10.269531 37.546875 10.359375 37.589844 C 10.445312 37.636719 10.535156 37.679688 10.625 37.722656 C 10.714844 37.761719 10.804688 37.800781 10.898438 37.835938 C 10.945312 37.851562 10.992188 37.867188 11.039062 37.886719 C 11.085938 37.902344 11.132812 37.917969 11.179688 37.929688 C 11.226562 37.945312 11.273438 37.957031 11.320312 37.972656 L 11.394531 37.992188 L 11.746094 38.070312 C 11.839844 38.089844 11.9375 38.105469 12.035156 38.121094 C 12.230469 38.148438 12.429688 38.160156 12.625 38.160156 C 12.824219 38.160156 13.019531 38.140625 13.214844 38.117188 L 13.359375 38.089844 L 13.394531 38.085938 L 13.433594 38.078125 L 13.503906 38.0625 C 13.550781 38.050781 13.597656 38.042969 13.644531 38.03125 L 13.785156 37.992188 C 13.808594 37.984375 13.832031 37.980469 13.855469 37.972656 L 13.925781 37.949219 L 14.0625 37.90625 C 14.152344 37.875 14.242188 37.839844 14.332031 37.804688 L 14.34375 37.800781 L 14.347656 37.800781 L 14.496094 37.726562 L 14.648438 37.648438 L 14.949219 37.496094 L 15.246094 37.34375 C 15.347656 37.292969 15.445312 37.242188 15.546875 37.1875 C 15.644531 37.136719 15.742188 37.085938 15.84375 37.03125 C 15.941406 36.980469 16.042969 36.925781 16.140625 36.871094 C 16.238281 36.820312 16.335938 36.765625 16.4375 36.710938 L 16.582031 36.628906 L 16.730469 36.546875 L 16.410156 36.648438 C 16.300781 36.683594 16.195312 36.71875 16.089844 36.757812 C 15.984375 36.792969 15.875 36.828125 15.769531 36.867188 C 15.664062 36.902344 15.558594 36.941406 15.453125 36.976562 C 15.347656 37.015625 15.242188 37.054688 15.136719 37.09375 L 14.820312 37.207031 L 14.503906 37.324219 L 14.191406 37.441406 " fill-opacity="1" fill-rule="nonzero"/></g></g></g><g clip-path="url(#cccd1591b5)"><g clip-path="url(#7412ad643e)"><g clip-path="url(#7bebcc352e)"><path fill="#cda146" d="M 10.492188 34.988281 C 10.492188 34.988281 10.488281 34.984375 10.492188 34.988281 Z M 11.132812 33.773438 C 11.179688 33.753906 11.226562 33.734375 11.273438 33.714844 C 11.316406 33.695312 11.363281 33.679688 11.414062 33.660156 L 11.484375 33.636719 L 11.558594 33.613281 C 11.605469 33.59375 11.65625 33.582031 11.703125 33.566406 L 11.777344 33.542969 C 11.804688 33.539062 11.828125 33.53125 11.855469 33.523438 C 11.828125 33.515625 11.804688 33.511719 11.777344 33.507812 C 11.75 33.5 11.726562 33.496094 11.699219 33.492188 C 11.671875 33.488281 11.648438 33.484375 11.621094 33.484375 L 11.539062 33.476562 C 11.488281 33.472656 11.433594 33.472656 11.378906 33.472656 C 11.328125 33.472656 11.273438 33.472656 11.21875 33.476562 C 11.164062 33.480469 11.113281 33.484375 11.058594 33.492188 C 11.03125 33.496094 11.003906 33.5 10.976562 33.503906 C 10.949219 33.507812 10.921875 33.511719 10.898438 33.519531 C 10.84375 33.527344 10.789062 33.539062 10.738281 33.554688 C 10.710938 33.5625 10.683594 33.566406 10.65625 33.574219 L 10.578125 33.597656 C 10.480469 33.628906 10.382812 33.660156 10.285156 33.695312 C 10.1875 33.726562 10.089844 33.761719 9.992188 33.792969 C 9.894531 33.828125 9.800781 33.863281 9.703125 33.898438 C 9.605469 33.933594 9.511719 33.972656 9.414062 34.007812 L 9.066406 34.144531 L 9.300781 34.464844 C 9.351562 34.53125 9.402344 34.601562 9.453125 34.667969 C 9.503906 34.734375 9.554688 34.800781 9.605469 34.867188 C 9.660156 34.933594 9.710938 35 9.761719 35.066406 C 9.816406 35.132812 9.867188 35.199219 9.921875 35.261719 L 10 35.359375 L 10.011719 35.371094 L 10.023438 35.386719 L 10.027344 35.390625 L 10.046875 35.414062 L 10.089844 35.460938 C 10.140625 35.523438 10.214844 35.59375 10.28125 35.660156 C 10.300781 35.679688 10.316406 35.691406 10.335938 35.707031 L 10.386719 35.753906 L 10.441406 35.796875 C 10.457031 35.8125 10.476562 35.828125 10.496094 35.839844 L 10.605469 35.921875 L 10.71875 36 C 10.738281 36.011719 10.757812 36.023438 10.777344 36.035156 L 10.835938 36.070312 C 10.878906 36.089844 10.917969 36.113281 10.957031 36.132812 C 11.039062 36.175781 11.121094 36.214844 11.207031 36.246094 C 11.292969 36.28125 11.378906 36.308594 11.464844 36.332031 C 11.507812 36.347656 11.550781 36.355469 11.59375 36.367188 L 11.660156 36.382812 C 11.683594 36.386719 11.703125 36.390625 11.726562 36.394531 C 11.769531 36.402344 11.816406 36.410156 11.859375 36.414062 C 11.902344 36.421875 11.949219 36.425781 11.992188 36.429688 C 12.035156 36.433594 12.082031 36.433594 12.125 36.4375 L 12.257812 36.4375 C 12.300781 36.433594 12.34375 36.433594 12.390625 36.429688 C 12.433594 36.425781 12.476562 36.421875 12.519531 36.414062 C 12.542969 36.414062 12.5625 36.410156 12.585938 36.40625 C 12.605469 36.402344 12.628906 36.398438 12.648438 36.394531 C 12.691406 36.382812 12.734375 36.375 12.777344 36.363281 C 12.734375 36.351562 12.691406 36.34375 12.648438 36.332031 C 12.628906 36.328125 12.609375 36.324219 12.589844 36.316406 C 12.566406 36.3125 12.546875 36.304688 12.527344 36.300781 L 12.464844 36.285156 C 12.445312 36.277344 12.425781 36.273438 12.40625 36.265625 C 12.367188 36.253906 12.328125 36.242188 12.285156 36.230469 L 12.257812 36.222656 L 12.226562 36.210938 L 12.171875 36.1875 C 12.132812 36.175781 12.09375 36.164062 12.054688 36.148438 C 12.019531 36.132812 11.980469 36.117188 11.941406 36.101562 C 11.90625 36.085938 11.871094 36.066406 11.832031 36.050781 L 11.777344 36.027344 L 11.726562 36 C 11.691406 35.980469 11.65625 35.964844 11.621094 35.945312 C 11.550781 35.90625 11.480469 35.867188 11.417969 35.824219 C 11.382812 35.804688 11.347656 35.785156 11.316406 35.761719 C 11.285156 35.738281 11.253906 35.71875 11.222656 35.695312 C 11.191406 35.671875 11.160156 35.648438 11.128906 35.625 L 11.082031 35.589844 C 11.070312 35.578125 11.054688 35.566406 11.039062 35.554688 L 10.949219 35.480469 L 10.867188 35.402344 C 10.851562 35.386719 10.839844 35.375 10.824219 35.363281 L 10.785156 35.320312 C 10.757812 35.292969 10.730469 35.265625 10.707031 35.238281 C 10.65625 35.183594 10.613281 35.136719 10.558594 35.066406 L 10.515625 35.019531 L 10.496094 34.992188 L 10.492188 34.988281 L 10.484375 34.976562 L 10.40625 34.875 C 10.355469 34.808594 10.300781 34.742188 10.25 34.679688 C 10.195312 34.613281 10.144531 34.546875 10.089844 34.480469 C 10.0625 34.445312 10.03125 34.410156 10.003906 34.375 C 10.070312 34.34375 10.136719 34.308594 10.203125 34.273438 C 10.292969 34.226562 10.382812 34.175781 10.472656 34.128906 C 10.5625 34.078125 10.652344 34.027344 10.742188 33.976562 C 10.785156 33.949219 10.828125 33.925781 10.871094 33.902344 C 10.914062 33.878906 10.957031 33.859375 11 33.835938 C 11.042969 33.816406 11.089844 33.792969 11.132812 33.773438 " fill-opacity="1" fill-rule="nonzero"/></g></g></g><g clip-path="url(#4058eeaa0d)"><g clip-path="url(#92b416ce7a)"><g clip-path="url(#bca615d158)"><path fill="#cda146" d="M 16.304688 34.308594 C 16.15625 34.234375 16.007812 34.164062 15.863281 34.085938 C 15.71875 34.007812 15.574219 33.933594 15.433594 33.851562 C 15.292969 33.769531 15.15625 33.683594 15.023438 33.597656 C 14.886719 33.507812 14.757812 33.417969 14.632812 33.320312 C 14.601562 33.296875 14.570312 33.273438 14.539062 33.25 C 14.507812 33.226562 14.476562 33.199219 14.449219 33.175781 C 14.417969 33.148438 14.390625 33.121094 14.359375 33.097656 C 14.332031 33.070312 14.300781 33.046875 14.273438 33.019531 C 14.160156 32.914062 14.058594 32.800781 13.960938 32.683594 C 13.867188 32.566406 13.78125 32.441406 13.710938 32.3125 C 13.636719 32.183594 13.574219 32.050781 13.527344 31.914062 C 13.480469 31.773438 13.449219 31.632812 13.425781 31.488281 C 13.40625 31.339844 13.394531 31.191406 13.398438 31.042969 C 13.398438 30.96875 13.402344 30.894531 13.410156 30.816406 C 13.417969 30.746094 13.425781 30.660156 13.433594 30.578125 L 13.488281 30.082031 C 13.488281 30.046875 13.492188 30.007812 13.496094 29.96875 C 13.578125 30 13.65625 30.027344 13.734375 30.054688 L 13.886719 30.113281 L 14.035156 30.164062 L 14.1875 30.21875 L 14.265625 30.246094 L 14.285156 30.253906 L 14.289062 30.253906 L 14.292969 30.257812 C 14.292969 30.257812 14.285156 30.253906 14.289062 30.253906 L 14.296875 30.257812 L 14.410156 30.300781 L 14.476562 30.328125 C 14.519531 30.34375 14.5625 30.367188 14.609375 30.386719 C 14.632812 30.398438 14.652344 30.410156 14.675781 30.421875 C 14.695312 30.433594 14.71875 30.445312 14.742188 30.457031 L 14.804688 30.492188 L 14.839844 30.511719 L 14.933594 30.570312 L 14.996094 30.613281 C 15.035156 30.640625 15.074219 30.667969 15.117188 30.699219 C 15.136719 30.714844 15.15625 30.730469 15.175781 30.746094 C 15.195312 30.761719 15.214844 30.777344 15.234375 30.792969 C 15.269531 30.824219 15.308594 30.855469 15.347656 30.890625 L 15.402344 30.941406 L 15.457031 30.996094 C 15.492188 31.03125 15.523438 31.070312 15.558594 31.105469 C 15.625 31.183594 15.691406 31.261719 15.75 31.34375 L 15.785156 31.390625 L 15.789062 31.394531 C 15.785156 31.390625 15.789062 31.394531 15.789062 31.394531 L 15.792969 31.402344 L 15.839844 31.46875 L 15.851562 31.488281 L 15.859375 31.503906 L 15.878906 31.535156 C 15.894531 31.554688 15.90625 31.578125 15.921875 31.597656 C 15.972656 31.6875 16.019531 31.777344 16.066406 31.871094 C 16.109375 31.964844 16.152344 32.0625 16.183594 32.160156 C 16.21875 32.257812 16.253906 32.359375 16.277344 32.460938 C 16.292969 32.511719 16.300781 32.5625 16.3125 32.617188 C 16.320312 32.640625 16.324219 32.667969 16.328125 32.695312 C 16.335938 32.71875 16.339844 32.746094 16.34375 32.773438 C 16.359375 32.878906 16.371094 32.984375 16.378906 33.09375 L 16.394531 33.011719 L 16.402344 32.933594 L 16.414062 32.851562 L 16.417969 32.769531 C 16.421875 32.742188 16.421875 32.714844 16.421875 32.6875 C 16.421875 32.660156 16.421875 32.632812 16.421875 32.605469 C 16.421875 32.550781 16.421875 32.496094 16.417969 32.4375 C 16.410156 32.328125 16.398438 32.21875 16.378906 32.109375 C 16.359375 32 16.332031 31.890625 16.304688 31.78125 C 16.269531 31.675781 16.234375 31.570312 16.191406 31.464844 C 16.179688 31.4375 16.167969 31.410156 16.15625 31.386719 L 16.136719 31.347656 L 16.128906 31.324219 L 16.121094 31.308594 L 16.082031 31.234375 L 16.078125 31.226562 L 16.078125 31.222656 L 16.074219 31.21875 L 16.074219 31.214844 L 16.0625 31.195312 L 16.042969 31.160156 C 16.015625 31.109375 15.984375 31.058594 15.957031 31.011719 C 15.941406 30.984375 15.925781 30.964844 15.910156 30.9375 C 15.894531 30.914062 15.878906 30.890625 15.863281 30.867188 C 15.828125 30.824219 15.796875 30.773438 15.761719 30.730469 L 15.707031 30.664062 L 15.648438 30.597656 C 15.613281 30.554688 15.574219 30.511719 15.535156 30.472656 C 15.511719 30.449219 15.492188 30.429688 15.472656 30.410156 C 15.449219 30.390625 15.429688 30.371094 15.410156 30.351562 C 15.367188 30.3125 15.324219 30.273438 15.277344 30.238281 C 15.257812 30.21875 15.234375 30.199219 15.210938 30.183594 L 15.105469 30.105469 L 15.070312 30.078125 L 15 30.03125 C 14.976562 30.015625 14.949219 30 14.925781 29.984375 C 14.898438 29.96875 14.875 29.953125 14.851562 29.9375 C 14.800781 29.910156 14.75 29.878906 14.695312 29.851562 L 14.613281 29.8125 L 14.539062 29.78125 L 14.503906 29.761719 L 14.496094 29.757812 L 14.480469 29.753906 L 14.460938 29.746094 L 14.386719 29.714844 L 14.089844 29.585938 L 13.941406 29.523438 C 13.742188 29.441406 13.546875 29.355469 13.347656 29.277344 L 12.988281 29.128906 L 12.9375 29.519531 C 12.917969 29.6875 12.898438 29.851562 12.878906 30.015625 L 12.816406 30.507812 C 12.800781 30.667969 12.777344 30.855469 12.777344 31.035156 C 12.773438 31.214844 12.785156 31.398438 12.816406 31.582031 C 12.84375 31.765625 12.894531 31.945312 12.957031 32.117188 C 13.023438 32.292969 13.105469 32.460938 13.203125 32.617188 C 13.300781 32.773438 13.410156 32.917969 13.53125 33.054688 C 13.648438 33.1875 13.78125 33.308594 13.917969 33.421875 C 14.054688 33.539062 14.195312 33.640625 14.339844 33.734375 C 14.488281 33.828125 14.636719 33.917969 14.789062 33.996094 C 14.941406 34.074219 15.09375 34.148438 15.25 34.214844 C 15.40625 34.285156 15.5625 34.347656 15.71875 34.40625 C 15.878906 34.464844 16.035156 34.519531 16.195312 34.570312 C 16.355469 34.625 16.515625 34.671875 16.675781 34.71875 C 16.835938 34.765625 16.996094 34.8125 17.15625 34.855469 C 17.316406 34.898438 17.480469 34.9375 17.640625 34.980469 C 17.496094 34.898438 17.34375 34.824219 17.195312 34.75 C 17.046875 34.675781 16.898438 34.601562 16.75 34.527344 C 16.597656 34.457031 16.449219 34.382812 16.304688 34.308594 " fill-opacity="1" fill-rule="nonzero"/></g></g></g><g clip-path="url(#5949d00df2)"><g clip-path="url(#9619ce0180)"><g clip-path="url(#0267269888)"><g clip-path="url(#03aba350c3)"><path fill="#ffe100" d="M 11.644531 27.394531 L 11.582031 27.945312 C 11.5625 28.128906 11.542969 28.3125 11.519531 28.496094 L 11.460938 29.050781 C 11.441406 29.234375 11.421875 29.417969 11.402344 29.605469 L 11.34375 30.15625 L 11.316406 30.433594 L 11.300781 30.574219 L 11.300781 30.609375 L 11.296875 30.648438 C 11.296875 30.671875 11.292969 30.699219 11.292969 30.722656 C 11.285156 30.820312 11.285156 30.921875 11.285156 31.019531 C 11.285156 31.117188 11.289062 31.214844 11.292969 31.3125 C 11.308594 31.511719 11.332031 31.707031 11.371094 31.898438 C 11.386719 31.996094 11.410156 32.09375 11.433594 32.1875 L 11.441406 32.21875 L 11.453125 32.257812 L 11.472656 32.328125 C 11.484375 32.375 11.5 32.421875 11.515625 32.46875 C 11.574219 32.65625 11.644531 32.839844 11.726562 33.015625 C 11.769531 33.105469 11.8125 33.191406 11.859375 33.277344 C 11.90625 33.363281 11.953125 33.449219 12.007812 33.53125 L 12.046875 33.59375 L 12.082031 33.652344 C 12.109375 33.691406 12.132812 33.734375 12.160156 33.773438 C 12.214844 33.851562 12.273438 33.933594 12.332031 34.007812 C 12.449219 34.164062 12.578125 34.3125 12.71875 34.449219 C 12.855469 34.585938 13.007812 34.710938 13.160156 34.828125 L 13.28125 34.914062 L 13.308594 34.933594 L 13.339844 34.953125 L 13.398438 34.992188 C 13.441406 35.019531 13.480469 35.046875 13.523438 35.070312 L 13.648438 35.140625 C 13.667969 35.152344 13.6875 35.167969 13.710938 35.175781 L 13.773438 35.210938 L 13.898438 35.277344 C 13.941406 35.296875 13.988281 35.316406 14.03125 35.335938 L 14.160156 35.398438 L 14.167969 35.402344 L 14.46875 35.503906 L 14.765625 35.601562 L 15.066406 35.703125 L 15.667969 35.898438 L 15.964844 35.996094 L 16.269531 36.089844 C 16.367188 36.125 16.46875 36.152344 16.570312 36.183594 C 16.472656 36.140625 16.378906 36.09375 16.285156 36.046875 L 16 35.914062 L 15.710938 35.78125 L 15.425781 35.648438 L 15.140625 35.519531 L 14.851562 35.386719 L 14.5625 35.257812 L 14.277344 35.128906 L 14.285156 35.136719 C 14.207031 35.089844 14.128906 35.046875 14.050781 35 L 13.9375 34.929688 L 13.878906 34.890625 C 13.859375 34.878906 13.84375 34.867188 13.824219 34.855469 L 13.714844 34.777344 C 13.675781 34.753906 13.640625 34.722656 13.605469 34.699219 C 13.535156 34.644531 13.46875 34.585938 13.398438 34.53125 C 13.265625 34.414062 13.136719 34.292969 13.023438 34.160156 C 12.90625 34.027344 12.796875 33.890625 12.699219 33.746094 C 12.652344 33.671875 12.605469 33.597656 12.558594 33.519531 L 12.492188 33.402344 L 12.457031 33.34375 L 12.425781 33.285156 C 12.382812 33.210938 12.34375 33.132812 12.304688 33.050781 C 12.265625 32.972656 12.230469 32.894531 12.199219 32.8125 C 12.164062 32.730469 12.136719 32.648438 12.105469 32.566406 C 12.078125 32.484375 12.050781 32.398438 12.027344 32.316406 C 12.015625 32.273438 12.007812 32.230469 11.996094 32.1875 L 11.964844 32.0625 C 11.949219 31.976562 11.933594 31.890625 11.917969 31.804688 C 11.894531 31.632812 11.875 31.457031 11.871094 31.285156 C 11.867188 31.195312 11.867188 31.109375 11.867188 31.023438 C 11.871094 30.9375 11.875 30.851562 11.882812 30.761719 C 11.882812 30.742188 11.886719 30.722656 11.886719 30.699219 L 11.890625 30.667969 L 11.894531 30.632812 L 11.910156 30.5 L 11.941406 30.222656 L 12.007812 29.671875 C 12.03125 29.488281 12.054688 29.304688 12.074219 29.121094 L 12.136719 28.566406 C 12.15625 28.382812 12.179688 28.199219 12.199219 28.015625 L 12.214844 27.859375 L 12.378906 27.925781 L 12.917969 28.128906 L 13.460938 28.335938 L 14 28.539062 L 14.542969 28.742188 L 14.8125 28.84375 L 14.878906 28.867188 C 14.898438 28.878906 14.921875 28.886719 14.941406 28.894531 C 14.984375 28.910156 15.027344 28.925781 15.066406 28.945312 C 15.234375 29.015625 15.394531 29.101562 15.554688 29.191406 C 15.632812 29.238281 15.710938 29.285156 15.785156 29.335938 C 15.824219 29.363281 15.859375 29.386719 15.898438 29.414062 L 15.953125 29.453125 L 16.007812 29.496094 C 16.082031 29.550781 16.152344 29.609375 16.21875 29.667969 C 16.289062 29.726562 16.359375 29.789062 16.421875 29.851562 C 16.554688 29.980469 16.679688 30.117188 16.792969 30.261719 C 16.851562 30.332031 16.90625 30.40625 16.960938 30.480469 C 16.988281 30.519531 17.011719 30.554688 17.039062 30.59375 L 17.058594 30.625 L 17.078125 30.652344 L 17.113281 30.710938 C 17.210938 30.867188 17.300781 31.03125 17.378906 31.199219 C 17.457031 31.367188 17.527344 31.542969 17.585938 31.71875 C 17.601562 31.761719 17.613281 31.808594 17.628906 31.851562 L 17.648438 31.921875 L 17.652344 31.9375 L 17.652344 31.945312 L 17.65625 31.953125 L 17.664062 31.988281 C 17.6875 32.078125 17.710938 32.167969 17.730469 32.261719 C 17.765625 32.445312 17.792969 32.632812 17.808594 32.820312 C 17.820312 33.011719 17.824219 33.199219 17.816406 33.390625 L 17.816406 33.398438 L 17.808594 33.597656 L 17.796875 33.808594 L 17.78125 34.222656 C 17.792969 34.15625 17.808594 34.085938 17.820312 34.019531 L 17.855469 33.8125 L 17.914062 33.507812 L 17.929688 33.402344 L 17.929688 33.394531 L 17.929688 33.402344 C 17.945312 33.304688 17.957031 33.210938 17.96875 33.113281 C 17.976562 33.015625 17.984375 32.914062 17.988281 32.816406 C 17.992188 32.621094 17.984375 32.421875 17.964844 32.226562 C 17.957031 32.128906 17.941406 32.03125 17.925781 31.933594 L 17.921875 31.894531 L 17.917969 31.886719 L 17.917969 31.875 L 17.914062 31.859375 L 17.898438 31.785156 C 17.890625 31.738281 17.878906 31.6875 17.867188 31.640625 C 17.824219 31.445312 17.765625 31.253906 17.695312 31.066406 C 17.625 30.878906 17.542969 30.695312 17.449219 30.519531 L 17.414062 30.453125 L 17.394531 30.417969 L 17.375 30.386719 C 17.363281 30.367188 17.351562 30.347656 17.339844 30.324219 L 17.300781 30.257812 C 17.246094 30.171875 17.191406 30.085938 17.132812 30.003906 C 17.015625 29.839844 16.890625 29.683594 16.753906 29.535156 C 16.6875 29.457031 16.613281 29.386719 16.542969 29.316406 C 16.46875 29.246094 16.390625 29.175781 16.316406 29.113281 L 16.257812 29.0625 L 16.199219 29.015625 C 16.15625 28.984375 16.117188 28.953125 16.078125 28.921875 C 15.996094 28.863281 15.910156 28.804688 15.828125 28.75 C 15.65625 28.636719 15.476562 28.539062 15.292969 28.453125 C 15.246094 28.429688 15.199219 28.410156 15.152344 28.386719 C 15.128906 28.378906 15.105469 28.367188 15.082031 28.359375 L 15.015625 28.328125 L 14.746094 28.21875 L 13.675781 27.78125 L 13.140625 27.566406 L 12.601562 27.351562 L 12.066406 27.140625 L 11.691406 26.992188 L 11.644531 27.394531 " fill-opacity="1" fill-rule="nonzero"/></g></g></g></g><g clip-path="url(#0a25b67948)"><g clip-path="url(#70df9a6e1b)"><g clip-path="url(#c11db11d2d)"><path fill="#ffe100" d="M 14.765625 46.390625 L 14.988281 46.222656 C 15.136719 46.109375 15.285156 45.996094 15.429688 45.886719 L 15.871094 45.546875 C 16.019531 45.433594 16.164062 45.320312 16.3125 45.203125 L 16.75 44.863281 L 16.96875 44.691406 L 17.023438 44.644531 L 17.078125 44.601562 L 17.105469 44.578125 L 17.136719 44.554688 C 17.152344 44.539062 17.175781 44.519531 17.191406 44.503906 C 17.269531 44.441406 17.339844 44.371094 17.410156 44.304688 C 17.480469 44.234375 17.550781 44.164062 17.617188 44.089844 C 17.746094 43.941406 17.871094 43.785156 17.984375 43.625 C 18.039062 43.542969 18.09375 43.460938 18.144531 43.375 L 18.164062 43.347656 L 18.183594 43.3125 L 18.21875 43.246094 C 18.242188 43.203125 18.269531 43.160156 18.289062 43.117188 C 18.335938 43.03125 18.378906 42.941406 18.421875 42.851562 C 18.460938 42.761719 18.5 42.671875 18.535156 42.578125 C 18.566406 42.484375 18.597656 42.390625 18.628906 42.296875 C 18.65625 42.203125 18.683594 42.109375 18.707031 42.011719 L 18.722656 41.941406 L 18.738281 41.875 C 18.75 41.828125 18.757812 41.78125 18.769531 41.734375 C 18.785156 41.636719 18.804688 41.539062 18.816406 41.441406 C 18.84375 41.246094 18.859375 41.046875 18.859375 40.851562 C 18.855469 40.652344 18.839844 40.457031 18.8125 40.261719 L 18.789062 40.117188 L 18.757812 39.976562 C 18.746094 39.929688 18.738281 39.878906 18.726562 39.832031 L 18.6875 39.691406 C 18.683594 39.667969 18.675781 39.644531 18.667969 39.621094 L 18.648438 39.554688 L 18.601562 39.417969 C 18.570312 39.324219 18.535156 39.234375 18.503906 39.144531 L 18.5 39.136719 L 18.496094 39.132812 C 18.449219 39.03125 18.398438 38.933594 18.347656 38.832031 L 18.042969 38.230469 L 17.886719 37.933594 C 17.835938 37.832031 17.78125 37.730469 17.730469 37.632812 L 17.652344 37.484375 L 17.570312 37.335938 C 17.519531 37.238281 17.464844 37.136719 17.410156 37.039062 L 17.246094 36.742188 L 17.296875 36.90625 L 17.347656 37.066406 C 17.386719 37.171875 17.421875 37.277344 17.457031 37.386719 L 17.511719 37.542969 L 17.570312 37.703125 C 17.605469 37.808594 17.644531 37.914062 17.679688 38.019531 L 17.796875 38.339844 L 17.910156 38.65625 L 18.027344 38.96875 C 18.066406 39.074219 18.105469 39.179688 18.148438 39.285156 L 18.140625 39.273438 C 18.164062 39.359375 18.191406 39.445312 18.210938 39.53125 L 18.238281 39.660156 L 18.253906 39.726562 C 18.257812 39.75 18.261719 39.769531 18.265625 39.792969 L 18.289062 39.921875 C 18.300781 39.96875 18.304688 40.011719 18.308594 40.054688 L 18.320312 40.121094 L 18.324219 40.152344 L 18.324219 40.1875 L 18.335938 40.316406 C 18.347656 40.492188 18.355469 40.664062 18.34375 40.839844 C 18.332031 41.011719 18.3125 41.183594 18.277344 41.355469 C 18.261719 41.4375 18.242188 41.523438 18.222656 41.609375 L 18.1875 41.738281 L 18.167969 41.804688 L 18.152344 41.867188 C 18.128906 41.953125 18.101562 42.035156 18.074219 42.117188 C 18.046875 42.199219 18.015625 42.28125 17.980469 42.363281 C 17.964844 42.402344 17.945312 42.441406 17.929688 42.480469 C 17.914062 42.519531 17.894531 42.558594 17.875 42.597656 C 17.839844 42.675781 17.800781 42.753906 17.757812 42.832031 C 17.734375 42.867188 17.714844 42.90625 17.691406 42.941406 L 17.644531 43.023438 L 17.625 43.054688 C 17.578125 43.125 17.53125 43.199219 17.480469 43.269531 C 17.378906 43.410156 17.269531 43.546875 17.15625 43.671875 C 17.039062 43.800781 16.914062 43.921875 16.785156 44.039062 C 16.769531 44.050781 16.753906 44.066406 16.738281 44.078125 L 16.714844 44.097656 L 16.6875 44.121094 L 16.636719 44.164062 L 16.582031 44.207031 L 16.367188 44.382812 L 15.933594 44.734375 C 15.792969 44.851562 15.648438 44.96875 15.503906 45.085938 L 15.078125 45.441406 C 14.933594 45.558594 14.792969 45.679688 14.652344 45.796875 L 14.472656 45.949219 C 14.445312 45.890625 14.414062 45.832031 14.386719 45.773438 L 14.152344 45.289062 L 13.914062 44.808594 C 13.835938 44.648438 13.753906 44.492188 13.675781 44.332031 C 13.59375 44.171875 13.511719 44.011719 13.429688 43.851562 L 13.308594 43.617188 L 13.183594 43.378906 C 13.140625 43.300781 13.101562 43.222656 13.066406 43.140625 C 13.027344 43.0625 12.992188 42.980469 12.960938 42.898438 C 12.925781 42.816406 12.894531 42.734375 12.867188 42.648438 C 12.839844 42.566406 12.8125 42.480469 12.785156 42.394531 C 12.792969 42.484375 12.800781 42.574219 12.816406 42.660156 C 12.828125 42.75 12.84375 42.839844 12.863281 42.929688 C 12.882812 43.015625 12.90625 43.105469 12.929688 43.191406 C 12.957031 43.277344 12.984375 43.367188 13.015625 43.453125 L 13.105469 43.703125 L 13.195312 43.957031 C 13.257812 44.125 13.316406 44.292969 13.378906 44.460938 C 13.441406 44.628906 13.503906 44.792969 13.566406 44.960938 L 13.757812 45.460938 L 13.953125 45.960938 C 13.988281 46.042969 14.019531 46.128906 14.054688 46.210938 L 14.152344 46.457031 L 14.273438 46.757812 L 14.542969 46.554688 L 14.765625 46.390625 " fill-opacity="1" fill-rule="nonzero"/></g></g></g><g clip-path="url(#a569118039)"><g clip-path="url(#9238e58f9a)"><g clip-path="url(#735f314844)"><path fill="#cda146" d="M 16.820312 40.292969 C 16.820312 40.320312 16.824219 40.351562 16.824219 40.382812 C 16.828125 40.410156 16.828125 40.441406 16.828125 40.46875 C 16.828125 40.5 16.828125 40.527344 16.828125 40.558594 C 16.828125 40.675781 16.820312 40.792969 16.804688 40.910156 C 16.792969 41.027344 16.773438 41.140625 16.746094 41.257812 L 16.726562 41.339844 L 16.703125 41.425781 C 16.699219 41.453125 16.6875 41.480469 16.679688 41.507812 C 16.671875 41.535156 16.664062 41.5625 16.652344 41.589844 L 16.625 41.671875 L 16.59375 41.753906 C 16.582031 41.78125 16.570312 41.804688 16.558594 41.832031 C 16.546875 41.859375 16.535156 41.886719 16.523438 41.910156 C 16.476562 42.015625 16.417969 42.117188 16.359375 42.214844 L 16.3125 42.289062 L 16.265625 42.359375 C 16.25 42.382812 16.234375 42.40625 16.214844 42.429688 C 16.199219 42.453125 16.183594 42.476562 16.164062 42.496094 C 16.097656 42.589844 16.019531 42.671875 15.941406 42.757812 L 15.878906 42.816406 L 15.816406 42.878906 L 15.753906 42.933594 L 15.71875 42.964844 C 15.710938 42.972656 15.699219 42.980469 15.6875 42.992188 C 15.589844 43.074219 15.492188 43.15625 15.394531 43.238281 C 15.296875 43.320312 15.203125 43.40625 15.105469 43.488281 C 15.089844 43.503906 15.074219 43.515625 15.058594 43.53125 L 14.949219 43.324219 C 14.902344 43.238281 14.855469 43.152344 14.808594 43.070312 C 14.761719 42.984375 14.714844 42.898438 14.667969 42.8125 L 14.59375 42.6875 L 14.5625 42.628906 L 14.53125 42.566406 C 14.511719 42.523438 14.488281 42.484375 14.46875 42.441406 C 14.449219 42.398438 14.429688 42.355469 14.414062 42.308594 C 14.394531 42.265625 14.375 42.222656 14.359375 42.175781 C 14.34375 42.132812 14.328125 42.085938 14.3125 42.039062 C 14.28125 41.949219 14.253906 41.855469 14.230469 41.761719 L 14.222656 41.835938 C 14.21875 41.859375 14.21875 41.882812 14.214844 41.90625 C 14.214844 41.957031 14.210938 42.007812 14.210938 42.058594 C 14.210938 42.105469 14.214844 42.15625 14.214844 42.207031 C 14.21875 42.257812 14.222656 42.308594 14.230469 42.355469 C 14.234375 42.40625 14.242188 42.457031 14.253906 42.507812 C 14.261719 42.554688 14.269531 42.605469 14.28125 42.65625 L 14.320312 42.804688 L 14.332031 42.839844 L 14.339844 42.867188 L 14.34375 42.875 L 14.367188 42.945312 C 14.394531 43.039062 14.425781 43.132812 14.457031 43.222656 C 14.488281 43.316406 14.515625 43.40625 14.550781 43.5 L 14.644531 43.773438 C 14.679688 43.867188 14.710938 43.957031 14.746094 44.046875 L 14.855469 44.347656 L 15.144531 44.144531 C 15.246094 44.074219 15.351562 44 15.453125 43.921875 C 15.554688 43.847656 15.660156 43.773438 15.761719 43.695312 C 15.863281 43.621094 15.964844 43.542969 16.066406 43.464844 C 16.078125 43.457031 16.09375 43.445312 16.105469 43.433594 L 16.144531 43.402344 L 16.1875 43.367188 L 16.226562 43.335938 C 16.253906 43.3125 16.277344 43.289062 16.304688 43.265625 L 16.378906 43.191406 C 16.40625 43.167969 16.429688 43.140625 16.453125 43.117188 C 16.476562 43.089844 16.5 43.066406 16.523438 43.039062 L 16.59375 42.960938 L 16.65625 42.878906 C 16.742188 42.765625 16.820312 42.652344 16.890625 42.527344 C 16.910156 42.5 16.925781 42.46875 16.941406 42.4375 C 16.957031 42.40625 16.976562 42.375 16.988281 42.34375 L 17.035156 42.25 C 17.050781 42.21875 17.0625 42.1875 17.078125 42.152344 C 17.128906 42.023438 17.175781 41.894531 17.210938 41.757812 C 17.246094 41.625 17.273438 41.488281 17.292969 41.351562 C 17.296875 41.316406 17.300781 41.28125 17.300781 41.246094 C 17.304688 41.210938 17.308594 41.179688 17.3125 41.144531 C 17.3125 41.109375 17.316406 41.074219 17.316406 41.039062 L 17.316406 40.9375 C 17.316406 40.902344 17.316406 40.867188 17.316406 40.832031 C 17.3125 40.800781 17.3125 40.765625 17.308594 40.730469 C 17.304688 40.695312 17.304688 40.664062 17.300781 40.628906 L 17.285156 40.527344 C 17.265625 40.390625 17.242188 40.257812 17.203125 40.125 C 17.164062 39.996094 17.121094 39.867188 17.066406 39.746094 C 17.050781 39.714844 17.039062 39.683594 17.023438 39.652344 L 17 39.605469 C 16.992188 39.589844 16.984375 39.574219 16.976562 39.5625 L 16.929688 39.476562 L 16.925781 39.46875 L 16.921875 39.464844 C 16.921875 39.464844 16.917969 39.457031 16.921875 39.460938 L 16.917969 39.453125 L 16.90625 39.433594 L 16.878906 39.394531 C 16.816406 39.28125 16.746094 39.171875 16.679688 39.0625 C 16.609375 38.953125 16.539062 38.847656 16.464844 38.742188 C 16.496094 38.867188 16.527344 38.992188 16.558594 39.117188 C 16.59375 39.242188 16.628906 39.363281 16.664062 39.488281 L 16.679688 39.535156 L 16.683594 39.554688 L 16.6875 39.5625 C 16.6875 39.566406 16.6875 39.558594 16.6875 39.5625 L 16.6875 39.566406 L 16.691406 39.578125 L 16.714844 39.667969 C 16.722656 39.683594 16.726562 39.699219 16.726562 39.714844 L 16.738281 39.757812 C 16.746094 39.785156 16.75 39.816406 16.757812 39.84375 L 16.789062 40.023438 C 16.792969 40.054688 16.796875 40.082031 16.800781 40.113281 C 16.804688 40.144531 16.808594 40.171875 16.8125 40.203125 L 16.820312 40.292969 " fill-opacity="1" fill-rule="nonzero"/></g></g></g></svg>