<svg xmlns="http://www.w3.org/2000/svg" xmlns:xlink="http://www.w3.org/1999/xlink" width="72" zoomAndPan="magnify" viewBox="0 0 54 50.999998" height="68" preserveAspectRatio="xMidYMid meet" version="1.0"><defs><clipPath id="58c617dbfe"><path d="M 27 0.828125 L 29 0.828125 L 29 4 L 27 4 Z M 27 0.828125 " clip-rule="nonzero"/></clipPath><clipPath id="408e0bd6e7"><path d="M 9.84375 16 L 42.84375 16 L 42.84375 48.078125 L 9.84375 48.078125 Z M 9.84375 16 " clip-rule="nonzero"/></clipPath></defs><rect x="-5.4" width="64.8" fill="#ffffff" y="-5.1" height="61.199998" fill-opacity="1"/><rect x="-5.4" width="64.8" fill="#ffffff" y="-5.1" height="61.199998" fill-opacity="1"/><path fill="#00bf63" d="M 31.578125 28.378906 C 31.578125 27.96875 31.242188 27.632812 30.832031 27.632812 L 24.875 27.632812 C 24.464844 27.632812 24.132812 27.96875 24.132812 28.378906 C 24.132812 28.785156 24.464844 29.121094 24.875 29.121094 L 30.832031 29.121094 C 31.242188 29.121094 31.578125 28.785156 31.578125 28.378906 Z M 31.578125 28.378906 " fill-opacity="1" fill-rule="nonzero"/><path fill="#00bf63" d="M 30.832031 30.609375 C 30.832031 30.203125 30.496094 29.867188 30.085938 29.867188 L 25.621094 29.867188 C 25.210938 29.867188 24.875 30.203125 24.875 30.609375 C 24.875 31.019531 25.210938 31.355469 25.621094 31.355469 L 30.085938 31.355469 C 30.496094 31.355469 30.832031 31.019531 30.832031 30.609375 Z M 30.832031 30.609375 " fill-opacity="1" fill-rule="nonzero"/><g clip-path="url(#58c617dbfe)"><path fill="#00bf63" d="M 28.597656 2.316406 L 28.597656 1.574219 C 28.597656 1.164062 28.261719 0.828125 27.855469 0.828125 C 27.445312 0.828125 27.109375 1.164062 27.109375 1.574219 L 27.109375 2.316406 C 27.109375 2.726562 27.445312 3.0625 27.855469 3.0625 C 28.261719 3.0625 28.597656 2.726562 28.597656 2.316406 Z M 28.597656 2.316406 " fill-opacity="1" fill-rule="nonzero"/></g><path fill="#00bf63" d="M 37.496094 4.515625 C 37.199219 4.21875 36.75 4.21875 36.453125 4.515625 L 35.746094 5.222656 C 35.449219 5.519531 35.449219 5.964844 35.746094 6.265625 C 35.894531 6.414062 36.082031 6.488281 36.265625 6.488281 C 36.453125 6.488281 36.640625 6.414062 36.789062 6.265625 L 37.496094 5.558594 C 37.792969 5.257812 37.792969 4.773438 37.496094 4.515625 Z M 37.496094 4.515625 " fill-opacity="1" fill-rule="nonzero"/><path fill="#00bf63" d="M 40.027344 13.113281 C 39.617188 13.113281 39.28125 13.449219 39.28125 13.859375 C 39.28125 14.269531 39.617188 14.601562 40.027344 14.601562 L 41.03125 14.601562 C 41.441406 14.601562 41.777344 14.269531 41.777344 13.859375 C 41.777344 13.449219 41.441406 13.113281 41.03125 13.113281 Z M 40.027344 13.113281 " fill-opacity="1" fill-rule="nonzero"/><path fill="#00bf63" d="M 19.476562 6.5625 C 19.664062 6.5625 19.851562 6.488281 20 6.339844 C 20.296875 6.039062 20.296875 5.59375 20 5.296875 L 19.292969 4.589844 C 18.992188 4.292969 18.546875 4.292969 18.25 4.589844 C 17.953125 4.886719 17.953125 5.332031 18.25 5.632812 L 18.957031 6.339844 C 19.105469 6.488281 19.292969 6.5625 19.476562 6.5625 Z M 19.476562 6.5625 " fill-opacity="1" fill-rule="nonzero"/><path fill="#00bf63" d="M 26.738281 32.101562 C 26.328125 32.101562 25.992188 32.433594 25.992188 32.84375 C 25.992188 33.253906 26.328125 33.589844 26.738281 33.589844 L 28.972656 33.589844 C 29.378906 33.589844 29.714844 33.253906 29.714844 32.84375 C 29.714844 32.433594 29.378906 32.101562 28.972656 32.101562 Z M 26.738281 32.101562 " fill-opacity="1" fill-rule="nonzero"/><path fill="#00bf63" d="M 32.359375 25.585938 L 32.359375 23.761719 C 32.359375 22.71875 32.878906 21.75 33.773438 21.082031 C 36.339844 19.144531 37.757812 16.128906 37.53125 12.964844 C 37.199219 8.3125 33.328125 4.515625 28.523438 4.21875 C 25.804688 4.03125 23.089844 5 21.152344 6.824219 C 19.441406 8.421875 18.433594 10.507812 18.210938 12.777344 C 18.84375 11.550781 19.738281 10.472656 20.816406 9.578125 C 21.191406 8.980469 21.636719 8.421875 22.160156 7.902344 C 23.722656 6.449219 25.695312 5.667969 27.816406 5.667969 C 28.003906 5.667969 28.226562 5.667969 28.414062 5.707031 C 32.46875 5.964844 35.746094 9.167969 36.007812 13.078125 C 36.191406 15.71875 35 18.289062 32.84375 19.890625 C 31.578125 20.820312 30.832031 22.234375 30.832031 23.761719 L 30.832031 25.585938 C 30.832031 25.695312 30.71875 25.769531 30.609375 25.769531 L 25.0625 25.769531 C 24.949219 25.769531 24.875 25.695312 24.839844 25.621094 C 24.578125 25.734375 24.28125 25.769531 24.019531 25.769531 C 23.796875 25.769531 23.574219 25.734375 23.347656 25.660156 C 23.386719 26.554688 24.132812 27.261719 25.0625 27.261719 L 30.609375 27.261719 C 31.578125 27.261719 32.359375 26.515625 32.359375 25.585938 Z M 32.359375 25.585938 " fill-opacity="1" fill-rule="nonzero"/><path fill="#00bf63" d="M 29.304688 9.429688 C 29.230469 9.167969 29.046875 8.945312 28.785156 8.871094 C 25.472656 7.902344 21.300781 9.949219 19.476562 13.449219 C 19.402344 13.597656 19.328125 13.785156 19.253906 13.933594 C 19.703125 14.269531 20.109375 14.640625 20.445312 15.050781 C 20.558594 14.714844 20.667969 14.417969 20.816406 14.15625 C 22.082031 11.699219 24.800781 10.0625 27.222656 10.136719 C 26.476562 11.511719 26.847656 13.003906 27.148438 14.378906 C 27.667969 16.613281 28.113281 18.398438 24.464844 20.074219 C 24.09375 20.261719 23.945312 20.707031 24.09375 21.082031 C 24.28125 21.453125 24.726562 21.601562 25.097656 21.453125 C 29.828125 19.257812 29.15625 16.390625 28.597656 14.082031 C 28.1875 12.332031 27.964844 11.214844 29.082031 10.210938 C 29.304688 9.988281 29.378906 9.6875 29.304688 9.429688 Z M 29.304688 9.429688 " fill-opacity="1" fill-rule="nonzero"/><path fill="#00bf63" d="M 21.191406 21.566406 C 21.375 21.714844 21.5625 21.898438 21.75 22.046875 C 21.824219 22.121094 21.933594 22.160156 22.046875 22.160156 C 22.382812 22.941406 22.902344 23.613281 23.535156 24.132812 C 23.683594 24.246094 23.832031 24.28125 24.019531 24.28125 C 24.242188 24.28125 24.464844 24.171875 24.613281 24.023438 C 24.875 23.6875 24.839844 23.238281 24.503906 22.980469 C 23.683594 22.308594 23.164062 21.339844 23.050781 20.1875 C 22.902344 18.734375 23.425781 17.171875 24.503906 15.90625 C 24.765625 15.609375 24.726562 15.125 24.390625 14.863281 C 24.09375 14.601562 23.609375 14.640625 23.347656 14.976562 C 22.046875 16.539062 21.375 18.511719 21.5625 20.375 C 21.5625 20.449219 21.601562 20.523438 21.601562 20.597656 C 21.601562 20.671875 21.5625 20.746094 21.5625 20.78125 C 21.488281 21.042969 21.375 21.304688 21.191406 21.566406 Z M 21.191406 21.566406 " fill-opacity="1" fill-rule="nonzero"/><g clip-path="url(#408e0bd6e7)"><path fill="#00bf63" d="M 10.207031 33.03125 C 10.507812 33.515625 10.988281 33.664062 11.289062 33.738281 C 11.324219 33.738281 11.363281 33.773438 11.398438 33.773438 L 11.546875 33.8125 C 11.734375 33.886719 11.957031 33.960938 12.070312 34.035156 C 12.070312 34.222656 11.882812 34.558594 11.773438 34.78125 C 11.472656 35.449219 10.988281 36.53125 11.882812 37.238281 C 11.996094 37.3125 12.105469 37.386719 12.21875 37.421875 C 12.144531 37.570312 12.070312 37.757812 12.070312 37.980469 C 12.105469 38.761719 12.851562 38.949219 13.1875 39.023438 C 13.1875 39.210938 13.148438 39.472656 13.113281 39.695312 C 13 40.4375 12.890625 41.371094 13.148438 42.226562 C 13.296875 42.746094 13.671875 43.269531 14.15625 43.601562 C 14.710938 44.011719 15.457031 44.199219 16.203125 44.125 C 18.585938 43.902344 21.078125 43.117188 23.460938 41.816406 C 23.574219 43.9375 23.238281 45.574219 21.859375 47.214844 C 21.675781 47.4375 21.636719 47.734375 21.75 47.996094 C 21.859375 48.257812 22.121094 48.441406 22.417969 48.441406 L 37.421875 48.441406 C 37.757812 48.441406 38.054688 48.21875 38.128906 47.921875 C 38.242188 47.585938 38.089844 47.25 37.832031 47.101562 C 36.863281 46.46875 36.304688 45.574219 36.082031 44.347656 C 35.523438 41.292969 37.347656 36.714844 39.394531 33.925781 C 39.730469 33.476562 39.988281 33.03125 40.25 32.582031 C 40.4375 32.285156 40.660156 31.949219 40.882812 31.617188 C 42.261719 29.605469 42.894531 27.113281 42.671875 24.578125 C 42.410156 21.488281 40.921875 18.476562 38.648438 16.203125 C 38.5 16.761719 38.316406 17.285156 38.089844 17.804688 C 39.839844 19.742188 40.957031 22.199219 41.179688 24.691406 C 41.367188 26.886719 40.808594 29.046875 39.617188 30.796875 C 39.355469 31.167969 39.171875 31.503906 38.949219 31.839844 C 38.6875 32.25 38.425781 32.660156 38.128906 33.066406 C 36.304688 35.597656 33.847656 40.738281 34.554688 44.644531 C 34.703125 45.539062 35.039062 46.320312 35.523438 46.992188 L 23.945312 46.992188 C 25.097656 45.09375 25.171875 43.042969 24.914062 40.550781 C 24.875 40.140625 24.503906 39.84375 24.09375 39.878906 C 23.945312 39.878906 23.832031 39.953125 23.722656 40.027344 L 23.386719 40.253906 C 21.042969 41.628906 18.546875 42.484375 16.164062 42.671875 C 15.753906 42.710938 15.382812 42.636719 15.121094 42.410156 C 14.898438 42.261719 14.75 42.039062 14.675781 41.816406 C 14.527344 41.257812 14.601562 40.511719 14.675781 39.878906 C 14.75 39.210938 14.824219 38.652344 14.636719 38.203125 C 14.527344 37.90625 14.265625 37.757812 14.042969 37.683594 C 14.265625 37.421875 14.488281 37.125 14.378906 36.714844 C 14.230469 36.046875 13.558594 36.046875 13.148438 36.046875 C 13.074219 36.046875 13 36.046875 12.925781 36.046875 C 12.964844 35.859375 13.113281 35.597656 13.1875 35.449219 C 13.484375 34.78125 13.96875 33.738281 13.148438 33.03125 C 12.8125 32.734375 12.40625 32.582031 12.070312 32.472656 L 11.957031 32.433594 C 11.882812 32.398438 11.847656 32.398438 11.773438 32.359375 C 11.699219 32.324219 11.546875 32.285156 11.511719 32.25 C 11.699219 31.800781 12.03125 31.390625 12.40625 30.910156 C 12.777344 30.460938 13.148438 29.976562 13.523438 29.34375 C 13.597656 29.234375 13.671875 29.121094 13.746094 28.972656 C 14.339844 27.96875 14.972656 26.851562 14.75 25.660156 C 14.5625 24.691406 14.527344 23.835938 14.675781 22.980469 C 14.15625 22.753906 13.671875 22.457031 13.296875 22.121094 C 13.039062 23.3125 13.039062 24.578125 13.296875 25.921875 C 13.410156 26.554688 12.925781 27.410156 12.441406 28.191406 C 12.367188 28.300781 12.292969 28.453125 12.21875 28.5625 C 11.921875 29.085938 11.585938 29.492188 11.25 29.941406 C 10.804688 30.5 10.394531 31.019531 10.132812 31.617188 C 9.910156 32.136719 9.949219 32.621094 10.207031 33.03125 Z M 10.207031 33.03125 " fill-opacity="1" fill-rule="nonzero"/></g><path fill="#00bf63" d="M 10.839844 16.167969 C 10.691406 16.390625 10.65625 16.652344 10.765625 16.910156 C 10.878906 17.132812 11.101562 17.320312 11.363281 17.320312 C 12.179688 17.394531 12.480469 17.992188 12.925781 19.03125 C 13.484375 20.261719 14.191406 21.863281 16.460938 21.863281 C 16.910156 21.863281 17.394531 21.789062 17.953125 21.675781 C 18.359375 21.566406 18.585938 21.191406 18.511719 20.78125 C 18.398438 20.375 18.027344 20.148438 17.617188 20.222656 C 15.34375 20.746094 14.9375 19.851562 14.304688 18.4375 C 13.96875 17.691406 13.558594 16.800781 12.8125 16.277344 C 13.894531 15.535156 15.53125 15.386719 16.910156 15.980469 C 17.578125 16.277344 18.585938 16.949219 18.769531 18.363281 C 18.136719 17.730469 17.28125 17.246094 16.277344 17.023438 C 15.867188 16.949219 15.496094 17.171875 15.382812 17.582031 C 15.308594 17.992188 15.53125 18.363281 15.941406 18.476562 C 17.726562 18.882812 18.882812 20.449219 18.585938 21.9375 C 18.511719 22.347656 18.769531 22.71875 19.144531 22.832031 C 19.179688 22.832031 19.253906 22.832031 19.292969 22.832031 C 19.625 22.832031 19.960938 22.605469 20.035156 22.234375 C 20.148438 21.675781 20.148438 21.117188 20.035156 20.597656 C 20.074219 20.523438 20.109375 20.484375 20.109375 20.410156 C 20.742188 17.804688 19.738281 15.644531 17.503906 14.640625 C 15.085938 13.5625 12.179688 14.230469 10.839844 16.167969 Z M 10.839844 16.167969 " fill-opacity="1" fill-rule="nonzero"/></svg>