<svg xmlns="http://www.w3.org/2000/svg" xmlns:xlink="http://www.w3.org/1999/xlink" width="72" zoomAndPan="magnify" viewBox="0 0 54 50.999998" height="68" preserveAspectRatio="xMidYMid meet" version="1.0"><defs><clipPath id="017be3db3e"><path d="M 19 40 L 36 40 L 36 49.558594 L 19 49.558594 Z M 19 40 " clip-rule="nonzero"/></clipPath><clipPath id="db4bda861a"><path d="M 34 29 L 52.613281 29 L 52.613281 45 L 34 45 Z M 34 29 " clip-rule="nonzero"/></clipPath><clipPath id="56e8f285e9"><path d="M 2.363281 29 L 21 29 L 21 45 L 2.363281 45 Z M 2.363281 29 " clip-rule="nonzero"/></clipPath><clipPath id="f0947ebdb8"><path d="M 13 2.308594 L 42 2.308594 L 42 22 L 13 22 Z M 13 2.308594 " clip-rule="nonzero"/></clipPath></defs><rect x="-5.4" width="64.8" fill="#ffffff" y="-5.1" height="61.199998" fill-opacity="1"/><rect x="-5.4" width="64.8" fill="#ffffff" y="-5.1" height="61.199998" fill-opacity="1"/><path fill="#ff914d" d="M 25.367188 9.230469 C 24.863281 9.253906 24.667969 9.898438 25.074219 10.195312 L 30.503906 14.242188 C 30.378906 14.765625 30.582031 15.3125 31.015625 15.632812 L 34.753906 18.417969 C 35.230469 18.773438 35.878906 18.773438 36.355469 18.417969 L 38.332031 16.945312 L 38.332031 23.941406 L 38.914062 23.941406 C 39.371094 23.941406 39.78125 24.132812 40.136719 24.382812 C 40.097656 23.523438 40.191406 22.652344 40.554688 21.8125 C 41.382812 19.894531 43.128906 18.640625 45.0625 18.347656 L 45.457031 18.304688 C 45.625 18.292969 45.792969 18.28125 45.964844 18.28125 C 46.722656 18.289062 47.496094 18.445312 48.230469 18.757812 L 48.238281 18.757812 C 48.398438 18.832031 48.554688 18.90625 48.707031 18.992188 C 48.84375 18.558594 48.75 18.089844 48.464844 17.742188 L 45.128906 13.707031 C 44.875 13.398438 44.496094 13.222656 44.097656 13.222656 L 39.292969 13.222656 C 39.003906 13.222656 38.722656 13.3125 38.488281 13.484375 L 35.554688 15.675781 L 32.617188 13.484375 C 32.367188 13.296875 32.054688 13.199219 31.742188 13.214844 C 31.527344 13.222656 31.324219 13.285156 31.140625 13.390625 L 25.71875 9.339844 C 25.621094 9.261719 25.496094 9.226562 25.367188 9.230469 Z M 25.367188 9.230469 " fill-opacity="1" fill-rule="evenodd"/><path fill="#ff914d" d="M 38.867188 10.679688 C 39.542969 12.242188 41.355469 12.960938 42.921875 12.289062 C 44.484375 11.613281 45.199219 9.796875 44.527344 8.238281 C 43.851562 6.675781 42.035156 5.953125 40.476562 6.628906 C 38.910156 7.304688 38.191406 9.117188 38.867188 10.679688 Z M 38.867188 10.679688 " fill-opacity="1" fill-rule="evenodd"/><g clip-path="url(#017be3db3e)"><path fill="#ff914d" d="M 24.136719 40.414062 C 22.195312 40.414062 20.621094 41.761719 20.003906 43.144531 C 19.359375 44.578125 19.304688 46.070312 19.488281 47.019531 C 19.675781 47.96875 19.839844 48.457031 20.164062 48.914062 C 20.46875 49.34375 21.019531 49.742188 21.523438 49.882812 L 33.742188 49.882812 C 34.242188 49.742188 34.789062 49.34375 35.09375 48.914062 C 35.421875 48.457031 35.585938 47.96875 35.773438 47.019531 C 35.960938 46.070312 35.902344 44.578125 35.261719 43.144531 C 34.640625 41.761719 33.074219 40.414062 31.132812 40.414062 Z M 24.136719 40.414062 " fill-opacity="1" fill-rule="nonzero"/></g><path fill="#ff914d" d="M 23.507812 36.257812 C 24.492188 38.542969 27.140625 39.589844 29.425781 38.609375 C 31.707031 37.625 32.753906 34.972656 31.773438 32.695312 C 30.785156 30.414062 28.136719 29.363281 25.859375 30.347656 C 23.570312 31.332031 22.523438 33.976562 23.507812 36.257812 Z M 23.507812 36.257812 " fill-opacity="1" fill-rule="evenodd"/><path fill="#ff914d" d="M 5.382812 25.835938 C 6.324219 28.023438 8.863281 29.027344 11.054688 28.082031 C 13.238281 27.144531 14.242188 24.601562 13.300781 22.421875 C 12.355469 20.230469 9.820312 19.226562 7.632812 20.167969 C 5.441406 21.109375 4.4375 23.648438 5.382812 25.835938 Z M 5.382812 25.835938 " fill-opacity="1" fill-rule="evenodd"/><path fill="#ff914d" d="M 42.140625 39.210938 C 41.835938 39.335938 41.5 39.402344 41.164062 39.402344 L 40.796875 39.402344 L 41.667969 43.90625 L 36.832031 43.90625 L 36.832031 45.257812 L 42.492188 45.257812 C 42.921875 45.257812 43.242188 44.878906 43.160156 44.457031 Z M 42.140625 39.210938 " fill-opacity="1" fill-rule="nonzero"/><path fill="#ff914d" d="M 13.125 39.210938 L 12.101562 44.457031 C 12.023438 44.878906 12.34375 45.257812 12.769531 45.257812 L 18.433594 45.257812 L 18.433594 43.90625 L 13.59375 43.90625 L 14.46875 39.402344 L 14.101562 39.402344 C 13.761719 39.402344 13.429688 39.335938 13.125 39.210938 Z M 13.125 39.210938 " fill-opacity="1" fill-rule="nonzero"/><g clip-path="url(#db4bda861a)"><path fill="#ff914d" d="M 48.519531 29.707031 L 46.242188 29.710938 C 45.585938 29.714844 44.75 30.199219 44.152344 30.855469 L 40.386719 34.953125 L 36.296875 34.953125 C 33.703125 34.953125 33.703125 38.699219 36.296875 38.699219 L 41.160156 38.699219 C 41.652344 38.699219 42.125 38.503906 42.472656 38.160156 L 43.882812 36.371094 L 45.480469 44.585938 L 52.90625 44.585938 L 50.386719 31.679688 C 50.09375 30.648438 49.589844 29.707031 48.519531 29.707031 Z M 48.519531 29.707031 " fill-opacity="1" fill-rule="nonzero"/></g><path fill="#ff914d" d="M 16.351562 25.472656 C 16.03125 25.472656 15.75 25.699219 15.6875 26.019531 L 14.277344 33.261719 L 15.183594 34.25 L 15.46875 34.25 L 16.910156 26.828125 L 38.351562 26.828125 L 39.796875 34.25 L 40.078125 34.25 L 40.984375 33.261719 L 39.574219 26.019531 C 39.511719 25.699219 39.234375 25.472656 38.910156 25.472656 Z M 16.351562 25.472656 " fill-opacity="1" fill-rule="nonzero"/><path fill="#ff914d" d="M 45.953125 19.8125 C 44.273438 19.800781 42.667969 20.777344 41.960938 22.417969 C 41.015625 24.601562 42.023438 27.140625 44.207031 28.082031 C 46.398438 29.027344 48.9375 28.023438 49.878906 25.835938 C 50.824219 23.648438 49.820312 21.109375 47.628906 20.167969 C 47.082031 19.933594 46.515625 19.816406 45.953125 19.8125 Z M 45.953125 19.8125 " fill-opacity="1" fill-rule="nonzero"/><g clip-path="url(#56e8f285e9)"><path fill="#ff914d" d="M 6.742188 29.707031 C 5.671875 29.707031 5.078125 30.625 4.875 31.683594 L 2.355469 44.585938 L 9.777344 44.585938 L 11.378906 36.371094 L 12.789062 38.160156 C 13.136719 38.503906 13.609375 38.699219 14.101562 38.699219 L 18.96875 38.699219 C 21.558594 38.699219 21.558594 34.953125 18.96875 34.953125 L 14.875 34.953125 L 11.109375 30.855469 C 10.511719 30.199219 9.675781 29.714844 9.023438 29.710938 Z M 6.742188 29.707031 " fill-opacity="1" fill-rule="nonzero"/></g><g clip-path="url(#f0947ebdb8)"><path fill="#ff914d" d="M 14.53125 2.308594 C 14.160156 2.308594 13.867188 2.609375 13.867188 2.976562 L 13.867188 20.949219 C 13.867188 21.316406 14.164062 21.613281 14.53125 21.613281 L 37.550781 21.613281 L 37.550781 20.28125 L 15.191406 20.28125 L 15.191406 3.640625 L 40.070312 3.640625 L 40.070312 5.714844 L 41.394531 5.714844 L 41.394531 2.976562 C 41.394531 2.609375 41.101562 2.308594 40.734375 2.308594 Z M 14.53125 2.308594 " fill-opacity="1" fill-rule="evenodd"/></g></svg>