<svg xmlns="http://www.w3.org/2000/svg" xmlns:xlink="http://www.w3.org/1999/xlink" width="72" zoomAndPan="magnify" viewBox="0 0 54 50.999998" height="68" preserveAspectRatio="xMidYMid meet" version="1.0"><defs><clipPath id="0dad7b7e2e"><path d="M 4.300781 2.800781 L 48.550781 2.800781 L 48.550781 47.050781 L 4.300781 47.050781 Z M 4.300781 2.800781 " clip-rule="nonzero"/></clipPath></defs><rect x="-5.4" width="64.8" fill="#ffffff" y="-5.1" height="61.199998" fill-opacity="1"/><rect x="-5.4" width="64.8" fill="#ffffff" y="-5.1" height="61.199998" fill-opacity="1"/><g clip-path="url(#0dad7b7e2e)"><path fill="#ff914d" d="M 47.402344 21.289062 C 47.402344 21.691406 47.132812 22.054688 46.792969 22.109375 C 46.488281 22.164062 46.28125 22.03125 46.183594 21.949219 C 46.015625 21.804688 45.917969 21.597656 45.917969 21.378906 L 45.917969 19.761719 C 45.917969 19.457031 45.738281 19.1875 45.460938 19.074219 C 45.179688 18.957031 44.859375 19.023438 44.648438 19.234375 L 36.777344 27.105469 C 36.496094 27.390625 36.023438 27.394531 35.734375 27.105469 L 33.808594 25.183594 C 33.519531 24.894531 33.050781 24.898438 32.757812 25.183594 L 25.628906 32.3125 C 25.339844 32.597656 24.871094 32.597656 24.582031 32.3125 C 24.296875 32.023438 24.296875 31.554688 24.582031 31.265625 L 32.765625 23.082031 C 32.902344 22.941406 33.089844 22.863281 33.285156 22.863281 C 33.476562 22.863281 33.664062 22.941406 33.804688 23.085938 L 35.730469 25.003906 C 36.023438 25.296875 36.492188 25.296875 36.78125 25.003906 L 43.605469 18.1875 C 43.816406 17.976562 43.878906 17.65625 43.765625 17.378906 C 43.652344 17.101562 43.378906 16.921875 43.078125 16.921875 L 41.546875 16.921875 C 41.144531 16.921875 40.785156 16.652344 40.726562 16.308594 C 40.675781 16.007812 40.808594 15.796875 40.890625 15.699219 C 41.035156 15.53125 41.242188 15.433594 41.457031 15.433594 L 46.660156 15.433594 C 47.070312 15.433594 47.402344 15.769531 47.402344 16.175781 Z M 34.027344 31.039062 L 34.027344 27.503906 L 34.679688 28.152344 C 34.917969 28.390625 35.207031 28.554688 35.511719 28.660156 L 35.511719 31.039062 Z M 37.742188 42.929688 L 33.285156 42.929688 L 33.285156 32.527344 L 37.742188 32.527344 Z M 42.203125 28.8125 L 46.660156 28.8125 L 46.660156 42.929688 L 42.203125 42.929688 Z M 47.402344 45.902344 L 23.621094 45.902344 L 23.621094 44.417969 L 47.402344 44.417969 Z M 7.273438 42.929688 C 6.453125 42.929688 5.785156 42.265625 5.785156 41.445312 L 5.785156 9.488281 C 5.785156 8.671875 6.453125 8.003906 7.273438 8.003906 L 11.730469 8.003906 L 11.730469 9.488281 L 8.757812 9.488281 C 7.941406 9.488281 7.273438 10.15625 7.273438 10.976562 L 7.273438 39.957031 C 7.273438 40.777344 7.941406 41.445312 8.757812 41.445312 L 22.878906 41.445312 L 22.878906 42.929688 Z M 28.824219 42.929688 L 24.367188 42.929688 L 24.367188 37.730469 L 28.824219 37.730469 Z M 30.3125 42.929688 L 30.3125 41.445312 L 31.796875 41.445312 L 31.796875 42.929688 Z M 28.082031 11.71875 C 28.628906 11.71875 29.105469 11.417969 29.363281 10.976562 L 32.539062 10.976562 L 32.539062 21.53125 C 32.234375 21.636719 31.945312 21.796875 31.710938 22.035156 L 23.53125 30.214844 C 22.664062 31.082031 22.664062 32.496094 23.53125 33.363281 C 23.964844 33.796875 24.535156 34.011719 25.101562 34.011719 C 25.675781 34.011719 26.246094 33.796875 26.675781 33.363281 L 32.539062 27.503906 L 32.539062 31.246094 C 32.097656 31.503906 31.796875 31.980469 31.796875 32.527344 L 31.796875 39.957031 L 30.3125 39.957031 L 30.3125 37.730469 C 30.3125 36.910156 29.644531 36.242188 28.824219 36.242188 L 24.367188 36.242188 C 23.546875 36.242188 22.878906 36.910156 22.878906 37.730469 L 22.878906 39.957031 L 8.757812 39.957031 L 8.757812 10.976562 L 11.9375 10.976562 C 12.195312 11.417969 12.671875 11.71875 13.21875 11.71875 Z M 13.21875 7.257812 C 13.21875 6.851562 13.550781 6.515625 13.960938 6.515625 L 16.792969 6.515625 C 17.058594 6.515625 17.304688 6.375 17.4375 6.144531 C 18.09375 5 19.328125 4.285156 20.648438 4.285156 C 21.972656 4.285156 23.203125 5 23.863281 6.144531 C 23.996094 6.375 24.242188 6.515625 24.507812 6.515625 L 27.339844 6.515625 C 27.746094 6.515625 28.082031 6.851562 28.082031 7.257812 L 28.082031 10.230469 L 13.21875 10.230469 Z M 35.511719 9.488281 L 35.511719 22.6875 L 34.859375 22.039062 C 34.621094 21.800781 34.335938 21.636719 34.027344 21.53125 L 34.027344 10.976562 C 34.027344 10.15625 33.359375 9.488281 32.539062 9.488281 L 29.566406 9.488281 L 29.566406 8.003906 L 34.027344 8.003906 C 34.847656 8.003906 35.511719 8.671875 35.511719 9.488281 Z M 46.660156 13.949219 L 41.457031 13.949219 C 40.800781 13.949219 40.179688 14.238281 39.757812 14.742188 C 39.332031 15.242188 39.152344 15.90625 39.261719 16.554688 C 39.425781 17.53125 40.277344 18.285156 41.296875 18.390625 L 37 22.6875 L 37 9.488281 C 37 7.847656 35.667969 6.515625 34.027344 6.515625 L 29.433594 6.515625 C 29.125 5.652344 28.304688 5.03125 27.339844 5.03125 L 24.914062 5.03125 C 23.949219 3.644531 22.355469 2.800781 20.648438 2.800781 C 18.945312 2.800781 17.347656 3.644531 16.386719 5.03125 L 13.960938 5.03125 C 12.996094 5.03125 12.175781 5.652344 11.867188 6.515625 L 7.273438 6.515625 C 5.632812 6.515625 4.300781 7.847656 4.300781 9.488281 L 4.300781 41.445312 C 4.300781 43.085938 5.632812 44.417969 7.273438 44.417969 L 22.136719 44.417969 L 22.136719 45.902344 C 22.136719 46.722656 22.804688 47.390625 23.621094 47.390625 L 47.402344 47.390625 C 48.222656 47.390625 48.890625 46.722656 48.890625 45.902344 L 48.890625 44.417969 C 48.890625 43.867188 48.589844 43.394531 48.148438 43.136719 L 48.148438 28.8125 C 48.148438 27.992188 47.480469 27.324219 46.660156 27.324219 L 42.203125 27.324219 C 41.382812 27.324219 40.714844 27.992188 40.714844 28.8125 L 40.714844 42.929688 L 39.230469 42.929688 L 39.230469 32.527344 C 39.230469 31.707031 38.5625 31.039062 37.742188 31.039062 L 37 31.039062 L 37 28.660156 C 37.308594 28.554688 37.59375 28.394531 37.828125 28.15625 L 44.4375 21.546875 C 44.484375 22.140625 44.761719 22.691406 45.222656 23.082031 C 45.726562 23.503906 46.386719 23.6875 47.039062 23.578125 C 48.09375 23.398438 48.890625 22.417969 48.890625 21.289062 L 48.890625 16.175781 C 48.890625 14.945312 47.890625 13.949219 46.660156 13.949219 " fill-opacity="1" fill-rule="nonzero"/></g><path fill="#ff914d" d="M 11.207031 18.625 C 10.917969 18.914062 10.917969 19.386719 11.207031 19.675781 L 11.949219 20.417969 C 12.089844 20.558594 12.277344 20.636719 12.476562 20.636719 C 12.488281 20.636719 12.5 20.636719 12.507812 20.636719 C 12.71875 20.625 12.914062 20.527344 13.046875 20.371094 L 16.761719 15.910156 C 17.023438 15.59375 16.984375 15.125 16.667969 14.863281 C 16.351562 14.601562 15.882812 14.640625 15.621094 14.957031 L 12.425781 18.792969 L 12.257812 18.625 C 11.96875 18.335938 11.496094 18.335938 11.207031 18.625 " fill-opacity="1" fill-rule="nonzero"/><path fill="#ff914d" d="M 15.621094 23.132812 L 12.425781 26.96875 L 12.257812 26.800781 C 11.96875 26.507812 11.496094 26.507812 11.207031 26.800781 C 10.917969 27.089844 10.917969 27.558594 11.207031 27.851562 L 11.949219 28.59375 C 12.089844 28.734375 12.277344 28.8125 12.476562 28.8125 C 12.488281 28.8125 12.5 28.8125 12.507812 28.8125 C 12.71875 28.800781 12.914062 28.703125 13.046875 28.542969 L 16.761719 24.085938 C 17.023438 23.769531 16.984375 23.300781 16.667969 23.039062 C 16.351562 22.777344 15.882812 22.816406 15.621094 23.132812 " fill-opacity="1" fill-rule="nonzero"/><path fill="#ff914d" d="M 15.621094 31.308594 L 12.425781 35.144531 L 12.257812 34.972656 C 11.96875 34.683594 11.496094 34.683594 11.207031 34.972656 C 10.917969 35.265625 10.917969 35.734375 11.207031 36.023438 L 11.949219 36.769531 C 12.089844 36.90625 12.277344 36.984375 12.476562 36.984375 C 12.488281 36.984375 12.5 36.984375 12.507812 36.984375 C 12.71875 36.972656 12.914062 36.878906 13.046875 36.71875 L 16.761719 32.261719 C 17.023438 31.945312 16.984375 31.476562 16.667969 31.210938 C 16.351562 30.949219 15.882812 30.992188 15.621094 31.308594 " fill-opacity="1" fill-rule="nonzero"/><path fill="#ff914d" d="M 20.648438 5.773438 C 20.242188 5.773438 19.90625 6.105469 19.90625 6.515625 L 19.90625 7.257812 C 19.90625 7.667969 20.242188 8.003906 20.648438 8.003906 C 21.058594 8.003906 21.394531 7.667969 21.394531 7.257812 L 21.394531 6.515625 C 21.394531 6.105469 21.058594 5.773438 20.648438 5.773438 " fill-opacity="1" fill-rule="nonzero"/><path fill="#ff914d" d="M 19.90625 16.921875 L 29.566406 16.921875 C 29.976562 16.921875 30.3125 16.585938 30.3125 16.175781 C 30.3125 15.769531 29.976562 15.433594 29.566406 15.433594 L 19.90625 15.433594 C 19.496094 15.433594 19.164062 15.769531 19.164062 16.175781 C 19.164062 16.585938 19.496094 16.921875 19.90625 16.921875 " fill-opacity="1" fill-rule="nonzero"/><path fill="#ff914d" d="M 19.90625 19.894531 L 25.851562 19.894531 C 26.261719 19.894531 26.59375 19.558594 26.59375 19.148438 C 26.59375 18.742188 26.261719 18.40625 25.851562 18.40625 L 19.90625 18.40625 C 19.496094 18.40625 19.164062 18.742188 19.164062 19.148438 C 19.164062 19.558594 19.496094 19.894531 19.90625 19.894531 " fill-opacity="1" fill-rule="nonzero"/><path fill="#ff914d" d="M 19.90625 25.09375 L 25.851562 25.09375 C 26.261719 25.09375 26.59375 24.761719 26.59375 24.351562 C 26.59375 23.941406 26.261719 23.609375 25.851562 23.609375 L 19.90625 23.609375 C 19.496094 23.609375 19.164062 23.941406 19.164062 24.351562 C 19.164062 24.761719 19.496094 25.09375 19.90625 25.09375 " fill-opacity="1" fill-rule="nonzero"/><path fill="#ff914d" d="M 19.90625 28.066406 L 22.136719 28.066406 C 22.546875 28.066406 22.878906 27.734375 22.878906 27.324219 C 22.878906 26.914062 22.546875 26.582031 22.136719 26.582031 L 19.90625 26.582031 C 19.496094 26.582031 19.164062 26.914062 19.164062 27.324219 C 19.164062 27.734375 19.496094 28.066406 19.90625 28.066406 " fill-opacity="1" fill-rule="nonzero"/></svg>