<svg xmlns="http://www.w3.org/2000/svg" xmlns:xlink="http://www.w3.org/1999/xlink" width="72" zoomAndPan="magnify" viewBox="0 0 54 50.999998" height="68" preserveAspectRatio="xMidYMid meet" version="1.0"><defs><clipPath id="982c56d1eb"><path d="M 4.074219 2.574219 L 49.824219 2.574219 L 49.824219 48.324219 L 4.074219 48.324219 Z M 4.074219 2.574219 " clip-rule="nonzero"/></clipPath></defs><rect x="-5.4" width="64.8" fill="#ffffff" y="-5.1" height="61.199998" fill-opacity="1"/><rect x="-5.4" width="64.8" fill="#ffffff" y="-5.1" height="61.199998" fill-opacity="1"/><g clip-path="url(#982c56d1eb)"><path fill="#00bf63" d="M 48.828125 44.410156 L 48.828125 43.410156 C 48.828125 42.335938 48.039062 41.476562 47.039062 41.296875 L 47.039062 39.113281 C 47.039062 38.71875 46.714844 38.398438 46.324219 38.398438 L 46.324219 21.21875 C 46.714844 21.21875 47.039062 20.898438 47.039062 20.503906 L 47.039062 18.359375 L 47.394531 18.359375 C 47.789062 18.359375 48.113281 18.035156 48.113281 17.640625 L 48.113281 16.210938 C 48.113281 15.136719 47.324219 14.277344 46.324219 14.097656 L 46.324219 13.347656 C 46.324219 12.167969 45.355469 11.199219 44.175781 11.199219 L 43.816406 11.199219 L 43.816406 9.480469 C 43.816406 9.195312 43.636719 8.910156 43.351562 8.800781 L 27.246094 2.648438 C 27.070312 2.574219 26.890625 2.574219 26.746094 2.648438 L 10.640625 8.800781 C 10.355469 8.910156 10.175781 9.160156 10.175781 9.480469 L 10.175781 11.199219 L 9.820312 11.199219 C 8.636719 11.199219 7.671875 12.167969 7.671875 13.347656 L 7.671875 14.097656 C 6.667969 14.277344 5.882812 15.136719 5.882812 16.210938 L 5.882812 17.640625 C 5.882812 18.035156 6.203125 18.359375 6.597656 18.359375 L 6.957031 18.359375 L 6.957031 20.503906 C 6.957031 20.898438 7.277344 21.21875 7.671875 21.21875 L 7.671875 38.398438 C 7.277344 38.398438 6.957031 38.71875 6.957031 39.113281 L 6.957031 41.296875 C 5.953125 41.476562 5.167969 42.335938 5.167969 43.410156 L 5.167969 44.410156 C 4.523438 44.769531 4.09375 45.484375 4.09375 46.273438 L 4.09375 47.703125 C 4.09375 48.097656 4.414062 48.417969 4.808594 48.417969 L 49.183594 48.417969 C 49.578125 48.417969 49.902344 48.097656 49.902344 47.703125 L 49.902344 46.273438 C 49.902344 45.484375 49.472656 44.804688 48.828125 44.410156 Z M 11.609375 9.984375 L 26.996094 4.078125 L 42.386719 9.949219 L 42.386719 11.199219 L 11.609375 11.199219 Z M 9.101562 13.347656 C 9.101562 12.953125 9.425781 12.632812 9.820312 12.632812 L 44.175781 12.632812 C 44.570312 12.632812 44.890625 12.953125 44.890625 13.347656 L 44.890625 14.0625 L 9.101562 14.0625 Z M 7.3125 16.925781 L 7.3125 16.210938 C 7.3125 15.816406 7.636719 15.496094 8.03125 15.496094 L 45.964844 15.496094 C 46.359375 15.496094 46.679688 15.816406 46.679688 16.210938 L 46.679688 16.925781 Z M 45.605469 39.828125 L 45.605469 41.261719 L 42.027344 41.261719 L 42.027344 39.828125 Z M 42.742188 38.398438 L 42.742188 21.21875 L 44.890625 21.21875 L 44.890625 38.398438 Z M 42.027344 19.789062 L 42.027344 18.359375 L 45.605469 18.359375 L 45.605469 19.789062 Z M 38.449219 38.398438 L 38.449219 21.21875 C 38.84375 21.21875 39.164062 20.898438 39.164062 20.503906 L 39.164062 18.359375 L 40.597656 18.359375 L 40.597656 20.503906 C 40.597656 20.898438 40.917969 21.21875 41.3125 21.21875 L 41.3125 38.398438 C 40.917969 38.398438 40.597656 38.71875 40.597656 39.113281 L 40.597656 41.261719 L 39.164062 41.261719 L 39.164062 39.113281 C 39.164062 38.71875 38.84375 38.398438 38.449219 38.398438 Z M 37.734375 39.828125 L 37.734375 41.261719 L 34.15625 41.261719 L 34.15625 39.828125 Z M 34.871094 38.398438 L 34.871094 21.21875 L 37.015625 21.21875 L 37.015625 38.398438 Z M 34.15625 19.789062 L 34.15625 18.359375 L 37.734375 18.359375 L 37.734375 19.789062 Z M 26.996094 29.09375 C 24.8125 29.09375 23.058594 30.847656 23.058594 33.03125 L 23.058594 41.261719 L 21.269531 41.261719 L 21.269531 39.113281 C 21.269531 38.71875 20.949219 38.398438 20.554688 38.398438 L 20.554688 21.21875 C 20.949219 21.21875 21.269531 20.898438 21.269531 20.503906 L 21.269531 18.359375 L 32.722656 18.359375 L 32.722656 20.503906 C 32.722656 20.898438 33.046875 21.21875 33.4375 21.21875 L 33.4375 38.398438 C 33.046875 38.398438 32.722656 38.71875 32.722656 39.113281 L 32.722656 41.261719 L 30.933594 41.261719 L 30.933594 33.03125 C 30.933594 30.847656 29.179688 29.09375 26.996094 29.09375 Z M 29.503906 33.03125 L 29.503906 41.261719 L 24.492188 41.261719 L 24.492188 33.03125 C 24.492188 31.632812 25.601562 30.523438 26.996094 30.523438 C 28.394531 30.523438 29.503906 31.632812 29.503906 33.03125 Z M 19.839844 39.828125 L 19.839844 41.261719 L 16.261719 41.261719 L 16.261719 39.828125 Z M 16.976562 38.398438 L 16.976562 21.21875 L 19.125 21.21875 L 19.125 38.398438 Z M 16.261719 19.789062 L 16.261719 18.359375 L 19.839844 18.359375 L 19.839844 19.789062 Z M 12.683594 38.398438 L 12.683594 21.21875 C 13.074219 21.21875 13.398438 20.898438 13.398438 20.503906 L 13.398438 18.359375 L 14.828125 18.359375 L 14.828125 20.503906 C 14.828125 20.898438 15.152344 21.21875 15.546875 21.21875 L 15.546875 38.398438 C 15.152344 38.398438 14.828125 38.71875 14.828125 39.113281 L 14.828125 41.261719 L 13.398438 41.261719 L 13.398438 39.113281 C 13.398438 38.71875 13.074219 38.398438 12.683594 38.398438 Z M 11.964844 39.828125 L 11.964844 41.261719 L 8.386719 41.261719 L 8.386719 39.828125 Z M 9.101562 38.398438 L 9.101562 21.21875 L 11.25 21.21875 L 11.25 38.398438 Z M 8.386719 19.789062 L 8.386719 18.359375 L 11.964844 18.359375 L 11.964844 19.789062 Z M 6.597656 43.410156 C 6.597656 43.015625 6.921875 42.691406 7.3125 42.691406 L 46.679688 42.691406 C 47.074219 42.691406 47.394531 43.015625 47.394531 43.410156 L 47.394531 44.125 L 6.597656 44.125 Z M 48.46875 46.988281 L 5.523438 46.988281 L 5.523438 46.273438 C 5.523438 45.878906 5.847656 45.554688 6.242188 45.554688 L 47.753906 45.554688 C 48.148438 45.554688 48.46875 45.878906 48.46875 46.273438 Z M 48.46875 46.988281 " fill-opacity="1" fill-rule="nonzero"/></g><path fill="#00bf63" d="M 29.144531 21.21875 L 24.851562 21.21875 C 24.457031 21.21875 24.132812 21.542969 24.132812 21.9375 L 24.132812 26.230469 C 24.132812 26.625 24.457031 26.945312 24.851562 26.945312 L 29.144531 26.945312 C 29.539062 26.945312 29.859375 26.625 29.859375 26.230469 L 29.859375 21.9375 C 29.859375 21.542969 29.539062 21.21875 29.144531 21.21875 Z M 28.429688 25.515625 L 25.566406 25.515625 L 25.566406 22.652344 L 28.429688 22.652344 Z M 28.429688 25.515625 " fill-opacity="1" fill-rule="nonzero"/></svg>