<svg xmlns="http://www.w3.org/2000/svg" xmlns:xlink="http://www.w3.org/1999/xlink" width="72" zoomAndPan="magnify" viewBox="0 0 54 50.999998" height="68" preserveAspectRatio="xMidYMid meet" version="1.0"><defs><clipPath id="d16cee0088"><path d="M 9 3.308594 L 45 3.308594 L 45 47.558594 L 9 47.558594 Z M 9 3.308594 " clip-rule="nonzero"/></clipPath><clipPath id="5ba273f83d"><path d="M 8.515625 3.308594 L 45.246094 3.308594 L 45.246094 47.558594 L 8.515625 47.558594 Z M 8.515625 3.308594 " clip-rule="nonzero"/></clipPath></defs><rect x="-5.4" width="64.8" fill="#ffffff" y="-5.1" height="61.199998" fill-opacity="1"/><rect x="-5.4" width="64.8" fill="#ffffff" y="-5.1" height="61.199998" fill-opacity="1"/><path fill="#fce7d7" d="M 25.707031 43.550781 C 27.058594 43.652344 28.441406 43.828125 29.671875 43.863281 C 32.671875 43.953125 36.023438 44.070312 39.109375 44.050781 C 37.921875 43.664062 36.609375 43.785156 35.332031 43.675781 C 33.933594 43.550781 32.5 43.53125 30.992188 43.484375 C 27.789062 43.390625 24.234375 43.148438 21.050781 43.046875 C 22.171875 43.589844 24.078125 43.421875 25.707031 43.550781 Z M 40.304688 42.855469 C 40.695312 42.875 41.265625 42.976562 41.5625 42.605469 C 38.789062 42.148438 35.964844 42.28125 33.070312 42.101562 C 28.621094 41.824219 23.507812 41.132812 19.222656 41.09375 C 19.351562 41.492188 19.921875 41.398438 20.230469 41.410156 C 25.609375 41.597656 30.347656 42.402344 35.835938 42.542969 C 37.363281 42.582031 38.820312 42.78125 40.304688 42.855469 Z M 42.949219 45.25 C 43.042969 45.613281 43.386719 45.730469 43.578125 46.003906 C 34.972656 45.734375 27.457031 46.488281 19.476562 45.5 C 18.359375 45.363281 17.246094 45.144531 16.078125 45.058594 C 14.933594 44.976562 13.664062 45.105469 12.804688 44.617188 C 12.476562 44.433594 11.804688 43.617188 11.800781 42.984375 C 11.792969 42.351562 12.320312 41.539062 12.679688 41.15625 C 14.539062 39.179688 17.660156 39.289062 21.238281 39.457031 C 22.277344 39.507812 23.40625 39.53125 24.449219 39.648438 C 28.449219 40.09375 32.234375 40.414062 36.339844 40.464844 C 38.546875 40.492188 41.945312 40.371094 43.828125 40.589844 C 43.511719 41.488281 43.941406 42.03125 43.261719 42.605469 C 43.273438 42.9375 43.515625 42.90625 43.515625 43.171875 C 43.511719 43.480469 43.074219 43.726562 43.074219 43.988281 C 43.074219 44.414062 43.554688 44.410156 43.390625 44.871094 C 38.992188 44.890625 34.082031 44.324219 29.609375 44.367188 C 29.988281 44.984375 30.804688 44.707031 31.433594 44.683594 C 32.472656 44.640625 33.5625 44.84375 34.515625 44.933594 C 37.265625 45.191406 40.269531 44.988281 42.949219 45.25 Z M 42.886719 41.851562 C 42.539062 41.394531 40.875 41.46875 40.429688 41.851562 C 40.9375 41.972656 42.371094 41.976562 42.886719 41.851562 " fill-opacity="1" fill-rule="nonzero"/><path fill="#78292a" d="M 40.429688 41.851562 C 40.875 41.46875 42.539062 41.394531 42.886719 41.851562 C 42.371094 41.976562 40.9375 41.972656 40.429688 41.851562 " fill-opacity="1" fill-rule="nonzero"/><path fill="#78292a" d="M 33.070312 42.101562 C 35.964844 42.28125 38.789062 42.148438 41.5625 42.605469 C 41.265625 42.976562 40.695312 42.875 40.304688 42.855469 C 38.820312 42.78125 37.363281 42.582031 35.835938 42.542969 C 30.347656 42.402344 25.609375 41.597656 20.230469 41.410156 C 19.921875 41.398438 19.351562 41.492188 19.222656 41.09375 C 23.507812 41.132812 28.621094 41.824219 33.070312 42.101562 " fill-opacity="1" fill-rule="nonzero"/><path fill="#78292a" d="M 31.746094 22.40625 C 34.421875 22.972656 34.777344 18.09375 32.25 18.1875 C 30.769531 18.273438 30.234375 22.082031 31.746094 22.40625 Z M 27.027344 18.628906 C 27.429688 18.667969 27.726562 18.8125 28.222656 18.753906 C 28.878906 19.726562 28.246094 21.179688 28.539062 22.65625 C 28.761719 22.726562 28.929688 22.851562 29.230469 22.847656 C 29.578125 21.816406 28.984375 20.234375 29.167969 19.007812 C 29.542969 18.964844 30.027344 18.949219 30.425781 18.882812 C 30.441406 18.601562 30.578125 18.1875 30.425781 17.9375 C 29.445312 17.917969 28.332031 17.84375 27.027344 17.875 Z M 36.277344 19.132812 C 36.378906 19.632812 36 19.652344 35.902344 19.949219 C 36.3125 20.523438 36.667969 21.15625 37.03125 21.777344 C 37.222656 20.566406 36.792969 19.914062 36.277344 19.132812 Z M 35.398438 19.761719 C 34.449219 20.238281 34.382812 18.398438 35.398438 18.882812 C 35.507812 19.023438 35.550781 19.234375 35.523438 19.511719 C 36.710938 18.886719 34.792969 17.597656 34.328125 18.691406 C 34.289062 18.882812 34.378906 19.066406 34.390625 19.257812 C 34.449219 20.15625 34.1875 21.378906 34.640625 21.964844 C 34.804688 21.574219 34.382812 20.621094 34.957031 20.390625 C 35.574219 20.800781 35.777344 21.625 36.277344 22.152344 C 37.027344 21.398438 35.613281 20.550781 35.398438 19.761719 Z M 37.789062 20.644531 C 37.824219 19.933594 39.453125 19.441406 38.796875 18.691406 C 38.378906 18.925781 38.265625 19.460938 37.789062 19.636719 C 37.246094 19.4375 37.257812 18.441406 36.53125 18.628906 C 36.546875 19.355469 37.324219 19.808594 37.472656 20.515625 C 37.644531 21.324219 37.160156 22.210938 37.597656 22.972656 C 38.085938 22.84375 37.796875 22.289062 37.789062 22.027344 C 37.773438 21.585938 37.769531 21.066406 37.789062 20.644531 Z M 38.605469 18 C 38.90625 17.984375 39.386719 18.878906 39.363281 19.195312 C 39.320312 19.734375 38.4375 20.304688 38.164062 20.644531 C 38.082031 21.453125 38.347656 22.625 38.101562 23.285156 C 37.886719 23.382812 37.53125 23.339844 37.222656 23.347656 C 37.007812 23.058594 37.046875 22.472656 37.03125 22.152344 C 36.5625 22.164062 36.640625 22.726562 36.027344 22.59375 C 35.800781 22 35.457031 21.527344 35.082031 21.082031 C 34.886719 21.425781 35.15625 21.847656 35.082031 22.28125 C 34.757812 22.414062 34.375 22.3125 34.136719 22.28125 C 34.085938 22.121094 34.054688 21.941406 34.074219 21.714844 C 33.984375 21.875 33.863281 22.027344 33.722656 22.164062 C 33.707031 22.179688 33.6875 22.195312 33.671875 22.210938 C 33.652344 22.230469 33.632812 22.246094 33.613281 22.261719 C 33.59375 22.277344 33.578125 22.292969 33.558594 22.308594 C 33.539062 22.324219 33.519531 22.339844 33.496094 22.351562 C 33.488281 22.359375 33.476562 22.367188 33.46875 22.375 C 33.445312 22.390625 33.425781 22.402344 33.40625 22.417969 C 33.386719 22.429688 33.363281 22.445312 33.34375 22.457031 C 33.320312 22.472656 33.300781 22.484375 33.277344 22.496094 C 33.234375 22.523438 33.191406 22.546875 33.144531 22.570312 C 33.125 22.582031 33.101562 22.589844 33.078125 22.601562 C 33.054688 22.613281 33.03125 22.625 33.007812 22.632812 C 32.972656 22.648438 32.9375 22.664062 32.902344 22.675781 C 32.785156 22.71875 32.667969 22.757812 32.542969 22.78125 C 32.519531 22.785156 32.496094 22.792969 32.472656 22.796875 C 31.835938 22.90625 31.1875 22.742188 30.804688 22.152344 C 30.367188 21.480469 30.398438 20.152344 30.742188 19.257812 C 30.445312 19.398438 29.960938 19.199219 29.480469 19.382812 C 29.429688 20.550781 29.949219 21.871094 29.609375 23.097656 C 29.566406 23.113281 29.527344 23.125 29.484375 23.132812 C 29.464844 23.140625 29.449219 23.144531 29.429688 23.148438 C 29.40625 23.152344 29.382812 23.15625 29.355469 23.160156 C 29.339844 23.164062 29.320312 23.167969 29.304688 23.167969 C 29.054688 23.199219 28.808594 23.167969 28.582031 23.09375 C 28.5625 23.089844 28.542969 23.082031 28.519531 23.074219 C 28.503906 23.066406 28.480469 23.0625 28.460938 23.054688 C 28.453125 23.050781 28.445312 23.046875 28.433594 23.042969 C 28.40625 23.03125 28.375 23.019531 28.347656 23.003906 C 28.339844 23 28.332031 22.996094 28.320312 22.992188 C 28.300781 22.984375 28.285156 22.976562 28.265625 22.964844 C 28.230469 22.949219 28.195312 22.929688 28.160156 22.910156 C 28.058594 21.332031 28.242188 20.765625 28.097656 19.195312 C 27.667969 19.058594 27.023438 19.136719 26.714844 18.882812 C 26.714844 18.832031 26.714844 18.785156 26.71875 18.738281 C 26.71875 18.644531 26.71875 18.558594 26.71875 18.46875 C 26.71875 18.453125 26.714844 18.4375 26.714844 18.421875 C 26.714844 18.398438 26.714844 18.371094 26.710938 18.347656 C 26.710938 18.335938 26.710938 18.324219 26.710938 18.308594 C 26.707031 18.292969 26.707031 18.277344 26.707031 18.261719 C 26.703125 18.246094 26.703125 18.230469 26.703125 18.214844 C 26.699219 18.203125 26.699219 18.1875 26.695312 18.175781 C 26.695312 18.164062 26.695312 18.15625 26.691406 18.144531 C 26.691406 18.128906 26.6875 18.113281 26.6875 18.097656 C 26.683594 18.085938 26.683594 18.074219 26.679688 18.0625 C 26.667969 17.992188 26.652344 17.921875 26.628906 17.859375 C 26.625 17.84375 26.621094 17.832031 26.617188 17.820312 C 26.605469 17.796875 26.597656 17.769531 26.585938 17.75 C 26.652344 17.667969 26.726562 17.605469 26.816406 17.554688 C 26.824219 17.550781 26.835938 17.542969 26.84375 17.539062 C 26.859375 17.53125 26.875 17.523438 26.890625 17.519531 C 26.902344 17.511719 26.910156 17.507812 26.921875 17.503906 C 26.933594 17.5 26.945312 17.496094 26.957031 17.492188 C 26.96875 17.488281 26.976562 17.484375 26.988281 17.480469 C 27.003906 17.476562 27.019531 17.46875 27.035156 17.464844 C 27.046875 17.460938 27.058594 17.460938 27.070312 17.457031 C 27.082031 17.453125 27.09375 17.449219 27.105469 17.449219 C 27.117188 17.445312 27.128906 17.441406 27.140625 17.441406 C 27.148438 17.4375 27.152344 17.4375 27.160156 17.4375 C 27.386719 17.390625 27.644531 17.394531 27.898438 17.402344 C 27.9375 17.40625 27.972656 17.40625 28.007812 17.410156 C 28.058594 17.414062 28.113281 17.414062 28.164062 17.417969 C 28.199219 17.421875 28.234375 17.421875 28.269531 17.425781 C 28.339844 17.429688 28.40625 17.433594 28.476562 17.433594 C 29.316406 17.460938 30.117188 17.480469 30.804688 17.621094 C 30.753906 18.132812 30.957031 18.402344 30.804688 18.882812 C 31.132812 17.921875 33.328125 17.238281 33.886719 18.628906 C 34.0625 18.484375 33.800781 18.296875 33.949219 18.125 C 34.359375 18.296875 34.652344 17.792969 35.269531 17.875 C 35.546875 17.910156 35.671875 18.183594 35.898438 18.25 C 35.851562 18.234375 36.351562 18.25 36.402344 18.25 C 36.632812 18.253906 36.867188 18.125 37.160156 18.1875 C 37.351562 18.539062 37.453125 18.984375 37.851562 19.132812 C 38.171875 18.824219 38.390625 18.414062 38.605469 18 Z M 35.144531 19.449219 C 35.058594 19.265625 35.316406 19.128906 35.144531 19.070312 C 34.992188 19.109375 34.820312 19.453125 35.144531 19.449219 " fill-opacity="1" fill-rule="nonzero"/><path fill="#fce7d7" d="M 38.796875 18.691406 C 39.453125 19.441406 37.824219 19.933594 37.789062 20.644531 C 37.769531 21.066406 37.773438 21.585938 37.789062 22.027344 C 37.796875 22.289062 38.085938 22.84375 37.597656 22.972656 C 37.160156 22.210938 37.644531 21.324219 37.472656 20.515625 C 37.324219 19.808594 36.546875 19.355469 36.53125 18.628906 C 37.257812 18.441406 37.246094 19.4375 37.789062 19.636719 C 38.265625 19.460938 38.378906 18.925781 38.796875 18.691406 " fill-opacity="1" fill-rule="nonzero"/><path fill="#78292a" d="M 39.109375 44.050781 C 36.023438 44.070312 32.671875 43.953125 29.671875 43.863281 C 28.441406 43.828125 27.058594 43.652344 25.707031 43.550781 C 24.078125 43.421875 22.171875 43.589844 21.050781 43.046875 C 24.234375 43.148438 27.789062 43.390625 30.992188 43.484375 C 32.5 43.53125 33.933594 43.550781 35.332031 43.675781 C 36.609375 43.785156 37.921875 43.664062 39.109375 44.050781 " fill-opacity="1" fill-rule="nonzero"/><path fill="#78292a" d="M 37.160156 32.976562 C 37.285156 33.019531 37.328125 33.144531 37.347656 33.292969 C 37.066406 33.363281 36.84375 33.773438 36.53125 33.605469 C 36.550781 33.207031 37.03125 33.269531 37.160156 32.976562 " fill-opacity="1" fill-rule="nonzero"/><path fill="#fce7d7" d="M 37.03125 21.777344 C 36.667969 21.15625 36.3125 20.523438 35.902344 19.949219 C 36 19.652344 36.378906 19.632812 36.277344 19.132812 C 36.792969 19.914062 37.222656 20.566406 37.03125 21.777344 " fill-opacity="1" fill-rule="nonzero"/><path fill="#78292a" d="M 36.96875 34.046875 C 37.0625 34.011719 37.296875 34.121094 37.285156 33.984375 C 37.449219 33.964844 37.445312 34.117188 37.472656 34.234375 C 37.335938 34.308594 37.214844 34.398438 36.96875 34.363281 L 36.96875 34.046875 " fill-opacity="1" fill-rule="nonzero"/><path fill="#fce7d7" d="M 35.398438 18.882812 C 34.382812 18.398438 34.449219 20.238281 35.398438 19.761719 C 35.613281 20.550781 37.027344 21.398438 36.277344 22.152344 C 35.777344 21.625 35.574219 20.800781 34.957031 20.390625 C 34.382812 20.621094 34.804688 21.574219 34.640625 21.964844 C 34.1875 21.378906 34.449219 20.15625 34.390625 19.257812 C 34.378906 19.066406 34.289062 18.882812 34.328125 18.691406 C 34.792969 17.597656 36.710938 18.886719 35.523438 19.511719 C 35.550781 19.234375 35.507812 19.023438 35.398438 18.882812 " fill-opacity="1" fill-rule="nonzero"/><path fill="#fce7d7" d="M 35.144531 19.070312 C 35.316406 19.128906 35.058594 19.265625 35.144531 19.449219 C 34.820312 19.453125 34.992188 19.109375 35.144531 19.070312 " fill-opacity="1" fill-rule="nonzero"/><path fill="#fce7d7" d="M 33.671875 22.210938 C 33.6875 22.195312 33.707031 22.179688 33.722656 22.164062 C 33.707031 22.179688 33.6875 22.195312 33.671875 22.210938 " fill-opacity="1" fill-rule="nonzero"/><path fill="#fce7d7" d="M 33.558594 22.308594 C 33.574219 22.292969 33.59375 22.277344 33.613281 22.261719 C 33.59375 22.277344 33.574219 22.292969 33.558594 22.308594 " fill-opacity="1" fill-rule="nonzero"/><path fill="#fce7d7" d="M 31.558594 21.210938 C 32 21.902344 33.359375 21.597656 33.445312 20.707031 C 33.515625 19.992188 33.15625 19.742188 32.878906 19.132812 C 31.757812 18.730469 31.042969 20.402344 31.558594 21.210938 Z M 32.25 18.1875 C 34.777344 18.09375 34.417969 22.972656 31.746094 22.40625 C 30.234375 22.082031 30.769531 18.277344 32.25 18.1875 " fill-opacity="1" fill-rule="nonzero"/><path fill="#fce7d7" d="M 33.496094 22.351562 C 33.519531 22.339844 33.539062 22.324219 33.558594 22.308594 C 33.539062 22.324219 33.519531 22.339844 33.496094 22.351562 " fill-opacity="1" fill-rule="nonzero"/><path fill="#fce7d7" d="M 33.40625 22.417969 C 33.425781 22.402344 33.445312 22.390625 33.46875 22.375 C 33.445312 22.390625 33.425781 22.402344 33.40625 22.417969 " fill-opacity="1" fill-rule="nonzero"/><path fill="#fce7d7" d="M 33.34375 22.457031 C 33.363281 22.445312 33.386719 22.429688 33.40625 22.417969 C 33.386719 22.429688 33.363281 22.445312 33.34375 22.457031 " fill-opacity="1" fill-rule="nonzero"/><path fill="#fce7d7" d="M 33.277344 22.496094 C 33.300781 22.484375 33.320312 22.472656 33.34375 22.457031 C 33.320312 22.472656 33.300781 22.484375 33.277344 22.496094 " fill-opacity="1" fill-rule="nonzero"/><path fill="#fce7d7" d="M 33.144531 22.570312 C 33.191406 22.546875 33.234375 22.523438 33.277344 22.496094 C 33.234375 22.523438 33.191406 22.546875 33.144531 22.570312 " fill-opacity="1" fill-rule="nonzero"/><path fill="#fce7d7" d="M 33.007812 22.632812 C 33.03125 22.625 33.054688 22.613281 33.078125 22.601562 C 33.054688 22.613281 33.03125 22.625 33.007812 22.632812 " fill-opacity="1" fill-rule="nonzero"/><path fill="#fce7d7" d="M 32.902344 22.675781 C 32.9375 22.664062 32.972656 22.648438 33.007812 22.632812 C 32.972656 22.648438 32.9375 22.664062 32.902344 22.675781 " fill-opacity="1" fill-rule="nonzero"/><path fill="#78292a" d="M 31.558594 21.210938 C 31.042969 20.402344 31.757812 18.730469 32.878906 19.132812 C 33.15625 19.742188 33.515625 19.992188 33.445312 20.707031 C 33.359375 21.597656 32 21.902344 31.558594 21.210938 Z M 31.871094 21.019531 C 32.105469 21.136719 32.535156 21.207031 32.816406 21.082031 C 33.183594 20.632812 33.054688 19.605469 32.566406 19.511719 C 31.980469 19.398438 31.773438 20.1875 31.871094 21.019531 " fill-opacity="1" fill-rule="nonzero"/><path fill="#fce7d7" d="M 31.871094 21.019531 C 31.773438 20.1875 31.980469 19.398438 32.566406 19.511719 C 33.054688 19.605469 33.183594 20.632812 32.816406 21.082031 C 32.535156 21.207031 32.105469 21.136719 31.871094 21.019531 " fill-opacity="1" fill-rule="nonzero"/><path fill="#fce7d7" d="M 32.472656 22.796875 C 32.496094 22.792969 32.519531 22.785156 32.542969 22.78125 C 32.519531 22.785156 32.496094 22.792969 32.472656 22.796875 " fill-opacity="1" fill-rule="nonzero"/><path fill="#78292a" d="M 32.019531 10.492188 C 32.101562 10.511719 32.195312 10.523438 32.3125 10.511719 C 32.195312 10.632812 32.351562 10.625 32.3125 10.828125 C 32.136719 10.902344 31.925781 10.902344 31.746094 10.828125 C 31.710938 10.574219 31.710938 10.636719 31.746094 10.386719 C 31.777344 10.398438 31.808594 10.414062 31.839844 10.425781 C 31.882812 10.445312 31.925781 10.460938 31.976562 10.476562 C 31.988281 10.484375 32.003906 10.488281 32.019531 10.492188 " fill-opacity="1" fill-rule="nonzero"/><path fill="#78292a" d="M 31.054688 9.882812 C 31.109375 10.164062 30.773438 10.261719 30.613281 10.132812 C 30.558594 9.851562 30.898438 9.757812 31.054688 9.882812 " fill-opacity="1" fill-rule="nonzero"/><path fill="#fce7d7" d="M 29.167969 19.007812 C 28.984375 20.234375 29.578125 21.816406 29.230469 22.847656 C 28.929688 22.851562 28.761719 22.726562 28.539062 22.65625 C 28.246094 21.179688 28.878906 19.726562 28.222656 18.753906 C 27.726562 18.8125 27.429688 18.667969 27.027344 18.628906 L 27.027344 17.875 C 28.332031 17.84375 29.445312 17.917969 30.425781 17.9375 C 30.578125 18.1875 30.441406 18.601562 30.425781 18.882812 C 30.027344 18.949219 29.542969 18.964844 29.167969 19.007812 " fill-opacity="1" fill-rule="nonzero"/><path fill="#fce7d7" d="M 26.714844 18.421875 C 26.714844 18.4375 26.71875 18.453125 26.71875 18.46875 C 26.71875 18.453125 26.714844 18.4375 26.714844 18.421875 " fill-opacity="1" fill-rule="nonzero"/><path fill="#fce7d7" d="M 26.71875 18.738281 C 26.714844 18.785156 26.714844 18.832031 26.714844 18.882812 C 26.714844 18.832031 26.714844 18.785156 26.71875 18.738281 " fill-opacity="1" fill-rule="nonzero"/><path fill="#fce7d7" d="M 26.707031 18.261719 C 26.703125 18.246094 26.703125 18.230469 26.703125 18.214844 C 26.703125 18.230469 26.703125 18.246094 26.707031 18.261719 " fill-opacity="1" fill-rule="nonzero"/><path fill="#fce7d7" d="M 26.691406 18.144531 C 26.695312 18.15625 26.695312 18.164062 26.695312 18.175781 C 26.695312 18.164062 26.695312 18.15625 26.691406 18.144531 " fill-opacity="1" fill-rule="nonzero"/><path fill="#fce7d7" d="M 26.679688 18.0625 C 26.683594 18.074219 26.683594 18.085938 26.6875 18.097656 C 26.683594 18.085938 26.683594 18.074219 26.679688 18.0625 " fill-opacity="1" fill-rule="nonzero"/><path fill="#fce7d7" d="M 26.617188 17.820312 C 26.621094 17.832031 26.625 17.84375 26.628906 17.859375 C 26.625 17.84375 26.621094 17.832031 26.617188 17.820312 " fill-opacity="1" fill-rule="nonzero"/><path fill="#78292a" d="M 26.082031 17.371094 C 26.207031 17.761719 26.324219 18.277344 26.210938 18.566406 C 26.027344 18.699219 25.738281 18.726562 25.515625 18.816406 C 26.5 19.050781 27.125 19.796875 27.089844 20.707031 C 27.070312 21.226562 26.851562 21.695312 26.492188 22.058594 C 26.421875 22.128906 26.347656 22.195312 26.265625 22.261719 C 26.234375 22.28125 26.207031 22.304688 26.175781 22.328125 C 26.152344 22.34375 26.128906 22.359375 26.105469 22.375 C 26.089844 22.386719 26.074219 22.394531 26.058594 22.40625 C 26.042969 22.414062 26.023438 22.425781 26.007812 22.433594 C 25.976562 22.453125 25.941406 22.472656 25.910156 22.492188 C 25.890625 22.5 25.875 22.507812 25.859375 22.519531 C 25.839844 22.527344 25.824219 22.535156 25.804688 22.542969 C 25.789062 22.550781 25.769531 22.558594 25.753906 22.566406 C 25.671875 22.605469 25.589844 22.636719 25.503906 22.667969 C 25.429688 22.691406 25.351562 22.714844 25.273438 22.734375 C 25.253906 22.738281 25.234375 22.742188 25.214844 22.746094 C 25.203125 22.75 25.195312 22.753906 25.183594 22.753906 C 24.746094 22.847656 24.261719 22.84375 23.753906 22.71875 C 23.476562 22.421875 23.289062 21.570312 23.628906 21.210938 C 24.1875 21.148438 24.789062 21.277344 25.140625 20.769531 L 25.140625 20.203125 C 24 20.09375 23.066406 19.617188 23.1875 18.566406 C 23.320312 17.457031 24.90625 17.121094 26.082031 17.371094 Z M 24.007812 22.40625 C 24.457031 22.449219 24.808594 22.3125 25.453125 22.34375 C 26.640625 21.863281 27.273438 19.800781 25.769531 19.257812 C 25.359375 19.269531 24.933594 19.296875 24.824219 19.007812 C 24.855469 18.890625 24.90625 18.792969 24.972656 18.710938 C 24.980469 18.703125 24.988281 18.691406 24.996094 18.683594 C 25.003906 18.671875 25.011719 18.664062 25.023438 18.652344 C 25.222656 18.449219 25.53125 18.355469 25.894531 18.316406 C 25.894531 18.285156 25.898438 18.257812 25.898438 18.230469 C 25.898438 18.203125 25.898438 18.175781 25.898438 18.148438 C 25.898438 18 25.886719 17.867188 25.855469 17.753906 C 25.851562 17.746094 25.851562 17.742188 25.847656 17.734375 C 25.84375 17.71875 25.839844 17.703125 25.832031 17.6875 C 23.851562 17.078125 22.4375 19.792969 25.078125 19.636719 C 26.234375 20.390625 25.054688 21.996094 23.882812 21.523438 C 23.839844 21.894531 23.796875 22.171875 24.007812 22.40625 " fill-opacity="1" fill-rule="nonzero"/><path fill="#fce7d7" d="M 23.882812 21.523438 C 25.054688 21.996094 26.234375 20.390625 25.078125 19.636719 C 22.4375 19.792969 23.851562 17.078125 25.832031 17.6875 C 25.839844 17.703125 25.84375 17.71875 25.847656 17.734375 C 25.851562 17.742188 25.851562 17.746094 25.855469 17.753906 C 25.886719 17.867188 25.898438 18 25.898438 18.148438 C 25.898438 18.175781 25.898438 18.203125 25.898438 18.230469 C 25.898438 18.257812 25.894531 18.285156 25.894531 18.316406 C 25.53125 18.355469 25.222656 18.449219 25.023438 18.652344 C 25.011719 18.664062 25.003906 18.671875 24.996094 18.683594 C 24.988281 18.691406 24.980469 18.703125 24.972656 18.710938 C 24.90625 18.792969 24.855469 18.890625 24.824219 19.007812 C 24.933594 19.296875 25.359375 19.269531 25.769531 19.257812 C 27.273438 19.800781 26.640625 21.863281 25.453125 22.34375 C 24.808594 22.3125 24.457031 22.449219 24.007812 22.40625 C 23.796875 22.171875 23.839844 21.894531 23.882812 21.523438 " fill-opacity="1" fill-rule="nonzero"/><path fill="#78292a" d="M 22.496094 17.308594 C 22.707031 17.722656 23.003906 18.339844 22.683594 18.753906 C 21.0625 18.585938 22.152344 19.921875 21.992188 21.019531 C 22.207031 21.164062 22.71875 21.011719 22.9375 21.148438 C 23.164062 21.4375 23.3125 22.140625 23.0625 22.53125 C 23.042969 22.539062 23.023438 22.550781 23 22.558594 C 22.988281 22.5625 22.980469 22.5625 22.972656 22.566406 C 22.960938 22.570312 22.953125 22.574219 22.941406 22.578125 C 22.9375 22.578125 22.929688 22.578125 22.925781 22.582031 C 22.894531 22.589844 22.863281 22.597656 22.824219 22.605469 C 22.8125 22.609375 22.800781 22.609375 22.789062 22.613281 C 22.773438 22.617188 22.753906 22.621094 22.734375 22.625 C 22.722656 22.625 22.707031 22.628906 22.695312 22.628906 C 22.667969 22.632812 22.640625 22.636719 22.613281 22.640625 C 22.585938 22.644531 22.558594 22.648438 22.527344 22.652344 C 22.515625 22.652344 22.5 22.65625 22.484375 22.65625 C 22.46875 22.65625 22.453125 22.660156 22.4375 22.660156 C 21.925781 22.707031 21.242188 22.6875 20.671875 22.65625 C 20.167969 22.632812 19.574219 22.582031 19.476562 22.28125 C 19.25 21.566406 20.15625 21.566406 20.609375 21.335938 C 20.585938 20.238281 20.640625 19.535156 20.484375 18.691406 C 20.078125 18.636719 19.695312 18.671875 19.289062 18.503906 C 19.191406 18.238281 19.191406 17.699219 19.289062 17.433594 C 20.011719 16.839844 21.496094 17.339844 22.496094 17.308594 Z M 19.855469 22.152344 C 20.542969 22.179688 22.011719 22.441406 22.8125 22.152344 L 22.8125 21.460938 C 22.414062 21.480469 22.066406 21.453125 21.742188 21.398438 C 21.617188 20.59375 21.46875 19.785156 21.425781 18.753906 C 21.628906 18.433594 22.171875 18.453125 22.496094 18.25 C 22.40625 18.089844 22.386719 17.859375 22.308594 17.6875 C 21.292969 17.703125 20.328125 17.351562 19.539062 17.75 L 19.539062 18.25 C 19.957031 18.414062 20.410156 18.148438 20.734375 18.378906 C 21.0625 19.226562 20.886719 20.574219 20.988281 21.648438 C 20.605469 21.816406 20.019531 21.773438 19.855469 22.152344 " fill-opacity="1" fill-rule="nonzero"/><path fill="#fce7d7" d="M 22.308594 17.6875 C 22.386719 17.859375 22.40625 18.089844 22.496094 18.253906 C 22.171875 18.453125 21.628906 18.433594 21.425781 18.753906 C 21.46875 19.785156 21.617188 20.59375 21.742188 21.398438 C 22.066406 21.453125 22.414062 21.480469 22.8125 21.460938 L 22.8125 22.152344 C 22.011719 22.441406 20.542969 22.179688 19.855469 22.152344 C 20.019531 21.773438 20.605469 21.816406 20.988281 21.648438 C 20.886719 20.574219 21.0625 19.226562 20.734375 18.378906 C 20.410156 18.148438 19.957031 18.414062 19.539062 18.253906 L 19.539062 17.75 C 20.328125 17.351562 21.292969 17.703125 22.308594 17.6875 " fill-opacity="1" fill-rule="nonzero"/><path fill="#78292a" d="M 19.726562 29.832031 C 19.75 30.300781 19.308594 29.976562 19.222656 29.832031 C 19.175781 29.636719 19.398438 29.710938 19.351562 29.515625 C 19.621094 29.476562 19.417969 29.910156 19.726562 29.832031 " fill-opacity="1" fill-rule="nonzero"/><path fill="#78292a" d="M 16.015625 19.949219 C 16.160156 20.960938 16.21875 22.203125 16.644531 22.78125 C 16.820312 21.648438 16.097656 20.003906 17.714844 20.140625 C 18.644531 20.644531 17.765625 22.40625 18.65625 22.78125 C 18.867188 22.097656 18.722656 21.164062 18.65625 20.265625 C 18.585938 19.253906 18.335938 18.207031 18.28125 17.308594 C 18.195312 17.3125 18.140625 17.277344 18.089844 17.246094 C 17.929688 17.921875 18.191406 19.023438 17.652344 19.320312 C 17.324219 19.273438 17.027344 19.5 16.769531 19.320312 C 16.691406 18.542969 16.65625 17.988281 16.457031 17.433594 C 15.464844 17.550781 15.890625 19.09375 16.015625 19.949219 Z M 19.097656 21.523438 C 19.160156 22.074219 19.316406 22.753906 18.910156 23.160156 C 18.445312 23.207031 18.21875 23.015625 17.964844 22.847656 C 17.691406 22.167969 18.050781 21.21875 17.652344 20.644531 C 17.386719 20.628906 17.246094 20.742188 17.023438 20.769531 C 17.015625 20.800781 17.007812 20.828125 17.003906 20.859375 C 17 20.890625 16.996094 20.921875 16.992188 20.953125 C 16.992188 20.96875 16.988281 20.984375 16.988281 21.003906 C 16.980469 21.117188 16.984375 21.238281 16.992188 21.363281 C 16.992188 21.386719 16.996094 21.410156 16.996094 21.433594 C 17 21.453125 17 21.472656 17.003906 21.492188 C 17.003906 21.515625 17.007812 21.539062 17.007812 21.5625 C 17.011719 21.597656 17.015625 21.632812 17.019531 21.671875 C 17.023438 21.707031 17.027344 21.742188 17.035156 21.777344 C 17.035156 21.785156 17.035156 21.792969 17.035156 21.800781 C 17.039062 21.835938 17.042969 21.871094 17.046875 21.90625 C 17.050781 21.929688 17.054688 21.953125 17.058594 21.976562 C 17.0625 22.03125 17.070312 22.082031 17.074219 22.132812 C 17.074219 22.140625 17.074219 22.144531 17.074219 22.148438 C 17.078125 22.1875 17.082031 22.226562 17.085938 22.265625 C 17.085938 22.269531 17.085938 22.277344 17.085938 22.28125 C 17.105469 22.5625 17.101562 22.839844 17.023438 23.097656 C 16.664062 23.265625 16.433594 23.234375 16.273438 23.070312 C 16.25 23.042969 16.226562 23.011719 16.203125 22.980469 C 16.195312 22.96875 16.1875 22.953125 16.179688 22.941406 C 16.167969 22.917969 16.15625 22.894531 16.144531 22.871094 C 16.132812 22.847656 16.121094 22.820312 16.109375 22.792969 C 16.105469 22.785156 16.101562 22.773438 16.097656 22.761719 C 16.09375 22.746094 16.085938 22.730469 16.082031 22.710938 C 16.078125 22.699219 16.074219 22.6875 16.070312 22.675781 C 16.042969 22.589844 16.019531 22.492188 16 22.390625 C 15.996094 22.363281 15.988281 22.335938 15.984375 22.308594 C 15.976562 22.265625 15.96875 22.222656 15.964844 22.175781 C 15.957031 22.132812 15.953125 22.085938 15.945312 22.042969 C 15.9375 21.980469 15.929688 21.917969 15.921875 21.855469 C 15.917969 21.824219 15.914062 21.792969 15.910156 21.761719 C 15.886719 21.519531 15.859375 21.269531 15.824219 21.019531 C 15.707031 20.152344 15.671875 19.273438 15.574219 18.628906 C 15.542969 18.410156 15.367188 17.964844 15.386719 17.8125 C 15.460938 17.207031 16.277344 16.839844 16.769531 17.183594 C 17.070312 17.71875 16.800781 18.363281 17.148438 19.007812 C 17.738281 18.972656 17.722656 18.484375 17.6875 17.964844 C 17.675781 17.792969 17.664062 17.617188 17.671875 17.453125 C 17.671875 17.386719 17.679688 17.324219 17.6875 17.265625 C 17.6875 17.261719 17.6875 17.261719 17.6875 17.261719 C 17.695312 17.222656 17.703125 17.1875 17.714844 17.152344 C 17.714844 17.148438 17.714844 17.148438 17.714844 17.144531 C 17.71875 17.132812 17.722656 17.121094 17.726562 17.113281 C 17.726562 17.105469 17.730469 17.101562 17.730469 17.097656 C 17.734375 17.089844 17.734375 17.085938 17.738281 17.082031 C 17.742188 17.066406 17.75 17.054688 17.753906 17.039062 C 17.757812 17.03125 17.761719 17.027344 17.765625 17.019531 C 17.769531 17.015625 17.773438 17.007812 17.777344 17 C 17.78125 16.992188 17.785156 16.984375 17.789062 16.980469 C 17.8125 16.945312 17.835938 16.914062 17.863281 16.882812 C 17.867188 16.878906 17.871094 16.878906 17.875 16.875 C 17.882812 16.867188 17.890625 16.859375 17.902344 16.851562 C 17.921875 16.832031 17.941406 16.820312 17.964844 16.804688 C 18.234375 16.894531 18.472656 17.011719 18.65625 17.183594 C 18.855469 18.589844 18.9375 20.101562 19.097656 21.523438 " fill-opacity="1" fill-rule="nonzero"/><path fill="#fce7d7" d="M 16.644531 22.78125 C 16.21875 22.203125 16.160156 20.960938 16.015625 19.949219 C 15.890625 19.09375 15.464844 17.550781 16.457031 17.433594 C 16.65625 17.992188 16.691406 18.542969 16.769531 19.320312 C 17.027344 19.5 17.324219 19.273438 17.652344 19.320312 C 18.191406 19.023438 17.929688 17.921875 18.089844 17.246094 C 18.140625 17.277344 18.195312 17.3125 18.28125 17.308594 C 18.335938 18.207031 18.585938 19.253906 18.65625 20.265625 C 18.722656 21.164062 18.867188 22.097656 18.65625 22.78125 C 17.765625 22.40625 18.644531 20.644531 17.714844 20.140625 C 16.097656 20.003906 16.820312 21.648438 16.644531 22.78125 " fill-opacity="1" fill-rule="nonzero"/><path fill="#78292a" d="M 17.652344 30.144531 C 17.929688 30.183594 17.84375 30.582031 18.15625 30.585938 C 18.121094 30.636719 18.089844 30.6875 18.089844 30.773438 C 17.757812 30.773438 17.503906 30.421875 17.652344 30.144531 " fill-opacity="1" fill-rule="nonzero"/><path fill="#fce7d7" d="M 17.789062 16.980469 C 17.785156 16.984375 17.78125 16.992188 17.777344 17 C 17.78125 16.992188 17.785156 16.984375 17.789062 16.980469 " fill-opacity="1" fill-rule="nonzero"/><path fill="#fce7d7" d="M 17.765625 17.019531 C 17.761719 17.027344 17.757812 17.03125 17.753906 17.039062 C 17.757812 17.03125 17.761719 17.027344 17.765625 17.019531 " fill-opacity="1" fill-rule="nonzero"/><path fill="#fce7d7" d="M 17.738281 17.082031 C 17.734375 17.085938 17.734375 17.089844 17.730469 17.097656 C 17.734375 17.089844 17.734375 17.085938 17.738281 17.082031 " fill-opacity="1" fill-rule="nonzero"/><path fill="#fce7d7" d="M 17.726562 17.113281 C 17.722656 17.121094 17.71875 17.132812 17.714844 17.144531 C 17.71875 17.132812 17.722656 17.121094 17.726562 17.113281 " fill-opacity="1" fill-rule="nonzero"/><path fill="#fce7d7" d="M 17.714844 17.152344 C 17.703125 17.1875 17.695312 17.222656 17.6875 17.261719 C 17.695312 17.222656 17.703125 17.1875 17.714844 17.152344 " fill-opacity="1" fill-rule="nonzero"/><path fill="#fce7d7" d="M 17.6875 17.265625 C 17.679688 17.324219 17.671875 17.386719 17.671875 17.453125 C 17.671875 17.386719 17.679688 17.324219 17.6875 17.265625 " fill-opacity="1" fill-rule="nonzero"/><path fill="#fce7d7" d="M 17.671875 17.453125 C 17.664062 17.617188 17.675781 17.792969 17.6875 17.964844 C 17.675781 17.792969 17.664062 17.617188 17.671875 17.453125 " fill-opacity="1" fill-rule="nonzero"/><path fill="#78292a" d="M 12.742188 35.054688 C 12.640625 35.476562 12.507812 35.867188 12.363281 36.25 C 11.910156 35.980469 12.546875 35.347656 12.617188 34.992188 C 12.691406 34.980469 12.730469 35.003906 12.742188 35.054688 " fill-opacity="1" fill-rule="nonzero"/><g clip-path="url(#d16cee0088)"><path fill="#fce7d7" d="M 18.089844 30.773438 C 18.089844 30.6875 18.121094 30.636719 18.15625 30.585938 C 17.84375 30.582031 17.929688 30.183594 17.652344 30.144531 C 17.503906 30.421875 17.757812 30.773438 18.089844 30.773438 Z M 12.492188 22.972656 C 12.566406 22.765625 12.5625 22.164062 12.363281 22.027344 C 12.0625 22.214844 12.199219 22.84375 12.492188 22.972656 Z M 12.492188 32.472656 C 12.351562 32.121094 12.535156 31.738281 12.492188 31.53125 C 12.476562 31.480469 12.4375 31.457031 12.363281 31.46875 C 12.171875 31.707031 11.894531 32.453125 12.492188 32.472656 Z M 12.363281 36.25 C 12.507812 35.867188 12.640625 35.476562 12.742188 35.054688 C 12.730469 35.003906 12.691406 34.980469 12.617188 34.992188 C 12.546875 35.347656 11.910156 35.980469 12.363281 36.25 Z M 12.429688 27.941406 C 12.441406 27.894531 12.480469 27.871094 12.554688 27.878906 C 12.480469 27.578125 12.667969 27.273438 12.300781 27.1875 C 12.085938 27.351562 12.195312 27.855469 12.429688 27.941406 Z M 12.429688 18.945312 C 12.582031 18.621094 12.253906 18.175781 12.300781 17.9375 L 12.113281 17.9375 C 11.988281 18.269531 12.164062 18.796875 12.429688 18.945312 Z M 11.925781 12.023438 C 11.53125 12.277344 11.835938 13.109375 12.050781 13.34375 C 12.054688 13 12.082031 12.257812 11.925781 12.023438 Z M 11.800781 8.75 C 12.035156 8.515625 11.933594 7.636719 11.863281 7.300781 L 11.671875 7.300781 C 11.722656 7.667969 11.433594 8.496094 11.800781 8.75 Z M 19.222656 29.832031 C 19.308594 29.976562 19.75 30.300781 19.726562 29.832031 C 19.417969 29.910156 19.621094 29.476562 19.351562 29.515625 C 19.398438 29.710938 19.175781 29.636719 19.222656 29.832031 Z M 17.964844 22.847656 C 18.21875 23.015625 18.445312 23.207031 18.910156 23.160156 C 19.316406 22.753906 19.160156 22.074219 19.097656 21.523438 C 18.941406 20.101562 18.855469 18.589844 18.65625 17.183594 C 18.472656 17.011719 18.234375 16.894531 17.964844 16.804688 C 17.941406 16.820312 17.921875 16.832031 17.902344 16.851562 C 17.890625 16.859375 17.882812 16.867188 17.875 16.875 C 17.871094 16.878906 17.867188 16.878906 17.863281 16.882812 C 17.835938 16.914062 17.8125 16.945312 17.789062 16.980469 C 17.785156 16.984375 17.78125 16.992188 17.777344 17 C 17.773438 17.007812 17.769531 17.015625 17.765625 17.019531 C 17.761719 17.027344 17.757812 17.03125 17.753906 17.039062 C 17.75 17.054688 17.742188 17.066406 17.738281 17.082031 C 17.734375 17.085938 17.734375 17.089844 17.730469 17.097656 C 17.730469 17.101562 17.726562 17.105469 17.726562 17.113281 C 17.722656 17.121094 17.71875 17.132812 17.714844 17.144531 C 17.714844 17.148438 17.714844 17.148438 17.714844 17.152344 C 17.703125 17.1875 17.695312 17.222656 17.6875 17.261719 C 17.6875 17.261719 17.6875 17.261719 17.6875 17.265625 C 17.679688 17.324219 17.671875 17.386719 17.671875 17.453125 C 17.664062 17.617188 17.675781 17.792969 17.6875 17.964844 C 17.722656 18.484375 17.738281 18.972656 17.148438 19.007812 C 16.800781 18.363281 17.070312 17.71875 16.769531 17.183594 C 16.277344 16.839844 15.460938 17.207031 15.386719 17.8125 C 15.367188 17.964844 15.542969 18.410156 15.574219 18.628906 C 15.671875 19.273438 15.707031 20.152344 15.824219 21.019531 C 15.859375 21.269531 15.886719 21.519531 15.910156 21.761719 C 15.914062 21.792969 15.917969 21.824219 15.921875 21.855469 C 15.929688 21.917969 15.9375 21.980469 15.945312 22.042969 C 15.953125 22.085938 15.957031 22.132812 15.964844 22.175781 C 15.96875 22.222656 15.976562 22.265625 15.984375 22.308594 C 15.988281 22.335938 15.996094 22.363281 16 22.390625 C 16.019531 22.492188 16.042969 22.589844 16.070312 22.675781 C 16.074219 22.6875 16.078125 22.699219 16.082031 22.710938 C 16.085938 22.730469 16.089844 22.746094 16.097656 22.761719 C 16.101562 22.773438 16.105469 22.785156 16.109375 22.792969 C 16.121094 22.820312 16.132812 22.847656 16.144531 22.871094 C 16.15625 22.894531 16.167969 22.917969 16.179688 22.941406 C 16.1875 22.953125 16.195312 22.96875 16.203125 22.980469 C 16.226562 23.011719 16.25 23.042969 16.273438 23.070312 C 16.433594 23.234375 16.664062 23.265625 17.023438 23.097656 C 17.101562 22.839844 17.105469 22.5625 17.085938 22.28125 C 17.085938 22.277344 17.085938 22.269531 17.085938 22.265625 C 17.082031 22.226562 17.078125 22.1875 17.074219 22.148438 C 17.074219 22.144531 17.074219 22.136719 17.074219 22.132812 C 17.070312 22.082031 17.0625 22.03125 17.058594 21.976562 C 17.054688 21.953125 17.050781 21.929688 17.046875 21.90625 C 17.042969 21.871094 17.039062 21.835938 17.035156 21.800781 C 17.035156 21.792969 17.035156 21.785156 17.035156 21.777344 C 17.027344 21.742188 17.023438 21.707031 17.019531 21.671875 C 17.015625 21.632812 17.011719 21.597656 17.007812 21.5625 C 17.007812 21.539062 17.003906 21.515625 17.003906 21.492188 C 17 21.472656 17 21.453125 16.996094 21.433594 C 16.996094 21.410156 16.992188 21.386719 16.992188 21.363281 C 16.984375 21.238281 16.980469 21.117188 16.988281 21.003906 C 16.988281 20.984375 16.992188 20.96875 16.992188 20.953125 C 16.996094 20.921875 17 20.890625 17.003906 20.859375 C 17.007812 20.828125 17.015625 20.800781 17.023438 20.769531 C 17.246094 20.738281 17.386719 20.628906 17.652344 20.644531 C 18.050781 21.21875 17.691406 22.167969 17.964844 22.847656 Z M 30.613281 10.132812 C 30.773438 10.261719 31.109375 10.164062 31.054688 9.882812 C 30.898438 9.757812 30.558594 9.851562 30.613281 10.132812 Z M 31.746094 10.828125 C 31.925781 10.902344 32.136719 10.902344 32.3125 10.828125 C 32.351562 10.625 32.195312 10.632812 32.3125 10.511719 C 32.195312 10.523438 32.101562 10.511719 32.019531 10.492188 C 32.003906 10.488281 31.988281 10.484375 31.976562 10.476562 C 31.925781 10.460938 31.882812 10.445312 31.839844 10.425781 C 31.808594 10.410156 31.777344 10.398438 31.746094 10.386719 C 31.710938 10.636719 31.710938 10.574219 31.746094 10.828125 Z M 37.285156 33.984375 C 37.296875 34.121094 37.0625 34.011719 36.96875 34.046875 L 36.96875 34.363281 C 37.214844 34.398438 37.335938 34.308594 37.472656 34.234375 C 37.445312 34.117188 37.449219 33.964844 37.285156 33.984375 Z M 36.53125 33.605469 C 36.84375 33.773438 37.066406 33.363281 37.347656 33.292969 C 37.328125 33.144531 37.28125 33.019531 37.160156 32.976562 C 37.03125 33.269531 36.550781 33.207031 36.53125 33.605469 Z M 23.1875 18.566406 C 23.066406 19.617188 24 20.09375 25.140625 20.203125 L 25.140625 20.769531 C 24.789062 21.277344 24.1875 21.148438 23.628906 21.210938 C 23.289062 21.570312 23.476562 22.421875 23.753906 22.71875 C 24.261719 22.84375 24.746094 22.847656 25.183594 22.753906 C 25.195312 22.753906 25.203125 22.75 25.214844 22.746094 C 25.234375 22.742188 25.253906 22.738281 25.273438 22.734375 C 25.351562 22.714844 25.429688 22.691406 25.503906 22.664062 C 25.589844 22.636719 25.671875 22.605469 25.753906 22.566406 C 25.769531 22.558594 25.789062 22.550781 25.804688 22.542969 C 25.824219 22.535156 25.839844 22.527344 25.859375 22.519531 C 25.875 22.507812 25.890625 22.5 25.910156 22.492188 C 25.941406 22.472656 25.976562 22.453125 26.007812 22.433594 C 26.023438 22.425781 26.042969 22.414062 26.058594 22.40625 C 26.074219 22.394531 26.089844 22.386719 26.105469 22.375 C 26.128906 22.359375 26.152344 22.34375 26.175781 22.328125 C 26.207031 22.304688 26.234375 22.28125 26.265625 22.261719 C 26.347656 22.195312 26.421875 22.128906 26.492188 22.058594 C 26.851562 21.695312 27.070312 21.226562 27.089844 20.707031 C 27.125 19.796875 26.5 19.050781 25.515625 18.816406 C 25.738281 18.726562 26.027344 18.699219 26.210938 18.566406 C 26.324219 18.277344 26.207031 17.761719 26.082031 17.371094 C 24.90625 17.121094 23.320312 17.457031 23.1875 18.566406 Z M 21.992188 21.019531 C 22.152344 19.921875 21.0625 18.585938 22.683594 18.753906 C 23.003906 18.339844 22.707031 17.722656 22.496094 17.308594 C 21.496094 17.339844 20.011719 16.839844 19.289062 17.433594 C 19.191406 17.699219 19.191406 18.238281 19.289062 18.503906 C 19.695312 18.671875 20.078125 18.636719 20.484375 18.691406 C 20.640625 19.535156 20.585938 20.238281 20.609375 21.335938 C 20.15625 21.566406 19.25 21.566406 19.476562 22.277344 C 19.574219 22.582031 20.167969 22.632812 20.671875 22.65625 C 21.242188 22.6875 21.925781 22.707031 22.4375 22.660156 C 22.453125 22.660156 22.46875 22.65625 22.484375 22.65625 C 22.5 22.65625 22.515625 22.652344 22.527344 22.652344 C 22.558594 22.648438 22.585938 22.644531 22.613281 22.640625 C 22.640625 22.636719 22.667969 22.632812 22.695312 22.628906 C 22.707031 22.628906 22.722656 22.625 22.734375 22.625 C 22.753906 22.621094 22.773438 22.617188 22.789062 22.613281 C 22.800781 22.609375 22.8125 22.609375 22.824219 22.605469 C 22.859375 22.597656 22.894531 22.589844 22.925781 22.582031 C 22.929688 22.578125 22.9375 22.578125 22.941406 22.578125 C 22.953125 22.574219 22.960938 22.570312 22.972656 22.566406 C 22.980469 22.5625 22.988281 22.5625 23 22.558594 C 23.023438 22.550781 23.042969 22.539062 23.0625 22.53125 C 23.3125 22.140625 23.164062 21.4375 22.9375 21.148438 C 22.71875 21.011719 22.207031 21.164062 21.992188 21.019531 Z M 29.480469 19.382812 C 29.960938 19.199219 30.445312 19.398438 30.742188 19.257812 C 30.398438 20.152344 30.367188 21.480469 30.804688 22.152344 C 31.1875 22.742188 31.835938 22.90625 32.472656 22.796875 C 32.496094 22.792969 32.519531 22.785156 32.542969 22.78125 C 32.667969 22.757812 32.785156 22.71875 32.902344 22.675781 C 32.9375 22.664062 32.972656 22.648438 33.007812 22.632812 C 33.03125 22.625 33.054688 22.613281 33.078125 22.601562 C 33.101562 22.589844 33.125 22.582031 33.144531 22.570312 C 33.191406 22.546875 33.234375 22.523438 33.277344 22.496094 C 33.300781 22.484375 33.320312 22.472656 33.34375 22.457031 C 33.363281 22.445312 33.386719 22.429688 33.40625 22.417969 C 33.425781 22.402344 33.445312 22.390625 33.46875 22.375 C 33.476562 22.367188 33.488281 22.359375 33.496094 22.351562 C 33.519531 22.339844 33.539062 22.324219 33.558594 22.308594 C 33.578125 22.292969 33.59375 22.277344 33.613281 22.261719 C 33.632812 22.246094 33.652344 22.230469 33.671875 22.214844 C 33.6875 22.195312 33.707031 22.179688 33.722656 22.164062 C 33.863281 22.027344 33.984375 21.875 34.074219 21.714844 C 34.054688 21.941406 34.085938 22.121094 34.136719 22.277344 C 34.375 22.3125 34.757812 22.414062 35.082031 22.277344 C 35.15625 21.847656 34.886719 21.425781 35.082031 21.082031 C 35.457031 21.527344 35.800781 22 36.027344 22.59375 C 36.640625 22.726562 36.5625 22.164062 37.03125 22.152344 C 37.046875 22.472656 37.007812 23.058594 37.222656 23.347656 C 37.527344 23.339844 37.886719 23.382812 38.101562 23.285156 C 38.347656 22.625 38.082031 21.453125 38.164062 20.644531 C 38.4375 20.304688 39.320312 19.734375 39.363281 19.195312 C 39.386719 18.878906 38.90625 17.984375 38.605469 18 C 38.390625 18.414062 38.171875 18.824219 37.851562 19.132812 C 37.453125 18.984375 37.351562 18.539062 37.160156 18.1875 C 36.867188 18.125 36.632812 18.253906 36.402344 18.253906 C 36.351562 18.25 35.851562 18.234375 35.898438 18.25 C 35.671875 18.183594 35.546875 17.910156 35.269531 17.875 C 34.652344 17.792969 34.359375 18.296875 33.949219 18.125 C 33.800781 18.296875 34.0625 18.484375 33.886719 18.628906 C 33.328125 17.238281 31.132812 17.921875 30.804688 18.882812 C 30.957031 18.402344 30.753906 18.132812 30.804688 17.621094 C 30.117188 17.480469 29.316406 17.460938 28.476562 17.433594 C 28.40625 17.433594 28.339844 17.429688 28.269531 17.425781 C 28.234375 17.421875 28.199219 17.421875 28.164062 17.417969 C 28.113281 17.414062 28.058594 17.414062 28.007812 17.410156 C 27.972656 17.40625 27.933594 17.40625 27.898438 17.402344 C 27.644531 17.394531 27.386719 17.390625 27.160156 17.4375 C 27.152344 17.4375 27.148438 17.4375 27.140625 17.441406 C 27.128906 17.441406 27.117188 17.445312 27.105469 17.449219 C 27.09375 17.449219 27.082031 17.453125 27.070312 17.457031 C 27.058594 17.460938 27.046875 17.460938 27.03125 17.464844 C 27.019531 17.472656 27.003906 17.476562 26.988281 17.480469 C 26.976562 17.484375 26.96875 17.488281 26.957031 17.492188 C 26.945312 17.496094 26.933594 17.5 26.921875 17.503906 C 26.910156 17.507812 26.902344 17.511719 26.890625 17.519531 C 26.875 17.523438 26.859375 17.53125 26.84375 17.539062 C 26.835938 17.542969 26.824219 17.550781 26.816406 17.554688 C 26.726562 17.605469 26.652344 17.667969 26.585938 17.75 C 26.597656 17.769531 26.605469 17.796875 26.617188 17.820312 C 26.621094 17.832031 26.625 17.84375 26.628906 17.859375 C 26.652344 17.921875 26.667969 17.992188 26.679688 18.0625 C 26.683594 18.074219 26.683594 18.085938 26.6875 18.097656 C 26.6875 18.113281 26.691406 18.128906 26.691406 18.144531 C 26.695312 18.15625 26.695312 18.164062 26.695312 18.175781 C 26.699219 18.1875 26.699219 18.203125 26.703125 18.214844 C 26.703125 18.230469 26.703125 18.246094 26.707031 18.261719 C 26.707031 18.277344 26.707031 18.292969 26.710938 18.308594 C 26.710938 18.324219 26.710938 18.335938 26.710938 18.347656 C 26.714844 18.371094 26.714844 18.398438 26.714844 18.421875 C 26.71875 18.4375 26.71875 18.453125 26.71875 18.46875 C 26.71875 18.558594 26.71875 18.644531 26.71875 18.738281 C 26.714844 18.785156 26.714844 18.832031 26.714844 18.882812 C 27.023438 19.136719 27.667969 19.058594 28.097656 19.195312 C 28.242188 20.765625 28.058594 21.332031 28.160156 22.910156 C 28.195312 22.929688 28.230469 22.949219 28.265625 22.964844 C 28.285156 22.976562 28.300781 22.984375 28.320312 22.992188 C 28.328125 22.996094 28.339844 23 28.347656 23.003906 C 28.375 23.019531 28.40625 23.03125 28.433594 23.042969 C 28.445312 23.046875 28.453125 23.050781 28.464844 23.054688 C 28.480469 23.0625 28.5 23.066406 28.523438 23.074219 C 28.542969 23.082031 28.5625 23.089844 28.582031 23.09375 C 28.808594 23.167969 29.054688 23.199219 29.304688 23.167969 C 29.320312 23.167969 29.339844 23.164062 29.355469 23.160156 C 29.382812 23.15625 29.40625 23.152344 29.429688 23.148438 C 29.449219 23.144531 29.464844 23.140625 29.484375 23.132812 C 29.527344 23.125 29.566406 23.113281 29.609375 23.097656 C 29.949219 21.871094 29.429688 20.550781 29.480469 19.382812 Z M 36.78125 46.445312 C 39.535156 46.363281 42.386719 46.011719 44.898438 46.570312 C 44.394531 47.066406 43.625 46.914062 43.011719 46.949219 C 41.050781 47.050781 38.839844 47.011719 36.46875 47.011719 C 31.242188 47.011719 25.574219 47.023438 20.105469 46.632812 C 18.75 46.535156 17.3125 46.359375 15.953125 46.253906 C 13.742188 46.085938 11.320312 45.867188 10.351562 44.179688 C 9.199219 42.171875 9.792969 37.1875 9.785156 35.117188 C 9.78125 33.476562 9.683594 31.742188 9.660156 30.144531 C 9.585938 25.203125 9.40625 20.582031 9.40625 16.238281 C 9.410156 15.058594 9.195312 13.253906 9.21875 11.457031 C 9.226562 10.738281 9.273438 10.074219 9.21875 9.191406 C 9.160156 8.265625 9.074219 7.148438 9.21875 6.671875 C 9.980469 4.175781 13.753906 4.101562 16.707031 3.96875 C 20.542969 3.792969 24.503906 4.277344 28.222656 4.597656 C 29.90625 4.742188 31.828125 4.792969 33.761719 5.039062 C 35.566406 5.265625 37.933594 5.550781 38.605469 6.671875 C 39.132812 7.550781 39.335938 8.90625 39.550781 10.324219 C 39.949219 12.984375 40.445312 15.375 41.0625 17.875 C 41.367188 19.128906 41.503906 20.433594 41.753906 21.714844 C 42.5 25.585938 43.203125 29.359375 43.957031 33.164062 C 44.203125 34.425781 44.460938 35.757812 44.585938 36.941406 C 44.714844 38.195312 44.730469 38.90625 44.523438 39.960938 C 39.425781 39.984375 34.515625 40.164062 29.292969 39.648438 C 26.800781 39.402344 24.359375 39.21875 21.742188 39.082031 C 19.25 38.949219 16.285156 38.648438 14.253906 39.457031 C 13.246094 39.859375 11.300781 41.507812 11.359375 42.984375 C 11.382812 43.640625 12.144531 44.71875 12.679688 44.996094 C 13.613281 45.480469 15.382812 45.425781 16.644531 45.5625 C 18.164062 45.730469 19.316406 45.914062 20.671875 46.066406 C 23.648438 46.398438 26.40625 46.320312 28.914062 46.382812 C 31.5 46.441406 34.285156 46.519531 36.78125 46.445312 " fill-opacity="1" fill-rule="nonzero"/></g><path fill="#78292a" d="M 12.300781 17.9375 C 12.253906 18.175781 12.582031 18.621094 12.429688 18.945312 C 12.164062 18.796875 11.988281 18.269531 12.113281 17.9375 L 12.300781 17.9375 " fill-opacity="1" fill-rule="nonzero"/><path fill="#78292a" d="M 12.363281 31.46875 C 12.4375 31.457031 12.476562 31.480469 12.492188 31.53125 C 12.535156 31.738281 12.351562 32.121094 12.492188 32.472656 C 11.894531 32.453125 12.171875 31.707031 12.363281 31.46875 " fill-opacity="1" fill-rule="nonzero"/><path fill="#78292a" d="M 12.492188 22.972656 C 12.199219 22.84375 12.0625 22.214844 12.363281 22.027344 C 12.5625 22.164062 12.566406 22.765625 12.492188 22.972656 " fill-opacity="1" fill-rule="nonzero"/><path fill="#78292a" d="M 12.429688 27.941406 C 12.195312 27.855469 12.085938 27.351562 12.300781 27.1875 C 12.667969 27.273438 12.480469 27.578125 12.554688 27.878906 C 12.480469 27.871094 12.441406 27.894531 12.429688 27.941406 " fill-opacity="1" fill-rule="nonzero"/><path fill="#78292a" d="M 11.925781 12.023438 C 12.082031 12.257812 12.054688 13 12.050781 13.34375 C 11.835938 13.109375 11.53125 12.277344 11.925781 12.023438 " fill-opacity="1" fill-rule="nonzero"/><path fill="#78292a" d="M 11.863281 7.300781 C 11.933594 7.640625 12.035156 8.515625 11.800781 8.75 C 11.433594 8.496094 11.722656 7.667969 11.671875 7.300781 L 11.863281 7.300781 " fill-opacity="1" fill-rule="nonzero"/><g clip-path="url(#5ba273f83d)"><path fill="#78292a" d="M 11.800781 42.984375 C 11.804688 43.617188 12.476562 44.433594 12.804688 44.617188 C 13.664062 45.105469 14.933594 44.976562 16.078125 45.058594 C 17.242188 45.144531 18.359375 45.363281 19.476562 45.5 C 27.457031 46.488281 34.972656 45.734375 43.578125 46.003906 C 43.386719 45.730469 43.042969 45.613281 42.949219 45.25 C 40.269531 44.988281 37.265625 45.191406 34.515625 44.933594 C 33.5625 44.84375 32.472656 44.640625 31.433594 44.683594 C 30.804688 44.707031 29.988281 44.984375 29.609375 44.367188 C 34.082031 44.324219 38.992188 44.890625 43.390625 44.871094 C 43.554688 44.410156 43.074219 44.414062 43.074219 43.988281 C 43.074219 43.726562 43.511719 43.480469 43.515625 43.171875 C 43.515625 42.90625 43.273438 42.9375 43.261719 42.605469 C 43.941406 42.03125 43.511719 41.488281 43.828125 40.589844 C 41.945312 40.371094 38.546875 40.492188 36.339844 40.464844 C 32.234375 40.414062 28.449219 40.09375 24.449219 39.648438 C 23.40625 39.53125 22.277344 39.507812 21.238281 39.457031 C 17.660156 39.289062 14.539062 39.179688 12.679688 41.15625 C 12.320312 41.539062 11.792969 42.351562 11.800781 42.984375 Z M 9.785156 35.117188 C 9.792969 37.1875 9.199219 42.171875 10.351562 44.179688 C 11.320312 45.867188 13.742188 46.085938 15.953125 46.253906 C 17.3125 46.359375 18.75 46.535156 20.105469 46.632812 C 25.574219 47.023438 31.242188 47.011719 36.46875 47.011719 C 38.839844 47.011719 41.050781 47.050781 43.011719 46.949219 C 43.625 46.914062 44.394531 47.066406 44.898438 46.570312 C 42.386719 46.011719 39.535156 46.363281 36.78125 46.445312 C 34.285156 46.519531 31.5 46.441406 28.914062 46.382812 C 26.40625 46.320312 23.648438 46.398438 20.671875 46.066406 C 19.316406 45.914062 18.164062 45.730469 16.644531 45.5625 C 15.382812 45.425781 13.613281 45.480469 12.679688 44.996094 C 12.144531 44.71875 11.382812 43.640625 11.359375 42.984375 C 11.300781 41.507812 13.246094 39.859375 14.253906 39.457031 C 16.285156 38.648438 19.25 38.949219 21.742188 39.082031 C 24.359375 39.21875 26.800781 39.402344 29.292969 39.648438 C 34.515625 40.164062 39.425781 39.984375 44.523438 39.960938 C 44.730469 38.90625 44.714844 38.195312 44.585938 36.941406 C 44.460938 35.757812 44.203125 34.425781 43.957031 33.164062 C 43.203125 29.359375 42.5 25.585938 41.753906 21.714844 C 41.503906 20.433594 41.371094 19.128906 41.0625 17.875 C 40.445312 15.375 39.949219 12.984375 39.550781 10.324219 C 39.335938 8.90625 39.132812 7.550781 38.605469 6.671875 C 37.933594 5.550781 35.566406 5.265625 33.761719 5.035156 C 31.828125 4.792969 29.90625 4.742188 28.222656 4.597656 C 24.503906 4.277344 20.542969 3.789062 16.707031 3.96875 C 13.753906 4.101562 9.980469 4.175781 9.21875 6.671875 C 9.074219 7.148438 9.160156 8.265625 9.21875 9.191406 C 9.273438 10.074219 9.226562 10.738281 9.21875 11.457031 C 9.195312 13.253906 9.410156 15.054688 9.40625 16.238281 C 9.40625 20.582031 9.585938 25.203125 9.660156 30.144531 C 9.683594 31.742188 9.78125 33.476562 9.785156 35.117188 Z M 45.464844 46.507812 C 45.53125 46.878906 45.296875 47.058594 45.152344 47.449219 C 35.804688 47.917969 25.183594 47.675781 16.328125 46.882812 C 13.097656 46.59375 10.421875 46.328125 9.535156 43.738281 C 8.714844 41.359375 9.21875 37.527344 9.21875 34.425781 C 9.21875 31.09375 9.160156 28.429688 9.09375 25.046875 C 9 20.433594 8.917969 15.585938 8.714844 10.828125 C 8.6875 10.179688 8.746094 9.347656 8.652344 8.5625 C 8.554688 7.738281 8.433594 6.890625 8.589844 6.359375 C 8.898438 5.300781 10.300781 4.277344 11.234375 3.96875 C 12.519531 3.539062 14.578125 3.582031 16.078125 3.402344 C 18.0625 3.160156 20.300781 3.453125 22.433594 3.527344 C 24.484375 3.597656 26.484375 3.890625 28.410156 4.03125 C 30.375 4.171875 32.359375 4.21875 34.390625 4.535156 C 36.722656 4.894531 38.746094 5.246094 39.488281 7.113281 C 39.78125 7.855469 39.886719 8.925781 40.054688 9.945312 C 40.371094 11.863281 40.644531 13.75 41.0625 15.609375 C 41.980469 19.710938 42.890625 24.40625 43.703125 28.949219 C 44.171875 31.5625 44.804688 34.097656 45.152344 37.003906 C 45.347656 38.648438 45.546875 40.28125 44.457031 40.78125 C 44.476562 41.3125 44.164062 41.441406 44.332031 41.976562 C 43.871094 42.484375 44.222656 43.421875 43.765625 43.925781 C 43.8125 44.277344 44.417969 44.863281 43.765625 45.375 C 43.996094 45.5625 44.515625 45.464844 44.710938 45.6875 C 44.820312 46.144531 45.378906 46.019531 45.464844 46.507812 " fill-opacity="1" fill-rule="nonzero"/></g></svg>