<svg xmlns="http://www.w3.org/2000/svg" xmlns:xlink="http://www.w3.org/1999/xlink" width="72" zoomAndPan="magnify" viewBox="0 0 54 50.999998" height="68" preserveAspectRatio="xMidYMid meet" version="1.0"><defs><clipPath id="e0866d30aa"><path d="M 7.273438 1.554688 L 46 1.554688 L 46 48.804688 L 7.273438 48.804688 Z M 7.273438 1.554688 " clip-rule="nonzero"/></clipPath></defs><rect x="-5.4" width="64.8" fill="#ffffff" y="-5.1" height="61.199998" fill-opacity="1"/><rect x="-5.4" width="64.8" fill="#ffffff" y="-5.1" height="61.199998" fill-opacity="1"/><g clip-path="url(#e0866d30aa)"><path fill="#ff914d" d="M 26.675781 1.882812 C 26.402344 1.886719 26.183594 2.113281 26.1875 2.386719 L 26.1875 6.125 C 26.179688 6.402344 26.402344 6.636719 26.683594 6.636719 C 26.964844 6.636719 27.1875 6.402344 27.179688 6.125 L 27.179688 2.386719 C 27.183594 2.105469 26.957031 1.875 26.675781 1.882812 Z M 21.800781 2.523438 C 21.464844 2.515625 21.222656 2.835938 21.3125 3.15625 L 22.28125 6.769531 C 22.34375 7.042969 22.621094 7.207031 22.894531 7.136719 C 23.164062 7.0625 23.320312 6.78125 23.238281 6.511719 L 22.269531 2.902344 C 22.214844 2.683594 22.023438 2.53125 21.800781 2.523438 Z M 17.210938 4.414062 C 16.835938 4.429688 16.609375 4.84375 16.800781 5.164062 L 18.675781 8.40625 C 18.804688 8.652344 19.117188 8.738281 19.359375 8.597656 C 19.601562 8.457031 19.679688 8.148438 19.53125 7.90625 L 17.664062 4.667969 C 17.570312 4.503906 17.398438 4.410156 17.210938 4.414062 Z M 33.832031 5.871094 C 32.816406 5.878906 31.761719 6 30.675781 6.253906 L 31.84375 10.609375 C 32.066406 10.453125 32.320312 10.332031 32.59375 10.257812 C 32.90625 10.175781 33.222656 10.160156 33.523438 10.203125 C 34.429688 10.328125 35.222656 10.984375 35.472656 11.921875 C 35.808594 13.171875 35.0625 14.464844 33.8125 14.800781 C 33.535156 14.875 33.257812 14.894531 32.988281 14.871094 L 34.167969 19.277344 L 38.433594 18.136719 C 38.871094 17.929688 39.3125 18.40625 39.078125 18.828125 C 39.074219 18.832031 39.074219 18.835938 39.066406 18.84375 C 38.894531 19.144531 38.835938 19.507812 38.933594 19.871094 C 39.128906 20.601562 39.867188 21.03125 40.597656 20.832031 C 41.328125 20.636719 41.75 19.898438 41.558594 19.171875 C 41.457031 18.804688 41.226562 18.519531 40.925781 18.347656 C 40.917969 18.34375 40.914062 18.339844 40.914062 18.339844 C 40.90625 18.335938 40.902344 18.332031 40.898438 18.332031 C 40.507812 18.082031 40.644531 17.476562 41.105469 17.421875 L 45.175781 16.332031 C 45.066406 15.238281 44.875 14.234375 44.542969 13.277344 C 44.425781 13.320312 44.308594 13.359375 44.183594 13.394531 C 42.230469 13.917969 40.207031 12.75 39.683594 10.796875 C 39.390625 9.699219 39.625 8.582031 40.234375 7.722656 C 38.441406 6.535156 36.257812 5.867188 33.832031 5.875 Z M 43.210938 7.160156 C 42.988281 7.164062 42.765625 7.191406 42.539062 7.253906 C 41.101562 7.636719 40.257812 9.101562 40.640625 10.535156 C 41.027344 11.972656 42.492188 12.816406 43.929688 12.433594 C 45.367188 12.046875 46.210938 10.585938 45.824219 9.148438 C 45.535156 8.070312 44.640625 7.324219 43.605469 7.183594 C 43.476562 7.167969 43.34375 7.160156 43.210938 7.160156 Z M 13.3125 7.417969 C 12.867188 7.417969 12.648438 7.960938 12.96875 8.269531 L 15.609375 10.914062 C 15.808594 11.109375 16.121094 11.109375 16.316406 10.914062 C 16.507812 10.722656 16.507812 10.40625 16.316406 10.210938 L 13.667969 7.566406 C 13.574219 7.472656 13.445312 7.417969 13.3125 7.417969 Z M 44.257812 8.1875 C 44.640625 8.195312 44.871094 8.617188 44.671875 8.945312 L 43.433594 11.042969 C 43.296875 11.277344 42.996094 11.355469 42.761719 11.226562 L 41.777344 10.667969 C 41.53125 10.535156 41.445312 10.230469 41.578125 9.984375 C 41.714844 9.746094 42.023438 9.660156 42.265625 9.800781 L 42.824219 10.117188 L 43.816406 8.4375 C 43.90625 8.28125 44.074219 8.183594 44.257812 8.1875 Z M 26.183594 9.273438 C 18.238281 9.542969 13.601562 15.96875 14.785156 22.769531 L 18.171875 22.769531 C 18.078125 22.515625 18.027344 22.242188 18.027344 21.957031 C 18.027344 20.660156 19.085938 19.605469 20.378906 19.605469 C 21.671875 19.605469 22.730469 20.660156 22.730469 21.957031 C 22.730469 22.242188 22.679688 22.515625 22.585938 22.769531 L 26.191406 22.769531 C 26.167969 20.820312 26.207031 18.089844 26.214844 17.308594 C 26.214844 17.300781 26.214844 17.292969 26.214844 17.289062 C 26.214844 17.285156 26.214844 17.285156 26.214844 17.28125 C 26.226562 17.019531 26.441406 16.808594 26.707031 16.808594 C 26.859375 16.804688 27 16.871094 27.097656 16.992188 C 27.339844 17.214844 27.664062 17.355469 28.023438 17.355469 C 28.777344 17.355469 29.378906 16.753906 29.378906 16 C 29.378906 15.242188 28.777344 14.644531 28.023438 14.644531 C 27.644531 14.644531 27.308594 14.792969 27.0625 15.039062 C 27.054688 15.046875 27.050781 15.050781 27.042969 15.058594 C 27.042969 15.058594 27.039062 15.0625 27.035156 15.066406 C 27.023438 15.074219 27.015625 15.082031 27.003906 15.089844 C 26.992188 15.097656 26.976562 15.109375 26.964844 15.117188 C 26.960938 15.117188 26.960938 15.117188 26.960938 15.117188 C 26.628906 15.308594 26.210938 15.070312 26.214844 14.683594 C 26.214844 13.582031 26.203125 10.707031 26.183594 9.269531 Z M 10.328125 11.332031 C 9.804688 11.3125 9.613281 12.007812 10.066406 12.265625 L 13.304688 14.132812 C 13.878906 14.460938 14.371094 13.605469 13.800781 13.273438 L 10.5625 11.402344 C 10.492188 11.359375 10.410156 11.335938 10.328125 11.332031 Z M 8.40625 15.890625 C 7.828125 15.90625 7.738281 16.730469 8.296875 16.871094 L 11.914062 17.839844 C 12.546875 18 12.796875 17.054688 12.167969 16.878906 L 8.554688 15.910156 C 8.507812 15.894531 8.457031 15.890625 8.40625 15.890625 Z M 20.378906 20.597656 C 19.621094 20.597656 19.023438 21.199219 19.023438 21.957031 C 19.023438 22.332031 19.171875 22.667969 19.417969 22.914062 C 19.421875 22.921875 19.429688 22.925781 19.433594 22.929688 C 19.445312 22.941406 19.453125 22.953125 19.460938 22.964844 C 19.464844 22.964844 19.464844 22.96875 19.464844 22.96875 C 19.472656 22.980469 19.480469 22.992188 19.484375 23.003906 C 19.488281 23.003906 19.492188 23.011719 19.492188 23.011719 C 19.5 23.023438 19.503906 23.03125 19.511719 23.042969 C 19.511719 23.046875 19.515625 23.050781 19.519531 23.058594 C 19.523438 23.066406 19.527344 23.078125 19.53125 23.089844 C 19.53125 23.09375 19.535156 23.101562 19.539062 23.105469 C 19.542969 23.117188 19.546875 23.128906 19.550781 23.140625 C 19.550781 23.144531 19.550781 23.148438 19.550781 23.148438 C 19.554688 23.160156 19.558594 23.175781 19.558594 23.1875 C 19.558594 23.191406 19.558594 23.195312 19.558594 23.199219 C 19.5625 23.210938 19.5625 23.222656 19.566406 23.234375 C 19.566406 23.238281 19.566406 23.242188 19.566406 23.25 C 19.566406 23.257812 19.566406 23.265625 19.566406 23.273438 C 19.566406 23.285156 19.566406 23.292969 19.566406 23.300781 C 19.5625 23.304688 19.5625 23.308594 19.5625 23.3125 C 19.5625 23.324219 19.558594 23.339844 19.558594 23.351562 C 19.554688 23.367188 19.550781 23.382812 19.546875 23.398438 C 19.542969 23.414062 19.539062 23.433594 19.53125 23.445312 C 19.53125 23.449219 19.53125 23.453125 19.527344 23.453125 C 19.519531 23.480469 19.503906 23.507812 19.484375 23.535156 C 19.476562 23.550781 19.46875 23.5625 19.457031 23.578125 C 19.363281 23.695312 19.21875 23.765625 19.0625 23.761719 L 14.941406 23.761719 C 14.953125 23.800781 14.960938 23.835938 14.96875 23.867188 C 15.960938 27.566406 17.96875 29.863281 19.789062 31.816406 C 20.703125 32.796875 21.566406 33.679688 22.226562 34.628906 C 22.785156 35.4375 23.128906 36.328125 23.238281 37.300781 L 26.1875 37.300781 C 26.1875 35.339844 26.183594 33.367188 26.183594 31.402344 C 25.925781 31.496094 25.652344 31.550781 25.367188 31.550781 C 24.074219 31.550781 23.015625 30.492188 23.015625 29.199219 C 23.015625 27.90625 24.074219 26.847656 25.367188 26.847656 C 25.652344 26.847656 25.925781 26.898438 26.183594 26.996094 L 26.1875 23.761719 L 21.691406 23.761719 C 21.6875 23.761719 21.683594 23.761719 21.675781 23.761719 C 21.660156 23.761719 21.644531 23.761719 21.625 23.757812 C 21.621094 23.757812 21.621094 23.757812 21.621094 23.757812 C 21.609375 23.753906 21.59375 23.753906 21.578125 23.75 C 21.578125 23.75 21.574219 23.75 21.574219 23.75 C 21.5625 23.746094 21.546875 23.742188 21.539062 23.738281 C 21.535156 23.738281 21.527344 23.734375 21.523438 23.734375 C 21.511719 23.730469 21.5 23.726562 21.492188 23.71875 C 21.488281 23.71875 21.484375 23.71875 21.480469 23.714844 C 21.464844 23.707031 21.453125 23.703125 21.441406 23.695312 C 21.4375 23.691406 21.4375 23.691406 21.4375 23.691406 C 21.425781 23.683594 21.414062 23.679688 21.402344 23.671875 C 21.402344 23.667969 21.398438 23.664062 21.398438 23.664062 C 21.386719 23.65625 21.378906 23.648438 21.367188 23.636719 C 21.363281 23.636719 21.363281 23.632812 21.355469 23.628906 C 21.351562 23.625 21.339844 23.613281 21.332031 23.605469 C 21.328125 23.605469 21.324219 23.601562 21.324219 23.597656 C 21.316406 23.589844 21.308594 23.582031 21.300781 23.574219 C 21.296875 23.570312 21.292969 23.5625 21.289062 23.558594 C 21.285156 23.550781 21.28125 23.542969 21.273438 23.535156 C 21.269531 23.527344 21.269531 23.523438 21.261719 23.515625 C 21.257812 23.507812 21.253906 23.5 21.25 23.496094 C 21.246094 23.488281 21.242188 23.480469 21.238281 23.472656 C 21.234375 23.464844 21.234375 23.453125 21.230469 23.445312 C 21.226562 23.441406 21.226562 23.433594 21.222656 23.425781 C 21.222656 23.417969 21.214844 23.40625 21.214844 23.398438 C 21.214844 23.390625 21.210938 23.386719 21.207031 23.378906 C 21.207031 23.371094 21.207031 23.363281 21.207031 23.355469 C 21.203125 23.34375 21.203125 23.339844 21.199219 23.328125 C 21.199219 23.324219 21.199219 23.316406 21.199219 23.3125 C 21.199219 23.300781 21.199219 23.289062 21.199219 23.277344 C 21.199219 23.273438 21.199219 23.269531 21.199219 23.261719 C 21.199219 23.25 21.199219 23.242188 21.199219 23.230469 C 21.199219 23.222656 21.199219 23.214844 21.199219 23.210938 C 21.199219 23.203125 21.203125 23.1875 21.207031 23.179688 C 21.207031 23.175781 21.207031 23.171875 21.207031 23.167969 C 21.207031 23.152344 21.210938 23.140625 21.214844 23.128906 C 21.214844 23.128906 21.214844 23.125 21.21875 23.125 C 21.222656 23.113281 21.226562 23.097656 21.230469 23.085938 C 21.234375 23.078125 21.234375 23.078125 21.238281 23.074219 C 21.242188 23.0625 21.25 23.050781 21.253906 23.039062 C 21.253906 23.035156 21.253906 23.035156 21.257812 23.03125 C 21.28125 22.992188 21.308594 22.949219 21.34375 22.917969 C 21.589844 22.671875 21.738281 22.335938 21.738281 21.957031 C 21.738281 21.203125 21.136719 20.601562 20.382812 20.601562 Z M 11.527344 20.785156 C 11.527344 20.785156 11.523438 20.785156 11.523438 20.785156 L 7.78125 20.785156 C 7.5 20.773438 7.269531 21 7.269531 21.28125 C 7.269531 21.5625 7.5 21.789062 7.78125 21.777344 L 11.523438 21.777344 C 11.804688 21.789062 12.035156 21.566406 12.039062 21.285156 C 12.039062 21.003906 11.808594 20.777344 11.527344 20.785156 Z M 27.179688 23.761719 L 27.171875 27.886719 C 27.171875 27.898438 27.171875 27.90625 27.171875 27.914062 C 27.160156 28.394531 26.546875 28.578125 26.269531 28.1875 C 26.03125 27.972656 25.714844 27.839844 25.367188 27.839844 C 24.609375 27.839844 24.007812 28.441406 24.007812 29.199219 C 24.007812 29.953125 24.609375 30.554688 25.367188 30.554688 C 25.714844 30.554688 26.027344 30.425781 26.269531 30.207031 C 26.546875 29.8125 27.171875 30.003906 27.171875 30.492188 C 27.171875 30.5 27.171875 30.507812 27.171875 30.511719 C 27.171875 32.769531 27.179688 35.042969 27.183594 37.300781 L 30.117188 37.300781 C 30.226562 36.328125 30.570312 35.445312 31.125 34.648438 C 31.78125 33.714844 32.640625 32.839844 33.550781 31.871094 C 35.367188 29.9375 37.371094 27.644531 38.386719 23.867188 C 38.394531 23.835938 38.398438 23.792969 38.40625 23.761719 L 35.195312 23.761719 C 35.289062 24.019531 35.34375 24.292969 35.34375 24.578125 C 35.34375 25.871094 34.28125 26.925781 32.992188 26.925781 C 31.699219 26.925781 30.636719 25.871094 30.636719 24.578125 C 30.636719 24.292969 30.691406 24.019531 30.785156 23.761719 Z M 12.042969 24.707031 C 12 24.707031 11.953125 24.714844 11.910156 24.722656 L 8.296875 25.691406 C 8.03125 25.761719 7.867188 26.035156 7.941406 26.300781 C 8.011719 26.570312 8.289062 26.726562 8.554688 26.652344 L 12.167969 25.683594 C 12.738281 25.539062 12.628906 24.703125 12.042969 24.707031 Z M 13.574219 28.359375 C 13.480469 28.355469 13.386719 28.382812 13.304688 28.429688 L 10.066406 30.296875 C 9.820312 30.433594 9.730469 30.742188 9.871094 30.984375 C 10.011719 31.230469 10.324219 31.304688 10.5625 31.160156 L 13.800781 29.289062 C 14.242188 29.042969 14.078125 28.375 13.574219 28.359375 Z M 15.953125 31.496094 C 15.824219 31.503906 15.703125 31.554688 15.609375 31.648438 L 12.96875 34.292969 C 12.765625 34.484375 12.757812 34.804688 12.953125 35.003906 C 13.152344 35.203125 13.476562 35.199219 13.667969 34.996094 L 16.316406 32.351562 C 16.640625 32.035156 16.40625 31.484375 15.953125 31.496094 Z M 22.703125 38.292969 C 22.234375 38.292969 21.875 38.65625 21.875 39.121094 C 21.875 39.589844 22.234375 39.949219 22.703125 39.949219 L 30.652344 39.949219 C 31.117188 39.949219 31.476562 39.589844 31.476562 39.121094 C 31.476562 38.65625 31.117188 38.292969 30.652344 38.292969 Z M 22.859375 40.941406 L 22.90625 44.84375 C 22.929688 46.929688 24.578125 48.585938 26.675781 48.585938 C 28.773438 48.585938 30.417969 46.929688 30.441406 44.84375 L 30.492188 40.941406 Z M 24.808594 44.285156 L 28.546875 44.285156 C 28.820312 44.28125 29.046875 44.507812 29.046875 44.78125 C 29.046875 45.058594 28.820312 45.28125 28.546875 45.277344 L 24.808594 45.277344 C 24.53125 45.28125 24.304688 45.058594 24.304688 44.78125 C 24.304688 44.507812 24.53125 44.28125 24.808594 44.285156 Z M 24.808594 44.285156 " fill-opacity="1" fill-rule="nonzero"/></g></svg>