<svg xmlns="http://www.w3.org/2000/svg" xmlns:xlink="http://www.w3.org/1999/xlink" width="72" zoomAndPan="magnify" viewBox="0 0 54 50.999998" height="68" preserveAspectRatio="xMidYMid meet" version="1.0"><defs><clipPath id="aa2748547c"><path d="M 7 2.453125 L 47 2.453125 L 47 45 L 7 45 Z M 7 2.453125 " clip-rule="nonzero"/></clipPath><clipPath id="e304cd5279"><path d="M 0 30 L 19 30 L 19 48.203125 L 0 48.203125 Z M 0 30 " clip-rule="nonzero"/></clipPath></defs><rect x="-5.4" width="64.8" fill="#ffffff" y="-5.1" height="61.199998" fill-opacity="1"/><rect x="-5.4" width="64.8" fill="#ffffff" y="-5.1" height="61.199998" fill-opacity="1"/><g clip-path="url(#aa2748547c)"><path fill="#00bf63" d="M 45.84375 33.242188 C 45.808594 33.234375 42.460938 32.515625 37.730469 32.429688 C 38.117188 32.132812 38.597656 31.835938 39.125 31.515625 C 42.398438 29.511719 47.347656 26.480469 41.65625 15.03125 C 41.609375 14.933594 41.523438 14.863281 41.417969 14.839844 C 41.316406 14.8125 41.207031 14.832031 41.117188 14.894531 C 40.632812 15.238281 40.144531 15.632812 39.660156 16.066406 L 39.660156 2.816406 C 39.660156 2.617188 39.496094 2.453125 39.292969 2.453125 C 32.792969 2.453125 28.742188 3.308594 28.109375 3.453125 C 27.472656 3.308594 23.425781 2.453125 16.921875 2.453125 C 16.71875 2.453125 16.554688 2.617188 16.554688 2.816406 L 16.554688 14.074219 C 14.964844 13.441406 13.472656 13.078125 12.109375 13.003906 C 10.554688 12.914062 9.25 13.199219 8.332031 13.828125 C 7.484375 14.410156 7.039062 15.257812 7.105469 16.15625 C 7.203125 17.367188 8.191406 18.507812 9.828125 19.289062 L 9.992188 19.367188 C 11.453125 20.058594 13.664062 21.109375 13.972656 22.574219 C 14.113281 23.222656 13.863281 23.910156 13.210938 24.664062 C 11.320312 26.867188 10.121094 28.789062 9.65625 30.371094 C 9.128906 32.160156 9.636719 33.1875 10.152344 33.734375 C 11.582031 35.25 14.796875 34.898438 16.507812 33.597656 C 17.355469 32.949219 18.203125 32.839844 18.773438 33.300781 C 19.402344 33.804688 19.730469 35.097656 18.960938 36.738281 C 18.101562 38.574219 18.542969 39.546875 18.882812 39.964844 C 19.238281 40.402344 19.789062 40.632812 20.417969 40.632812 C 20.632812 40.632812 20.851562 40.609375 21.078125 40.554688 C 22.160156 40.296875 23.570312 39.296875 24.003906 37.324219 C 24.386719 35.59375 25.089844 34.59375 25.992188 34.507812 C 26.75 34.4375 27.484375 35.039062 27.773438 35.675781 L 28.855469 44.136719 C 28.875 44.308594 29.015625 44.441406 29.1875 44.457031 C 29.222656 44.457031 32.921875 44.761719 36.820312 44.761719 C 40.722656 44.761719 44.417969 44.457031 44.457031 44.457031 C 44.628906 44.441406 44.765625 44.308594 44.789062 44.136719 L 46.125 33.648438 C 46.152344 33.460938 46.027344 33.285156 45.84375 33.242188 Z M 45.0625 36.195312 L 28.578125 36.195312 L 28.285156 33.894531 C 29.296875 33.699219 32.574219 33.152344 36.820312 33.152344 C 41.070312 33.152344 44.34375 33.699219 45.359375 33.894531 Z M 34.386719 29.066406 C 34.683594 30.28125 35.234375 31.410156 36.035156 32.425781 C 35.714844 32.433594 35.402344 32.441406 35.097656 32.449219 C 34.667969 31.570312 32.933594 28.4375 29.316406 26.601562 C 29.136719 26.511719 28.917969 26.582031 28.828125 26.761719 C 28.734375 26.941406 28.808594 27.164062 28.988281 27.253906 C 32.042969 28.808594 33.703125 31.410156 34.289062 32.484375 C 33.992188 32.5 33.703125 32.515625 33.425781 32.535156 C 33.1875 32.5 31.324219 32.214844 29.460938 31.101562 C 26.9375 29.597656 25.550781 27.328125 25.328125 24.355469 C 31.992188 24.429688 33.21875 26.78125 34.386719 29.066406 Z M 41.195312 15.746094 C 46.289062 26.273438 41.933594 28.9375 38.742188 30.890625 C 38.164062 31.246094 37.636719 31.566406 37.203125 31.910156 C 37.460938 25.464844 40.433594 19.875 40.464844 19.816406 C 40.5625 19.636719 40.496094 19.414062 40.316406 19.320312 C 40.140625 19.222656 39.917969 19.289062 39.820312 19.46875 C 39.789062 19.527344 36.761719 25.214844 36.476562 31.804688 C 35.210938 30.121094 34.683594 28.160156 34.914062 25.953125 C 35.335938 21.828125 38.316406 17.921875 41.195312 15.746094 Z M 38.929688 16.765625 C 36.589844 19.117188 34.542969 22.417969 34.183594 25.878906 C 34.140625 26.300781 34.125 26.71875 34.132812 27.128906 C 33.542969 26.242188 32.753906 25.40625 31.46875 24.773438 C 30.761719 23.570312 31.574219 22.664062 32.949219 21.296875 C 33.328125 20.921875 33.71875 20.535156 34.0625 20.125 C 35.148438 18.839844 35.507812 16.847656 34.847656 15.773438 C 34.46875 15.160156 33.820312 14.925781 33.023438 15.117188 C 32.355469 15.277344 31.605469 15.910156 30.808594 16.582031 C 30.070312 17.207031 29.152344 17.984375 28.699219 17.914062 C 28.640625 17.90625 28.5625 17.878906 28.476562 17.746094 C 28.109375 17.175781 28.449219 16.195312 28.84375 15.0625 C 29.285156 13.789062 29.785156 12.34375 29.566406 10.8125 C 29.453125 9.996094 29.050781 9.332031 28.472656 8.933594 L 28.472656 4.121094 C 29.480469 3.910156 33.195312 3.214844 38.929688 3.183594 Z M 17.289062 3.183594 C 23.019531 3.214844 26.734375 3.910156 27.742188 4.121094 L 27.742188 8.597656 C 27.640625 8.570312 27.535156 8.550781 27.425781 8.535156 C 26.125 8.382812 24.90625 9.25 24.316406 10.738281 C 23.496094 12.820312 22.230469 14.324219 20.839844 14.867188 C 19.917969 15.226562 18.957031 15.167969 17.976562 14.699219 C 17.746094 14.585938 17.515625 14.480469 17.289062 14.378906 Z M 25.925781 33.78125 C 25.203125 33.847656 23.902344 34.375 23.289062 37.167969 C 22.929688 38.808594 21.78125 39.636719 20.910156 39.84375 C 20.289062 39.988281 19.746094 39.863281 19.449219 39.503906 C 19.050781 39.011719 19.113281 38.140625 19.625 37.046875 C 20.566406 35.039062 20.105469 33.433594 19.234375 32.730469 C 18.382812 32.042969 17.199219 32.148438 16.0625 33.015625 C 14.601562 34.128906 11.832031 34.449219 10.683594 33.230469 C 9.398438 31.867188 10.519531 28.917969 13.765625 25.144531 C 14.5625 24.214844 14.875 23.296875 14.691406 22.421875 C 14.304688 20.605469 11.898438 19.460938 10.304688 18.703125 L 10.140625 18.628906 C 8.75 17.964844 7.910156 17.042969 7.835938 16.097656 C 7.785156 15.457031 8.109375 14.867188 8.742188 14.433594 C 10.140625 13.476562 13.21875 13.21875 17.660156 15.359375 C 18.828125 15.921875 19.988281 15.984375 21.105469 15.546875 C 22.683594 14.929688 24.101562 13.277344 24.996094 11.007812 C 25.558594 9.582031 26.609375 9.179688 27.339844 9.261719 C 28.136719 9.359375 28.710938 9.988281 28.84375 10.914062 C 29.035156 12.269531 28.566406 13.625 28.152344 14.824219 C 27.695312 16.136719 27.304688 17.269531 27.859375 18.140625 C 28.085938 18.496094 28.378906 18.605469 28.585938 18.636719 C 29.371094 18.757812 30.300781 17.972656 31.28125 17.140625 C 31.976562 16.554688 32.695312 15.949219 33.195312 15.828125 C 33.679688 15.710938 34.015625 15.820312 34.226562 16.15625 C 34.667969 16.878906 34.457031 18.527344 33.503906 19.65625 C 33.179688 20.039062 32.800781 20.414062 32.433594 20.78125 C 31.386719 21.820312 30.21875 22.980469 30.53125 24.382812 C 29.191406 23.910156 27.421875 23.625 25.015625 23.625 C 24.988281 23.625 24.964844 23.625 24.9375 23.625 C 24.839844 23.625 24.746094 23.664062 24.675781 23.738281 C 24.605469 23.808594 24.570312 23.90625 24.574219 24.003906 C 24.75 28.28125 27.136719 30.574219 29.109375 31.746094 C 29.851562 32.183594 30.582031 32.5 31.226562 32.726562 C 29.117188 32.960938 27.820312 33.238281 27.800781 33.242188 C 27.613281 33.285156 27.492188 33.460938 27.515625 33.648438 L 27.601562 34.320312 C 27.136719 33.953125 26.550781 33.722656 25.925781 33.78125 Z M 44.101562 43.75 C 43.152344 43.820312 40.058594 44.03125 36.820312 44.03125 C 33.585938 44.03125 30.488281 43.820312 29.542969 43.75 L 28.671875 36.929688 L 44.96875 36.929688 Z M 44.101562 43.75 " fill-opacity="1" fill-rule="nonzero"/></g><g clip-path="url(#e304cd5279)"><path fill="#00bf63" d="M 17.886719 44.777344 L 4.019531 30.910156 L 0.484375 30.058594 C 0.363281 30.03125 0.234375 30.070312 0.148438 30.160156 C 0.0585938 30.246094 0.0195312 30.375 0.046875 30.496094 L 0.898438 34.03125 L 14.765625 47.894531 C 15.183594 48.3125 15.734375 48.542969 16.324219 48.542969 C 16.914062 48.542969 17.46875 48.3125 17.886719 47.894531 C 18.746094 47.035156 18.746094 45.636719 17.886719 44.777344 Z M 1.492188 33.589844 L 0.890625 30.898438 L 3.578125 31.503906 L 4.585938 32.511719 L 2.5 34.597656 Z M 3.015625 35.113281 L 5.101562 33.027344 L 14.652344 42.582031 L 12.570312 44.664062 Z M 13.085938 45.183594 L 15.171875 43.097656 L 16.066406 43.992188 L 13.980469 46.078125 Z M 17.367188 47.378906 C 16.792969 47.953125 15.859375 47.953125 15.28125 47.378906 L 14.5 46.597656 L 16.585938 44.511719 L 17.367188 45.292969 C 17.941406 45.867188 17.941406 46.804688 17.367188 47.378906 Z M 17.367188 47.378906 " fill-opacity="1" fill-rule="nonzero"/></g><path fill="#00bf63" d="M 23.683594 24.183594 C 23.609375 23.992188 23.398438 23.902344 23.210938 23.972656 L 21.382812 24.679688 C 20.859375 23.699219 19.824219 23.027344 18.636719 23.027344 C 18.371094 23.027344 18.113281 23.0625 17.863281 23.125 L 17.15625 21.300781 C 17.085938 21.109375 16.871094 21.015625 16.683594 21.089844 C 16.496094 21.164062 16.402344 21.375 16.476562 21.5625 L 17.183594 23.390625 C 16.199219 23.914062 15.53125 24.949219 15.53125 26.136719 C 15.53125 26.402344 15.5625 26.660156 15.628906 26.90625 L 13.800781 27.613281 C 13.613281 27.6875 13.519531 27.898438 13.59375 28.089844 C 13.648438 28.234375 13.785156 28.320312 13.933594 28.320312 L 15.894531 27.589844 C 16.414062 28.570312 17.449219 29.242188 18.636719 29.242188 C 18.902344 29.242188 19.164062 29.207031 19.410156 29.144531 L 20.117188 30.972656 C 20.171875 31.117188 20.3125 31.203125 20.457031 31.203125 C 20.503906 31.203125 20.546875 31.195312 20.589844 31.179688 C 20.777344 31.105469 20.871094 30.894531 20.800781 30.707031 L 20.09375 28.878906 C 21.074219 28.355469 21.746094 27.324219 21.746094 26.136719 C 21.746094 25.867188 21.710938 25.609375 21.648438 25.363281 L 23.472656 24.65625 C 23.660156 24.582031 23.753906 24.371094 23.683594 24.183594 Z M 18.636719 28.511719 C 17.328125 28.511719 16.261719 27.445312 16.261719 26.136719 C 16.261719 24.824219 17.328125 23.761719 18.636719 23.761719 C 19.945312 23.761719 21.011719 24.824219 21.011719 26.136719 C 21.011719 27.445312 19.945312 28.511719 18.636719 28.511719 Z M 18.636719 28.511719 " fill-opacity="1" fill-rule="nonzero"/><path fill="#00bf63" d="M 23.085938 16.960938 C 22.175781 16.960938 21.4375 17.699219 21.4375 18.609375 C 21.4375 19.515625 22.175781 20.257812 23.085938 20.257812 C 23.992188 20.257812 24.730469 19.515625 24.730469 18.609375 C 24.730469 17.699219 23.992188 16.960938 23.085938 16.960938 Z M 23.085938 19.523438 C 22.578125 19.523438 22.167969 19.113281 22.167969 18.609375 C 22.167969 18.105469 22.578125 17.691406 23.085938 17.691406 C 23.589844 17.691406 24 18.105469 24 18.609375 C 24 19.113281 23.589844 19.523438 23.085938 19.523438 Z M 23.085938 19.523438 " fill-opacity="1" fill-rule="nonzero"/><path fill="#00bf63" d="M 20.054688 6.9375 L 24.425781 6.9375 C 24.628906 6.9375 24.792969 6.773438 24.792969 6.574219 C 24.792969 6.371094 24.628906 6.207031 24.425781 6.207031 L 20.054688 6.207031 C 19.851562 6.207031 19.6875 6.371094 19.6875 6.574219 C 19.6875 6.773438 19.851562 6.9375 20.054688 6.9375 Z M 20.054688 6.9375 " fill-opacity="1" fill-rule="nonzero"/><path fill="#00bf63" d="M 20.054688 9.082031 L 24.425781 9.082031 C 24.628906 9.082031 24.792969 8.917969 24.792969 8.714844 C 24.792969 8.511719 24.628906 8.347656 24.425781 8.347656 L 20.054688 8.347656 C 19.851562 8.347656 19.6875 8.511719 19.6875 8.714844 C 19.6875 8.917969 19.851562 9.082031 20.054688 9.082031 Z M 20.054688 9.082031 " fill-opacity="1" fill-rule="nonzero"/><path fill="#00bf63" d="M 31.789062 6.9375 L 36.160156 6.9375 C 36.363281 6.9375 36.527344 6.773438 36.527344 6.574219 C 36.527344 6.371094 36.363281 6.207031 36.160156 6.207031 L 31.789062 6.207031 C 31.585938 6.207031 31.425781 6.371094 31.425781 6.574219 C 31.425781 6.773438 31.585938 6.9375 31.789062 6.9375 Z M 31.789062 6.9375 " fill-opacity="1" fill-rule="nonzero"/><path fill="#00bf63" d="M 31.789062 9.082031 L 36.160156 9.082031 C 36.363281 9.082031 36.527344 8.917969 36.527344 8.714844 C 36.527344 8.511719 36.363281 8.347656 36.160156 8.347656 L 31.789062 8.347656 C 31.585938 8.347656 31.425781 8.511719 31.425781 8.714844 C 31.425781 8.917969 31.585938 9.082031 31.789062 9.082031 Z M 31.789062 9.082031 " fill-opacity="1" fill-rule="nonzero"/><path fill="#00bf63" d="M 31.789062 11.222656 L 36.160156 11.222656 C 36.363281 11.222656 36.527344 11.058594 36.527344 10.855469 C 36.527344 10.65625 36.363281 10.492188 36.160156 10.492188 L 31.789062 10.492188 C 31.585938 10.492188 31.425781 10.65625 31.425781 10.855469 C 31.425781 11.058594 31.585938 11.222656 31.789062 11.222656 Z M 31.789062 11.222656 " fill-opacity="1" fill-rule="nonzero"/><path fill="#00bf63" d="M 20.054688 11.222656 L 22.992188 11.222656 C 23.195312 11.222656 23.359375 11.058594 23.359375 10.855469 C 23.359375 10.65625 23.195312 10.492188 22.992188 10.492188 L 20.054688 10.492188 C 19.851562 10.492188 19.6875 10.65625 19.6875 10.855469 C 19.6875 11.058594 19.851562 11.222656 20.054688 11.222656 Z M 20.054688 11.222656 " fill-opacity="1" fill-rule="nonzero"/></svg>