<?xml version="1.0" encoding="UTF-8"?>
<!DOCTYPE svg PUBLIC "-//W3C//DTD SVG 1.1//EN" "http://www.w3.org/Graphics/SVG/1.1/DTD/svg11.dtd">
<!-- Creator: CorelDRAW 2021.5 -->
<svg xmlns="http://www.w3.org/2000/svg" xml:space="preserve" width="0.239996in" height="0.226665in" version="1.1" style="shape-rendering:geometricPrecision; text-rendering:geometricPrecision; image-rendering:optimizeQuality; fill-rule:evenodd; clip-rule:evenodd"
viewBox="0 0 239.99 226.66"
 xmlns:xlink="http://www.w3.org/1999/xlink"
 xmlns:xodm="http://www.corel.com/coreldraw/odm/2003">
 <defs>
  <style type="text/css">
   <![CDATA[
    .fil1 {fill:#000066}
    .fil2 {fill:#E6E6E6}
    .fil0 {fill:white}
    .fil3 {fill:#E6E6E6;fill-rule:nonzero}
   ]]>
  </style>
      <clipPath id="id0">
       <path d="M15.08 94.06l9.89 11.76c1.78,1.8 1.94,2.17 3.44,4.03 1.84,2.28 11.73,14.82 15.04,14.82l3.74 0 0 58.99c0,8.44 -1.59,17.8 0,24.64 9.55,0 16.91,0.75 26.88,0.75 9.22,0 18.44,-0.04 27.65,-0.03 4.88,0.01 7.19,0.81 12.67,0.78l52.14 -0.56c5.06,-0.18 24.4,0.65 26.39,-0.82 2.45,-1.81 0.62,-7.31 0.62,-11.32l0 -64.96c0,-6.21 2.06,-5.27 7.17,-9.26 2.35,-1.84 24.2,-23.41 24.2,-25.83 0,-3.35 -18.77,-25.54 -22.4,-30.62 -1.02,-1.42 -1.49,-1.78 -2.67,-3.3 -6.89,-8.8 -9.73,-10.97 -14.92,-17.2 -0.1,-0.12 -0.24,-0.29 -0.33,-0.41 -0.1,-0.12 -0.24,-0.29 -0.33,-0.41 -0.1,-0.12 -0.24,-0.29 -0.34,-0.41l-12.57 -12.07c-1.31,-1.26 -1.94,-1.63 -3.28,-2.69 -4.77,-3.79 -4.64,-3.98 -11.32,-6.61 -8.14,-3.2 -12.13,-7.31 -15.56,-6.35 -8.62,2.43 -6.17,3.1 -19.64,4.33 -8.63,0.79 -16.49,-3.57 -18.63,-3.88 -5.74,-0.83 -25.24,11.23 -30.99,15.49 -5.55,4.11 -8.47,7.87 -12.22,11.67 -12.75,12.92 -22.15,25.19 -33.62,36.57l-5.31 5.89c-0.1,0.11 -0.24,0.29 -0.34,0.4 -2.53,2.89 -3.44,2.96 -5.36,6.59z"/>
      </clipPath>
      <clipPath id="id1">
       <path d="M15.08 94.06l9.89 11.76c1.78,1.8 1.94,2.17 3.44,4.03 1.84,2.28 11.73,14.82 15.04,14.82l3.74 0 0 58.99c0,8.44 -1.59,17.8 0,24.64 9.55,0 16.91,0.75 26.88,0.75 9.22,0 18.44,-0.04 27.65,-0.03 4.88,0.01 7.19,0.81 12.67,0.78l52.14 -0.56c5.06,-0.18 24.4,0.65 26.39,-0.82 2.45,-1.81 0.62,-7.31 0.62,-11.32l0 -64.96c0,-6.21 2.06,-5.27 7.17,-9.26 2.35,-1.84 24.2,-23.41 24.2,-25.83 0,-3.35 -18.77,-25.54 -22.4,-30.62 -1.02,-1.42 -1.49,-1.78 -2.67,-3.3 -6.89,-8.8 -9.73,-10.97 -14.92,-17.2 -0.1,-0.12 -0.24,-0.29 -0.33,-0.41 -0.1,-0.12 -0.24,-0.29 -0.33,-0.41 -0.1,-0.12 -0.24,-0.29 -0.34,-0.41l-12.57 -12.07c-1.31,-1.26 -1.94,-1.63 -3.28,-2.69 -4.77,-3.79 -4.64,-3.98 -11.32,-6.61 -8.14,-3.2 -12.13,-7.31 -15.56,-6.35 -8.62,2.43 -6.17,3.1 -19.64,4.33 -8.63,0.79 -16.49,-3.57 -18.63,-3.88 -5.74,-0.83 -25.24,11.23 -30.99,15.49 -5.55,4.11 -8.47,7.87 -12.22,11.67 -12.75,12.92 -22.15,25.19 -33.62,36.57l-5.31 5.89c-0.1,0.11 -0.24,0.29 -0.34,0.4 -2.53,2.89 -3.44,2.96 -5.36,6.59z"/>
      </clipPath>
      <clipPath id="id2">
       <path d="M15.08 94.06l9.89 11.76c1.78,1.8 1.94,2.17 3.44,4.03 1.84,2.28 11.73,14.82 15.04,14.82l3.74 0 0 58.99c0,8.44 -1.59,17.8 0,24.64 9.55,0 16.91,0.75 26.88,0.75 9.22,0 18.44,-0.04 27.65,-0.03 4.88,0.01 7.19,0.81 12.67,0.78l52.14 -0.56c5.06,-0.18 24.4,0.65 26.39,-0.82 2.45,-1.81 0.62,-7.31 0.62,-11.32l0 -64.96c0,-6.21 2.06,-5.27 7.17,-9.26 2.35,-1.84 24.2,-23.41 24.2,-25.83 0,-3.35 -18.77,-25.54 -22.4,-30.62 -1.02,-1.42 -1.49,-1.78 -2.67,-3.3 -6.89,-8.8 -9.73,-10.97 -14.92,-17.2 -0.1,-0.12 -0.24,-0.29 -0.33,-0.41 -0.1,-0.12 -0.24,-0.29 -0.33,-0.41 -0.1,-0.12 -0.24,-0.29 -0.34,-0.41l-12.57 -12.07c-1.31,-1.26 -1.94,-1.63 -3.28,-2.69 -4.77,-3.79 -4.64,-3.98 -11.32,-6.61 -8.14,-3.2 -12.13,-7.31 -15.56,-6.35 -8.62,2.43 -6.17,3.1 -19.64,4.33 -8.63,0.79 -16.49,-3.57 -18.63,-3.88 -5.74,-0.83 -25.24,11.23 -30.99,15.49 -5.55,4.11 -8.47,7.87 -12.22,11.67 -12.75,12.92 -22.15,25.19 -33.62,36.57l-5.31 5.89c-0.1,0.11 -0.24,0.29 -0.34,0.4 -2.53,2.89 -3.44,2.96 -5.36,6.59z"/>
      </clipPath>
      <clipPath id="id3">
       <path d="M15.08 94.06l9.89 11.76c1.78,1.8 1.94,2.17 3.44,4.03 1.84,2.28 11.73,14.82 15.04,14.82l3.74 0 0 58.99c0,8.44 -1.59,17.8 0,24.64 9.55,0 16.91,0.75 26.88,0.75 9.22,0 18.44,-0.04 27.65,-0.03 4.88,0.01 7.19,0.81 12.67,0.78l52.14 -0.56c5.06,-0.18 24.4,0.65 26.39,-0.82 2.45,-1.81 0.62,-7.31 0.62,-11.32l0 -64.96c0,-6.21 2.06,-5.27 7.17,-9.26 2.35,-1.84 24.2,-23.41 24.2,-25.83 0,-3.35 -18.77,-25.54 -22.4,-30.62 -1.02,-1.42 -1.49,-1.78 -2.67,-3.3 -6.89,-8.8 -9.73,-10.97 -14.92,-17.2 -0.1,-0.12 -0.24,-0.29 -0.33,-0.41 -0.1,-0.12 -0.24,-0.29 -0.33,-0.41 -0.1,-0.12 -0.24,-0.29 -0.34,-0.41l-12.57 -12.07c-1.31,-1.26 -1.94,-1.63 -3.28,-2.69 -4.77,-3.79 -4.64,-3.98 -11.32,-6.61 -8.14,-3.2 -12.13,-7.31 -15.56,-6.35 -8.62,2.43 -6.17,3.1 -19.64,4.33 -8.63,0.79 -16.49,-3.57 -18.63,-3.88 -5.74,-0.83 -25.24,11.23 -30.99,15.49 -5.55,4.11 -8.47,7.87 -12.22,11.67 -12.75,12.92 -22.15,25.19 -33.62,36.57l-5.31 5.89c-0.1,0.11 -0.24,0.29 -0.34,0.4 -2.53,2.89 -3.44,2.96 -5.36,6.59z"/>
      </clipPath>
      <clipPath id="id4">
       <path d="M15.08 94.06l9.89 11.76c1.78,1.8 1.94,2.17 3.44,4.03 1.84,2.28 11.73,14.82 15.04,14.82l3.74 0 0 58.99c0,8.44 -1.59,17.8 0,24.64 9.55,0 16.91,0.75 26.88,0.75 9.22,0 18.44,-0.04 27.65,-0.03 4.88,0.01 7.19,0.81 12.67,0.78l52.14 -0.56c5.06,-0.18 24.4,0.65 26.39,-0.82 2.45,-1.81 0.62,-7.31 0.62,-11.32l0 -64.96c0,-6.21 2.06,-5.27 7.17,-9.26 2.35,-1.84 24.2,-23.41 24.2,-25.83 0,-3.35 -18.77,-25.54 -22.4,-30.62 -1.02,-1.42 -1.49,-1.78 -2.67,-3.3 -6.89,-8.8 -9.73,-10.97 -14.92,-17.2 -0.1,-0.12 -0.24,-0.29 -0.33,-0.41 -0.1,-0.12 -0.24,-0.29 -0.33,-0.41 -0.1,-0.12 -0.24,-0.29 -0.34,-0.41l-12.57 -12.07c-1.31,-1.26 -1.94,-1.63 -3.28,-2.69 -4.77,-3.79 -4.64,-3.98 -11.32,-6.61 -8.14,-3.2 -12.13,-7.31 -15.56,-6.35 -8.62,2.43 -6.17,3.1 -19.64,4.33 -8.63,0.79 -16.49,-3.57 -18.63,-3.88 -5.74,-0.83 -25.24,11.23 -30.99,15.49 -5.55,4.11 -8.47,7.87 -12.22,11.67 -12.75,12.92 -22.15,25.19 -33.62,36.57l-5.31 5.89c-0.1,0.11 -0.24,0.29 -0.34,0.4 -2.53,2.89 -3.44,2.96 -5.36,6.59z"/>
      </clipPath>
 </defs>
 <g id="Layer_x0020_1">
  <metadata id="CorelCorpID_0Corel-Layer"/>
  <rect class="fil0" x="-0" y="-0" width="239.99" height="226.66"/>
  <g id="_1952009695776">
   <g>
    <path class="fil1" d="M15.44 94.03l9.83 11.76c1.78,1.8 1.93,2.17 3.42,4.02 1.83,2.29 11.66,14.82 14.96,14.82l3.71 0 0 58.97c0,8.43 -1.58,17.79 0,24.63 9.5,0 16.81,0.75 26.73,0.75 9.16,0 18.33,-0.04 27.5,-0.03 4.85,0.01 7.15,0.81 12.59,0.78l51.85 -0.56c5.03,-0.18 24.26,0.65 26.24,-0.82 2.43,-1.81 0.61,-7.3 0.61,-11.31l0 -64.94c0,-6.21 2.04,-5.26 7.13,-9.26 2.33,-1.83 24.06,-23.4 24.06,-25.82 0,-3.35 -18.67,-25.53 -22.27,-30.61 -1.01,-1.42 -1.48,-1.78 -2.66,-3.3 -6.85,-8.8 -9.67,-10.96 -14.83,-17.19 -0.1,-0.12 -0.24,-0.29 -0.33,-0.41 -0.1,-0.12 -0.24,-0.29 -0.33,-0.41 -0.1,-0.12 -0.24,-0.29 -0.34,-0.41l-12.49 -12.07c-1.3,-1.26 -1.94,-1.63 -3.27,-2.69 -4.74,-3.78 -4.61,-3.98 -11.25,-6.6 -8.09,-3.2 -12.06,-7.31 -15.47,-6.34 -8.57,2.42 -6.13,3.09 -19.53,4.33 -8.58,0.79 -16.39,-3.57 -18.52,-3.88 -5.71,-0.83 -25.09,11.22 -30.81,15.48 -5.52,4.11 -8.43,7.87 -12.15,11.67 -12.67,12.92 -22.02,25.18 -33.42,36.56l-5.28 5.89c-0.1,0.12 -0.24,0.29 -0.34,0.41 -2.52,2.89 -3.42,2.96 -5.33,6.59z"/>
    <g>
     <g style="clip-path:url(#id0)">
      <image x="-17.25" y="-37.7" width="495.03" height="296.87" xlink:href="divisi-clothing_Images\divisi-clothing_ImgID1.png"/>
     </g>
     <g style="clip-path:url(#id1)">
      <image x="-17.25" y="-37.7" width="495.03" height="296.87" xlink:href="divisi-clothing_Images\divisi-clothing_ImgID2.png"/>
     </g>
     <g style="clip-path:url(#id2)">
      <image x="-17.25" y="-37.7" width="495.03" height="296.87" xlink:href="divisi-clothing_Images\divisi-clothing_ImgID3.png"/>
     </g>
     <g style="clip-path:url(#id3)">
      <image x="-17.25" y="-37.7" width="495.03" height="296.87" xlink:href="divisi-clothing_Images\divisi-clothing_ImgID4.png"/>
     </g>
     <g style="clip-path:url(#id4)">
      <image x="-17.25" y="-37.7" width="495.03" height="296.87" xlink:href="divisi-clothing_Images\divisi-clothing_ImgID5.png"/>
     </g>
    </g>
   </g>
   <g>
    <path class="fil2" d="M95 82c0.11,-0.11 0.9,-1.53 0.99,-1.74 0.24,0.26 1.83,3 2.04,3.48 -0.15,0.36 -2.94,5.13 -3.12,5.26 -0.18,-0.57 -4.24,-7.35 -4.72,-8.18 -0.44,-0.78 -0.28,-0.59 0.56,-2.09l1.78 -3.07c0.76,-1.27 0.17,-0.65 -0.92,-3.06l-2.05 0 1.32 2.33 -2 3.46c-0.07,-0.06 -0.07,-0.06 -0.14,-0.14l-2.61 -4.51c-0.57,-1 -2.31,-3.86 -2.68,-4.65l10.15 -0 3.27 5.6c0.2,0.38 -0.03,0.56 -0.2,0.87l-2.33 4.04c-0.17,0.29 -0.42,0.53 -0.31,0.8 0.11,0.27 0.83,1.46 0.97,1.61z"/>
    <path class="fil2" d="M88.83 68.8c0.79,0.05 1.69,0 2.49,0.01 1.2,0 0.63,-0.11 1.9,-0.67 2.73,-1.2 5.67,-1.26 8.42,-0.01 0.72,0.33 0.93,0.69 1.83,0.68 0.86,-0.01 1.73,0.02 2.58,-0.01 -0.33,-0.68 -2.59,-2.11 -3.54,-2.54 -4.77,-2.18 -10.01,-1.11 -13.68,2.54z"/>
    <path class="fil2" d="M101.14 88.66c4.3,-1.18 8.35,-5.86 8.36,-11.21 0,-0.89 -0.05,-1.91 -0.26,-2.75l-1.05 1.72c-0.6,1 -0.71,1.03 -0.81,1.92 -0.32,2.84 -1.86,5.36 -4.06,6.94 -0.64,0.46 -0.64,0.68 -1.15,1.58 -0.29,0.51 -0.83,1.31 -1.02,1.8z"/>
    <path class="fil2" d="M93.7 88.65c-0.1,-0.35 -0.74,-1.35 -0.98,-1.76 -0.33,-0.56 -0.56,-1.21 -1.13,-1.6 -2.15,-1.48 -3.74,-4.1 -4.07,-6.86 -0.12,-1.03 -0.19,-0.85 -0.81,-1.93 -0.31,-0.54 -0.78,-1.26 -1.02,-1.79 -0.52,0.86 -0.27,4.01 -0.04,5.07 0.32,1.46 0.95,2.92 1.66,3.95 1.46,2.13 3.38,3.96 6.38,4.92z"/>
    <polygon class="fil2" points="96.07,89.74 97.94,93.01 111.72,69.07 107.94,69.08 "/>
    <polygon class="fil2" points="97.06,79.3 98.92,82.57 106.69,69.07 102.91,69.08 "/>
    <polygon class="fil2" points="94.39,69.08 97.31,74.09 98.23,72.41 99.63,72.41 101.5,69.07 "/>
   </g>
   <path class="fil3" d="M112.09 74.62l3.16 0.15c0.05,0.13 0.11,0.22 0.18,0.27 0.17,0.1 0.43,0.15 0.78,0.15 0.53,0 0.83,-0.12 0.89,-0.36 0.03,-0.11 -0.01,-0.18 -0.13,-0.22 -0.06,-0.02 -0.62,-0.11 -1.66,-0.26 -0.96,-0.13 -1.59,-0.27 -1.91,-0.41 -0.63,-0.29 -0.86,-0.78 -0.67,-1.47 0.13,-0.48 0.39,-0.87 0.8,-1.19 0.43,-0.34 1.03,-0.57 1.78,-0.7 0.44,-0.07 1.01,-0.11 1.7,-0.11 1.64,0 2.73,0.21 3.27,0.63 0.29,0.22 0.46,0.5 0.51,0.82 0.02,0.12 0.03,0.29 0.02,0.51l-3.36 -0.11c-0.1,-0.18 -0.38,-0.27 -0.82,-0.27 -0.3,0 -0.51,0.03 -0.62,0.08 -0.11,0.05 -0.17,0.12 -0.19,0.21 -0.02,0.07 -0.01,0.13 0.03,0.17 0.07,0.07 0.33,0.13 0.78,0.15 0.96,0.06 1.74,0.15 2.35,0.3 0.63,0.15 1.05,0.34 1.26,0.6 0.24,0.3 0.3,0.68 0.17,1.15 -0.18,0.69 -0.65,1.19 -1.39,1.52 -0.5,0.22 -1.02,0.36 -1.55,0.42 -0.5,0.06 -1.03,0.09 -1.58,0.09 -1.68,0 -2.78,-0.22 -3.32,-0.65 -0.31,-0.24 -0.48,-0.54 -0.51,-0.89 -0.01,-0.14 0,-0.33 0.04,-0.58zm7.71 1.88l2.06 -7.68 2.64 0 -2.06 7.68 -2.64 0zm11.8 -1.68c-0.21,0.38 -0.43,0.67 -0.67,0.88 -0.8,0.69 -2.08,1.04 -3.85,1.04 -1.56,0 -2.66,-0.23 -3.3,-0.69 -0.33,-0.24 -0.54,-0.59 -0.63,-1.06 -0.08,-0.44 -0.06,-0.93 0.08,-1.45 0.18,-0.67 0.5,-1.24 0.94,-1.72 0.49,-0.51 1.22,-0.88 2.19,-1.12 0.66,-0.16 1.35,-0.24 2.07,-0.24 1.06,0 1.91,0.17 2.56,0.51 0.56,0.3 0.89,0.73 0.97,1.31 0.07,0.42 -0.02,1.09 -0.24,2.03l-5.78 0c0.02,0.32 0.11,0.55 0.3,0.67 0.25,0.16 0.62,0.23 1.12,0.23 0.31,0 0.57,-0.04 0.78,-0.11 0.13,-0.05 0.28,-0.14 0.44,-0.29l3.02 0zm-5.24 -1.96l2.91 0c-0.03,-0.54 -0.43,-0.81 -1.22,-0.81 -0.39,0 -0.73,0.07 -1.04,0.21 -0.26,0.12 -0.48,0.32 -0.66,0.6zm13.69 1.96c-0.21,0.38 -0.44,0.67 -0.67,0.88 -0.79,0.69 -2.07,1.04 -3.84,1.04 -1.56,0 -2.67,-0.23 -3.3,-0.69 -0.33,-0.24 -0.54,-0.59 -0.63,-1.06 -0.08,-0.44 -0.06,-0.93 0.08,-1.45 0.18,-0.67 0.5,-1.24 0.94,-1.72 0.49,-0.51 1.22,-0.88 2.19,-1.12 0.66,-0.16 1.35,-0.24 2.07,-0.24 1.06,0 1.91,0.17 2.56,0.51 0.56,0.3 0.89,0.73 0.97,1.31 0.07,0.42 -0.02,1.09 -0.24,2.03l-5.78 0c0.02,0.32 0.11,0.55 0.3,0.67 0.24,0.16 0.62,0.23 1.12,0.23 0.31,0 0.57,-0.04 0.78,-0.11 0.13,-0.05 0.28,-0.14 0.44,-0.29l3.02 0zm-5.24 -1.96l2.91 0c-0.03,-0.54 -0.43,-0.81 -1.22,-0.81 -0.39,0 -0.73,0.07 -1.03,0.21 -0.26,0.12 -0.48,0.32 -0.66,0.6zm6.34 -2.13l2.64 0 -0.15 0.54c0.42,-0.26 0.79,-0.43 1.11,-0.52 0.44,-0.12 0.94,-0.18 1.5,-0.18 1.02,0 1.78,0.22 2.29,0.66 0.64,0.56 0.82,1.35 0.55,2.37 -0.17,0.62 -0.47,1.18 -0.92,1.68 -0.81,0.91 -2.01,1.36 -3.59,1.36 -0.56,0 -1.05,-0.06 -1.46,-0.2 -0.26,-0.08 -0.52,-0.21 -0.75,-0.4l-0.57 2.12 -2.64 0 2 -7.44zm3.72 1.7c-0.45,0 -0.83,0.08 -1.15,0.25 -0.35,0.19 -0.58,0.49 -0.69,0.91 -0.22,0.8 0.2,1.2 1.24,1.2 1.04,0 1.67,-0.39 1.88,-1.18 0.21,-0.79 -0.21,-1.18 -1.27,-1.18z"/>
   <path class="fil3" d="M115.71 84.58l-1.26 -5.78 2.93 0 0.59 2.81 2.02 -2.81 2.94 0 0.51 2.81 2.04 -2.81 2.71 0 -4.21 5.78 -2.74 0 -0.59 -2.96 -2.28 2.96 -2.65 0zm11.44 -4.05c0.19,-0.38 0.39,-0.68 0.6,-0.88 0.46,-0.47 1.16,-0.8 2.09,-0.96 0.51,-0.09 1.12,-0.13 1.83,-0.13 1.88,0 3.03,0.25 3.45,0.75 0.15,0.19 0.24,0.4 0.25,0.63 0.02,0.25 -0.04,0.62 -0.18,1.11l-0.6 2.25c-0.08,0.33 -0.13,0.58 -0.16,0.74 -0.02,0.17 -0.01,0.35 0.06,0.54l-2.76 0 0.08 -0.52c-0.41,0.2 -0.78,0.34 -1.09,0.43 -0.56,0.16 -1.19,0.24 -1.88,0.24 -0.92,0 -1.63,-0.15 -2.15,-0.44 -0.26,-0.15 -0.44,-0.35 -0.55,-0.6 -0.12,-0.27 -0.14,-0.59 -0.04,-0.96 0.17,-0.66 0.64,-1.11 1.4,-1.37 0.93,-0.32 2.21,-0.5 3.86,-0.54 0.67,-0.02 1.06,-0.06 1.17,-0.12 0.06,-0.04 0.1,-0.09 0.12,-0.15 0.04,-0.14 -0.04,-0.25 -0.21,-0.33 -0.25,-0.13 -0.59,-0.19 -1.02,-0.19 -0.34,0 -0.64,0.04 -0.89,0.11 -0.18,0.05 -0.33,0.14 -0.46,0.28l-2.93 0.12zm5.15 1.43l-0.08 0.02c-0.21,0.03 -0.54,0.05 -1,0.06 -0.66,0.02 -1.08,0.03 -1.27,0.06 -0.38,0.05 -0.6,0.21 -0.67,0.47 -0.08,0.32 0.23,0.48 0.94,0.48 0.87,0 1.44,-0.12 1.73,-0.36 0.15,-0.12 0.26,-0.32 0.33,-0.59l0.03 -0.14zm2.23 2.61l2.06 -7.69 2.64 0 -2.06 7.69 -2.64 0zm2.91 0l2.06 -7.69 2.64 0 -0.99 3.7 2.39 -1.78 3.59 0 -2.91 2.03 1.57 3.74 -3.31 0 -0.8 -2.22 -1.23 0.87 -0.36 1.35 -2.64 0zm16.48 -1.69c-0.21,0.38 -0.43,0.67 -0.67,0.88 -0.8,0.7 -2.07,1.04 -3.84,1.04 -1.57,0 -2.67,-0.23 -3.3,-0.69 -0.33,-0.24 -0.54,-0.59 -0.63,-1.05 -0.08,-0.45 -0.06,-0.93 0.09,-1.45 0.18,-0.67 0.49,-1.24 0.94,-1.71 0.49,-0.51 1.22,-0.89 2.19,-1.13 0.66,-0.16 1.35,-0.24 2.07,-0.24 1.06,0 1.91,0.17 2.56,0.51 0.56,0.3 0.89,0.73 0.97,1.31 0.06,0.42 -0.02,1.09 -0.24,2.03l-5.78 0c0.01,0.33 0.11,0.55 0.29,0.67 0.25,0.15 0.62,0.23 1.12,0.23 0.31,0 0.57,-0.04 0.78,-0.11 0.13,-0.05 0.27,-0.15 0.44,-0.29l3.02 0zm-5.24 -1.96l2.91 0c-0.03,-0.54 -0.43,-0.81 -1.22,-0.81 -0.39,0 -0.73,0.07 -1.04,0.21 -0.26,0.12 -0.48,0.32 -0.65,0.6zm4.79 3.64l1.55 -5.78 2.64 0 -0.15 0.55c0.78,-0.46 1.56,-0.7 2.34,-0.7 0.67,0 1.14,0.13 1.42,0.39 0.31,0.29 0.39,0.81 0.25,1.57 -0.04,0.2 -0.11,0.5 -0.2,0.87l-2.65 0c0.07,-0.34 0.07,-0.57 0,-0.7 -0.1,-0.16 -0.28,-0.24 -0.56,-0.24 -0.33,0 -0.6,0.11 -0.81,0.34 -0.19,0.2 -0.34,0.53 -0.47,1l-0.72 2.7 -2.64 0z"/>
   <path class="fil0" d="M156.96 70.63c1.32,0 2.39,1.07 2.39,2.39 0,1.31 -1.07,2.38 -2.39,2.38 -1.31,0 -2.38,-1.07 -2.38,-2.38 0,-1.32 1.07,-2.39 2.38,-2.39zm0 0.37c1.11,0 2.02,0.91 2.02,2.02 0,1.11 -0.91,2.02 -2.02,2.02 -1.11,0 -2.02,-0.9 -2.02,-2.02 0,-1.11 0.9,-2.02 2.02,-2.02zm-1.09 3.24l0 -2.43 1.04 0c0.26,0 0.45,0.02 0.57,0.06 0.12,0.04 0.21,0.12 0.28,0.23 0.07,0.11 0.11,0.24 0.11,0.39 0,0.18 -0.05,0.33 -0.16,0.45 -0.11,0.12 -0.27,0.19 -0.48,0.22 0.11,0.06 0.19,0.13 0.26,0.2 0.07,0.07 0.16,0.2 0.28,0.39l0.3 0.48 -0.59 0 -0.35 -0.53c-0.13,-0.19 -0.22,-0.31 -0.26,-0.36 -0.04,-0.05 -0.09,-0.08 -0.15,-0.1 -0.05,-0.02 -0.14,-0.03 -0.25,-0.03l-0.1 0 0 1.02 -0.49 0zm0.49 -1.41l0.37 0c0.24,0 0.38,-0.01 0.44,-0.03 0.06,-0.02 0.11,-0.06 0.14,-0.11 0.03,-0.05 0.05,-0.11 0.05,-0.18 0,-0.08 -0.02,-0.15 -0.07,-0.2 -0.04,-0.05 -0.11,-0.08 -0.19,-0.09 -0.04,-0 -0.16,-0.01 -0.36,-0.01l-0.39 0 0 0.62z"/>
  </g>
 </g>
</svg>
