<svg xmlns="http://www.w3.org/2000/svg" xmlns:xlink="http://www.w3.org/1999/xlink" width="72" zoomAndPan="magnify" viewBox="0 0 54 50.999998" height="68" preserveAspectRatio="xMidYMid meet" version="1.0"><defs><clipPath id="9aa5abb500"><path d="M 6.664062 2.519531 L 47.164062 2.519531 L 47.164062 48.269531 L 6.664062 48.269531 Z M 6.664062 2.519531 " clip-rule="nonzero"/></clipPath></defs><rect x="-5.4" width="64.8" fill="#ffffff" y="-5.1" height="61.199998" fill-opacity="1"/><rect x="-5.4" width="64.8" fill="#ffffff" y="-5.1" height="61.199998" fill-opacity="1"/><g clip-path="url(#9aa5abb500)"><path fill="#00bf63" d="M 44.777344 32.15625 L 44.777344 18.835938 C 46.234375 18.503906 47.328125 17.199219 47.328125 15.644531 C 47.328125 13.84375 45.859375 12.375 44.058594 12.375 C 43.109375 12.375 42.253906 12.78125 41.65625 13.425781 L 30.117188 6.765625 C 30.214844 6.457031 30.265625 6.132812 30.265625 5.792969 C 30.265625 3.992188 28.800781 2.523438 26.996094 2.523438 C 25.191406 2.523438 23.726562 3.992188 23.726562 5.792969 C 23.726562 6.132812 23.777344 6.457031 23.871094 6.765625 L 12.335938 13.425781 C 11.734375 12.78125 10.882812 12.375 9.933594 12.375 C 8.128906 12.375 6.664062 13.84375 6.664062 15.644531 C 6.664062 17.199219 7.753906 18.503906 9.214844 18.835938 L 9.214844 32.15625 C 7.753906 32.488281 6.664062 33.789062 6.664062 35.347656 C 6.664062 37.148438 8.128906 38.617188 9.933594 38.617188 C 10.882812 38.617188 11.734375 38.210938 12.335938 37.566406 L 23.871094 44.226562 C 23.777344 44.535156 23.726562 44.859375 23.726562 45.199219 C 23.726562 47 25.191406 48.46875 26.996094 48.46875 C 28.800781 48.46875 30.265625 47 30.265625 45.199219 C 30.265625 44.859375 30.214844 44.53125 30.117188 44.226562 L 41.65625 37.566406 C 42.253906 38.210938 43.109375 38.617188 44.058594 38.617188 C 45.859375 38.617188 47.328125 37.148438 47.328125 35.347656 C 47.328125 33.789062 46.234375 32.488281 44.777344 32.15625 Z M 41.65625 33.128906 L 39.117188 31.660156 C 40.0625 29.808594 40.597656 27.714844 40.597656 25.496094 C 40.597656 23.277344 40.0625 21.183594 39.117188 19.332031 L 41.65625 17.863281 C 42.097656 18.339844 42.679688 18.6875 43.335938 18.835938 L 43.335938 32.15625 C 42.679688 32.304688 42.097656 32.652344 41.65625 33.128906 Z M 26.996094 37.65625 C 20.292969 37.65625 14.835938 32.199219 14.835938 25.496094 C 14.835938 18.792969 20.292969 13.335938 26.996094 13.335938 C 33.699219 13.335938 39.15625 18.792969 39.15625 25.496094 C 39.15625 32.199219 33.699219 37.65625 26.996094 37.65625 Z M 10.65625 32.15625 L 10.65625 18.835938 C 11.3125 18.6875 11.890625 18.339844 12.335938 17.863281 L 14.875 19.332031 C 13.929688 21.183594 13.394531 23.277344 13.394531 25.496094 C 13.394531 27.714844 13.929688 29.808594 14.875 31.660156 L 12.335938 33.128906 C 11.890625 32.652344 11.3125 32.304688 10.65625 32.15625 Z M 44.058594 13.816406 C 45.066406 13.816406 45.886719 14.636719 45.886719 15.644531 C 45.886719 16.652344 45.066406 17.472656 44.058594 17.472656 C 43.050781 17.472656 42.230469 16.652344 42.230469 15.644531 C 42.230469 14.636719 43.050781 13.816406 44.058594 13.816406 Z M 40.933594 14.675781 C 40.839844 14.980469 40.789062 15.308594 40.789062 15.644531 C 40.789062 15.984375 40.839844 16.308594 40.933594 16.617188 L 38.394531 18.082031 C 36.085938 14.550781 32.183594 12.148438 27.714844 11.914062 L 27.714844 8.984375 C 28.371094 8.835938 28.953125 8.488281 29.394531 8.011719 Z M 26.996094 3.964844 C 28.003906 3.964844 28.824219 4.785156 28.824219 5.792969 C 28.824219 6.804688 28.003906 7.625 26.996094 7.625 C 25.988281 7.625 25.167969 6.804688 25.167969 5.792969 C 25.167969 4.785156 25.988281 3.964844 26.996094 3.964844 Z M 24.59375 8.011719 C 25.039062 8.488281 25.617188 8.835938 26.273438 8.984375 L 26.273438 11.914062 C 21.808594 12.148438 17.90625 14.550781 15.597656 18.082031 L 13.058594 16.617188 C 13.152344 16.308594 13.203125 15.984375 13.203125 15.644531 C 13.203125 15.308594 13.152344 14.980469 13.058594 14.675781 Z M 8.105469 15.644531 C 8.105469 14.636719 8.925781 13.816406 9.933594 13.816406 C 10.941406 13.816406 11.761719 14.636719 11.761719 15.644531 C 11.761719 16.652344 10.941406 17.472656 9.933594 17.472656 C 8.925781 17.472656 8.105469 16.652344 8.105469 15.644531 Z M 9.933594 37.175781 C 8.925781 37.175781 8.105469 36.355469 8.105469 35.347656 C 8.105469 34.339844 8.925781 33.519531 9.933594 33.519531 C 10.941406 33.519531 11.761719 34.339844 11.761719 35.347656 C 11.761719 36.355469 10.941406 37.175781 9.933594 37.175781 Z M 13.058594 36.316406 C 13.152344 36.011719 13.203125 35.683594 13.203125 35.347656 C 13.203125 35.007812 13.152344 34.683594 13.058594 34.375 L 15.597656 32.90625 C 17.90625 36.441406 21.808594 38.84375 26.273438 39.078125 L 26.273438 42.007812 C 25.617188 42.15625 25.039062 42.5 24.59375 42.980469 Z M 26.996094 47.027344 C 25.988281 47.027344 25.167969 46.207031 25.167969 45.195312 C 25.167969 44.1875 25.988281 43.367188 26.996094 43.367188 C 28.003906 43.367188 28.824219 44.1875 28.824219 45.195312 C 28.824219 46.207031 28.003906 47.027344 26.996094 47.027344 Z M 29.394531 42.980469 C 28.953125 42.5 28.371094 42.15625 27.714844 42.007812 L 27.714844 39.078125 C 32.183594 38.84375 36.085938 36.441406 38.394531 32.910156 L 40.933594 34.375 C 40.839844 34.683594 40.789062 35.007812 40.789062 35.347656 C 40.789062 35.683594 40.839844 36.011719 40.933594 36.316406 Z M 44.058594 37.175781 C 43.050781 37.175781 42.230469 36.355469 42.230469 35.347656 C 42.230469 34.339844 43.050781 33.519531 44.058594 33.519531 C 45.066406 33.519531 45.886719 34.339844 45.886719 35.347656 C 45.886719 36.355469 45.066406 37.175781 44.058594 37.175781 Z M 37.628906 28.980469 C 38.234375 28.859375 38.628906 28.269531 38.507812 27.667969 L 36.960938 19.902344 C 36.839844 19.296875 36.25 18.902344 35.644531 19.023438 L 33.65625 19.421875 C 33.363281 19.476562 33.109375 19.648438 32.945312 19.894531 C 32.824219 20.074219 32.761719 20.28125 32.757812 20.492188 C 31.6875 20.789062 30.476562 20.753906 28.949219 19.492188 C 28 18.710938 26.707031 18.6875 25.808594 19.4375 L 25.105469 20.023438 L 21.121094 20.023438 C 21.097656 19.980469 21.074219 19.9375 21.046875 19.894531 C 20.878906 19.648438 20.628906 19.476562 20.335938 19.421875 L 18.34375 19.023438 C 18.050781 18.964844 17.753906 19.023438 17.507812 19.191406 C 17.257812 19.355469 17.089844 19.609375 17.03125 19.902344 L 15.484375 27.667969 C 15.425781 27.957031 15.484375 28.257812 15.652344 28.503906 C 15.816406 28.753906 16.070312 28.921875 16.363281 28.980469 L 18.351562 29.378906 C 18.425781 29.390625 18.5 29.398438 18.574219 29.398438 C 18.789062 29.398438 19.003906 29.335938 19.191406 29.210938 C 19.277344 29.152344 19.351562 29.085938 19.417969 29.007812 L 23.773438 33.363281 C 24.121094 33.714844 24.589844 33.90625 25.085938 33.90625 C 25.585938 33.90625 26.050781 33.714844 26.402344 33.363281 C 26.5 33.265625 26.589844 33.152344 26.664062 33.035156 L 26.929688 33.304688 C 27.65625 34.027344 28.832031 34.027344 29.558594 33.304688 C 29.679688 33.183594 29.78125 33.046875 29.863281 32.902344 C 30.566406 33.273438 31.453125 33.164062 32.042969 32.574219 C 32.347656 32.269531 32.523438 31.886719 32.574219 31.492188 C 32.980469 31.441406 33.359375 31.257812 33.652344 30.964844 C 34.09375 30.523438 34.277344 29.90625 34.167969 29.316406 L 34.53125 28.953125 C 34.605469 29.050781 34.695312 29.140625 34.800781 29.210938 C 34.988281 29.335938 35.199219 29.398438 35.417969 29.398438 C 35.492188 29.398438 35.566406 29.390625 35.636719 29.378906 Z M 26.734375 20.542969 C 27.101562 20.234375 27.613281 20.257812 28.03125 20.605469 C 29.996094 22.226562 31.722656 22.234375 33.011719 21.914062 L 34.097656 27.347656 L 33.347656 28.097656 L 28.933594 23.617188 C 28.925781 23.609375 28.914062 23.597656 28.90625 23.589844 C 28.285156 23.027344 27.109375 22.132812 26.175781 22.480469 C 25.792969 22.621094 25.535156 22.957031 25.484375 23.375 C 25.484375 23.382812 25.484375 23.386719 25.484375 23.394531 C 25.472656 23.492188 25.464844 23.59375 25.457031 23.695312 C 25.351562 24.886719 25.25 25.597656 24.535156 26.011719 L 23.902344 23.109375 C 23.875 22.996094 23.929688 22.882812 24.0625 22.773438 Z M 18.316406 27.898438 L 16.960938 27.628906 L 18.382812 20.5 L 19.738281 20.769531 Z M 32.632812 29.945312 C 32.472656 30.105469 32.203125 30.105469 32.042969 29.945312 L 28.65625 26.558594 C 28.375 26.277344 27.917969 26.277344 27.636719 26.558594 C 27.355469 26.839844 27.355469 27.296875 27.636719 27.578125 L 31.023438 30.964844 C 31.101562 31.042969 31.144531 31.148438 31.144531 31.257812 C 31.144531 31.371094 31.101562 31.476562 31.023438 31.554688 C 30.949219 31.632812 30.84375 31.675781 30.730469 31.675781 C 30.617188 31.675781 30.511719 31.632812 30.4375 31.554688 L 26.855469 27.976562 C 26.574219 27.691406 26.117188 27.691406 25.835938 27.976562 C 25.554688 28.257812 25.554688 28.710938 25.835938 28.992188 L 28.539062 31.695312 C 28.699219 31.855469 28.699219 32.125 28.539062 32.285156 C 28.378906 32.445312 28.109375 32.445312 27.949219 32.285156 L 25.054688 29.390625 C 24.773438 29.109375 24.320312 29.109375 24.035156 29.390625 C 23.753906 29.671875 23.753906 30.128906 24.035156 30.410156 L 25.382812 31.753906 C 25.460938 31.832031 25.503906 31.9375 25.503906 32.050781 C 25.503906 32.164062 25.460938 32.265625 25.382812 32.34375 C 25.304688 32.421875 25.199219 32.464844 25.085938 32.464844 C 24.976562 32.464844 24.871094 32.421875 24.792969 32.34375 L 19.878906 27.433594 L 21.066406 21.464844 L 23.378906 21.464844 L 23.140625 21.667969 C 22.59375 22.121094 22.351562 22.777344 22.492188 23.417969 L 23.300781 27.128906 C 23.34375 27.316406 23.460938 27.484375 23.625 27.585938 C 23.789062 27.6875 23.988281 27.71875 24.179688 27.671875 C 26.550781 27.089844 26.757812 25.351562 26.882812 23.921875 C 27.109375 24.019531 27.464844 24.230469 27.921875 24.644531 L 32.734375 29.527344 C 32.78125 29.671875 32.742188 29.835938 32.632812 29.945312 Z M 34.253906 20.769531 L 35.609375 20.5 L 37.03125 27.628906 L 35.675781 27.898438 Z M 34.253906 20.769531 " fill-opacity="1" fill-rule="nonzero"/></g></svg>