<svg xmlns="http://www.w3.org/2000/svg" xmlns:xlink="http://www.w3.org/1999/xlink" width="72" zoomAndPan="magnify" viewBox="0 0 54 50.999998" height="68" preserveAspectRatio="xMidYMid meet" version="1.0"><defs><clipPath id="11f3c82194"><path d="M 5.101562 3.203125 L 48.601562 3.203125 L 48.601562 47.453125 L 5.101562 47.453125 Z M 5.101562 3.203125 " clip-rule="nonzero"/></clipPath></defs><rect x="-5.4" width="64.8" fill="#ffffff" y="-5.1" height="61.199998" fill-opacity="1"/><rect x="-5.4" width="64.8" fill="#ffffff" y="-5.1" height="61.199998" fill-opacity="1"/><g clip-path="url(#11f3c82194)"><path fill="#78292a" d="M 11.972656 28.988281 L 11.964844 28.984375 C 11.828125 28.945312 11.710938 28.894531 11.625 28.828125 C 11.539062 28.753906 11.476562 28.664062 11.414062 28.480469 C 11.347656 28.296875 11.273438 28.019531 11.222656 27.769531 C 11.167969 27.523438 11.136719 27.308594 11.121094 27.117188 C 11.109375 26.925781 11.113281 26.765625 11.15625 26.636719 C 11.203125 26.511719 11.320312 26.40625 11.402344 26.382812 C 11.488281 26.359375 11.53125 26.371094 11.566406 26.363281 C 11.609375 26.355469 11.550781 26.332031 11.550781 26.3125 L 11.449219 24.890625 C 11.382812 24.238281 11.519531 23.285156 12.003906 22.835938 C 12.113281 22.734375 12.5 22.664062 12.570312 22.71875 C 12.5 22.589844 12.46875 22.402344 12.613281 22.203125 C 12.757812 22.003906 13.089844 21.613281 13.421875 21.460938 C 13.933594 21.234375 14.507812 21.0625 15.066406 21.117188 C 15.699219 21.175781 16.3125 21.445312 16.847656 21.792969 C 17.28125 22.066406 17.644531 22.472656 17.878906 22.925781 C 18.128906 23.410156 18.203125 23.933594 18.253906 24.511719 C 18.304688 25.089844 18.261719 25.777344 18.179688 26.359375 C 18.242188 26.359375 18.300781 26.375 18.355469 26.398438 C 18.476562 26.441406 18.585938 26.519531 18.636719 26.671875 C 18.691406 26.820312 18.683594 27.039062 18.664062 27.261719 C 18.644531 27.480469 18.613281 27.699219 18.5625 27.917969 C 18.507812 28.136719 18.429688 28.355469 18.367188 28.515625 C 18.300781 28.671875 18.246094 28.765625 18.160156 28.835938 C 18.070312 28.90625 17.957031 28.953125 17.816406 28.996094 C 17.792969 29.003906 17.765625 29.011719 17.738281 29.019531 L 17.695312 29.6875 C 17.667969 30.078125 17.527344 30.414062 17.261719 30.699219 L 17.261719 31.859375 C 17.261719 32.089844 17.164062 32.285156 16.984375 32.425781 L 15.265625 33.75 L 15.886719 34.121094 C 16.007812 34.1875 15.945312 34.351562 15.886719 34.480469 L 15.632812 35.058594 C 15.578125 35.195312 15.5 35.316406 15.558594 35.453125 L 15.621094 35.59375 L 16.011719 37.023438 L 16.082031 39.238281 L 16.0625 39.3125 C 15.949219 39.699219 15.917969 40.21875 15.886719 40.625 C 15.835938 41.207031 15.796875 41.792969 15.757812 42.375 C 15.738281 42.621094 15.71875 42.871094 15.703125 43.117188 C 12.5625 43.148438 9.425781 42.957031 6.28125 42.570312 C 5.886719 42.519531 5.5625 42.320312 5.339844 41.992188 C 5.113281 41.664062 5.046875 41.292969 5.144531 40.90625 C 5.339844 40.105469 5.527344 35.671875 5.675781 35.15625 C 5.917969 34.324219 6.0625 34.023438 6.320312 33.832031 C 6.570312 33.644531 6.929688 33.566406 7.734375 33.367188 C 8.539062 33.175781 9.789062 32.855469 10.578125 32.542969 C 11.230469 32.28125 11.570312 32.027344 11.859375 31.773438 C 11.890625 31.742188 11.933594 31.738281 11.972656 31.757812 C 12.015625 31.777344 12.035156 31.816406 12.03125 31.855469 C 11.972656 32.816406 11.921875 33.753906 11.945312 34.410156 C 11.972656 35.125 12.085938 35.511719 12.425781 36.167969 L 13.6875 42.066406 L 13.859375 37.023438 L 14.25 35.59375 L 14.285156 35.507812 C 14.347656 35.371094 14.277344 35.25 14.210938 35.113281 L 13.910156 34.480469 C 13.847656 34.355469 13.785156 34.191406 13.910156 34.121094 L 14.574219 33.722656 L 12.886719 32.429688 C 12.703125 32.285156 12.605469 32.089844 12.605469 31.859375 L 12.605469 30.859375 L 12.476562 30.726562 C 12.195312 30.429688 12.046875 30.089844 12.019531 29.683594 Z M 15.574219 3.207031 L 38.355469 3.207031 C 39.371094 3.207031 40.199219 4.035156 40.199219 5.046875 L 40.199219 13.394531 C 40.199219 14.410156 39.371094 15.238281 38.355469 15.238281 L 38.300781 15.238281 L 38.714844 18.488281 C 38.738281 18.65625 38.644531 18.816406 38.492188 18.886719 C 38.339844 18.957031 38.171875 18.914062 38.042969 18.800781 L 34.140625 15.238281 L 29.082031 15.238281 L 27.335938 19.347656 C 27.269531 19.503906 27.136719 19.613281 26.96875 19.613281 C 26.792969 19.613281 26.660156 19.503906 26.597656 19.347656 L 24.851562 15.238281 L 19.792969 15.238281 L 15.890625 18.800781 C 15.765625 18.914062 15.59375 18.957031 15.441406 18.886719 C 15.285156 18.816406 15.195312 18.65625 15.21875 18.488281 L 15.632812 15.238281 C 14.589844 15.238281 13.734375 14.460938 13.734375 13.394531 L 13.734375 5.046875 C 13.734375 4.035156 14.5625 3.207031 15.574219 3.207031 Z M 35.183594 7.324219 C 36.230469 7.324219 37.082031 8.171875 37.082031 9.222656 C 37.082031 10.273438 36.230469 11.121094 35.183594 11.121094 C 34.132812 11.121094 33.28125 10.273438 33.28125 9.222656 C 33.28125 8.171875 34.132812 7.324219 35.183594 7.324219 Z M 26.96875 7.324219 C 28.015625 7.324219 28.867188 8.171875 28.867188 9.222656 C 28.867188 10.273438 28.015625 11.121094 26.96875 11.121094 C 25.917969 11.121094 25.066406 10.273438 25.066406 9.222656 C 25.066406 8.171875 25.917969 7.324219 26.96875 7.324219 Z M 18.75 7.324219 C 19.800781 7.324219 20.648438 8.171875 20.648438 9.222656 C 20.648438 10.273438 19.800781 11.121094 18.75 11.121094 C 17.703125 11.121094 16.851562 10.273438 16.851562 9.222656 C 16.851562 8.171875 17.703125 7.324219 18.75 7.324219 Z M 36.035156 28.988281 L 36.023438 28.984375 C 35.886719 28.945312 35.773438 28.894531 35.683594 28.828125 C 35.597656 28.753906 35.539062 28.664062 35.472656 28.480469 C 35.410156 28.296875 35.332031 28.019531 35.28125 27.769531 C 35.230469 27.523438 35.195312 27.308594 35.183594 27.117188 C 35.167969 26.925781 35.171875 26.765625 35.214844 26.636719 C 35.261719 26.511719 35.378906 26.40625 35.460938 26.382812 C 35.550781 26.359375 35.59375 26.371094 35.628906 26.363281 C 35.667969 26.355469 35.609375 26.332031 35.609375 26.3125 L 35.507812 24.890625 C 35.441406 24.238281 35.582031 23.285156 36.058594 22.835938 C 36.175781 22.734375 36.558594 22.664062 36.632812 22.71875 C 36.558594 22.589844 36.527344 22.402344 36.675781 22.203125 C 36.816406 22.003906 37.148438 21.613281 37.480469 21.460938 C 37.992188 21.234375 38.570312 21.0625 39.125 21.117188 C 39.757812 21.175781 40.375 21.445312 40.910156 21.792969 C 41.335938 22.066406 41.703125 22.472656 41.9375 22.925781 C 42.191406 23.410156 42.265625 23.933594 42.316406 24.511719 C 42.367188 25.089844 42.324219 25.777344 42.238281 26.359375 C 42.300781 26.359375 42.363281 26.375 42.417969 26.398438 C 42.539062 26.441406 42.644531 26.519531 42.695312 26.671875 C 42.75 26.820312 42.742188 27.039062 42.722656 27.261719 C 42.703125 27.480469 42.671875 27.699219 42.621094 27.917969 C 42.566406 28.136719 42.492188 28.355469 42.425781 28.515625 C 42.363281 28.671875 42.304688 28.765625 42.21875 28.835938 C 42.128906 28.90625 42.011719 28.953125 41.875 28.996094 C 41.851562 29.003906 41.824219 29.011719 41.796875 29.019531 L 41.753906 29.6875 C 41.730469 30.078125 41.585938 30.414062 41.324219 30.699219 L 41.324219 31.859375 C 41.324219 32.089844 41.226562 32.285156 41.042969 32.425781 L 39.324219 33.75 L 39.945312 34.121094 C 40.066406 34.1875 40 34.351562 39.945312 34.480469 L 39.695312 35.058594 C 39.632812 35.195312 39.558594 35.316406 39.617188 35.453125 L 39.679688 35.59375 L 40.070312 37.023438 L 40.238281 42.066406 L 41.503906 36.167969 C 41.84375 35.511719 41.960938 35.125 41.984375 34.410156 C 42.011719 33.753906 41.957031 32.816406 41.898438 31.855469 C 41.894531 31.8125 41.917969 31.777344 41.957031 31.757812 C 41.996094 31.738281 42.039062 31.742188 42.070312 31.773438 C 42.359375 32.027344 42.699219 32.28125 43.351562 32.542969 C 44.140625 32.855469 45.390625 33.171875 46.195312 33.367188 C 46.996094 33.566406 47.355469 33.644531 47.613281 33.832031 C 47.867188 34.023438 48.015625 34.324219 48.253906 35.15625 C 48.402344 35.671875 48.589844 40.113281 48.789062 40.914062 C 48.886719 41.300781 48.820312 41.671875 48.597656 42 C 48.371094 42.328125 48.050781 42.527344 47.65625 42.578125 C 44.511719 42.984375 41.371094 43.160156 38.226562 43.117188 C 38.210938 42.871094 38.191406 42.625 38.171875 42.378906 C 38.132812 41.796875 38.09375 41.210938 38.042969 40.628906 C 38.011719 40.222656 37.980469 39.699219 37.863281 39.3125 L 37.847656 39.238281 L 37.917969 37.023438 L 38.308594 35.59375 L 38.347656 35.507812 C 38.40625 35.371094 38.335938 35.25 38.269531 35.113281 L 37.96875 34.480469 C 37.902344 34.355469 37.847656 34.191406 37.96875 34.121094 L 38.628906 33.722656 L 36.949219 32.429688 C 36.765625 32.285156 36.664062 32.089844 36.664062 31.859375 L 36.664062 30.859375 L 36.539062 30.726562 C 36.257812 30.429688 36.105469 30.089844 36.082031 29.683594 Z M 24.003906 33.621094 L 23.992188 33.617188 C 23.855469 33.578125 23.742188 33.527344 23.652344 33.457031 C 23.566406 33.386719 23.507812 33.292969 23.445312 33.109375 C 23.378906 32.925781 23.304688 32.648438 23.25 32.402344 C 23.199219 32.152344 23.167969 31.9375 23.152344 31.746094 C 23.136719 31.554688 23.140625 31.394531 23.183594 31.269531 C 23.230469 31.144531 23.351562 31.039062 23.433594 31.011719 C 23.519531 30.988281 23.5625 31.003906 23.597656 30.996094 C 23.636719 30.984375 23.582031 30.964844 23.582031 30.945312 L 23.480469 29.523438 C 23.410156 28.867188 23.550781 27.914062 24.03125 27.46875 C 24.144531 27.363281 24.527344 27.296875 24.601562 27.351562 C 24.527344 27.21875 24.496094 27.035156 24.644531 26.835938 C 24.789062 26.632812 25.117188 26.242188 25.453125 26.089844 C 25.964844 25.863281 26.539062 25.691406 27.097656 25.746094 C 27.730469 25.808594 28.34375 26.078125 28.878906 26.421875 C 29.308594 26.699219 29.675781 27.101562 29.90625 27.558594 C 30.160156 28.039062 30.234375 28.566406 30.285156 29.144531 C 30.335938 29.71875 30.292969 30.410156 30.210938 30.988281 C 30.269531 30.992188 30.332031 31.007812 30.386719 31.027344 C 30.507812 31.070312 30.617188 31.152344 30.667969 31.300781 C 30.71875 31.453125 30.714844 31.671875 30.695312 31.890625 C 30.671875 32.109375 30.640625 32.328125 30.589844 32.546875 C 30.539062 32.769531 30.460938 32.992188 30.398438 33.144531 C 30.332031 33.304688 30.273438 33.398438 30.1875 33.46875 C 30.101562 33.539062 29.984375 33.585938 29.847656 33.628906 C 29.820312 33.632812 29.792969 33.640625 29.769531 33.648438 L 29.722656 34.316406 C 29.699219 34.710938 29.558594 35.042969 29.292969 35.332031 L 29.292969 36.488281 C 29.292969 36.71875 29.195312 36.917969 29.011719 37.0625 L 27.292969 38.378906 L 27.917969 38.75 C 28.039062 38.824219 27.96875 38.980469 27.917969 39.109375 L 27.664062 39.6875 C 27.601562 39.828125 27.527344 39.949219 27.589844 40.089844 L 27.648438 40.226562 L 28.042969 41.65625 L 28.210938 46.695312 L 29.472656 40.800781 C 29.8125 40.140625 29.929688 39.757812 29.953125 39.042969 C 29.980469 38.382812 29.925781 37.445312 29.867188 36.484375 C 29.863281 36.445312 29.886719 36.40625 29.925781 36.386719 C 29.964844 36.371094 30.007812 36.375 30.039062 36.402344 C 30.328125 36.660156 30.671875 36.914062 31.320312 37.171875 C 32.113281 37.484375 33.359375 37.804688 34.164062 38 C 34.96875 38.195312 35.324219 38.277344 35.582031 38.464844 C 35.835938 38.652344 35.984375 38.957031 36.226562 39.785156 C 36.371094 40.304688 36.558594 44.746094 36.761719 45.546875 C 36.859375 45.929688 36.789062 46.300781 36.566406 46.632812 C 36.339844 46.957031 36.019531 47.15625 35.625 47.207031 C 29.855469 47.957031 24.082031 47.917969 18.3125 47.199219 C 17.917969 47.148438 17.59375 46.953125 17.367188 46.625 C 17.144531 46.292969 17.074219 45.921875 17.171875 45.535156 C 17.371094 44.738281 17.558594 40.304688 17.707031 39.785156 C 17.945312 38.957031 18.09375 38.652344 18.347656 38.464844 C 18.601562 38.277344 18.960938 38.195312 19.765625 38.003906 C 20.566406 37.804688 21.820312 37.484375 22.609375 37.171875 C 23.261719 36.914062 23.601562 36.660156 23.890625 36.402344 C 23.921875 36.375 23.964844 36.371094 24.003906 36.386719 C 24.039062 36.40625 24.0625 36.445312 24.0625 36.484375 C 24.003906 37.445312 23.949219 38.382812 23.976562 39.042969 C 24 39.757812 24.117188 40.140625 24.457031 40.800781 L 25.71875 46.695312 L 25.886719 41.660156 L 26.28125 40.226562 L 26.316406 40.136719 C 26.378906 40 26.304688 39.878906 26.242188 39.742188 L 25.9375 39.109375 C 25.878906 38.984375 25.816406 38.824219 25.9375 38.75 L 26.605469 38.355469 L 24.917969 37.0625 C 24.734375 36.917969 24.632812 36.71875 24.632812 36.488281 L 24.632812 35.488281 L 24.507812 35.359375 C 24.226562 35.0625 24.078125 34.71875 24.050781 34.3125 Z M 32.164062 33.277344 C 32.945312 33.085938 33.960938 32.8125 34.640625 32.542969 C 35.289062 32.28125 35.632812 32.027344 35.917969 31.773438 C 35.953125 31.742188 35.996094 31.738281 36.035156 31.757812 C 36.070312 31.777344 36.09375 31.816406 36.09375 31.855469 C 36.03125 32.816406 35.980469 33.753906 36.003906 34.410156 C 36.03125 35.125 36.144531 35.511719 36.484375 36.167969 L 36.699219 37.167969 C 36.667969 37.144531 36.636719 37.117188 36.601562 37.09375 C 36.011719 36.652344 35.273438 36.511719 34.570312 36.34375 C 33.722656 36.132812 32.761719 35.902344 31.949219 35.582031 C 31.691406 35.480469 31.488281 35.378906 31.285156 35.21875 C 31.34375 35.039062 31.382812 34.855469 31.40625 34.671875 C 31.660156 34.425781 31.835938 34.136719 31.976562 33.808594 C 32.046875 33.632812 32.109375 33.457031 32.164062 33.277344 Z M 17.230469 37.167969 L 17.441406 36.167969 C 17.785156 35.511719 17.898438 35.125 17.925781 34.410156 C 17.949219 33.753906 17.894531 32.816406 17.839844 31.855469 C 17.835938 31.8125 17.859375 31.777344 17.894531 31.757812 C 17.933594 31.738281 17.980469 31.742188 18.011719 31.773438 C 18.296875 32.027344 18.640625 32.28125 19.289062 32.542969 C 19.949219 32.800781 20.925781 33.066406 21.699219 33.261719 C 21.738281 33.40625 21.785156 33.546875 21.832031 33.683594 C 21.953125 34.027344 22.117188 34.324219 22.359375 34.582031 C 22.386719 34.835938 22.441406 35.078125 22.519531 35.308594 C 22.355469 35.421875 22.183594 35.5 21.980469 35.582031 C 21.167969 35.902344 20.207031 36.132812 19.359375 36.34375 C 18.65625 36.515625 17.917969 36.65625 17.324219 37.09375 C 17.292969 37.117188 17.257812 37.144531 17.230469 37.167969 Z M 17.230469 37.167969 " fill-opacity="1" fill-rule="evenodd"/></g></svg>