<svg xmlns="http://www.w3.org/2000/svg" xmlns:xlink="http://www.w3.org/1999/xlink" width="72" zoomAndPan="magnify" viewBox="0 0 54 50.999998" height="68" preserveAspectRatio="xMidYMid meet" version="1.0"><defs><clipPath id="a926dbf79f"><path d="M 4.90625 3.40625 L 49.15625 3.40625 L 49.15625 47.65625 L 4.90625 47.65625 Z M 4.90625 3.40625 " clip-rule="nonzero"/></clipPath></defs><rect x="-5.4" width="64.8" fill="#ffffff" y="-5.1" height="61.199998" fill-opacity="1"/><rect x="-5.4" width="64.8" fill="#ffffff" y="-5.1" height="61.199998" fill-opacity="1"/><g clip-path="url(#a926dbf79f)"><path fill="#78292a" d="M 49.085938 25.496094 C 49.085938 22.058594 48.324219 18.761719 46.796875 15.707031 L 46.796875 9.980469 C 46.796875 8.398438 45.515625 7.144531 43.960938 7.144531 C 43.796875 7.144531 43.6875 7.253906 43.6875 7.414062 L 43.6875 10.769531 L 43.46875 10.769531 C 43.113281 10.386719 42.757812 10.007812 42.378906 9.625 C 42.542969 9.160156 42.625 8.726562 42.625 8.34375 C 42.625 5.726562 40.496094 3.597656 37.878906 3.597656 C 36.679688 3.597656 35.585938 4.0625 34.742188 4.796875 C 32.261719 3.871094 29.667969 3.40625 26.996094 3.40625 C 22.632812 3.40625 18.40625 4.6875 14.777344 7.089844 C 14.398438 6.625 13.742188 6.542969 13.25 6.898438 C 10.46875 9.023438 8.535156 11.859375 7.550781 14.996094 C 5.832031 18.1875 4.90625 21.816406 4.90625 25.496094 C 4.90625 37.632812 14.777344 47.585938 26.996094 47.585938 C 39.160156 47.585938 49.085938 37.660156 49.085938 25.496094 Z M 48.539062 25.496094 C 48.539062 31.496094 46.085938 36.921875 42.105469 40.824219 L 29.179688 40.824219 C 29.042969 39.570312 27.976562 38.585938 26.667969 38.585938 L 24.433594 38.585938 L 24.433594 36.050781 C 27.105469 35.832031 29.695312 34.933594 31.960938 33.433594 L 43.933594 33.433594 C 45.515625 33.433594 46.769531 32.152344 46.769531 30.570312 L 46.769531 17.015625 C 47.96875 19.6875 48.539062 22.523438 48.539062 25.496094 Z M 22.167969 36.078125 C 22.46875 36.105469 22.769531 36.105469 23.070312 36.105469 C 23.34375 36.105469 23.613281 36.105469 23.886719 36.078125 L 23.886719 38.585938 L 22.140625 38.585938 L 22.140625 36.078125 Z M 26.667969 39.132812 C 27.652344 39.132812 28.496094 39.867188 28.605469 40.824219 L 17.453125 40.824219 C 17.589844 39.867188 18.40625 39.132812 19.386719 39.132812 Z M 46.25 9.980469 L 46.25 28.878906 C 45.785156 28.222656 45.050781 27.789062 44.230469 27.707031 L 44.230469 7.714844 C 45.378906 7.851562 46.25 8.804688 46.25 9.980469 Z M 43.140625 11.234375 C 43.304688 11.425781 43.496094 11.644531 43.6875 11.859375 L 43.6875 27.976562 C 43.6875 28.140625 43.796875 28.25 43.960938 28.25 C 45.242188 28.25 46.25 29.289062 46.25 30.570312 C 46.25 31.851562 45.214844 32.859375 43.960938 32.859375 L 32.777344 32.859375 C 32.804688 32.859375 32.804688 32.832031 32.832031 32.832031 C 33.078125 32.640625 33.214844 32.394531 33.269531 32.097656 C 33.324219 31.796875 33.242188 31.496094 33.050781 31.277344 C 32.859375 31.03125 32.613281 30.894531 32.316406 30.839844 C 32.097656 30.816406 31.90625 30.839844 31.714844 30.921875 L 30.894531 29.859375 C 33.1875 28.058594 34.851562 25.496094 35.476562 22.550781 C 35.476562 22.550781 35.476562 22.550781 35.476562 22.523438 C 35.476562 22.496094 35.476562 22.46875 35.503906 22.441406 C 35.503906 22.386719 35.53125 22.332031 35.53125 22.304688 C 35.695312 21.515625 35.777344 20.695312 35.777344 19.878906 C 35.777344 16.578125 34.523438 13.605469 32.476562 11.34375 L 34.140625 11.34375 C 35.421875 13.851562 37.550781 16.578125 37.6875 16.742188 C 37.742188 16.796875 37.824219 16.851562 37.90625 16.851562 C 37.988281 16.851562 38.070312 16.824219 38.125 16.742188 C 38.257812 16.550781 41.070312 12.953125 42.1875 10.222656 C 42.515625 10.550781 42.839844 10.878906 43.140625 11.234375 Z M 13.359375 9.734375 L 14.152344 10.796875 C 11.804688 13.117188 10.332031 16.332031 10.332031 19.878906 C 10.332031 26.886719 16.035156 32.585938 23.042969 32.585938 C 23.125 32.585938 23.234375 32.585938 23.316406 32.585938 L 23.316406 33.160156 C 23.316406 33.324219 23.425781 33.433594 23.585938 33.433594 L 26.613281 33.433594 C 21.269531 34.824219 15.378906 32.996094 11.832031 28.304688 C 7.523438 22.578125 8.289062 14.589844 13.359375 9.734375 Z M 14.371094 8.859375 L 15.160156 9.898438 C 14.941406 10.0625 14.75 10.222656 14.5625 10.414062 L 13.769531 9.378906 C 13.960938 9.1875 14.152344 9.023438 14.371094 8.859375 Z M 16.386719 9.679688 L 16.632812 9.925781 C 16.605469 10.007812 16.605469 10.089844 16.632812 10.171875 L 17.042969 10.878906 L 16.796875 11.289062 C 16.25 11.234375 16.089844 11.722656 16.007812 11.996094 C 15.980469 12.078125 15.953125 12.132812 15.925781 12.214844 L 15.488281 11.859375 L 15.925781 11.097656 C 15.980469 10.988281 15.980469 10.851562 15.871094 10.769531 C 15.789062 10.6875 15.652344 10.660156 15.542969 10.714844 C 14.996094 11.015625 14.695312 11.34375 14.667969 11.695312 C 14.617188 12.132812 14.914062 12.488281 15.132812 12.707031 C 15.214844 12.816406 15.324219 12.898438 15.40625 13.007812 C 15.515625 13.144531 15.625 13.25 15.734375 13.386719 C 15.871094 13.523438 16.089844 13.632812 16.25 13.632812 C 16.441406 13.632812 16.578125 13.6875 16.632812 13.769531 C 16.6875 13.824219 16.6875 13.960938 16.632812 14.152344 C 16.578125 14.34375 16.496094 14.535156 16.386719 14.695312 C 16.007812 15.242188 15.898438 15.84375 16.007812 16.441406 C 16.089844 16.878906 15.925781 17.207031 15.625 17.613281 C 14.941406 18.542969 14.804688 19.496094 15.242188 20.507812 C 15.242188 20.53125 15.269531 20.558594 15.269531 20.558594 C 15.078125 21.597656 15.460938 22.550781 15.816406 23.453125 L 15.84375 23.503906 C 15.898438 23.640625 16.0625 23.695312 16.195312 23.667969 L 16.386719 23.613281 C 16.386719 23.777344 16.414062 23.914062 16.441406 24.078125 C 16.46875 24.296875 16.550781 24.542969 16.6875 24.679688 C 17.261719 25.277344 17.804688 25.769531 18.625 26.070312 C 19.113281 26.234375 19.578125 26.667969 20.015625 27.078125 C 20.097656 27.160156 20.179688 27.242188 20.261719 27.324219 C 20.640625 27.679688 21.132812 28.113281 21.871094 28.140625 C 21.898438 28.140625 21.925781 28.140625 21.980469 28.167969 C 21.980469 28.222656 21.980469 28.25 21.953125 28.277344 C 21.488281 28.605469 21.023438 29.097656 21.1875 29.996094 C 21.214844 30.078125 21.242188 30.132812 21.324219 30.1875 C 21.570312 30.324219 21.761719 30.542969 21.980469 30.789062 C 22.359375 31.195312 22.796875 31.6875 23.480469 31.742188 C 23.453125 31.851562 23.398438 31.933594 23.371094 32.015625 C 23.234375 32.015625 23.097656 32.015625 22.988281 32.015625 C 16.277344 32.015625 10.824219 26.558594 10.824219 19.851562 C 10.878906 15.597656 13.0625 11.859375 16.386719 9.679688 Z M 31.632812 27.625 C 31.578125 27.570312 31.523438 27.515625 31.441406 27.515625 C 31.386719 27.515625 31.332031 27.515625 31.277344 27.488281 C 31.140625 27.460938 30.976562 27.460938 30.84375 27.460938 C 30.679688 27.460938 30.542969 27.515625 30.40625 27.542969 C 30.269531 27.570312 30.132812 27.597656 29.996094 27.597656 C 29.859375 27.597656 29.722656 27.625 29.585938 27.652344 C 29.097656 27.734375 28.824219 27.761719 28.523438 27.378906 C 28.46875 27.296875 28.277344 27.050781 27.351562 27.132812 C 26.96875 27.160156 26.722656 27.050781 26.425781 26.75 C 26.207031 26.53125 25.769531 26.53125 25.550781 26.613281 C 25.140625 26.722656 24.816406 26.695312 24.40625 26.558594 C 23.804688 26.34375 23.152344 26.503906 22.578125 27.050781 C 22.496094 27.050781 22.441406 27.050781 22.359375 27.050781 C 22.167969 27.050781 22.03125 27.078125 21.898438 27.023438 C 21.761719 26.96875 21.597656 26.859375 21.542969 26.722656 C 21.515625 26.667969 21.515625 26.558594 21.515625 26.476562 C 21.515625 26.289062 21.515625 26.070312 21.351562 25.90625 C 21.1875 25.714844 20.941406 25.660156 20.695312 25.605469 C 20.886719 25.167969 21.050781 25.140625 21.789062 25.332031 C 21.84375 25.359375 21.898438 25.359375 21.898438 25.359375 C 21.898438 25.46875 21.84375 25.742188 21.816406 25.851562 C 21.789062 25.933594 21.816406 26.015625 21.871094 26.097656 C 21.925781 26.152344 22.007812 26.207031 22.085938 26.207031 L 25.140625 26.070312 C 25.277344 26.070312 25.386719 25.960938 25.414062 25.824219 L 25.441406 25.523438 C 25.441406 25.386719 25.359375 25.25 25.222656 25.222656 L 23.996094 24.976562 L 24.078125 24.515625 C 24.105469 24.40625 24.050781 24.324219 23.996094 24.269531 C 23.914062 24.214844 23.832031 24.1875 23.722656 24.214844 L 23.234375 24.40625 C 23.179688 24.132812 23.070312 23.941406 22.90625 23.777344 C 22.769531 23.640625 22.578125 23.585938 22.359375 23.558594 C 22.277344 23.289062 22.25 23.125 22.277344 23.015625 C 22.332031 22.90625 22.550781 22.742188 22.90625 22.523438 C 23.070312 22.414062 23.261719 22.25 23.289062 22.03125 L 23.289062 22.003906 C 23.453125 21.296875 23.453125 21.296875 23.996094 20.96875 C 24.050781 20.941406 24.105469 20.886719 24.105469 20.804688 C 24.132812 20.722656 24.160156 20.640625 24.160156 20.558594 C 24.160156 20.53125 24.1875 20.480469 24.1875 20.425781 C 24.242188 20.425781 24.324219 20.425781 24.378906 20.425781 C 24.460938 20.425781 24.542969 20.425781 24.625 20.425781 C 24.734375 20.425781 24.816406 20.371094 24.871094 20.289062 C 24.898438 20.234375 25.003906 20.179688 25.113281 20.125 C 25.332031 20.015625 25.632812 19.851562 25.714844 19.496094 C 26.179688 19.523438 26.425781 19.496094 26.558594 19.304688 C 26.722656 19.085938 26.640625 18.84375 26.558594 18.570312 L 26.503906 18.433594 C 26.503906 18.40625 26.476562 18.378906 26.449219 18.351562 L 25.933594 17.695312 C 25.90625 17.667969 25.878906 17.613281 25.851562 17.5625 C 25.769531 17.425781 25.660156 17.234375 25.46875 17.179688 C 25.058594 17.042969 24.871094 16.714844 24.625 16.359375 C 24.570312 16.277344 24.515625 16.195312 24.488281 16.113281 C 24.40625 16.007812 24.433594 15.734375 24.488281 15.433594 C 24.515625 15.296875 24.542969 15.160156 24.542969 15.050781 C 24.898438 15.625 25.386719 16.332031 26.449219 16.277344 C 26.585938 16.277344 26.695312 16.167969 26.695312 16.035156 C 26.695312 16.007812 26.695312 15.980469 26.722656 15.953125 C 26.75 15.84375 26.777344 15.679688 26.722656 15.515625 C 26.503906 14.941406 26.640625 14.371094 26.832031 13.742188 C 26.996094 13.144531 26.640625 12.433594 25.933594 11.914062 C 25.824219 11.832031 25.742188 11.75 25.632812 11.671875 C 25.441406 11.480469 25.222656 11.289062 24.953125 11.207031 C 24.625 11.097656 24.242188 11.179688 23.914062 11.234375 C 23.832031 11.234375 23.75 11.261719 23.695312 11.261719 C 23.558594 11.289062 23.425781 11.34375 23.289062 11.398438 C 23.234375 11.425781 23.152344 11.453125 23.097656 11.480469 C 23.097656 11.480469 23.042969 11.480469 23.015625 11.480469 C 22.933594 11.480469 22.796875 11.453125 22.660156 11.535156 C 22.03125 11.914062 21.324219 11.96875 20.75 11.996094 C 20.507812 11.996094 20.316406 12.160156 20.125 12.324219 C 20.042969 12.378906 19.988281 12.433594 19.933594 12.488281 C 19.632812 12.679688 19.414062 12.679688 19.332031 12.625 C 19.25 12.570312 19.195312 12.40625 19.222656 12.1875 C 19.332031 11.398438 18.925781 11.125 18.515625 10.988281 C 18.625 10.878906 18.625 10.878906 18.734375 10.960938 C 18.789062 10.988281 18.816406 10.988281 18.871094 10.988281 C 19.085938 10.988281 19.25 10.6875 19.332031 10.46875 C 19.386719 10.359375 19.414062 10.25 19.414062 10.171875 C 19.441406 10.117188 19.46875 9.980469 19.46875 9.953125 C 19.6875 9.84375 19.988281 9.789062 20.289062 9.734375 L 20.398438 9.707031 C 20.535156 9.679688 20.640625 9.679688 20.777344 9.679688 C 20.941406 9.679688 21.132812 9.652344 21.324219 9.625 C 21.542969 9.570312 21.570312 9.351562 21.597656 9.105469 C 22.113281 8.941406 22.523438 9.242188 22.988281 9.816406 C 23.070312 9.898438 23.179688 9.925781 23.289062 9.898438 C 23.480469 9.84375 23.777344 9.734375 23.859375 9.460938 C 23.886719 9.378906 23.886719 9.296875 23.859375 9.242188 L 24.242188 9.214844 C 24.214844 9.269531 24.1875 9.351562 24.214844 9.40625 C 24.242188 9.488281 24.269531 9.542969 24.351562 9.597656 C 25.003906 10.007812 25.714844 10.089844 26.289062 9.898438 C 26.53125 9.816406 26.585938 9.898438 26.722656 10.089844 C 26.722656 10.144531 26.695312 10.25 26.667969 10.304688 C 26.667969 10.332031 26.667969 10.359375 26.640625 10.386719 C 26.613281 10.386719 26.613281 10.386719 26.585938 10.414062 C 26.476562 10.441406 26.425781 10.523438 26.398438 10.605469 C 26.371094 10.714844 26.398438 10.796875 26.476562 10.878906 L 27.050781 11.398438 C 27.625 11.914062 28.195312 12.460938 28.796875 12.980469 C 28.878906 13.0625 28.960938 13.117188 29.070312 13.144531 C 29.015625 13.144531 28.933594 13.167969 28.878906 13.222656 L 28.714844 13.414062 C 28.632812 13.496094 28.632812 13.632812 28.6875 13.742188 L 28.933594 14.097656 C 29.207031 14.480469 29.476562 14.886719 29.75 15.296875 C 29.886719 15.488281 30.1875 15.542969 30.378906 15.515625 C 30.515625 15.488281 31.140625 15.460938 31.332031 15.515625 C 31.359375 15.597656 31.359375 15.679688 31.359375 15.707031 C 31.03125 16.167969 31.085938 16.578125 31.523438 16.960938 C 31.6875 17.097656 31.796875 17.289062 31.933594 17.480469 C 31.988281 17.585938 32.070312 17.667969 32.125 17.777344 C 32.179688 17.832031 32.234375 17.886719 32.316406 17.886719 C 32.367188 17.886719 32.421875 17.886719 32.476562 17.859375 C 32.640625 18.542969 32.613281 19.140625 32.179688 19.742188 C 32.125 19.824219 32.097656 19.90625 32.125 19.988281 C 32.152344 20.070312 32.207031 20.125 32.289062 20.179688 L 32.585938 20.289062 L 32.722656 20.667969 C 32.859375 21.050781 32.96875 21.378906 33.078125 21.734375 C 33.105469 21.84375 33.160156 21.980469 33.160156 22.113281 C 33.160156 22.523438 33.324219 22.878906 33.597656 23.097656 C 33.839844 23.316406 34.167969 23.398438 34.496094 23.34375 C 34.550781 23.34375 34.605469 23.316406 34.660156 23.289062 C 34.058594 25.386719 32.886719 27.269531 31.359375 28.742188 C 31.359375 28.714844 31.386719 28.714844 31.386719 28.6875 C 31.496094 28.496094 31.523438 28.304688 31.550781 28.113281 C 31.550781 28.058594 31.578125 27.976562 31.605469 27.921875 C 31.6875 27.789062 31.6875 27.707031 31.632812 27.625 Z M 17.042969 9.269531 L 18.515625 8.832031 C 18.652344 8.777344 18.734375 8.644531 18.707031 8.507812 C 20.042969 7.988281 21.515625 7.714844 23.015625 7.714844 C 29.722656 7.714844 35.179688 13.167969 35.179688 19.878906 C 35.179688 20.722656 35.097656 21.570312 34.933594 22.359375 C 34.6875 22.632812 34.550781 22.714844 34.46875 22.714844 C 34.277344 22.742188 34.113281 22.714844 34.003906 22.605469 C 33.867188 22.46875 33.761719 22.277344 33.761719 22.03125 C 33.761719 21.84375 33.707031 21.652344 33.652344 21.488281 C 33.542969 21.132812 33.433594 20.777344 33.296875 20.425781 L 33.132812 19.90625 C 33.105469 19.824219 33.023438 19.769531 32.941406 19.714844 L 32.859375 19.6875 C 33.324219 18.871094 33.1875 18.023438 32.941406 17.234375 C 32.914062 17.152344 32.859375 17.070312 32.75 17.042969 C 32.667969 17.015625 32.558594 17.042969 32.503906 17.097656 L 32.449219 17.152344 C 32.449219 17.152344 32.449219 17.125 32.421875 17.125 C 32.289062 16.90625 32.125 16.660156 31.933594 16.496094 C 31.714844 16.304688 31.6875 16.195312 31.878906 15.980469 C 32.042969 15.734375 31.960938 15.351562 31.851562 15.160156 C 31.632812 14.75 30.296875 14.941406 30.296875 14.941406 C 30.269531 14.941406 30.242188 14.941406 30.214844 14.914062 C 29.941406 14.535156 29.667969 14.152344 29.421875 13.742188 L 29.421875 13.714844 L 30.488281 14.015625 C 30.570312 14.042969 30.679688 14.015625 30.734375 13.960938 C 30.816406 13.90625 30.84375 13.824219 30.84375 13.714844 C 30.761719 12.980469 30.378906 12.597656 29.667969 12.625 C 29.53125 12.625 29.34375 12.542969 29.207031 12.460938 C 28.605469 11.941406 28.03125 11.398438 27.460938 10.878906 L 27.1875 10.605469 C 27.1875 10.578125 27.214844 10.550781 27.214844 10.523438 C 27.214844 10.46875 27.242188 10.386719 27.269531 10.332031 C 27.324219 10.117188 27.378906 9.871094 27.242188 9.679688 C 27.105469 9.460938 26.804688 9.023438 26.179688 9.269531 C 25.824219 9.40625 25.414062 9.351562 24.976562 9.160156 C 25.03125 9.105469 25.085938 9.023438 25.167969 8.941406 C 25.222656 8.859375 25.25 8.726562 25.195312 8.644531 C 25.140625 8.535156 25.03125 8.480469 24.925781 8.507812 L 23.503906 8.671875 C 23.398438 8.671875 23.316406 8.75 23.289062 8.832031 C 23.261719 8.914062 23.261719 9.023438 23.34375 9.105469 C 23.398438 9.160156 23.425781 9.1875 23.425781 9.214844 C 23.425781 9.214844 23.398438 9.214844 23.398438 9.214844 C 22.988281 8.75 22.332031 8.125 21.351562 8.5625 C 21.269531 8.589844 21.214844 8.671875 21.1875 8.777344 C 21.1875 8.832031 21.160156 8.914062 21.160156 8.96875 C 21.160156 8.996094 21.160156 8.996094 21.160156 9.023438 C 21.078125 9.023438 20.96875 9.050781 20.859375 9.050781 C 20.722656 9.050781 20.558594 9.078125 20.398438 9.105469 L 20.289062 9.132812 C 19.933594 9.1875 19.578125 9.242188 19.277344 9.40625 C 19.085938 9.515625 19.007812 9.761719 18.980469 9.953125 C 18.953125 10.035156 18.953125 10.117188 18.925781 10.171875 C 18.898438 10.199219 18.871094 10.25 18.84375 10.304688 C 18.460938 10.199219 18.242188 10.46875 18.105469 10.632812 C 18.050781 10.714844 17.996094 10.769531 17.941406 10.796875 C 17.859375 10.851562 17.804688 10.960938 17.804688 11.070312 C 17.804688 11.179688 17.886719 11.261719 17.996094 11.316406 C 18.050781 11.34375 18.132812 11.371094 18.1875 11.371094 C 18.652344 11.535156 18.84375 11.589844 18.761719 12.078125 C 18.679688 12.679688 18.953125 12.953125 19.113281 13.035156 C 19.414062 13.222656 19.851562 13.167969 20.316406 12.898438 C 20.398438 12.84375 20.480469 12.761719 20.558594 12.707031 C 20.640625 12.625 20.777344 12.515625 20.832031 12.515625 C 21.488281 12.488281 22.25 12.40625 22.988281 11.996094 C 23.015625 11.996094 23.015625 11.996094 23.042969 11.996094 C 23.125 11.996094 23.207031 11.996094 23.289062 11.96875 C 23.398438 11.941406 23.480469 11.914062 23.558594 11.859375 C 23.640625 11.832031 23.75 11.777344 23.804688 11.777344 C 23.886719 11.777344 23.96875 11.75 24.050781 11.75 C 24.324219 11.695312 24.625 11.644531 24.84375 11.722656 C 25.003906 11.777344 25.140625 11.914062 25.304688 12.078125 C 25.414062 12.1875 25.523438 12.296875 25.660156 12.378906 C 26.179688 12.734375 26.476562 13.25 26.371094 13.605469 C 26.179688 14.289062 26.015625 14.96875 26.261719 15.707031 C 26.261719 15.707031 26.261719 15.734375 26.261719 15.734375 C 25.632812 15.679688 25.332031 15.242188 24.976562 14.640625 C 24.898438 14.507812 24.84375 14.371094 24.761719 14.261719 C 24.433594 13.632812 24.050781 12.871094 22.878906 12.898438 C 22.796875 12.898438 22.714844 12.953125 22.660156 13.007812 C 22.605469 13.089844 22.605469 13.167969 22.632812 13.25 C 22.660156 13.304688 22.660156 13.359375 22.6875 13.414062 C 22.742188 13.550781 22.769531 13.714844 22.878906 13.851562 C 23.152344 14.179688 23.480469 14.589844 23.886719 14.886719 C 24.050781 15.023438 24.078125 15.078125 24.023438 15.296875 C 23.96875 15.460938 23.832031 16.0625 24.078125 16.414062 C 24.132812 16.496094 24.160156 16.550781 24.214844 16.632812 C 24.460938 17.042969 24.761719 17.507812 25.332031 17.695312 C 25.359375 17.722656 25.414062 17.804688 25.441406 17.859375 C 25.46875 17.914062 25.523438 17.996094 25.578125 18.050781 L 26.070312 18.679688 L 26.097656 18.789062 C 26.125 18.871094 26.152344 18.953125 26.152344 19.007812 C 26.070312 19.007812 25.90625 19.007812 25.550781 18.980469 C 25.46875 18.980469 25.386719 19.007812 25.332031 19.058594 C 25.277344 19.113281 25.25 19.195312 25.25 19.277344 C 25.25 19.496094 25.140625 19.578125 24.898438 19.714844 C 24.789062 19.769531 24.652344 19.851562 24.542969 19.960938 C 24.515625 19.960938 24.488281 19.960938 24.460938 19.960938 C 24.269531 19.933594 24.078125 19.933594 23.914062 20.015625 C 23.75 20.125 23.695312 20.316406 23.667969 20.507812 C 23.667969 20.53125 23.640625 20.585938 23.640625 20.613281 C 22.988281 20.996094 22.960938 21.105469 22.769531 21.953125 L 22.769531 21.980469 C 22.769531 22.003906 22.714844 22.058594 22.605469 22.140625 C 21.652344 22.769531 21.597656 22.878906 21.898438 23.96875 C 21.925781 24.105469 22.058594 24.1875 22.195312 24.160156 C 22.359375 24.132812 22.496094 24.160156 22.550781 24.214844 C 22.660156 24.296875 22.714844 24.515625 22.714844 24.789062 C 22.714844 24.871094 22.769531 24.949219 22.824219 25.003906 C 22.90625 25.058594 22.988281 25.058594 23.070312 25.03125 L 23.480469 24.898438 L 23.425781 25.140625 C 23.398438 25.277344 23.503906 25.414062 23.640625 25.46875 L 24.160156 25.578125 L 22.441406 25.660156 C 22.496094 25.222656 22.441406 24.976562 21.953125 24.84375 C 20.832031 24.542969 20.453125 24.734375 20.097656 25.742188 C 20.070312 25.824219 20.070312 25.878906 20.097656 25.960938 C 20.125 26.015625 20.179688 26.070312 20.261719 26.097656 C 20.371094 26.125 20.453125 26.152344 20.558594 26.179688 C 20.722656 26.207031 20.886719 26.261719 20.941406 26.316406 C 20.96875 26.34375 20.96875 26.449219 20.96875 26.53125 C 20.96875 26.695312 20.96875 26.859375 21.050781 27.023438 C 21.160156 27.269531 21.460938 27.515625 21.734375 27.597656 C 21.953125 27.652344 22.140625 27.652344 22.386719 27.652344 C 22.46875 27.652344 22.578125 27.652344 22.6875 27.652344 C 22.769531 27.652344 22.824219 27.625 22.878906 27.570312 C 23.070312 27.351562 23.613281 26.914062 24.214844 27.132812 C 24.734375 27.324219 25.167969 27.351562 25.6875 27.214844 C 25.824219 27.1875 25.988281 27.1875 26.042969 27.214844 C 26.449219 27.625 26.886719 27.789062 27.433594 27.734375 C 27.898438 27.679688 28.085938 27.761719 28.113281 27.761719 C 28.605469 28.414062 29.207031 28.332031 29.695312 28.25 C 29.832031 28.222656 29.941406 28.222656 30.050781 28.195312 C 30.214844 28.195312 30.378906 28.140625 30.515625 28.113281 C 30.652344 28.085938 30.761719 28.058594 30.894531 28.058594 C 30.949219 28.058594 31.03125 28.058594 31.113281 28.058594 C 31.085938 28.195312 31.058594 28.304688 31.003906 28.386719 C 30.921875 28.496094 30.84375 28.632812 30.734375 28.742188 C 30.570312 28.933594 30.40625 29.125 30.296875 29.367188 C 30.214844 29.558594 30.132812 29.722656 30.023438 29.886719 C 29.640625 30.160156 29.261719 30.40625 28.851562 30.625 C 28.6875 30.707031 28.523438 30.789062 28.386719 30.867188 C 28.359375 30.894531 28.304688 30.894531 28.277344 30.921875 C 27.816406 31.140625 27.351562 31.332031 26.859375 31.496094 C 26.777344 31.523438 26.695312 31.550781 26.613281 31.578125 C 26.476562 31.605469 26.34375 31.660156 26.234375 31.6875 C 26.125 31.714844 26.042969 31.742188 25.933594 31.769531 C 25.824219 31.796875 25.6875 31.824219 25.578125 31.851562 C 25.386719 31.878906 25.222656 31.933594 25.03125 31.960938 C 24.925781 31.988281 24.789062 31.988281 24.679688 32.015625 C 24.542969 32.042969 24.378906 32.042969 24.242188 32.070312 C 24.1875 32.070312 24.160156 32.070312 24.105469 32.070312 C 24.160156 31.933594 24.1875 31.796875 24.214844 31.605469 C 24.242188 31.523438 24.214844 31.441406 24.160156 31.359375 C 24.105469 31.304688 24.023438 31.277344 23.96875 31.277344 C 23.96875 31.277344 23.941406 31.277344 23.941406 31.277344 C 23.289062 31.332031 22.933594 30.949219 22.523438 30.488281 C 22.304688 30.269531 22.113281 30.023438 21.84375 29.859375 C 21.789062 29.421875 21.980469 29.125 22.414062 28.769531 C 22.632812 28.605469 22.660156 28.25 22.632812 28.058594 C 22.578125 27.707031 22.007812 27.679688 22.007812 27.679688 C 21.515625 27.652344 21.160156 27.378906 20.75 26.996094 C 20.667969 26.914062 20.585938 26.832031 20.507812 26.75 C 20.015625 26.289062 19.523438 25.824219 18.925781 25.605469 C 18.214844 25.359375 17.722656 24.898438 17.179688 24.351562 C 17.125 24.296875 17.070312 24.078125 17.070312 24.023438 C 17.042969 23.859375 17.042969 23.695312 17.015625 23.503906 C 17.015625 23.425781 17.015625 23.34375 16.988281 23.261719 C 16.988281 23.179688 16.933594 23.097656 16.878906 23.070312 C 16.796875 23.015625 16.714844 23.015625 16.632812 23.042969 L 16.332031 23.152344 C 16.007812 22.332031 15.734375 21.570312 15.898438 20.722656 C 15.925781 20.585938 15.871094 20.453125 15.816406 20.34375 C 15.460938 19.550781 15.570312 18.789062 16.140625 18.023438 C 16.46875 17.585938 16.742188 17.097656 16.632812 16.414062 C 16.550781 15.953125 16.632812 15.488281 16.933594 15.078125 C 17.070312 14.859375 17.179688 14.617188 17.261719 14.371094 C 17.34375 14.015625 17.316406 13.742188 17.179688 13.550781 C 17.015625 13.332031 16.769531 13.222656 16.386719 13.195312 C 16.332031 13.195312 16.25 13.167969 16.222656 13.117188 C 16.167969 13.0625 16.117188 13.007812 16.0625 12.953125 C 16.140625 12.980469 16.25 12.953125 16.304688 12.898438 C 16.496094 12.707031 16.578125 12.460938 16.632812 12.269531 C 16.742188 11.914062 16.742188 11.914062 16.960938 11.96875 C 17.070312 11.996094 17.207031 11.941406 17.261719 11.859375 L 17.667969 11.152344 C 17.722656 11.070312 17.722656 10.960938 17.667969 10.878906 L 17.289062 10.222656 C 17.34375 10.171875 17.34375 10.117188 17.371094 10.0625 C 17.371094 9.980469 17.34375 9.898438 17.289062 9.84375 L 16.933594 9.515625 C 16.933594 9.351562 16.988281 9.324219 17.042969 9.269531 Z M 29.640625 13.222656 C 29.667969 13.222656 29.695312 13.222656 29.695312 13.222656 C 29.914062 13.222656 30.078125 13.25 30.1875 13.386719 Z M 24.296875 14.535156 C 24.269531 14.507812 24.269531 14.507812 24.242188 14.480469 C 23.886719 14.207031 23.585938 13.824219 23.316406 13.523438 C 23.316406 13.523438 23.289062 13.496094 23.289062 13.496094 C 23.804688 13.605469 24.023438 14.042969 24.296875 14.535156 C 24.269531 14.535156 24.296875 14.535156 24.296875 14.535156 Z M 28.25 32.859375 L 23.859375 32.859375 L 23.859375 32.53125 C 24.023438 32.53125 24.160156 32.503906 24.324219 32.503906 C 24.351562 32.503906 24.351562 32.503906 24.378906 32.503906 C 26.125 32.3125 27.816406 31.796875 29.34375 30.921875 L 30.132812 31.960938 C 29.503906 32.3125 28.878906 32.613281 28.25 32.859375 Z M 30.570312 31.6875 L 29.777344 30.652344 C 29.96875 30.542969 30.160156 30.40625 30.351562 30.269531 C 30.378906 30.269531 30.378906 30.242188 30.40625 30.214844 C 30.40625 30.214844 30.433594 30.1875 30.433594 30.1875 L 31.222656 31.222656 C 31.003906 31.386719 30.789062 31.550781 30.570312 31.6875 Z M 42.078125 8.371094 C 42.078125 8.726562 41.96875 9.132812 41.804688 9.597656 C 41.804688 9.597656 41.804688 9.625 41.804688 9.625 C 40.988281 11.886719 38.613281 15.132812 37.878906 16.089844 C 37.277344 15.296875 35.585938 12.980469 34.550781 10.933594 C 34.550781 10.933594 34.550781 10.933594 34.550781 10.90625 C 34.058594 9.925781 33.707031 8.996094 33.707031 8.34375 C 33.707031 6.023438 35.585938 4.144531 37.90625 4.144531 C 40.195312 4.171875 42.078125 6.050781 42.078125 8.371094 Z M 34.332031 5.234375 C 33.597656 6.078125 33.132812 7.171875 33.132812 8.371094 C 33.132812 9.023438 33.433594 9.871094 33.839844 10.796875 L 31.90625 10.796875 C 29.613281 8.5625 26.476562 7.171875 23.015625 7.171875 C 21.378906 7.171875 19.769531 7.46875 18.269531 8.097656 C 18.269531 8.097656 18.242188 8.125 18.242188 8.125 C 17.75 8.316406 17.289062 8.5625 16.851562 8.804688 C 16.851562 8.804688 16.824219 8.804688 16.824219 8.804688 C 16.632812 8.914062 16.46875 9.023438 16.304688 9.132812 C 16.304688 9.132812 16.277344 9.160156 16.277344 9.160156 C 16.0625 9.296875 15.84375 9.460938 15.625 9.597656 L 14.804688 8.535156 C 15.023438 8.289062 15.105469 7.933594 15.050781 7.605469 C 18.570312 5.207031 22.714844 3.953125 26.996094 3.953125 C 29.503906 3.953125 31.988281 4.386719 34.332031 5.234375 Z M 13.578125 7.332031 C 13.6875 7.253906 13.796875 7.226562 13.90625 7.226562 C 14.070312 7.226562 14.261719 7.304688 14.371094 7.441406 C 14.5625 7.6875 14.507812 8.042969 14.261719 8.234375 C 14.261719 8.234375 14.261719 8.234375 14.234375 8.234375 C 13.878906 8.507812 13.523438 8.777344 13.195312 9.078125 C 7.742188 14.125 6.84375 22.578125 11.398438 28.632812 C 15.433594 33.976562 22.46875 35.75 28.414062 33.40625 C 28.414062 33.40625 28.414062 33.40625 28.441406 33.40625 C 29.613281 32.941406 30.761719 32.3125 31.824219 31.523438 C 31.933594 31.441406 32.097656 31.386719 32.234375 31.414062 C 32.367188 31.441406 32.503906 31.523438 32.613281 31.632812 C 32.695312 31.742188 32.75 31.90625 32.722656 32.042969 C 32.695312 32.179688 32.613281 32.3125 32.503906 32.421875 C 30.050781 34.277344 27.1875 35.3125 24.214844 35.53125 C 23.125 35.613281 22.007812 35.585938 20.914062 35.421875 C 16.769531 34.851562 13.089844 32.667969 10.578125 29.34375 C 5.289062 22.414062 6.679688 12.542969 13.578125 7.332031 Z M 5.453125 25.496094 C 5.453125 22.769531 5.96875 20.042969 6.980469 17.535156 C 6.378906 21.679688 7.359375 26.042969 10.0625 29.640625 C 12.679688 33.105469 16.46875 35.339844 20.777344 35.941406 C 21.050781 35.96875 21.351562 36.023438 21.625 36.023438 L 21.625 38.558594 L 19.386719 38.558594 C 18.105469 38.558594 17.015625 39.542969 16.878906 40.796875 L 11.886719 40.796875 C 7.90625 36.921875 5.453125 31.496094 5.453125 25.496094 Z M 12.460938 41.367188 L 41.53125 41.367188 C 37.714844 44.886719 32.585938 47.039062 26.996094 47.039062 C 21.40625 47.039062 16.277344 44.886719 12.460938 41.367188 Z M 12.460938 41.367188 " fill-opacity="1" fill-rule="nonzero"/></g><path fill="#78292a" d="M 26.371094 43.03125 C 26.371094 42.867188 26.261719 42.757812 26.097656 42.757812 L 19.496094 42.757812 C 19.332031 42.757812 19.222656 42.867188 19.222656 43.03125 C 19.222656 43.195312 19.332031 43.304688 19.496094 43.304688 L 26.097656 43.304688 C 26.234375 43.304688 26.371094 43.167969 26.371094 43.03125 Z M 26.371094 43.03125 " fill-opacity="1" fill-rule="nonzero"/><path fill="#78292a" d="M 28.523438 43.03125 C 28.523438 42.867188 28.414062 42.757812 28.25 42.757812 L 27.160156 42.757812 C 26.996094 42.757812 26.886719 42.867188 26.886719 43.03125 C 26.886719 43.195312 26.996094 43.304688 27.160156 43.304688 L 28.25 43.304688 C 28.386719 43.304688 28.523438 43.167969 28.523438 43.03125 Z M 28.523438 43.03125 " fill-opacity="1" fill-rule="nonzero"/><path fill="#78292a" d="M 29.179688 43.304688 L 29.886719 43.304688 C 30.050781 43.304688 30.160156 43.195312 30.160156 43.03125 C 30.160156 42.867188 30.050781 42.757812 29.886719 42.757812 L 29.179688 42.757812 C 29.015625 42.757812 28.90625 42.867188 28.90625 43.03125 C 28.90625 43.167969 29.015625 43.304688 29.179688 43.304688 Z M 29.179688 43.304688 " fill-opacity="1" fill-rule="nonzero"/><path fill="#78292a" d="M 34.496094 44.09375 L 27.898438 44.09375 C 27.734375 44.09375 27.625 44.203125 27.625 44.367188 C 27.625 44.53125 27.734375 44.640625 27.898438 44.640625 L 34.496094 44.640625 C 34.660156 44.640625 34.769531 44.53125 34.769531 44.367188 C 34.769531 44.203125 34.660156 44.09375 34.496094 44.09375 Z M 34.496094 44.09375 " fill-opacity="1" fill-rule="nonzero"/><path fill="#78292a" d="M 26.832031 44.09375 L 25.742188 44.09375 C 25.578125 44.09375 25.46875 44.203125 25.46875 44.367188 C 25.46875 44.53125 25.578125 44.640625 25.742188 44.640625 L 26.832031 44.640625 C 26.996094 44.640625 27.105469 44.53125 27.105469 44.367188 C 27.105469 44.203125 26.996094 44.09375 26.832031 44.09375 Z M 26.832031 44.09375 " fill-opacity="1" fill-rule="nonzero"/><path fill="#78292a" d="M 24.816406 44.09375 L 24.105469 44.09375 C 23.941406 44.09375 23.832031 44.203125 23.832031 44.367188 C 23.832031 44.53125 23.941406 44.640625 24.105469 44.640625 L 24.816406 44.640625 C 24.976562 44.640625 25.085938 44.53125 25.085938 44.367188 C 25.085938 44.203125 24.976562 44.09375 24.816406 44.09375 Z M 24.816406 44.09375 " fill-opacity="1" fill-rule="nonzero"/><path fill="#78292a" d="M 37.878906 11.179688 C 39.433594 11.179688 40.6875 9.925781 40.6875 8.371094 C 40.6875 6.816406 39.433594 5.5625 37.878906 5.5625 C 36.324219 5.5625 35.070312 6.816406 35.070312 8.371094 C 35.070312 9.925781 36.324219 11.179688 37.878906 11.179688 Z M 37.878906 6.105469 C 39.132812 6.105469 40.140625 7.117188 40.140625 8.371094 C 40.140625 9.625 39.132812 10.632812 37.878906 10.632812 C 36.625 10.632812 35.613281 9.625 35.613281 8.371094 C 35.613281 7.117188 36.625 6.105469 37.878906 6.105469 Z M 37.878906 6.105469 " fill-opacity="1" fill-rule="nonzero"/></svg>